<svg version="1.1" xmlns="http://www.w3.org/2000/svg" xmlns:xlink="http://www.w3.org/1999/xlink" width="116.85834" height="26.99177"><g transform="translate(-140.26798,-48.94341)"><g data-paper-data="{&quot;isPaintingLayer&quot;:true}" fill="#8b2b2b" fill-rule="nonzero" stroke="none" stroke-width="1" stroke-linecap="butt" stroke-linejoin="miter" stroke-miterlimit="10" stroke-dasharray="" stroke-dashoffset="0" font-family="none" font-weight="none" font-size="none" text-anchor="none" style="mix-blend-mode: normal"><path d="M155.18506,71.17277l10.28607,-0.45445c0.82097,-0.03919 1.23098,0.30774 1.23098,1.04031c0,0.71298 -0.36652,1.08428 -1.0991,1.11343l-24.16282,0.99635c-0.78179,0.02915 -1.17221,-0.30775 -1.17221,-1.01116c0,-0.69338 0.36126,-1.05513 1.08476,-1.08428l4.29315,-0.19019v-10.85808c0,-0.39041 0.16629,-0.68383 0.49841,-0.87927c0.20452,-0.11708 0.41432,-0.17585 0.62984,-0.17585c0.26331,0 0.50796,0.08315 0.73256,0.24896c0.26331,0.19544 0.39568,0.46401 0.39568,0.80616v10.75533l4.99608,-0.21981v-17.01203l-8.57196,0.60067c-0.05878,0 -0.1123,0 -0.16152,0c-0.71298,0 -1.06946,-0.3369 -1.06946,-1.01116c0,-0.70342 0.35171,-1.07902 1.05513,-1.12824l18.33095,-1.28929c0.01959,0 0.06355,0 0.13141,0c0.75216,0 1.12824,0.37131 1.12824,1.11343c0,0.65468 -0.36126,1.00639 -1.08476,1.05512l-7.47287,0.51275v6.93097l6.53529,-0.45445c0.83005,-0.05878 1.24532,0.30297 1.24532,1.08428c0,0.62553 -0.35171,0.96243 -1.05512,1.01116l-6.72548,0.43963v8.05969z"/><path d="M174.11716,61.29623l3.32595,-0.57153c0.17585,-0.02915 0.35171,-0.04396 0.52757,-0.04396c0.93758,0 1.40636,0.52756 1.40636,1.58269c0,0.06834 -0.00525,0.14671 -0.01433,0.23464l-0.4836,6.4617c0.52756,0.03919 0.79087,0.33738 0.79087,0.89409c0,0.54716 -0.28338,0.86446 -0.84964,0.95239l-4.27834,0.68861c-0.01959,0.62553 -0.32781,0.93757 -0.92371,0.93757c-0.5959,0 -0.89839,-0.30248 -0.90843,-0.90842l-0.205,-7.28268c-0.55671,1.27017 -1.04032,2.25648 -1.4508,2.9599c-0.23416,0.41048 -0.50797,0.61549 -0.8205,0.61549c-0.15627,0 -0.31252,-0.05352 -0.46879,-0.16104c-0.21504,-0.1467 -0.32256,-0.3369 -0.32256,-0.57153c0,-0.1663 0.18111,-0.61548 0.54238,-1.34805c1.39728,-2.88153 2.44237,-5.95374 3.13623,-9.21661c0.1467,-0.6738 0.26331,-1.32369 0.35123,-1.94922l-2.24167,0.24897c-0.03919,0 -0.07788,0 -0.11707,0c-0.57631,0 -0.86447,-0.3173 -0.86447,-0.95239c0,-0.53712 0.25853,-0.83006 0.77654,-0.87928l8.21977,-0.87928c0.03011,0 0.06882,0 0.11756,0c0.60594,0 0.90794,0.30297 0.90794,0.90843c0,0.55671 -0.27334,0.86447 -0.82049,0.92324l-3.97107,0.42482c-0.33212,2.04145 -0.90412,4.24966 -1.71458,6.62322c0.13715,0.07885 0.2547,0.18111 0.35266,0.30822zM174.29301,62.93771l0.19019,6.72548l2.62253,-0.42483l0.33689,-6.02254c0,-0.04874 0,-0.08793 0,-0.11755c-0.00956,-0.39041 -0.18063,-0.58634 -0.51227,-0.58634c-0.07837,0 -0.1467,0.00478 -0.20548,0.01482zM190.41095,61.64795v2.38885l3.72163,-0.24897l0.1467,-0.01482c0.32256,-0.02915 0.56675,0.0736 0.73257,0.30775c0.09797,0.13667 0.14671,0.29818 0.14671,0.48359c0,0.56675 -0.30249,0.86972 -0.90794,0.90843l-3.83918,0.21982v2.38837l3.92711,-0.24896h0.07311c0.61549,-0.04874 0.92324,0.21982 0.92324,0.80616c0,0.55719 -0.30296,0.85012 -0.90842,0.87927l-4.01456,0.21983v2.78404l5.21639,-0.23464l0.07311,-0.01433c0.24419,-0.01959 0.46401,0.03919 0.65946,0.17585c0.21504,0.15627 0.32256,0.38612 0.32256,0.68861c0,0.60594 -0.31731,0.91799 -0.95239,0.93758l-10.96081,0.43963v0.41001c-0.01004,0.6738 -0.34167,1.01116 -0.99635,1.01116c-0.68383,0 -1.02073,-0.33737 -1.01117,-1.01116l0.08841,-11.41479c-0.79135,1.05513 -1.39203,1.8073 -1.80251,2.25649c-0.23416,0.26378 -0.46831,0.39567 -0.70294,0.39567c-0.1467,0 -0.29818,-0.05878 -0.45445,-0.17585c-0.21456,-0.1663 -0.32208,-0.35648 -0.32208,-0.57152c0,-0.1467 0.03871,-0.28816 0.1166,-0.42531c0.03919,-0.06834 0.35171,-0.49794 0.93805,-1.28929c1.8264,-2.46149 3.39476,-5.2699 4.70412,-8.42525l-2.63782,0.26378c-0.03011,0.84009 -0.10274,1.58747 -0.2203,2.24167c-0.11708,0.66472 -0.45398,0.99635 -1.01069,0.99635c-0.15627,0 -0.31253,-0.03393 -0.46879,-0.10274c-0.39041,-0.18541 -0.58634,-0.50797 -0.58634,-0.9672c0,-0.18541 0.04396,-0.44919 0.13189,-0.79134c0.23416,-0.94713 0.39568,-1.96833 0.48361,-3.06264c0.05878,-0.72301 0.36126,-1.08428 0.90794,-1.08428c0.45923,0 0.71299,0.31253 0.76268,0.93757l3.32595,-0.32208c0.40045,-1.23098 0.71297,-2.34441 0.93757,-3.34076c0.1663,-0.73257 0.51801,-1.09909 1.05561,-1.09909c0.76172,0 1.14258,0.31778 1.14258,0.95239c0,0.36126 -0.30248,1.45558 -0.90794,3.28246l7.09201,-0.67426c0.07789,-0.01004 0.18589,-0.01482 0.32256,-0.01482c0.84009,0 1.26013,0.30296 1.26013,0.90842c0,0.69387 -0.61501,1.74374 -1.846,3.15057c-0.54716,0.62553 -0.97198,0.93757 -1.27495,0.93757c-0.12712,0 -0.25374,-0.05352 -0.38086,-0.16104c-0.15627,-0.11708 -0.23415,-0.28337 -0.23415,-0.49841c0,-0.1467 0.06834,-0.3565 0.205,-0.62984c0.41001,-0.79135 0.61549,-1.30887 0.61549,-1.55306c0,-0.11708 -0.08316,-0.17585 -0.24897,-0.17585c-0.05878,0 -0.14193,0.00477 -0.24896,0.01481l-5.94895,0.57153c-0.78179,1.90477 -1.66107,3.7025 -2.63783,5.39224l3.25332,-0.27859c0.47834,-1.26969 0.80616,-2.39315 0.98154,-3.37039c0.12712,-0.71298 0.48838,-1.06946 1.08476,-1.06946c0.73257,0 1.0991,0.31778 1.0991,0.95239c0,0.43963 -0.41528,1.54351 -1.24533,3.31161l4.27881,-0.38086c0.02963,0 0.07789,0 0.1467,0c0.60546,0 0.90842,0.26904 0.90842,0.80616c0,0.58634 -0.29818,0.89886 -0.89408,0.93757zM188.43307,69.83905l-3.61936,0.19019l-0.02915,2.74008l3.64851,-0.16104zM188.43307,65.8092l-3.59021,0.205l-0.01433,2.40319l3.60454,-0.21982zM188.43307,61.79465l-3.54577,0.24896l-0.03011,2.34442l3.5754,-0.23463v-2.35875z"/><path d="M214.42708,66.95226v2.15374l6.78427,-0.30774c0.6738,-0.02915 1.01116,0.23941 1.01116,0.80616c0,0.5959 -0.30775,0.90842 -0.92324,0.93757l-6.87268,0.30775v1.9927l9.56832,-0.29293c0.72349,-0.01959 1.08476,0.27333 1.08476,0.87927c0,0.63508 -0.33212,0.96196 -0.99635,0.98154l-20.67535,0.6303c-0.03919,0 -0.06356,0 -0.07312,0c-0.66423,0 -0.99635,-0.30296 -0.99635,-0.90842c0,-0.61549 0.32734,-0.9328 0.98201,-0.95239l9.04076,-0.2786v-1.96355l-6.40341,0.29293c-0.03011,0 -0.07359,0 -0.13189,0c-0.58634,0 -0.87928,-0.2786 -0.87928,-0.83531c0,-0.57631 0.3173,-0.87879 0.95239,-0.90842l6.46219,-0.29294v-2.1394l-4.29315,0.24897c0,0.57631 -0.33738,0.86446 -1.01165,0.86446c-0.57583,0 -0.90795,-0.35171 -0.99588,-1.05513l-1.05513,-8.24988c-0.01004,-0.06834 -0.01433,-0.12186 -0.01433,-0.16104c0,-0.61549 0.36127,-0.92324 1.08428,-0.92324c0.50797,0 0.84009,0.21982 0.99635,0.65946l5.28998,-0.38085v-1.77289l-9.99361,0.77654c-0.0884,0.01004 -0.14671,0.01481 -0.17586,0.01481c-0.36126,0.01959 -0.62027,-0.11229 -0.77653,-0.39567c-0.06881,-0.10751 -0.10274,-0.2442 -0.10274,-0.41002c0,-0.58634 0.30822,-0.90364 0.92323,-0.95238l10.12551,-0.80617v-1.91958c-1.04557,0.13667 -2.27656,0.30296 -3.69295,0.49793c-1.3084,0.17585 -2.06105,0.26379 -2.25649,0.26379c-0.54764,0 -0.82097,-0.26379 -0.82097,-0.79135c0,-0.30297 0.15148,-0.51752 0.45445,-0.64464c0.13667,-0.05878 0.55671,-0.13189 1.26013,-0.21982c4.02412,-0.47834 7.68314,-1.23098 10.97468,-2.25648c0.19544,-0.05878 0.37607,-0.08793 0.54237,-0.08793c0.3713,0 0.64942,0.1663 0.83532,0.49794c0.09748,0.18589 0.1467,0.38611 0.1467,0.60067c0,0.42005 -0.23416,0.7082 -0.70342,0.86447c-0.69387,0.21504 -2.09592,0.50797 -4.20522,0.87928l-0.46926,0.07311v2.08063l9.51002,-0.76172c0.06834,-0.01004 0.11708,-0.01482 0.1467,-0.01482c0.62504,0 0.93757,0.2786 0.93757,0.83531c0,0.60594 -0.31253,0.92802 -0.93757,0.96673l-9.65672,0.76219v1.75855l6.12529,-0.43964c0.10751,-0.01004 0.18016,-0.01482 0.21935,-0.01482c1.08476,0 1.62665,0.52279 1.62665,1.56788c0,0.1467 -0.00478,0.2786 -0.01482,0.39567l-0.79087,7.04805c-0.07789,0.72301 -0.40571,1.08427 -0.98202,1.08427c-0.62553,0 -0.95716,-0.29293 -0.99635,-0.87879zM212.36126,61.67709v-1.90477l-5.05583,0.33689l0.20548,1.87562zM212.36126,63.2746l-4.68883,0.26378l0.23416,2.09544l4.45467,-0.24896zM214.42708,61.54568l5.6565,-0.36652l0.10226,-1.23098c0,-0.46879 -0.21934,-0.68861 -0.65897,-0.65946l-5.09979,0.3369zM214.42708,63.15752v2.11026l5.31913,-0.29294l0.19067,-2.12459z"/><path d="M237.06598,63.49442v10.88722c0,0.6738 -0.33689,1.01117 -1.01069,1.01117c-0.6843,0 -1.0255,-0.33737 -1.0255,-1.01117v-10.38929c-2.19819,2.23737 -3.56535,3.35558 -4.10295,3.35558c-0.23416,0 -0.43486,-0.10752 -0.60068,-0.32256c-0.13667,-0.16582 -0.205,-0.34168 -0.205,-0.52757c0,-0.24419 0.1467,-0.49794 0.43963,-0.76219c2.6469,-2.30523 4.84031,-4.77674 6.57926,-7.41457c0.38086,-0.58634 0.57105,-0.94762 0.57105,-1.08428c0,-0.1663 -0.10752,-0.24897 -0.32208,-0.24897c-0.05878,0 -0.11755,0.00478 -0.17633,0.01482l-5.56762,0.99635c-0.07837,0.01004 -0.16152,0.01481 -0.24897,0.01481c-0.63508,0 -0.95239,-0.31253 -0.95239,-0.93757c0,-0.57631 0.30822,-0.90843 0.92324,-0.99635l7.19523,-1.05513c0.1362,-0.01959 0.2977,-0.02915 0.48359,-0.02915c0.92754,0 1.39155,0.36652 1.39155,1.09862c0,0.90843 -1.11342,2.75968 -3.34028,5.55377c1.38677,0.85013 2.50497,1.60229 3.3551,2.25648c0.44919,0.35171 0.6738,0.70819 0.6738,1.06994c0,0.19544 -0.06356,0.3909 -0.19019,0.58634c-0.19544,0.29293 -0.45923,0.43963 -0.79135,0.43963c-0.40045,0 -0.77653,-0.205 -1.12776,-0.61549c-0.38277,-0.44967 -1.03268,-1.07998 -1.95065,-1.89044zM233.79833,49.54455c0.19544,0 0.45922,0.08316 0.79134,0.24897c2.73531,1.31891 4.10296,2.35444 4.10296,3.10613c0,0.19544 -0.06833,0.3909 -0.20548,0.58634c-0.20548,0.29293 -0.47882,0.43964 -0.8205,0.43964c-0.36126,0 -0.76172,-0.20978 -1.20136,-0.62983c-0.59638,-0.54716 -1.52391,-1.29406 -2.78404,-2.24167c-0.3713,-0.28338 -0.55719,-0.55719 -0.55719,-0.8205c0,-0.1467 0.04397,-0.28337 0.13189,-0.41c0.14719,-0.18637 0.32734,-0.27908 0.54238,-0.27908zM246.25343,66.07346c0.69338,0 1.0408,0.35171 1.0408,1.05513c0,0.44919 -0.26903,1.21617 -0.80663,2.30045c-1.32799,2.66697 -3.33552,4.60568 -6.02208,5.81707c-0.27382,0.11708 -0.51323,0.17585 -0.71823,0.17585c-0.47882,0 -0.71823,-0.23942 -0.71823,-0.71776c0,-0.25422 0.0975,-0.46401 0.29294,-0.62982c0.06834,-0.04922 0.32256,-0.20549 0.76219,-0.46879c2.05148,-1.22095 3.57492,-2.88153 4.57175,-4.98175c0.26331,-0.54716 0.47834,-1.1378 0.64464,-1.77288c0.12759,-0.51849 0.44537,-0.7775 0.95286,-0.7775zM252.2024,65.47231l-1.42165,0.10226l-0.17539,6.887v0.205c0,0.31253 0.09223,0.53234 0.27812,0.65946c0.15674,0.11755 0.46879,0.17585 0.93805,0.17585c1.07424,0 1.92437,-0.04397 2.54989,-0.13189c0.47834,-0.06834 0.76649,-0.36126 0.86446,-0.87927c0.08793,-0.50797 0.13667,-1.39202 0.1467,-2.65216c0,-0.69338 0.23416,-1.04031 0.70342,-1.04031c0.44919,0 0.71298,0.26379 0.79135,0.79135c0.16582,1.1918 0.24897,2.31526 0.24897,3.37039c0,0.92801 -0.22938,1.54828 -0.68813,1.86128c-0.55671,0.39041 -1.85603,0.58587 -3.89795,0.58587c-1.68974,0 -2.76446,-0.15149 -3.22369,-0.45398c-0.47882,-0.32256 -0.71775,-0.91368 -0.71775,-1.77288v-0.14671l0.19019,-7.31183l-4.10296,0.29293c-0.10751,0.45923 -0.4296,0.68861 -0.96672,0.68861c-0.64511,0 -0.96672,-0.28338 -0.96672,-0.84965v-14.15487c0,-0.58634 0.32686,-0.87928 0.98201,-0.87928c0.43963,0 0.74691,0.19067 0.92324,0.57153l7.48721,-0.60068c0.12712,-0.01004 0.24468,-0.01481 0.35171,-0.01481c0.6542,0 1.10435,0.17585 1.34806,0.52756c0.205,0.29293 0.30774,0.7622 0.30774,1.40684v12.792c0,0.23463 -0.09749,0.43247 -0.29293,0.59351c-0.19497,0.16104 -0.43438,0.2418 -0.71776,0.2418c-0.62648,-0.00048 -0.93948,-0.28863 -0.93948,-0.86494zM252.2024,55.05434v-1.77288c0,-0.50797 -0.20023,-0.7469 -0.60069,-0.71775l-6.90134,0.54238v2.52026zM252.2024,56.7393l-7.50202,0.5419v2.69612l7.50202,-0.57152zM252.2024,61.0616l-7.50202,0.55719v2.71046l7.50202,-0.5419z"/></g></g></svg>