<svg version="1.1" xmlns="http://www.w3.org/2000/svg" xmlns:xlink="http://www.w3.org/1999/xlink" width="113.91374" height="26.99131"><g transform="translate(-424.13192,-48.94339)"><g data-paper-data="{&quot;isPaintingLayer&quot;:true}" fill="#000000" fill-rule="nonzero" stroke="none" stroke-width="1" stroke-linecap="butt" stroke-linejoin="miter" stroke-miterlimit="10" stroke-dasharray="" stroke-dashoffset="0" font-family="none" font-weight="none" font-size="none" text-anchor="none" style="mix-blend-mode: normal"><path d="M447.6654,62.57118l-22.30201,1.08427h-0.08793c-0.76267,0 -1.14354,-0.35171 -1.14354,-1.05512c0,-0.70342 0.36126,-1.07424 1.08476,-1.11343l22.2872,-1.14306h0.05878c0.29293,-0.02915 0.55624,0.03918 0.79135,0.20548c0.27334,0.19544 0.40953,0.47882 0.40953,0.84965c0,0.7426 -0.36557,1.13302 -1.09814,1.17221z"/><path d="M463.84165,51.77188l-4.52778,0.54238c-0.02915,0 -0.08793,0 -0.17538,0c-0.66472,0 -0.99683,-0.31252 -0.99683,-0.93805c0,-0.55671 0.29293,-0.86447 0.87927,-0.92324l5.69999,-0.57152c0.06834,-0.01004 0.13142,-0.01482 0.19019,-0.01482c0.38086,0 0.70819,0.1123 0.98201,0.33737c0.27382,0.22507 0.41049,0.52278 0.41049,0.89361c0,0.52756 -0.38086,1.38724 -1.14353,2.57904c-1.44554,2.25649 -3.49272,4.41023 -6.13962,6.46171c-1.50432,1.16264 -2.93554,2.09067 -4.29316,2.78405c-0.21456,0.10751 -0.41526,0.16104 -0.60115,0.16104c-0.2829,0 -0.50319,-0.12186 -0.65897,-0.36652c-0.08793,-0.13667 -0.13142,-0.26855 -0.13142,-0.39567c0,-0.28338 0.12712,-0.50797 0.38087,-0.67427c0.04874,-0.02915 0.39472,-0.21934 1.03983,-0.57153c1.60276,-0.86924 3.33121,-2.23689 5.18723,-4.10248c1.77862,-1.78721 3.07746,-3.52093 3.89796,-5.2011zM470.26035,60.53452l-0.05878,3.88267l5.46583,-0.38086c0.03919,0 0.06355,0 0.07264,0c0.61597,0 0.9242,0.32255 0.9242,0.96671c0,0.5959 -0.27909,0.91369 -0.83532,0.95239l-5.65602,0.39567l-0.08888,5.06969v0.27859c0,0.52756 0.24897,0.86924 0.74738,1.0255c0.3909,0.12712 1.06516,0.19067 2.02233,0.19067c1.36717,0 2.28564,-0.07837 2.75442,-0.23464c0.46879,-0.15627 0.77653,-0.51275 0.92324,-1.06946c0.15674,-0.61549 0.23989,-1.38247 0.24897,-2.30045c0,-0.57631 0.2203,-0.86445 0.65993,-0.86445c0.43963,0 0.70294,0.26378 0.79039,0.79134c0.17633,0.9672 0.26426,1.9927 0.26426,3.07698c0,1.15261 -0.41048,1.89999 -1.23098,2.24167c-0.69338,0.29293 -2.09067,0.43963 -4.19089,0.43963c-1.78721,0 -3.03779,-0.12232 -3.75124,-0.36652c-0.78227,-0.27334 -1.24055,-0.83531 -1.37769,-1.68496c-0.05878,-0.32208 -0.08315,-0.69816 -0.07264,-1.12824l0.08793,-5.31912l-3.89748,0.27859c-0.43963,2.81368 -1.90955,5.0262 -4.4107,6.63804c-0.98632,0.63508 -2.11025,1.17698 -3.37039,1.62665c-0.22507,0.08793 -0.40954,0.1319 -0.55624,0.1319c-0.34263,0 -0.58156,-0.15627 -0.71871,-0.46879c-0.06834,-0.15627 -0.10274,-0.29818 -0.10274,-0.42482c0,-0.2246 0.10751,-0.41527 0.32303,-0.57154c0.08793,-0.06834 0.49268,-0.259 1.21617,-0.57152c1.77814,-0.79135 3.15009,-1.87563 4.11776,-3.25332c0.62457,-0.90843 1.03505,-1.89474 1.23003,-2.9599l-5.56809,0.39567c-0.05878,0 -0.10752,0 -0.14671,0c-0.29293,0 -0.52278,-0.12711 -0.68765,-0.38086c-0.10847,-0.17585 -0.16152,-0.37083 -0.16152,-0.58634c0,-0.5959 0.29293,-0.91798 0.87927,-0.9672l5.84622,-0.39567v-3.79521l-1.37768,0.11708c-0.23416,0.01959 -0.44442,-0.03392 -0.62983,-0.16104c-0.22507,-0.16582 -0.3369,-0.41957 -0.3369,-0.76172c0,-0.57631 0.28386,-0.88883 0.85013,-0.93757l11.28194,-0.89409c0.05878,-0.01004 0.09318,-0.01482 0.10274,-0.01482c0.26426,-0.01959 0.48361,0.07359 0.65994,0.2786c0.15578,0.17585 0.23416,0.3909 0.23416,0.64465c0,0.58634 -0.28386,0.89886 -0.85013,0.93805zM455.62188,53.25184c0.2829,0 0.90794,0.30297 1.87514,0.90843c0.56675,0.3713 1.08906,0.75264 1.56788,1.14306c0.36126,0.30297 0.54238,0.62982 0.54238,0.98153c0,0.24419 -0.09796,0.47882 -0.29293,0.70342c-0.19497,0.22507 -0.43963,0.33737 -0.73257,0.33737c-0.32208,0 -0.60115,-0.12186 -0.83531,-0.36652c-0.03919,-0.03919 -0.30249,-0.32734 -0.79135,-0.86446c-0.63461,-0.70342 -1.17699,-1.20661 -1.6257,-1.50958c-0.27334,-0.18541 -0.41049,-0.39041 -0.41049,-0.61549c0,-0.15627 0.06835,-0.31253 0.20549,-0.46879c0.14575,-0.16582 0.31156,-0.24896 0.49745,-0.24896zM468.04736,60.71037l-3.86881,0.30775v3.82436l3.81003,-0.26378zM473.71819,56.94431c1.06516,-0.98632 1.94396,-1.91003 2.63782,-2.76923c0.31253,-0.38086 0.63939,-0.57153 0.98201,-0.57153c0.20452,0 0.40045,0.06835 0.58634,0.20501c0.27334,0.19544 0.40953,0.44919 0.40953,0.76219c0,0.7622 -1.11342,1.89043 -3.34028,3.38472c0.09701,0.06881 0.21456,0.15675 0.35171,0.26379c1.17221,0.85968 2.44142,1.60229 3.80907,2.22733c0.85013,0.38086 1.27494,0.71298 1.27494,0.99635c0,0.1663 -0.151,0.31252 -0.45349,0.43963c-0.66472,0.27382 -1.25536,0.41048 -1.77336,0.41048c-0.41048,0 -0.85013,-0.15626 -1.31891,-0.46879c-1.71936,-1.13302 -3.63418,-2.7549 -5.74395,-4.86468c-1.58317,-1.57265 -2.89157,-3.02346 -3.92758,-4.35193c-0.17538,-0.23463 -0.26331,-0.45445 -0.26331,-0.65946c0,-0.205 0.08793,-0.38086 0.26331,-0.52756c0.18589,-0.1467 0.37608,-0.21982 0.57105,-0.21982c0.22507,0 0.43008,0.08793 0.61597,0.26378c0.06834,0.06881 0.30823,0.35171 0.71776,0.85013c0.41048,0.48838 0.96242,1.09909 1.6558,1.83166c0.79135,-0.69338 1.61661,-1.58222 2.4763,-2.66697c0.3909,-0.48838 0.77175,-0.73257 1.14354,-0.73257c0.19497,0 0.38086,0.06355 0.55719,0.19019c0.2829,0.21504 0.42483,0.49364 0.42483,0.83532c0,0.31253 -0.19594,0.6499 -0.58635,1.01116c-0.77175,0.73257 -1.74898,1.55307 -2.93075,2.46149c0.68383,0.6542 1.30363,1.22095 1.86081,1.69929z"/><path d="M490.07125,65.28212l-3.56058,0.41001c-0.01959,0.1467 -0.04397,0.34693 -0.07359,0.60068c-0.33212,2.85238 -0.98201,5.43143 -1.94874,7.73665c-0.21456,0.48838 -0.49842,0.73257 -0.84917,0.73257c-0.1663,0 -0.32304,-0.04923 -0.46927,-0.14671c-0.24467,-0.15627 -0.36604,-0.38611 -0.36604,-0.6886c0,-0.1663 0.09222,-0.49794 0.27812,-0.99635c1.25057,-3.42869 1.8761,-8.68952 1.8761,-15.78153c0,-1.83644 -0.04492,-3.79999 -0.13237,-5.89066c-0.00956,-0.24419 0.0497,-0.43964 0.17634,-0.58634c0.19497,-0.21456 0.45349,-0.32208 0.77653,-0.32208c0.47787,0 0.7861,0.22461 0.92324,0.6738l3.31161,-0.57154c0.19497,-0.03919 0.3713,-0.05878 0.52756,-0.05878c0.94713,0 1.42165,0.60594 1.42165,1.81685v21.27603c0,1.22095 -0.49841,1.83166 -1.49428,1.83166c-0.79135,0 -1.68543,-0.27381 -2.68131,-0.82049c-0.49841,-0.27334 -0.74738,-0.56674 -0.74738,-0.87927c0,-0.4296 0.22507,-0.64465 0.67379,-0.64465c0.1467,0 0.3369,0.02963 0.57105,0.08793c0.54716,0.1467 0.94282,0.21981 1.18702,0.21981c0.40045,0 0.60115,-0.259 0.60115,-0.77653v-7.22247zM490.07125,63.4796v-4.79156l-3.19502,0.38086c-0.02915,1.82688 -0.09797,3.43873 -0.20548,4.83553zM490.07125,56.88601v-3.91229c0,-0.41001 -0.18589,-0.6155 -0.55719,-0.6155c-0.02915,0 -0.06355,0.00477 -0.10274,0.01481l-2.60772,0.43964c0.04874,2.00274 0.07264,3.49703 0.07264,4.48382zM502.84843,56.90035c0.42005,0.81094 0.89887,1.63144 1.43551,2.46149l4.66015,-0.42483c0.03919,0 0.08315,0 0.13141,0c0.59638,0.02963 0.89409,0.32734 0.89409,0.89361c0,0.56675 -0.26903,0.86971 -0.80663,0.90842l-3.69248,0.30775c1.12394,1.50432 2.52552,2.92072 4.2057,4.24918c0.53664,0.43008 0.80569,0.75264 0.80569,0.9672c0,0.1663 -0.15101,0.30298 -0.4535,0.41049c-0.55719,0.19544 -1.0752,0.29293 -1.55307,0.29293c-0.36222,0 -0.7039,-0.17586 -1.0255,-0.52757c-1.46514,-1.62188 -2.80363,-3.37039 -4.01503,-5.24601l-4.95308,0.42483c-1.2888,2.17859 -2.84188,3.98111 -4.6592,5.40706c-0.35171,0.27334 -0.64034,0.41001 -0.86446,0.41001c-0.17633,0 -0.34741,-0.07312 -0.51323,-0.21982c-0.18589,-0.16582 -0.27812,-0.37082 -0.27812,-0.61549c0,-0.21504 0.07741,-0.40571 0.23416,-0.57153c0.03919,-0.04874 0.22937,-0.21504 0.57105,-0.49794c1.07424,-0.92801 2.11981,-2.17333 3.13623,-3.73644l-2.57856,0.23463l-0.16152,0.01482c-0.57583,0.03919 -0.86446,-0.259 -0.86446,-0.89409c0,-0.56675 0.26904,-0.87402 0.80568,-0.92324l3.81003,-0.30774c0.31253,-0.66423 0.6346,-1.53826 0.96672,-2.62301l-3.17877,0.23464c-0.01959,0 -0.05878,0 -0.11755,0c-0.38086,0 -0.6542,-0.15626 -0.82049,-0.46879c-0.05878,-0.12712 -0.08793,-0.26856 -0.08793,-0.42483c0,-0.56675 0.27334,-0.86923 0.82049,-0.90842l3.88266,-0.30775c0.38086,-1.69977 0.64942,-3.4631 0.80664,-5.2895c0.06834,-0.79135 0.42483,-1.18702 1.06946,-1.18702c0.18589,0 0.37035,0.04922 0.55624,0.1467c0.35171,0.17585 0.52804,0.45923 0.52804,0.84964c0,1.01594 -0.27908,2.78405 -0.83531,5.30432l6.05169,-0.4836c0.04874,0 0.09222,0 0.13141,0c0.59542,0 0.89409,0.30775 0.89409,0.92324c0,0.54716 -0.27334,0.84009 -0.82049,0.87928zM500.92884,67.24567c-0.00956,0.04922 -0.03345,0.13189 -0.07264,0.24897c-0.88931,2.95034 -2.54989,5.30957 -4.98224,7.07767c-0.54716,0.40045 -0.94282,0.60067 -1.18702,0.60067c-0.26426,0 -0.47404,-0.09796 -0.62982,-0.29293c-0.11755,-0.1467 -0.17538,-0.30296 -0.17538,-0.46878c0,-0.205 0.08315,-0.39042 0.24896,-0.55672c0.06834,-0.06834 0.37035,-0.32256 0.90795,-0.76219c1.63143,-1.31844 2.86242,-3.17925 3.69247,-5.58292l-2.3296,0.2786c-0.04874,0.01004 -0.11756,0.01482 -0.20549,0.01482c-0.56675,0 -0.84916,-0.34167 -0.84916,-1.0255c0,-0.49794 0.28289,-0.78131 0.84916,-0.84965l3.04831,-0.32256c0.1362,-0.56675 0.27334,-1.33803 0.40954,-2.31526c0.07837,-0.5959 0.42004,-0.89409 1.0255,-0.89409c0.27334,0 0.5032,0.07837 0.68861,0.23464c0.22507,0.18589 0.33689,0.44441 0.33689,0.77653c0,0.18589 -0.07741,0.70342 -0.23416,1.55307l-0.07264,0.41001l2.57857,-0.2786c0.17538,-0.01959 0.33211,-0.02915 0.4683,-0.02915c1.22095,0 1.83214,0.65468 1.83214,1.96356c0,1.50432 -0.2547,3.24805 -0.76267,5.2312c-0.31253,1.24054 -0.66471,2.13415 -1.05465,2.68131c-0.35171,0.49794 -0.79613,0.74739 -1.33373,0.74739c-0.62553,0 -1.50002,-0.28338 -2.62253,-0.84965c-0.86972,-0.44919 -1.30409,-0.83532 -1.30409,-1.15787c0,-0.11708 0.03823,-0.24419 0.1166,-0.38086c0.12712,-0.205 0.30822,-0.30774 0.54238,-0.30774c0.18589,0 0.43486,0.06834 0.74738,0.205c0.60594,0.26378 1.15261,0.39567 1.64099,0.39567c0.43008,0 0.77653,-0.35649 1.04079,-1.06994c0.26331,-0.69338 0.50797,-1.73848 0.73257,-3.13576c0.12712,-0.78131 0.19019,-1.36765 0.19019,-1.75855c0,-0.45875 -0.18111,-0.68861 -0.54238,-0.68861c-0.09797,0 -0.18589,0.00478 -0.26426,0.01482zM494.83318,50.46779c0.25375,0 0.56675,0.19067 0.93805,0.57153c1.27972,1.3581 1.92007,2.33485 1.92007,2.93075c0,0.32256 -0.13237,0.57631 -0.39567,0.76172c-0.23511,0.1663 -0.46496,0.24897 -0.6886,0.24897c-0.43963,0 -0.78657,-0.30296 -1.0408,-0.90842c-0.38086,-0.90843 -0.80091,-1.66537 -1.26013,-2.27082c-0.15674,-0.21504 -0.23416,-0.42483 -0.23416,-0.6303c0,-0.21456 0.08793,-0.39042 0.26331,-0.52757c0.15627,-0.11755 0.32256,-0.17585 0.49794,-0.17585zM501.163,57.04705l-0.92324,0.08793c-0.27334,0.9672 -0.53186,1.78817 -0.77653,2.46197l-0.07264,0.16104l3.0182,-0.26378c-0.57679,-1.0255 -0.97246,-1.79247 -1.18702,-2.30045c-0.00956,-0.03919 -0.02915,-0.08793 -0.05878,-0.1467zM506.20401,49.72041c0.24467,0 0.46831,0.08316 0.67379,0.24897c0.26426,0.20548 0.39567,0.45923 0.39567,0.76172c0,0.35171 -0.32782,0.92324 -0.98201,1.71459c-1.11343,1.3581 -1.94396,2.03666 -2.49112,2.03666c-0.23416,0 -0.42912,-0.09749 -0.58634,-0.29293c-0.12712,-0.15627 -0.19019,-0.32208 -0.19019,-0.49794c0,-0.21504 0.1663,-0.51752 0.49842,-0.90842c0.54716,-0.64464 1.11821,-1.46037 1.71459,-2.44716c0.23416,-0.41001 0.55623,-0.61549 0.9672,-0.61549z"/><path d="M522.55659,70.96729c0.36126,0 0.63939,0.1467 0.83531,0.43963c0.1166,0.17585 0.17538,0.37607 0.17538,0.60067c0,0.3713 -0.19019,0.68861 -0.57105,0.95239c-1.15261,0.83053 -3.0139,1.66536 -5.58338,2.50593c-0.94713,0.31253 -1.54351,0.46879 -1.78722,0.46879c-0.27334,0 -0.48359,-0.10752 -0.62982,-0.32208c-0.11755,-0.1663 -0.17538,-0.33212 -0.17538,-0.49794c0,-0.26378 0.11182,-0.47404 0.3369,-0.6303c0.08793,-0.04922 0.32208,-0.14145 0.70293,-0.2786c2.14944,-0.7426 4.09818,-1.71936 5.84622,-2.93075c0.29293,-0.205 0.57679,-0.30774 0.85013,-0.30774zM526.95295,56.2557l5.46584,-0.41001c0.1663,-0.01004 0.27812,-0.01481 0.33689,-0.01481c1.27972,0 1.92007,0.62553 1.92007,1.87562v12.1034c0,0.61549 -0.35171,0.92323 -1.05561,0.92323c-0.69338,0 -1.03983,-0.30774 -1.03983,-0.92323v-0.23416l-12.25011,0.73257c-0.12712,0.52756 -0.46927,0.79135 -1.0255,0.79135c-0.4014,0 -0.69433,-0.15627 -0.87927,-0.46879c-0.09797,-0.1467 -0.14671,-0.32208 -0.14671,-0.52756v-12.96786c0,-0.63508 0.34168,-0.95239 1.0255,-0.95239c0.4879,0 0.80998,0.18589 0.96672,0.55719l4.13163,-0.30775c1.30935,-1.04509 2.54989,-2.26604 3.7221,-3.66332c0.19497,-0.23416 0.29293,-0.40045 0.29293,-0.49794c0,-0.09748 -0.09319,-0.14145 -0.27812,-0.13189c-0.05878,0 -0.13237,0.00478 -0.2203,0.01482l-4.98223,0.51275c-1.48473,1.29932 -3.21365,2.54463 -5.18723,3.73643c-0.94713,0.57679 -1.55307,0.86494 -1.81637,0.86494c-0.23511,0 -0.42578,-0.1123 -0.572,-0.33737c-0.08793,-0.13667 -0.13141,-0.27335 -0.13141,-0.41002c0,-0.23416 0.10751,-0.4296 0.32303,-0.58634c0.04874,-0.03919 0.27813,-0.18063 0.68766,-0.42482c1.64195,-0.97676 3.22368,-2.19819 4.74808,-3.66333c0.6738,-0.64464 1.22095,-1.24054 1.64099,-1.7877c0.31253,-0.41001 0.66471,-0.6155 1.05561,-0.6155c0.27334,0 0.49841,0.07836 0.67379,0.23463c0.21456,0.18589 0.32208,0.4105 0.32208,0.67428c0,0.15627 -0.03919,0.32208 -0.1166,0.49793l5.15761,-0.49793c0.13715,-0.01004 0.25375,-0.01482 0.35171,-0.01482c0.88835,0 1.33372,0.29819 1.33372,0.89361c0,0.44919 -0.30344,1.00639 -0.9089,1.67062c-1.05513,1.16121 -2.23737,2.2799 -3.54577,3.35414zM520.34359,58.45341v2.18336l12.23577,-0.79134v-1.59703c0,-0.47834 -0.26426,-0.69817 -0.79135,-0.65946zM532.57983,63.80217v-2.30045l-12.23577,0.76219v2.34442zM532.57983,67.89031v-2.46148l-12.23577,0.79134v2.3296zM530.17664,70.61558c0.23416,0 1.04557,0.2786 2.43234,0.83531c2.27656,0.91846 3.86307,1.65102 4.76193,2.19818c0.44967,0.27334 0.67475,0.62027 0.67475,1.04032c0,0.73257 -0.3474,1.09862 -1.04079,1.09862c-0.29293,0 -0.7082,-0.1663 -1.2458,-0.49794c-2.06103,-1.26013 -3.95626,-2.30045 -5.6847,-3.12095c-0.44967,-0.21456 -0.67379,-0.46879 -0.67379,-0.76172c0,-0.11708 0.03823,-0.24896 0.1166,-0.39567c0.13667,-0.26426 0.356,-0.39616 0.65945,-0.39616z"/></g></g></svg>