<svg version="1.1" xmlns="http://www.w3.org/2000/svg" xmlns:xlink="http://www.w3.org/1999/xlink" width="23.749" height="38.108"><g transform="translate(-229.1635,-158.1795)"><g data-paper-data="{&quot;isPaintingLayer&quot;:true}" fill="#000000" fill-rule="nonzero" stroke="#000000" stroke-width="2" stroke-linecap="butt" stroke-linejoin="miter" stroke-miterlimit="10" stroke-dasharray="" stroke-dashoffset="0" font-family="none" font-weight="none" font-size="none" text-anchor="none" style="mix-blend-mode: normal"><path d="M250.0125,187.2635c-0.986,2.534 -2.112,4.364 -3.379,5.49c-1.689,1.689 -3.52,2.534 -5.49,2.534c-1.97,0 -3.801,-0.845 -5.49,-2.534c-1.408,-1.267 -2.604,-3.098 -3.59,-5.49c-1.267,-3.237 -1.9,-6.616 -1.9,-10.136c0,-3.519 0.633,-6.827 1.9,-9.925c0.985,-2.393 2.182,-4.293 3.59,-5.7c1.689,-1.549 3.519,-2.323 5.49,-2.323c1.971,0 3.801,0.774 5.49,2.323c1.408,1.407 2.534,3.308 3.379,5.7c1.267,3.52 1.9,6.828 1.9,9.925c0,3.378 -0.633,6.757 -1.9,10.136zM244.3105,162.1355c-0.985,-0.845 -2.042,-1.267 -3.167,-1.267c-1.126,0 -2.182,0.422 -3.167,1.267c-2.535,2.534 -3.801,7.532 -3.801,14.992c0,7.602 1.267,12.67 3.801,15.203c0.985,0.845 2.041,1.268 3.167,1.268c1.126,0 2.182,-0.423 3.167,-1.268c2.393,-2.393 3.59,-7.46 3.59,-15.203c0,-7.601 -1.197,-12.598 -3.59,-14.992z" data-paper-data="{&quot;origPos&quot;:null}"/></g></g></svg>