<svg version="1.1" xmlns="http://www.w3.org/2000/svg" xmlns:xlink="http://www.w3.org/1999/xlink" width="86.097" height="76.641"><g transform="translate(-228.87451,-157.6795)"><g data-paper-data="{&quot;isPaintingLayer&quot;:true}" fill="none" fill-rule="nonzero" stroke="none" stroke-width="none" stroke-linecap="butt" stroke-linejoin="miter" stroke-miterlimit="10" stroke-dasharray="" stroke-dashoffset="0" font-family="none" font-weight="none" font-size="none" text-anchor="none" style="mix-blend-mode: normal"><path d="M246.76751,167.9705c0,-2.815 -0.704,-4.856 -2.112,-6.124c-1.126,-1.126 -2.675,-1.688 -4.646,-1.688c-1.971,0 -3.59,0.563 -4.856,1.688c-0.845,0.845 -1.267,1.901 -1.267,3.168c0,0.845 0.281,1.549 0.844,2.111c0.422,0.423 0.634,0.985 0.634,1.689c0,1.408 -0.704,2.111 -2.112,2.111c-0.845,0 -1.478,-0.211 -1.9,-0.633c-0.563,-0.562 -0.845,-1.407 -0.845,-2.533c0,-2.534 0.774,-4.575 2.323,-6.124c2.112,-1.971 4.646,-2.956 7.601,-2.956c3.238,0 5.702,0.845 7.391,2.534c1.689,1.689 2.534,3.801 2.534,6.334c0,3.238 -1.619,6.405 -4.857,9.503c-8.164,7.883 -12.598,12.739 -13.303,14.57h12.458c2.534,0 4.153,-1.971 4.857,-5.913h1.267l-1.267,9.08h-19.637v-2.745c1.267,-2.675 4.575,-6.616 9.924,-11.825c4.646,-4.505 6.969,-8.587 6.969,-12.247z" data-paper-data="{&quot;origPos&quot;:null}" fill="#000000" stroke="#000000" stroke-width="2"/><path d="M312.74451,234.3205v0h2.227v0z" fill="none" stroke="none" stroke-width="1"/></g></g></svg>