<svg version="1.1" xmlns="http://www.w3.org/2000/svg" xmlns:xlink="http://www.w3.org/1999/xlink" width="145.80415" height="63.9155"><defs><linearGradient x1="242.78022" y1="156.05299" x2="242.78022" y2="219.353" gradientUnits="userSpaceOnUse" id="color-1"><stop offset="0" stop-color="#414141"/><stop offset="1" stop-color="#414141" stop-opacity="0"/></linearGradient></defs><g transform="translate(-170.02918,-155.4375)"><g data-paper-data="{&quot;isPaintingLayer&quot;:true}" fill="none" fill-rule="nonzero" stroke="none" stroke-width="none" stroke-linecap="butt" stroke-linejoin="miter" stroke-miterlimit="10" stroke-dasharray="" stroke-dashoffset="0" font-family="none" font-weight="none" font-size="none" text-anchor="none" style="mix-blend-mode: normal"><path d="M315.53126,187.703c0,17.47981 -32.57175,31.65 -72.75104,31.65c-40.17929,0 -72.75104,-14.17019 -72.75104,-31.65c0,-17.47981 32.57175,-31.65 72.75104,-31.65c40.17929,0 72.75104,14.17019 72.75104,31.65z" data-paper-data="{&quot;origPos&quot;:null}" fill="url(#color-1)" stroke="none" stroke-width="5"/><g data-paper-data="{&quot;origPos&quot;:null}" fill="#ffffff"><path d="M313.33333,183.9375c0,14.35941 -31.48931,26 -70.33333,26c-38.84402,0 -70.33334,-11.64059 -70.33334,-26c0,-14.35941 31.48931,-26 70.33334,-26c38.84402,0 70.33333,11.64059 70.33333,26z" data-paper-data="{&quot;origPos&quot;:null}" stroke="#b1b1b1" stroke-width="5"/><path d="M288.22222,183.10417c0,9.1127 -19.9836,16.5 -44.63462,16.5c-24.65102,0 -44.63461,-7.3873 -44.63461,-16.5c0,-9.1127 19.9836,-16.5 44.63461,-16.5c24.65102,0 44.63462,7.3873 44.63462,16.5z" data-paper-data="{&quot;origPos&quot;:null}" stroke="#ffd220" stroke-width="2.5"/></g></g></g></svg>