<svg version="1.1" xmlns="http://www.w3.org/2000/svg" xmlns:xlink="http://www.w3.org/1999/xlink" width="407.05654" height="44.57286" viewBox="0,0,407.05654,44.57286"><g transform="translate(79.3078,28.85496)"><g data-paper-data="{&quot;isPaintingLayer&quot;:true}" fill="none" fill-rule="nonzero" stroke="none" stroke-width="1.4173" stroke-linecap="butt" stroke-linejoin="miter" stroke-miterlimit="10" stroke-dasharray="" stroke-dashoffset="0" font-family="none" font-weight="none" font-size="none" text-anchor="none" style="mix-blend-mode: normal"><g data-paper-data="{&quot;origPos&quot;:null}" fill="#ffffff" stroke="#ffffff"><path d="M56.27978,-18.04613l-0.75325,8.62517c-0.04371,0.58715 -0.10054,1.34768 -0.17192,2.27868c1.53417,-1.76001 3.57828,-2.64145 6.13232,-2.64145c2.88331,0 5.13576,0.96159 6.75735,2.88331c1.39139,1.6653 2.08782,3.80119 2.08782,6.41205c0,3.32768 -1.03298,5.95312 -3.09894,7.87484c-1.76583,1.63616 -3.96728,2.4535 -6.60729,2.4535c-2.06596,0 -4.01683,-0.50265 -5.85404,-1.50795c-1.96542,-1.06213 -2.94742,-2.25536 -2.94742,-3.57682c0,-0.48808 0.27391,-0.91205 0.81881,-1.27192c0.48808,-0.33072 1.06795,-0.49536 1.74252,-0.49536c0.41669,0 0.75325,0.17192 1.01113,0.51577c0.27245,0.33072 0.609,0.96742 1.01113,1.91298l0.21417,0.53762c0.71682,1.6653 2.05868,2.49576 4.0241,2.49576c1.92172,0 3.39908,-0.83774 4.43206,-2.51616c0.94702,-1.54874 1.42053,-3.6759 1.42053,-6.38582c0,-2.52199 -0.64542,-4.50781 -1.93775,-5.95602c-1.04756,-1.18887 -2.32385,-1.78476 -3.83034,-1.78476c-2.33841,0 -4.14649,1.06213 -5.42278,3.18491c-0.15736,0.23019 -0.3657,0.34384 -0.62357,0.34384c-0.81881,0 -1.22676,-0.23603 -1.22676,-0.711c0,-0.05683 0.02914,-0.22146 0.08596,-0.49536c0.05828,-0.27245 0.10054,-0.61629 0.12967,-1.03298l1.18451,-13.62981c0,-0.20106 0.09178,-0.39484 0.27974,-0.57987c0.17192,-0.17339 0.32927,-0.25933 0.47351,-0.25933c1.17722,0.02914 3.34954,0.04225 6.52132,0.04225c2.33841,0 4.69139,-0.07139 7.05895,-0.21417c0.25788,0 0.38755,0.12967 0.38755,0.389l-1.05483,2.89059c-0.08451,0.20544 -0.24185,0.3045 -0.47206,0.3045c-2.4535,-0.05683 -4.13192,-0.08596 -5.03669,-0.08596z"/><path d="M81.93674,7.92117c0,2.32821 -1.65073,4.64622 -4.94927,6.95841c-0.08596,0.08741 -0.17192,0.12967 -0.25788,0.12967c-0.17192,0 -0.35112,-0.11511 -0.53762,-0.34384c-0.17192,-0.18795 -0.25788,-0.35258 -0.25788,-0.49536c0,-0.13113 0.07139,-0.24476 0.21417,-0.3453c1.92172,-1.26317 2.88331,-2.46953 2.88331,-3.61907c0,-0.43126 -0.2506,-0.78239 -0.75325,-1.05629c-1.03298,-0.5449 -1.54874,-1.10583 -1.54874,-1.67987c0,-0.76053 0.30742,-1.45695 0.92516,-2.08927c0.5449,-0.54636 1.13351,-0.82026 1.76438,-0.82026c0.63232,0 1.21947,0.36715 1.76438,1.09854c0.5012,0.67603 0.75325,1.42927 0.75325,2.26264z"/><path d="M97.41104,-22.21157c2.88331,0 5.20716,1.49921 6.97153,4.49908c1.69298,2.85708 2.53947,6.67285 2.53947,11.45165c0,5.48251 -1.04027,9.67272 -3.1208,12.57205c-1.69298,2.35299 -3.82305,3.5302 -6.39165,3.5302c-3.15722,0 -5.58888,-1.50649 -7.29497,-4.52094c-1.54874,-2.75656 -2.32385,-6.52278 -2.32385,-11.30158c0,-5.61219 1.06213,-9.86649 3.18491,-12.76583c1.70755,-2.30927 3.85219,-3.46463 6.43537,-3.46463zM97.41104,-20.84638c-3.80119,0 -5.70252,4.9041 -5.70252,14.71377c0,5.53643 0.57405,9.46583 1.72212,11.78822c0.91788,1.8649 2.24516,2.79735 3.9804,2.79735c1.93629,0 3.35682,-1.22676 4.26014,-3.67735c0.88874,-2.39523 1.33457,-6.03178 1.33457,-10.90676c0,-9.80967 -1.86636,-14.71523 -5.5947,-14.71523z"/><path d="M121.30073,-22.21157c2.88331,0 5.20716,1.49921 6.97153,4.49908c1.69298,2.85708 2.53947,6.67285 2.53947,11.45165c0,5.48251 -1.04027,9.67272 -3.1208,12.57205c-1.69298,2.35299 -3.82305,3.5302 -6.39165,3.5302c-3.15722,0 -5.58888,-1.50649 -7.29497,-4.52094c-1.54874,-2.75656 -2.32385,-6.52278 -2.32385,-11.30158c0,-5.61219 1.06213,-9.86649 3.18491,-12.76583c1.70755,-2.30927 3.85364,-3.46463 6.43537,-3.46463zM121.30073,-20.84638c-3.80119,0 -5.70252,4.9041 -5.70252,14.71377c0,5.53643 0.57405,9.46583 1.72212,11.78822c0.91788,1.8649 2.24516,2.79735 3.9804,2.79735c1.93629,0 3.35682,-1.22676 4.26014,-3.67735c0.88874,-2.39523 1.33457,-6.03178 1.33457,-10.90676c0,-9.80967 -1.8649,-14.71523 -5.5947,-14.71523z"/><path d="M145.19185,-22.21157c2.88331,0 5.20861,1.49921 6.97299,4.49908c1.69298,2.85708 2.53947,6.67285 2.53947,11.45165c0,5.48251 -1.04027,9.67272 -3.1208,12.57205c-1.69298,2.35299 -3.82451,3.5302 -6.39165,3.5302c-3.15576,0 -5.58741,-1.50649 -7.29497,-4.52094c-1.54874,-2.75656 -2.32385,-6.52278 -2.32385,-11.30158c0,-5.61219 1.06213,-9.86649 3.18491,-12.76583c1.70755,-2.30927 3.85073,-3.46463 6.4339,-3.46463zM145.19185,-20.84638c-3.80119,0 -5.70252,4.9041 -5.70252,14.71377c0,5.53643 0.57405,9.46583 1.72212,11.78822c0.91788,1.8649 2.24516,2.79735 3.9804,2.79735c1.93775,0 3.35827,-1.22676 4.26159,-3.67735c0.88874,-2.39523 1.33457,-6.03178 1.33457,-10.90676c0,-9.80967 -1.86636,-14.71523 -5.59616,-14.71523z"/><path d="M165.70431,-6.82321v18.87775c0,0.84504 -0.61775,1.26901 -1.85179,1.26901c-0.81881,0 -1.22676,-0.3657 -1.22676,-1.09708l0.21417,-20.89563c0,-9.11033 -0.07139,-14.48795 -0.21417,-16.13868c1.39139,0.60318 2.56133,1.17867 3.50689,1.72503h26.04013c0.96159,-1.03443 1.54146,-1.55167 1.74252,-1.55167c0.20106,0 0.86106,0.45894 1.97999,1.37682c0.44437,0.34384 0.66728,0.66728 0.66728,0.96887c0,0.31615 -0.38026,0.72411 -1.14079,1.22676v10.58768l0.21563,19.83935c0,1.42053 -0.63086,2.44623 -1.89404,3.07708c-0.64542,0.39046 -1.36371,0.58569 -2.15192,0.58569c-0.34384,0 -0.56676,-0.26662 -0.66728,-0.79696c-0.07139,-0.60172 -0.42398,-1.06795 -1.05483,-1.39867c-0.67456,-0.3584 -1.90862,-0.73139 -3.70212,-1.11893c-0.11511,-0.02914 -0.17192,-0.12967 -0.17192,-0.30159c0,-0.21417 0.07139,-0.32345 0.21563,-0.32345c2.36755,0.18649 4.18874,0.27974 5.46503,0.27974c0.58862,0 0.88291,-0.27974 0.88291,-0.84066v-15.35192h-26.85456zM165.70431,-7.91885h11.77073v-14.06397h-11.77073zM192.56033,-7.91885v-14.06397h-12.30981v14.06397z"/><path d="M232.57267,-12.46308c-5.86715,0.23019 -11.29721,0.70954 -16.2902,1.44238c-0.67456,0.09908 -1.17722,0.2506 -1.50649,0.45165c-0.20106,0.11511 -0.43855,0.17192 -0.711,0.17192c-0.81736,0 -1.80079,-0.63232 -2.94742,-1.89404c-0.64542,-0.68914 -0.96887,-1.36371 -0.96887,-2.0237c0,-0.47206 0.11364,-0.70954 0.34384,-0.70954c0.11364,0 0.33655,0.16463 0.66728,0.49536c0.81736,0.81881 1.87947,1.22676 3.18491,1.22676c1.13351,0 2.36755,-0.05683 3.70212,-0.17192c6.24013,-0.50411 10.50173,-0.82755 12.78185,-0.97179c0.71682,-0.05683 1.21219,-0.22291 1.48464,-0.49681c0.47351,-0.47497 0.86835,-0.71245 1.18451,-0.71245c0.44437,0 1.06795,0.39484 1.87218,1.18451c0.93391,0.94702 1.39867,1.65947 1.39867,2.13153c0,0.27391 -0.27974,0.55364 -0.83922,0.84066c-0.41669,0.17192 -0.65272,0.44583 -0.70954,0.81881c-0.18649,0.86251 -0.60318,2.76968 -1.24861,5.72875c-0.45894,2.13881 -0.83192,3.84781 -1.11893,5.12556c1.40596,0.5012 2.10821,1.07522 2.10821,1.72212c0,0.6469 -0.27974,0.96887 -0.83922,0.96887l-2.81921,-0.12967c-1.42199,0 -3.0494,0.07285 -4.88662,0.21563c-3.17034,0.25788 -6.5053,0.59444 -10.00636,1.01113c-0.61629,0.07285 -1.06213,0.19377 -1.33457,0.3657c-0.31615,0.20252 -0.66728,0.30159 -1.05483,0.30159c-0.47351,0 -1.29087,-0.5449 -2.4535,-1.63616c-0.4298,-0.38755 -0.78966,-0.86688 -1.07522,-1.44093c-0.25933,-0.48808 -0.38755,-0.88146 -0.38755,-1.18451c0,-0.38755 0.17921,-0.57987 0.53906,-0.57987c0.14279,0 0.38755,0.17921 0.73139,0.53762c1.10437,0.96159 2.13735,1.44093 3.09894,1.44093c0.47351,0 1.72212,-0.08596 3.74437,-0.25788c3.7298,-0.34384 7.81072,-0.72411 12.24424,-1.14079c0.89166,-4.46411 1.59536,-8.74172 2.11112,-12.83139z"/><path d="M283.92589,-5.72759c0,0.67456 -0.50265,1.01113 -1.50649,1.01113l-6.06821,-0.17192c-5.28,0 -11.34821,0.28119 -18.2061,0.84504c-1.19033,0.09908 -1.97999,0.29577 -2.36755,0.58278c-0.33072,0.23166 -0.80278,0.34675 -1.42053,0.34675c-0.81881,0 -1.7294,-0.74158 -2.73325,-2.22332c-0.70225,-1.02133 -1.05483,-1.85616 -1.05483,-2.50451c0,-0.47497 0.11511,-0.71245 0.34384,-0.71245c0.24331,0 0.50993,0.19523 0.79696,0.58278c0.90331,1.12331 1.87218,1.68278 2.90517,1.68278c1.47736,0 3.50834,-0.08741 6.09007,-0.25788c6.52716,-0.41669 11.79988,-0.65272 15.81669,-0.711c1.00385,0 1.76438,-0.15152 2.28014,-0.45165c0.41669,-0.22874 0.86106,-0.34384 1.33457,-0.34384c0.40066,0 0.96013,0.14424 1.67696,0.4298c1.40888,0.6192 2.11258,1.25007 2.11258,1.8955z"/><path d="M313.95519,-5.05885c4.76423,1.93629 8.43431,4.2106 11.01894,6.82146c1.37682,1.44822 2.06596,2.6094 2.06596,3.48504c0,1.08979 -0.42398,1.6347 -1.26901,1.6347c-0.68914,0 -1.30543,-0.39484 -1.85179,-1.18451c-3.31165,-4.56026 -6.97153,-7.79471 -10.97523,-9.70186c-4.79193,5.14888 -10.34437,9.05788 -16.65589,11.72557c-0.51577,0.23019 -0.91059,0.34384 -1.18451,0.34384c-0.3584,0 -0.53762,-0.15152 -0.53762,-0.45312c0,-0.24331 0.11364,-0.4298 0.34384,-0.55947c5.99536,-3.28543 10.89073,-6.94384 14.67735,-10.97523c3.17034,-3.35682 5.83073,-6.95112 7.98264,-10.78145c0.14569,-0.25788 0.21563,-0.42251 0.21563,-0.49536c0,-0.05683 -0.07139,-0.08596 -0.21563,-0.08596c-2.0237,0 -6.06092,0.55947 -12.11311,1.67696c-0.68914,0.12967 -1.19179,0.2943 -1.50795,0.49536c-0.3584,0.20252 -0.72265,0.30159 -1.09563,0.30159c-0.83338,0 -1.8445,-0.61629 -3.0363,-1.84888c-0.73139,-0.7445 -1.09563,-1.52544 -1.09563,-2.34133c0,-0.44437 0.12821,-0.66583 0.38755,-0.66583c0.1559,0 0.34968,0.12238 0.57987,0.3657c1.11893,1.11457 2.22186,1.67113 3.31457,1.67113c0.1996,0 1.31125,-0.08741 3.33497,-0.25788l10.09378,-1.05046c0.73139,-0.10054 1.30397,-0.34968 1.72212,-0.75178c0.31325,-0.33072 0.58569,-0.49536 0.81736,-0.49536c0.47206,0 1.19762,0.33655 2.17377,1.01113c0.81736,0.60172 1.22676,1.16119 1.22676,1.67696c0,0.34384 -0.36715,0.66728 -1.09854,0.96742c-0.57549,0.21563 -1.03298,0.61047 -1.37682,1.18451c-1.5371,2.54384 -3.51709,5.30476 -5.94146,8.28716z"/></g><g fill="#3774bb" stroke="#1f71b9"><path d="M-65.1544,-4.68293c3.98768,-2.35299 7.48146,-3.5302 10.47987,-3.5302c2.32385,0 4.25285,0.62503 5.78848,1.87073c1.46424,1.2049 2.19563,2.73908 2.19563,4.60251c0,2.16504 -0.86106,3.86383 -2.58172,5.09788c-1.39139,0.99073 -3.05669,1.48464 -4.99297,1.48464c-2.88331,0 -5.45921,-1.10437 -7.72623,-3.31311c-0.14424,-0.14424 -0.21417,-0.35112 -0.21417,-0.62503c0,-0.22874 0.12967,-0.34384 0.38755,-0.34384c0.14424,0 0.32345,0.08741 0.53762,0.25788c1.72212,1.39285 3.79391,2.08927 6.21973,2.08927c1.66384,0 3.05523,-0.53762 4.17563,-1.61285c1.00385,-0.98928 1.50649,-2.2 1.50649,-3.63364c0,-1.40596 -0.67456,-2.55258 -2.02225,-3.43987c-1.09126,-0.70225 -2.29617,-1.05483 -3.6147,-1.05483c-1.50649,0 -3.22132,0.44583 -5.14305,1.33312c-1.30543,0.60318 -2.95616,1.53563 -4.94927,2.79735c0,0.73139 0.02914,1.64199 0.08596,2.73179c0.07139,1.42053 0.11511,2.30927 0.12821,2.66768l0.08741,1.74252c0,1.00385 -0.14424,1.85616 -0.43126,2.55986c-0.33072,0.94557 -0.77363,1.42053 -1.33457,1.42053c-0.47351,0 -0.83922,-0.26662 -1.09708,-0.79696c-0.30159,-0.6294 -0.75907,-1.21509 -1.37682,-1.76001c-0.93245,-0.81443 -2.28014,-1.80954 -4.0445,-2.98675c-0.64542,0.57405 -1.04027,0.92516 -1.18451,1.05483c-0.47351,0.47351 -0.99073,0.70954 -1.54874,0.70954c-0.63232,0 -1.29232,-0.45894 -1.97999,-1.37682c-0.53034,-0.71682 -0.7955,-1.31855 -0.7955,-1.80808c0,-0.90331 0.19377,-1.35497 0.57987,-1.35497c0.14424,0 0.31615,0.19377 0.51577,0.57987c0.37298,0.70225 0.80278,1.05483 1.29087,1.05483c0.38755,0 0.76781,-0.11511 1.14079,-0.34384c1.39139,-0.81881 2.92701,-1.76438 4.60544,-2.8396c1.93629,-1.21947 3.09166,-1.94357 3.46463,-2.17377v-9.33762c-2.30927,0.47351 -3.88716,0.70954 -4.7351,0.70954c-1.72212,0 -3.05523,-0.76636 -4.00371,-2.30199c-0.38755,-0.61775 -0.57987,-1.06795 -0.57987,-1.35642c0,-0.33072 0.15152,-0.49536 0.45165,-0.49536c0.14279,0 0.30159,0.11511 0.47351,0.34384c0.5449,0.70225 1.0694,1.17722 1.57205,1.42053c0.45894,0.21563 1.04027,0.32345 1.74252,0.32345c1.29087,0 3.01298,-0.25205 5.1649,-0.75325c0.05828,-1.88093 0.08596,-3.32332 0.08596,-4.32862c0,-1.2763 -0.10054,-2.0514 -0.30159,-2.3253c-0.41523,-0.57405 -1.09708,-0.91788 -2.04411,-1.03298c-0.28702,-0.02914 -0.4298,-0.15736 -0.4298,-0.38755c0,-0.27391 0.20106,-0.50993 0.60318,-0.711c0.32927,-0.17046 0.68768,-0.25788 1.07669,-0.25788c0.67311,0 1.56331,0.26662 2.66768,0.7955c1.14808,0.51722 1.72212,1.10583 1.72212,1.76438c0,0.37443 -0.14424,0.711 -0.4298,1.01257c-0.43126,0.37298 -0.68185,1.07522 -0.75471,2.10821c-0.09908,0.85961 -0.17192,1.78623 -0.21417,2.77404c1.49192,-0.45748 2.61814,-0.98928 3.37867,-1.59245c0.34384,-0.27245 0.81007,-0.53762 1.39867,-0.7955c0.58715,-0.25933 1.07522,-0.38755 1.46279,-0.38755c1.03298,0 1.54874,0.39484 1.54874,1.18305c0,0.5449 -0.35112,0.97616 -1.05483,1.29232c-1.90862,0.84649 -4.2106,1.70027 -6.90741,2.55986c-0.02914,1.17722 -0.04225,2.62689 -0.04225,4.3461c-0.00437,1.93629 -0.00437,3.39325 -0.00437,4.3694zM-67.09216,-1.54612c-0.55947,0.38755 -2.28159,1.62159 -5.1649,3.70212c1.07669,0.68914 2.30927,1.33312 3.70212,1.93629c0.47351,0.20106 0.84649,0.30012 1.11893,0.30012c0.23019,0 0.34384,-0.33511 0.34384,-1.00967c0,-2.0237 0,-3.66569 0,-4.92887zM-49.50964,-16.60519c1.76438,0 3.4792,0.61775 5.14305,1.85179c1.47736,1.09126 2.21603,2.25245 2.21603,3.48649c0,0.76053 -0.35258,1.14079 -1.05483,1.14079c-0.14424,0 -0.43708,-0.09178 -0.88146,-0.27974c-0.34384,-0.14279 -0.68185,-0.21417 -1.01113,-0.21417c-0.05683,0 -0.39484,0.08741 -1.01113,0.25788c-0.33072,0.10054 -1.01113,0.38173 -2.04411,0.83922c-0.11511,0.05828 -0.30159,0.08741 -0.55947,0.08741c-0.30159,0 -0.45165,-0.12967 -0.45165,-0.38755c0,-0.27391 0.11364,-0.46622 0.34384,-0.58132c1.33312,-0.80278 2.23789,-1.39867 2.7114,-1.78623c0.20106,-0.21417 0.30159,-0.39484 0.30159,-0.53762c0,-0.10054 -0.07139,-0.25788 -0.21417,-0.47351c-1.00385,-1.26172 -2.37483,-1.89404 -4.11007,-1.89404c-0.99073,0 -1.8445,0.14424 -2.56133,0.43126c-0.55947,0.22874 -0.88146,0.34384 -0.96887,0.34384c-0.23019,0 -0.34384,-0.12967 -0.34384,-0.389c0,-0.27245 0.27974,-0.56676 0.83922,-0.88146c1.18887,-0.67749 2.40835,-1.01404 3.65695,-1.01404z"/><path d="M-23.20579,-4.17592h2.60356c0.86106,-1.08979 1.40596,-1.63616 1.63616,-1.63616c0.27245,0 0.96159,0.45894 2.06596,1.37682c0.47351,0.3584 0.711,0.68185 0.711,0.96887c0,0.25788 -0.19377,0.38755 -0.58132,0.38755h-6.4339v4.41165h2.51762c0.88874,-1.08979 1.44967,-1.63616 1.67841,-1.63616c0.27391,0 0.94702,0.44583 2.0237,1.33457c0.47351,0.3584 0.70954,0.69642 0.70954,1.01113c0,0.25788 -0.19377,0.38755 -0.57987,0.38755h-6.34795v5.16344h2.06596c0.94702,-1.26317 1.54874,-1.8955 1.80808,-1.8955c0.27245,0 0.90331,0.48954 1.89404,1.46424c0.5012,0.45894 0.75325,0.82464 0.75325,1.09708c0,0.28702 -0.19377,0.43126 -0.58132,0.43126h-13.5147v1.85179c0,0.70225 -0.51577,1.05337 -1.54874,1.05337c-0.45894,0 -0.76053,-0.07868 -0.90331,-0.23603c-0.12967,-0.12821 -0.19377,-0.3584 -0.19377,-0.68914c0,-0.44437 0.02914,-2.25099 0.08596,-5.42133c0.05683,-3.34224 0.10054,-6.01721 0.12967,-8.0249c0,-1.82266 0.01457,-3.18491 0.04225,-4.08968c-1.04756,0.99073 -2.4535,2.10093 -4.21788,3.33497c-0.02914,0.01457 -0.05828,0.02185 -0.08596,0.02185c-0.27245,0 -0.40795,-0.14424 -0.40795,-0.4298c0,-0.05828 0.01457,-0.10054 0.04225,-0.12967c3.81576,-3.47046 6.57814,-7.31537 8.28569,-11.53179h-4.3898c-0.94702,0 -1.85761,0.08741 -2.73179,0.25788l-0.45312,-1.65656c1.14808,0.20106 2.18833,0.30159 3.1208,0.30159h4.90702c0.60172,-1.78476 1.06795,-3.47483 1.39867,-5.07166h-3.33643c-1.19033,1.62013 -2.53219,2.99258 -4.0241,4.11007c-0.04225,0.04225 -0.09325,0.06411 -0.15152,0.06411c-0.21417,0 -0.32345,-0.09908 -0.32345,-0.30012c0,-0.02914 0.00728,-0.06555 0.02185,-0.10781c1.67841,-2.16504 2.97656,-4.58358 3.89443,-7.25126c0.24331,-0.70079 0.45312,-1.61139 0.62503,-2.73033c1.64927,0.40066 2.70265,0.70954 3.16305,0.92516c0.37298,0.17192 0.55947,0.37298 0.55947,0.60172c0,0.33072 -0.49536,0.609 -1.48464,0.83774c-0.45894,0.93245 -0.96887,1.85033 -1.52834,2.75365h9.27497c1.16119,-1.39139 1.84304,-2.08927 2.04411,-2.08927c0.27245,0 1.01841,0.53179 2.23789,1.59391c0.61629,0.51577 0.92516,0.91788 0.92516,1.2049c0,0.25788 -0.19377,0.38755 -0.58132,0.38755h-8.54359c-0.51577,2.0004 -1.04756,3.69048 -1.59245,5.07166h6.39165c1.04756,-1.29232 1.70027,-1.93775 1.95815,-1.93775c0.24331,0 0.94702,0.50411 2.10967,1.50649c0.58862,0.47351 0.88146,0.83922 0.88146,1.09708c0,0.28702 -0.19377,0.43126 -0.58132,0.43126h-11.19086c-0.97471,2.22332 -2.18106,4.22517 -3.6147,6.00557h5.27271c0.25788,-0.57549 0.55947,-1.39867 0.90331,-2.47536c0.21417,-0.74596 0.34384,-1.46279 0.38755,-2.15192c2.3253,0.50265 3.48649,0.93973 3.48649,1.31125c0,0.3584 -0.50265,0.62503 -1.50649,0.79696c-0.8902,1.16265 -1.57789,2.00185 -2.06596,2.51907h3.96c0.94557,-1.2049 1.54874,-1.80808 1.80663,-1.80808c0.21563,0 0.90477,0.48808 2.06596,1.46424c0.50265,0.41523 0.75471,0.75325 0.75471,1.00967c0,0.28702 -0.18649,0.43126 -0.55947,0.43126h-7.1449v4.32132zM-30.7805,-4.17592h5.18675v-4.32132h-5.18675zM-30.7805,-3.07884v4.41165h5.18675v-4.41165zM-30.7805,7.59336h5.18675v-5.16344h-5.18675zM-9.84259,-16.56003c0.05828,-1.52106 0.08596,-4.0314 0.08596,-7.52954c0,-1.52106 -0.06411,-2.70993 -0.19377,-3.571c2.85417,0.28702 4.28199,0.68185 4.28199,1.18305c0,0.3584 -0.45312,0.72411 -1.35642,1.09708c-0.05828,3.95855 -0.12238,6.89868 -0.19377,8.82185h5.07748c0.84649,-0.90477 1.37682,-1.35642 1.59245,-1.35642c0.21563,0 0.82464,0.42251 1.82847,1.26901c0.47351,0.40213 0.70954,0.75325 0.70954,1.05483c0,0.25933 -0.3657,0.59589 -1.09708,1.01113c-0.31615,9.32741 -0.81153,15.86477 -1.48609,19.6106c-0.48808,2.74053 -1.26901,4.56318 -2.34424,5.46648c-0.7037,0.61775 -1.70027,0.92662 -2.99258,0.92662c-0.34384,0 -0.53762,-0.17921 -0.57987,-0.53762c-0.04371,-0.63232 -0.3584,-1.15537 -0.94702,-1.5706c-0.58862,-0.41669 -1.53563,-0.79696 -2.84106,-1.14079c-0.11511,-0.04225 -0.17192,-0.15152 -0.17192,-0.32345c0,-0.22874 0.07139,-0.33072 0.21417,-0.30159c2.39668,0.34384 4.07511,0.51722 5.03669,0.51722c0.57405,0 1.01841,-0.38173 1.33457,-1.14079c0.25933,-0.58862 0.51577,-1.60119 0.7751,-3.0363c0.65999,-3.48649 1.12477,-9.93643 1.39867,-19.35126h-5.55246c-0.30159,6.60146 -1.04756,11.70225 -2.23789,15.30531c-0.90477,2.69828 -2.02954,4.97987 -3.37867,6.84477c-1.21947,1.67841 -2.87749,3.37867 -4.97112,5.10225c-0.02914,0.02914 -0.07139,0.04225 -0.12967,0.04225c-0.25788,0 -0.38755,-0.12238 -0.38755,-0.3657c0,-0.04225 0.01457,-0.08013 0.04225,-0.10781c3.01298,-3.27086 5.20132,-7.30517 6.56358,-12.09709c0.97471,-3.35827 1.59245,-8.26676 1.85033,-14.72397h-0.68914c-1.04756,0 -2.16649,0.10054 -3.35682,0.30159l-0.38755,-1.70027c1.16119,0.20106 2.39523,0.30159 3.70212,0.30159h0.80133z"/><path d="M30.79473,-16.17685c3.27086,0.14424 6.0041,1.04027 8.19828,2.691c2.66915,1.97855 4.00371,4.54715 4.00371,7.70292c0,4.15815 -2.15192,7.54411 -6.45576,10.15497c-2.99842,1.80808 -6.60729,3.02026 -10.82517,3.63656c-0.05828,0 -0.10781,0 -0.15152,0c-0.48808,0 -0.73139,-0.17921 -0.73139,-0.53762c0,-0.35695 0.22146,-0.59444 0.66728,-0.70808c4.23099,-1.04609 7.63152,-2.5657 10.20013,-4.55736c2.9547,-2.29617 4.43351,-5.00027 4.43351,-8.11232c0,-2.7551 -0.92662,-4.85748 -2.7755,-6.3057c-2.13881,-1.70755 -4.62,-2.56133 -7.44649,-2.56133c-2.56861,4.66225 -4.97841,8.49987 -7.23086,11.51286c0.32927,0.4298 0.80278,0.88874 1.42053,1.37682c0.78821,0.63232 1.18305,1.12623 1.18305,1.48609c0,0.86106 -0.38026,1.29087 -1.14079,1.29087c-0.48808,0 -0.91788,-0.16463 -1.29087,-0.49536c-0.68914,-0.60172 -1.24861,-1.14662 -1.67841,-1.6347c-1.04756,1.32 -2.00185,2.4098 -2.86292,3.27086c-1.21947,1.17722 -2.51033,1.76438 -3.87404,1.76438c-1.2049,0 -2.13735,-0.48808 -2.79735,-1.46424c-0.57405,-0.85961 -0.86106,-2.0004 -0.86106,-3.42092c0,-1.7804 0.60318,-3.67297 1.80808,-5.68213c1.08979,-1.80663 2.46663,-3.35682 4.13192,-4.64769l-0.25933,-1.67841c-0.27245,-1.76438 -0.59444,-3.01152 -0.96742,-3.74437c-0.47351,-0.96013 -1.37099,-1.77165 -2.691,-2.43166c-0.28702,-0.17192 -0.4298,-0.3657 -0.4298,-0.57987c0,-0.10054 0.06411,-0.20834 0.19377,-0.32345c0.09908,-0.10054 0.21417,-0.15152 0.34384,-0.15152c0.17192,0 0.3147,0.01457 0.4298,0.04225c1.83722,0.53034 3.11351,1.21947 3.83034,2.06596c0.58862,0.74742 0.96887,1.90862 1.14079,3.48795c0.02914,0.22874 0.07139,0.59444 0.12967,1.09708c0.02914,0.43126 0.05683,0.76053 0.08596,0.99073c2.9547,-1.89404 6.21973,-3.04212 9.79219,-3.44278c0.10054,-0.22874 0.39484,-0.94119 0.88146,-2.13153c0.37298,-0.97471 0.55947,-1.77894 0.55947,-2.4098c0,-1.13205 -0.81736,-1.72212 -2.4535,-1.76438c-0.38755,0 -0.57987,-0.10636 -0.57987,-0.32345c0,-0.18649 0.14424,-0.40066 0.4298,-0.64542c0.4298,-0.27245 0.80278,-0.40795 1.11893,-0.40795c1.01841,0 2.1155,0.32345 3.29272,0.96887c1.06213,0.64397 1.59245,1.29087 1.59245,1.93483c0,0.27391 -0.12821,0.63232 -0.38755,1.07669c-0.28702,0.41523 -0.56676,0.88146 -0.83922,1.39867c-0.17192,0.31615 -0.37298,0.70954 -0.60172,1.18305c-0.24331,0.44 -0.42251,0.7853 -0.53616,1.0286zM17.17222,-9.82599c-1.40596,1.23404 -2.52491,2.7114 -3.35682,4.43351c-0.64542,1.33312 -0.96887,2.48849 -0.96887,3.46463c0,2.0514 0.64542,3.07708 1.93775,3.07708c0.88874,0 1.74252,-0.33655 2.56133,-1.01113c0.83192,-0.65999 1.75708,-1.63616 2.7755,-2.92701c-1.32,-2.06596 -2.30344,-4.41165 -2.94887,-7.03709zM18.80839,-11.07461c0.47351,2.2947 1.35642,4.42622 2.64582,6.39312c1.93775,-2.49721 4.01683,-5.81907 6.24159,-9.96556c-3.22861,0.48662 -6.1906,1.67841 -8.88741,3.57245z"/></g></g></g></svg>