<svg version="1.1" xmlns="http://www.w3.org/2000/svg" xmlns:xlink="http://www.w3.org/1999/xlink" width="86.30899" height="76.891" viewBox="-0.25,-0.25,86.30899,76.891"><g transform="translate(-229.16252,-157.9295)"><g data-paper-data="{&quot;isPaintingLayer&quot;:true}" fill="none" fill-rule="nonzero" stroke="none" stroke-width="none" stroke-linecap="butt" stroke-linejoin="miter" stroke-miterlimit="10" stroke-dasharray="" stroke-dashoffset="0" font-family="none" font-weight="none" font-size="none" text-anchor="none" style="mix-blend-mode: normal"><path d="M242.79352,171.7715c2.112,0 3.941,0.773 5.49,2.322c2.252,2.111 3.378,4.857 3.378,8.235c0,4.364 -1.126,7.602 -3.378,9.714c-1.83,1.83 -4.012,2.744 -6.546,2.744c-3.097,0 -5.561,-0.914 -7.391,-2.744c-2.957,-2.816 -4.434,-7.392 -4.434,-13.726c0,-8.165 1.9,-13.796 5.701,-16.894c2.253,-1.828 4.928,-2.743 8.025,-2.743c1.83,0 3.379,0.563 4.646,1.689c0.985,0.985 1.479,1.971 1.479,2.956c0,1.688 -0.775,2.533 -2.323,2.533c-1.408,0 -2.111,-0.703 -2.111,-2.111c0,-0.563 0.07,-1.126 0.211,-1.688c0,-0.704 -0.141,-1.127 -0.423,-1.268c-0.422,-0.422 -1.126,-0.634 -2.111,-0.634c-1.971,0 -3.731,0.634 -5.279,1.901c-2.535,1.97 -3.801,7.461 -3.801,16.47c2.392,-4.504 5.348,-6.756 8.867,-6.756zM233.92552,181.6955c0,5.068 1.126,8.446 3.378,10.136c1.267,0.985 2.815,1.479 4.646,1.479c1.548,0 2.815,-0.493 3.8,-1.479c1.549,-1.407 2.323,-4.575 2.323,-9.502c0,-3.097 -0.704,-5.349 -2.112,-6.757c-1.126,-1.127 -2.393,-1.689 -3.801,-1.689c-3.237,-0.001 -5.983,2.604 -8.234,7.812z" data-paper-data="{&quot;origPos&quot;:null}" fill="#000000" stroke="#000000" stroke-width="2"/><path d="M312.99451,234.5705v0h2.227v0z" fill="none" stroke="none" stroke-width="1"/></g></g></svg>