<svg version="1.1" xmlns="http://www.w3.org/2000/svg" xmlns:xlink="http://www.w3.org/1999/xlink" width="116.40391" height="27.00467"><g transform="translate(-281.00575,-48.93673)"><g data-paper-data="{&quot;isPaintingLayer&quot;:true}" fill="#8b2b2b" fill-rule="nonzero" stroke="none" stroke-width="1" stroke-linecap="butt" stroke-linejoin="miter" stroke-miterlimit="10" stroke-dasharray="" stroke-dashoffset="0" font-family="none" font-weight="none" font-size="none" text-anchor="none" style="mix-blend-mode: normal"><path d="M285.66544,70.84304c1.60228,0 3.73213,0.26905 6.38907,0.80617c5.28472,1.07472 10.29563,1.64625 15.03367,1.7141c1.12346,0.01959 1.68495,0.15673 1.68495,0.41048c0,0.17585 -0.34216,0.50271 -1.0255,0.98154c-0.83053,0.58634 -1.62665,0.87928 -2.38838,0.87928c-1.75855,0 -6.73074,-0.87449 -14.91659,-2.62301c-1.86607,-0.40045 -3.47312,-0.60068 -4.82119,-0.60068c-0.68383,0 -1.63669,0.17585 -2.85716,0.52756c-0.4296,0.11755 -0.7082,0.17585 -0.83532,0.17585c-0.61501,0 -0.92324,-0.3173 -0.92324,-0.95239c0,-0.41001 0.22938,-0.69338 0.68861,-0.84964c0.28338,-0.08793 0.82049,-0.1859 1.61184,-0.29294c2.0123,-2.0123 3.01821,-3.28246 3.01821,-3.81002c0,-0.2246 -0.24897,-0.4836 -0.74691,-0.77653c-0.52756,-0.31253 -0.79134,-0.71297 -0.79134,-1.20183c0,-0.56675 0.46401,-1.91433 1.39202,-4.04418l-3.60455,0.83531c-0.1663,0.03919 -0.31252,0.05878 -0.43963,0.05878c-0.35171,0 -0.61023,-0.15148 -0.77653,-0.45445c-0.09797,-0.19497 -0.14671,-0.37608 -0.14671,-0.5419c0,-0.50797 0.27334,-0.81573 0.8205,-0.92324l5.04101,-0.9672c0.12712,-0.01959 0.27334,-0.02963 0.43963,-0.02963c0.80998,0 1.21617,0.36652 1.21617,1.0991c0,0.42005 -0.19067,0.90364 -0.57153,1.4508c-0.98679,1.43599 -1.47996,2.44237 -1.47996,3.01868c0,0.25422 0.19497,0.4836 0.58634,0.68861c0.00956,0 0.02915,0.00478 0.05878,0.01482c0.42913,0.22507 0.69338,0.36652 0.79087,0.42483c0.61549,0.30297 0.92324,0.6499 0.92324,1.04031c0,0.77127 -1.12346,2.08541 -3.37039,3.94143zM283.365,50.88544c0.24371,0 0.55624,0.11231 0.93758,0.3369c1.58269,0.92801 2.68656,1.68495 3.31209,2.27129c0.38086,0.36175 0.57105,0.72302 0.57105,1.08428c0,0.23463 -0.08315,0.46401 -0.24896,0.68861c-0.21456,0.30297 -0.50797,0.45445 -0.87927,0.45445c-0.3909,0 -0.79135,-0.24419 -1.20136,-0.73257c-0.7039,-0.8205 -1.62665,-1.69976 -2.76971,-2.63782c-0.30297,-0.25375 -0.45398,-0.5032 -0.45398,-0.74739c0,-0.47834 0.2437,-0.71776 0.73257,-0.71776zM297.16816,65.24532l-0.10274,0.11708c-1.5631,1.86607 -3.48794,3.5558 -5.77358,5.07016c-0.36126,0.23463 -0.6542,0.35171 -0.87928,0.35171c-0.21456,0 -0.3952,-0.09749 -0.5419,-0.29293c-0.108,-0.15627 -0.16104,-0.30297 -0.16104,-0.43963c0,-0.19544 0.09223,-0.38087 0.27812,-0.55672c0.05878,-0.06834 0.29771,-0.259 0.71776,-0.57153c2.09067,-1.54303 3.92232,-3.40432 5.49546,-5.58291l-2.44715,0.14671c-0.0497,0.54716 -0.3713,0.82049 -0.96672,0.82049c-0.52804,0 -0.83579,-0.30297 -0.92372,-0.90843l-0.84964,-5.69999c-0.01004,-0.07789 -0.01482,-0.13667 -0.01482,-0.17585c0,-0.60594 0.35171,-0.90842 1.05561,-0.90842c0.38086,0 0.66377,0.18063 0.84918,0.54238l4.26447,-0.32256v-2.35922l-5.58338,0.41c-0.05878,0 -0.10752,0 -0.14671,0c-0.58634,0 -0.87928,-0.28815 -0.87928,-0.86445c0,-0.54716 0.28386,-0.84009 0.85013,-0.87928l5.75876,-0.43963v-2.74008c0,-0.62553 0.32734,-0.93805 0.98201,-0.93805c0.40045,0 0.69338,0.14192 0.87927,0.42529c0.09701,0.1467 0.14671,0.31779 0.14671,0.51276v2.57856l5.58243,-0.42483c0.01959,0 0.054,0 0.10274,0c0.61549,0 0.92324,0.30297 0.92324,0.90843c0,0.55671 -0.2829,0.8549 -0.84917,0.89361l-5.75876,0.41048v2.34442l4.35145,-0.32209c0.12712,-0.01004 0.24896,-0.01482 0.36652,-0.01482c1.13302,0 1.69977,0.4492 1.69977,1.34806c0,0.23463 -0.02915,0.46879 -0.08793,0.70342l-0.65945,2.74009c0.49794,0.0884 0.74691,0.36652 0.74691,0.8353c0,0.54716 -0.26904,0.83531 -0.80568,0.86446l-5.61206,0.3369v1.11391c2.51023,1.07472 4.46422,2.09067 5.8615,3.04783c0.42913,0.29293 0.70295,0.48837 0.8205,0.58634c0.30249,0.26378 0.45398,0.54716 0.45398,0.85013c0,0.28338 -0.12233,0.55672 -0.36652,0.8205c-0.24467,0.26378 -0.53234,0.39567 -0.86446,0.39567c-0.29293,0 -0.67428,-0.21504 -1.14354,-0.64464c-1.20136,-1.10387 -2.78883,-2.22256 -4.76193,-3.35558v5.46584c0,0.2246 -0.05878,0.41526 -0.17633,0.57152c-0.19497,0.24419 -0.47357,0.36652 -0.83483,0.36652c-0.66423,0 -0.99635,-0.31253 -0.99635,-0.93757v-6.19936zM297.16816,61.59681v-3.09179l-4.00022,0.27859l0.39567,3.0335zM299.17568,61.46492l3.81003,-0.23463l0.39519,-2.56423c0.01004,-0.07789 0.01433,-0.16582 0.01433,-0.26378c0,-0.23416 -0.1467,-0.34167 -0.43963,-0.32256l-0.1166,0.01481l-3.66332,0.26378z"/><path d="M326.19566,52.55606l8.8649,-0.55672c0.6738,-0.03919 1.01116,0.26379 1.01116,0.90843c0,0.55719 -0.2786,0.8549 -0.83483,0.89409l-18.33142,1.15739c0.01004,0.51753 0.01482,0.8549 0.01482,1.01117c0,4.06377 -0.26426,7.40931 -0.79134,10.0371c-0.61501,3.02824 -1.57265,5.71958 -2.87198,8.07403c-0.30249,0.53712 -0.62027,0.80616 -0.95191,0.80616c-0.15674,0 -0.32782,-0.05878 -0.51323,-0.17585c-0.24419,-0.1467 -0.36604,-0.36126 -0.36604,-0.64464c0,-0.21504 0.15101,-0.63986 0.45349,-1.27494c1.03601,-2.14896 1.79773,-4.69887 2.28611,-7.64873c0.38086,-2.28564 0.57152,-4.61044 0.57152,-6.97492l-0.07359,-2.66697c0,-0.02963 0,-0.1663 0,-0.41049c-0.63461,-0.01959 -0.95191,-0.31252 -0.95191,-0.87927c0,-0.57631 0.29294,-0.88405 0.87928,-0.92324l9.33368,-0.58634v-2.71093c0,-0.35171 0.12712,-0.62506 0.38134,-0.8205c0.21456,-0.15627 0.464,-0.23416 0.7469,-0.23416c0.33164,0 0.61024,0.10274 0.83483,0.30775c0.20548,0.19544 0.30822,0.44441 0.30822,0.74738zM326.16651,72.1911c-2.28611,1.25057 -4.70889,2.23211 -7.26786,2.94509c-0.90843,0.25375 -1.47039,0.38087 -1.68495,0.38087c-0.58634,0 -0.87928,-0.30775 -0.87928,-0.92324c0,-0.19544 0.09749,-0.35696 0.29293,-0.48359c0.1467,-0.08793 0.77653,-0.29294 1.88996,-0.6155c1.749,-0.50797 3.66333,-1.30409 5.74443,-2.38885c-1.30935,-0.79087 -2.3449,-1.45511 -3.1071,-1.99271c-0.30249,-0.21504 -0.45397,-0.44919 -0.45397,-0.70342c0,-0.17585 0.0583,-0.34167 0.17585,-0.49794c0.15627,-0.18541 0.36652,-0.2786 0.62983,-0.2786c0.26331,0 0.77175,0.24897 1.52392,0.74738c0.81046,0.5376 1.78722,1.11869 2.93075,1.74374c1.53347,-0.96673 2.77401,-1.91958 3.72162,-2.85716c0.27334,-0.26378 0.41001,-0.45875 0.41001,-0.58634c0,-0.09748 -0.10274,-0.15149 -0.30774,-0.16104c-0.05878,0 -0.11231,0 -0.16104,0l-9.75898,0.77653c-0.06929,0.01004 -0.11278,0.01434 -0.13189,0.01434c-0.58634,0 -0.87927,-0.31253 -0.87927,-0.93758c0,-0.56675 0.2786,-0.86445 0.83483,-0.8936l11.31252,-0.79135c0.17585,-0.00956 0.29772,-0.01433 0.36653,-0.01433c1.22095,0 1.83166,0.3713 1.83166,1.11342c0,0.5376 -0.39041,1.22621 -1.17221,2.06629c-1.04557,1.12346 -2.40318,2.21778 -4.07333,3.28247c2.93075,1.40684 5.75876,2.4376 8.48404,3.09179c0.81094,0.19544 1.21617,0.40522 1.21617,0.62982c0,0.13667 -0.18063,0.26857 -0.54238,0.39568c-1.11343,0.38086 -2.03666,0.57152 -2.76923,0.57152c-0.3713,0 -0.86446,-0.13189 -1.47995,-0.39567c-2.49064,-1.06469 -4.72228,-2.1442 -6.69587,-3.23803zM330.19588,61.33303c0.53712,0.08793 0.80616,0.38086 0.80616,0.87879c0,0.5376 -0.259,0.82575 -0.77653,0.86494l-6.41823,0.38086c-0.11755,0.49841 -0.44967,0.74739 -0.99682,0.74739c-0.63461,0 -0.97628,-0.31731 -1.0255,-0.95239l-0.24896,-3.57539l-3.01868,0.21982c-0.0583,0 -0.11183,0 -0.16057,0c-0.59638,0 -0.89409,-0.29294 -0.89409,-0.87928c0,-0.57631 0.29293,-0.88405 0.87927,-0.92324l3.07699,-0.21982l-0.10274,-1.55307l-0.01482,-0.11708c-0.00956,-0.2246 0.06355,-0.42482 0.2203,-0.60067c0.205,-0.2246 0.47834,-0.33689 0.82049,-0.33689c0.6738,0 1.03028,0.31252 1.06947,0.93756l0.08793,1.52392l4.8943,-0.35171l0.08793,-1.62665c0.04922,-0.62504 0.40045,-0.93758 1.05513,-0.93758c0.37083,0 0.65946,0.12712 0.86494,0.38087c0.1467,0.18589 0.20978,0.37608 0.19019,0.57152l-0.01481,0.10274l-0.08793,1.36288l4.26447,-0.30775l0.14671,-0.01482c0.35075,-0.01959 0.6002,0.12234 0.7469,0.42483c0.06881,0.1467 0.10274,0.31252 0.10274,0.49841c0,0.55671 -0.27334,0.8549 -0.8205,0.89361l-4.57126,0.32256zM328.1444,61.46492l0.13141,-2.2713l-4.6592,0.3369l0.13142,2.24167z"/><path d="M344.93709,60.99613c0.56675,0 0.84964,0.46401 0.84964,1.39203c0,1.27017 -0.18063,2.76493 -0.54238,4.48382c-0.13667,0.69338 -0.28816,1.24532 -0.45398,1.6558c-0.22507,0.55671 -0.61024,0.83531 -1.15739,0.83531c-0.19592,0 -0.37608,-0.04874 -0.54238,-0.14671c-0.41048,-0.23416 -0.61597,-0.5763 -0.61597,-1.02549c0,-0.16582 0.07837,-0.46401 0.23464,-0.89362c0.55671,-1.46514 0.99635,-3.24327 1.3189,-5.33394c0.10751,-0.64511 0.4105,-0.9672 0.90891,-0.9672zM354.09492,67.92711c0.95765,0.90843 2.12985,1.66058 3.51662,2.25648c1.55307,0.66423 3.0139,0.99635 4.38155,0.99635c0.71298,0 1.06946,-0.1706 1.06946,-0.51275c0,-0.1467 -0.07311,-0.50319 -0.21981,-1.06946c-0.23416,-0.93758 -0.49316,-1.74851 -0.77654,-2.43234c-0.10751,-0.25375 -0.16151,-0.46879 -0.16151,-0.64465c0,-0.40045 0.21504,-0.60067 0.64511,-0.60067c0.28338,0 0.54716,0.16104 0.79135,0.48359c0.44872,0.60594 1.07424,1.67062 1.87514,3.19453c0.40045,0.7622 0.60116,1.41162 0.60116,1.94874c0,1.26013 -1.09384,1.89044 -3.28247,1.89044c-3.79952,0 -7.10157,-1.35283 -9.90568,-4.05899c-2.21777,2.02233 -4.49289,3.70729 -6.82823,5.05535c-0.31253,0.18541 -0.58634,0.27859 -0.82049,0.27859c-0.30297,0 -0.53234,-0.13189 -0.68861,-0.39567c-0.08793,-0.15627 -0.13142,-0.31253 -0.13142,-0.46879c0,-0.2246 0.10227,-0.42004 0.30775,-0.58634c0.08793,-0.06834 0.41001,-0.26856 0.9672,-0.60068c1.87514,-1.11343 3.83392,-2.71046 5.87537,-4.79157c-1.0255,-1.36765 -1.88518,-3.0722 -2.57856,-5.11412c-0.44872,-1.29932 -0.78131,-2.59863 -0.99635,-3.89796c-0.02963,-0.19497 -0.04397,-0.34167 -0.04397,-0.43915c0,-0.3713 0.16104,-0.63508 0.4836,-0.79135c0.1663,-0.07789 0.32734,-0.11708 0.48408,-0.11708c0.35075,0 0.60545,0.17585 0.76172,0.52756c0.04874,0.09797 0.13141,0.42483 0.24896,0.98154c0.61501,2.9016 1.62618,5.34398 3.0335,7.32665c1.05465,-1.22095 2.06534,-2.57427 3.03301,-4.059c2.21777,-3.39954 3.78518,-6.88174 4.70364,-10.44758c0.18589,-0.72301 0.56674,-1.08428 1.14353,-1.08428c0.81046,0 1.21617,0.39567 1.21617,1.18654c0,0.28338 -0.17585,0.92801 -0.52756,1.9344c-1.40684,4.10296 -3.36562,7.86855 -5.87632,11.29771c-0.63604,0.86828 -1.40254,1.78674 -2.30141,2.75394zM351.22294,51.80868c0.33212,0 0.63509,0.2786 0.90843,0.83531c0.42005,0.84009 1.0059,1.75329 1.75855,2.74008c0.11708,0.15627 0.23416,0.23464 0.35124,0.23464c0.17585,0 0.48359,-0.21983 0.92323,-0.65946c0.15674,-0.15627 0.32782,-0.23463 0.51323,-0.23463c0.34168,0 0.51227,0.20549 0.51227,0.6155c0,0.34215 -0.23893,0.95717 -0.71776,1.846c-0.44919,0.85013 -0.92801,1.27494 -1.43599,1.27494c-0.4296,0 -0.82097,-0.23416 -1.1722,-0.70342c-0.79135,-1.06516 -1.47996,-2.35445 -2.06582,-3.86832c-0.25422,-0.66423 -0.38133,-1.09432 -0.38133,-1.28976c0.00048,-0.52709 0.26855,-0.79087 0.80615,-0.79087zM362.46235,58.68088c0.57583,0 1.74804,0.87928 3.51662,2.63782c1.14258,1.13302 1.7141,1.98314 1.7141,2.54941c0,0.38086 -0.1467,0.69864 -0.43963,0.95239c-0.23463,0.205 -0.49794,0.30774 -0.79087,0.30774c-0.43008,0 -0.84582,-0.30248 -1.2458,-0.90842c-1.08428,-1.65103 -2.13415,-2.99431 -3.15009,-4.02984c-0.24467,-0.24419 -0.36652,-0.49794 -0.36652,-0.76172c0,-0.49841 0.25374,-0.74738 0.76219,-0.74738z"/><path d="M379.63543,65.46514c0.25375,0 0.4879,0.07312 0.70342,0.21982c0.33164,0.2246 0.49315,0.49794 0.48359,0.82049c-0.01959,0.3713 -0.33211,0.94762 -0.93757,1.72893c-1.71984,2.21777 -3.97584,4.19088 -6.76993,5.9198c-0.34215,0.21456 -0.62027,0.32208 -0.83532,0.32208c-0.25422,0 -0.47882,-0.11755 -0.67426,-0.35171c-0.12712,-0.1663 -0.19019,-0.3369 -0.19019,-0.51275c0,-0.2246 0.10274,-0.43439 0.30822,-0.62983c0.05878,-0.04874 0.30822,-0.21981 0.74738,-0.51275c1.16217,-0.77175 2.43234,-1.9 3.80955,-3.38473c0.95717,-1.0255 1.71459,-1.98793 2.2713,-2.88679c0.31205,-0.48838 0.67331,-0.73257 1.0838,-0.73257zM378.50719,50.15287c0.24419,0 0.46401,0.07312 0.65946,0.21982c0.31205,0.23463 0.46879,0.52278 0.46879,0.86446c0,0.26378 -0.16629,0.59112 -0.49841,0.98201c-1.60228,1.91481 -3.45354,3.55581 -5.55328,4.92346c-0.3713,0.24419 -0.66472,0.36652 -0.87928,0.36652c-0.19592,0 -0.367,-0.08315 -0.51323,-0.24896c-0.1663,-0.17585 -0.24896,-0.37608 -0.24896,-0.60068c0,-0.2246 0.08793,-0.42005 0.26378,-0.58634c0.04874,-0.03919 0.22507,-0.17585 0.52756,-0.41048c1.66106,-1.24054 3.21891,-2.84236 4.67449,-4.80638c0.34215,-0.46926 0.70819,-0.70342 1.09909,-0.70342zM379.09353,57.15696c0.27334,0 0.52278,0.08793 0.7469,0.26378c0.27334,0.20548 0.41001,0.46879 0.41001,0.79135c0,0.30297 -0.21935,0.70819 -0.65898,1.21616c-1.84647,2.16856 -3.79521,3.84874 -5.84669,5.04054c-0.4296,0.24419 -0.75741,0.36652 -0.98154,0.36652c-0.20548,0 -0.37608,-0.08267 -0.51323,-0.24896c-0.1663,-0.205 -0.24896,-0.41001 -0.24896,-0.61549c0,-0.2246 0.08793,-0.42005 0.26426,-0.58634c0.0583,-0.0583 0.25375,-0.21456 0.58634,-0.46879c1.63143,-1.23098 3.10135,-2.61823 4.41023,-4.16126c0.31205,-0.36126 0.58108,-0.70342 0.80616,-1.0255c0.26331,-0.38133 0.60546,-0.572 1.0255,-0.572zM385.77506,70.90134c0.27334,0 0.50797,0.09796 0.70342,0.29293c0.19544,0.19544 0.29293,0.43008 0.29293,0.70342c0,0.69338 -1.2802,1.72892 -3.83917,3.10613c-1.17221,0.62504 -1.93918,0.93758 -2.29997,0.93758c-0.50797,0 -0.7622,-0.26904 -0.7622,-0.80616c0,-0.35171 0.26905,-0.66424 0.80617,-0.93758c1.50385,-0.79135 2.89156,-1.75854 4.16126,-2.90112c0.30297,-0.26282 0.61502,-0.3952 0.93758,-0.3952zM387.46001,55.58908l5.64169,-0.43964c0.1166,-0.00956 0.22938,-0.01433 0.3369,-0.01433c1.28929,0 1.92436,0.67428 1.90477,2.02186l-0.14671,12.57218c-0.01004,0.62553 -0.34741,0.93756 -1.01069,0.93756c-0.67475,0 -1.00638,-0.31252 -0.99682,-0.93756v-0.14671l-8.60159,0.57153c-0.08793,0.51801 -0.40523,0.77653 -0.95191,0.77653c-0.40045,0 -0.68861,-0.14145 -0.86494,-0.42483c-0.09748,-0.1467 -0.14671,-0.31252 -0.14671,-0.49841v-13.74439c0,-0.32208 0.12186,-0.57152 0.36653,-0.74738c0.19497,-0.12712 0.41,-0.19019 0.64511,-0.19019c0.40045,0 0.68861,0.1663 0.86446,0.49794l0.92324,-0.07311c0.71298,-1.08428 1.30888,-2.159 1.7877,-3.22368l-5.30479,0.39567c-0.06834,0.01004 -0.12186,0.01482 -0.16104,0.01482c-0.61549,0 -0.92324,-0.30775 -0.92324,-0.92324c0,-0.57631 0.31205,-0.89361 0.93758,-0.95239l14.0378,-1.09862l0.11708,-0.01482c0.25375,-0.01959 0.47882,0.04874 0.67426,0.205c0.21456,0.1663 0.32256,0.41048 0.32256,0.73257c0,0.61549 -0.31252,0.94762 -0.93805,0.99635l-6.37378,0.46879c-0.45923,0.86924 -1.12823,1.88519 -2.00751,3.04783zM393.32103,59.3107l0.01482,-1.61184c0.01004,-0.56675 -0.22508,-0.83005 -0.70342,-0.79134l-0.13189,0.01482l-7.89769,0.65945v2.40319zM393.29189,61.02529l-8.68952,0.64464v2.41801l8.65988,-0.60068zM393.24841,65.17221l-8.64556,0.62983v2.59386l8.61592,-0.58634zM391.63656,70.75512c0.23416,0 0.56674,0.11231 0.99635,0.33738c1.88518,0.99635 3.2533,1.84169 4.10295,2.53507c0.44919,0.37083 0.6738,0.75216 0.6738,1.14306c0,0.21504 -0.0779,0.43486 -0.23416,0.65946c-0.19544,0.27334 -0.46448,0.41 -0.80615,0.41c-0.34215,0 -0.74739,-0.20978 -1.21617,-0.62983c-0.85968,-0.77175 -2.11502,-1.73895 -3.76606,-2.90112c-0.36175,-0.24419 -0.54238,-0.50797 -0.54238,-0.79135c0,-0.17585 0.05878,-0.33212 0.17585,-0.46879c0.1663,-0.1964 0.37131,-0.29389 0.61598,-0.29389z"/></g></g></svg>