<svg version="1.1" xmlns="http://www.w3.org/2000/svg" xmlns:xlink="http://www.w3.org/1999/xlink" width="57.58716" height="27.23933"><g transform="translate(-52.01137,-48.8201)"><g data-paper-data="{&quot;isPaintingLayer&quot;:true}" fill="#8b2b2b" fill-rule="nonzero" stroke="none" stroke-width="1" stroke-linecap="butt" stroke-linejoin="miter" stroke-miterlimit="10" stroke-dasharray="" stroke-dashoffset="0" font-family="none" font-weight="none" font-size="none" text-anchor="none" style="mix-blend-mode: normal"><path d="M68.64302,60.3515l8.79178,-0.52756h0.07311c0.25375,-0.01959 0.47835,0.03919 0.67427,0.17585c0.2246,0.1663 0.3369,0.40522 0.3369,0.71775c0,0.61549 -0.32256,0.93757 -0.9672,0.96672l-24.49972,1.42165c-0.06881,0 -0.11755,0 -0.1467,0c-0.5959,0 -0.89409,-0.29818 -0.89409,-0.89409c0,-0.58634 0.3173,-0.89838 0.95238,-0.93757l7.98563,-0.46879v-5.87584l-4.71845,0.33738c-0.25422,0.01959 -0.47883,-0.0392 -0.67427,-0.17586c-0.24419,-0.1663 -0.36652,-0.41001 -0.36652,-0.73257c0,-0.53712 0.2786,-0.82527 0.83532,-0.86446l5.05534,-0.35171c-0.12712,-0.10751 -0.26378,-0.28337 -0.41001,-0.52756c-0.46879,-0.76172 -0.95239,-1.44077 -1.4508,-2.03667c-0.20548,-0.23416 -0.30775,-0.464 -0.30775,-0.6886c0,-0.15627 0.05878,-0.30249 0.17585,-0.43964c0.13667,-0.15627 0.31252,-0.23416 0.52756,-0.23416c0.4879,0 1.27447,0.58634 2.35922,1.75807c0.56675,0.60594 0.84964,1.06994 0.84964,1.39202c0,0.23463 -0.08793,0.45446 -0.26378,0.65946l4.55741,-0.32208c0.58634,-0.89886 1.12824,-1.88041 1.62618,-2.94557c0.29293,-0.62504 0.67857,-0.93757 1.15739,-0.93757c0.23463,0 0.45445,0.07311 0.65946,0.21981c0.28338,0.19544 0.42483,0.46879 0.42483,0.8205c0,0.23463 -0.09796,0.50319 -0.29293,0.80616c-0.19497,0.30297 -0.67379,0.93279 -1.43599,1.89044l4.45467,-0.32256h0.05878c0.32256,0 0.58109,0.09271 0.77653,0.2786c0.16582,0.1663 0.24897,0.36652 0.24897,0.60068c0,0.55719 -0.29294,0.8549 -0.87928,0.89409l-5.27517,0.38086v5.96281zM56.02687,56.02871c0.24419,0 0.52232,0.13667 0.83532,0.41001c1.57265,1.36765 2.35922,2.45719 2.35922,3.26765c0,0.32256 -0.11756,0.58109 -0.35171,0.77653c-0.22507,0.18589 -0.46879,0.27859 -0.73257,0.27859c-0.44919,0 -0.8205,-0.30248 -1.11391,-0.90842c-0.41001,-0.87928 -0.9132,-1.69977 -1.5091,-2.46197c-0.1663,-0.21456 -0.24897,-0.42959 -0.24897,-0.64463c0,-0.19544 0.06834,-0.36128 0.205,-0.49794c0.16582,-0.1467 0.35123,-0.21982 0.55671,-0.21982zM69.94712,74.53551l-9.36331,0.39567c-0.04922,0.6738 -0.41526,1.01117 -1.09909,1.01117c-0.7426,0 -1.11343,-0.37131 -1.11343,-1.11391v-10.13984c0,-0.74212 0.36652,-1.11342 1.09909,-1.11342c0.66423,0 1.03554,0.31778 1.11343,0.95239l9.36331,-0.67379c0.11708,-0.01004 0.20978,-0.01482 0.2786,-0.01482c0.6738,0 1.1918,0.20978 1.55306,0.62983c0.26378,0.30297 0.39568,0.66901 0.39568,1.09909v9.39246c0,0.73257 -0.3713,1.09909 -1.11391,1.09909c-0.7426,0 -1.11343,-0.36652 -1.11343,-1.09909zM69.94712,68.23485v-2.22734c0,-0.09748 -0.0344,-0.19019 -0.10274,-0.27859c-0.09797,-0.11708 -0.19545,-0.1663 -0.29293,-0.14671l-0.04396,0.01482l-8.90934,0.60067v2.50545zM69.94712,69.97858l-9.34849,0.43964v2.76923l9.34849,-0.4253zM66.60636,60.46857v-5.93414l-3.61936,0.24896v5.89066zM73.49337,54.69499c0.2246,0 0.43438,0.05878 0.62982,0.17585c0.3713,0.2246 0.55719,0.51275 0.55719,0.86446c0,0.46879 -0.71345,1.54351 -2.1394,3.22368c-0.61549,0.72301 -1.07472,1.08428 -1.37721,1.08428c-0.13667,0 -0.28815,-0.04874 -0.45445,-0.1467c-0.205,-0.12712 -0.30775,-0.32735 -0.30775,-0.60069c0,-0.16582 0.09749,-0.39567 0.29293,-0.6886c0.68383,-1.05513 1.2501,-2.07586 1.69977,-3.06265c0.24419,-0.56627 0.61024,-0.84964 1.0991,-0.84964z"/><path d="M86.40244,70.90134h0.05878h0.1467c1.48473,0 3.54099,0.26904 6.16877,0.80616c5.14805,1.05513 10.22777,1.62665 15.23915,1.7141c1.05513,0.01959 1.58269,0.15674 1.58269,0.41049c0,0.1467 -0.20501,0.38564 -0.6155,0.71776c-0.93805,0.76172 -1.87085,1.14306 -2.79886,1.14306c-1.80729,0 -6.78952,-0.8745 -14.94622,-2.62301c-1.85603,-0.40045 -3.45784,-0.60067 -4.80638,-0.60067c-0.69338,0 -1.62618,0.17107 -2.79838,0.51275c-0.45923,0.12712 -0.75216,0.19067 -0.87928,0.19067c-0.5959,0 -0.89409,-0.3173 -0.89409,-0.95239c0,-0.41001 0.22938,-0.69338 0.68861,-0.84964c0.28338,-0.08793 0.82527,-0.18589 1.62618,-0.29293c0.86924,-0.83005 1.641,-1.74851 2.31526,-2.7549c0.26378,-0.39041 0.39567,-0.66423 0.39567,-0.8205c0,-0.24419 -0.23941,-0.51275 -0.71775,-0.80616c-0.52756,-0.31253 -0.79135,-0.71297 -0.79135,-1.20183c0,-0.58634 0.4492,-1.93392 1.34806,-4.04418l-3.53143,0.92324c-0.17585,0.04922 -0.34215,0.07312 -0.49794,0.07312c-0.34215,0 -0.58157,-0.17061 -0.71823,-0.51276c-0.08793,-0.19544 -0.13189,-0.36126 -0.13189,-0.49793c0,-0.49794 0.26855,-0.80617 0.80615,-0.92324l4.55741,-0.95238c0.28338,-0.05878 0.52757,-0.08793 0.73257,-0.08793c0.87928,0 1.31891,0.35171 1.31891,1.05513c0,0.3909 -0.19068,0.87449 -0.57154,1.4508c-0.9672,1.48473 -1.4508,2.49112 -1.4508,3.01868c0,0.25422 0.19019,0.4836 0.57153,0.68861c0.43963,0.21504 0.8009,0.40523 1.08475,0.57153c0.46879,0.26378 0.70342,0.58108 0.70342,0.95239c0,0.42005 -0.30296,0.95239 -0.90842,1.59703c-0.44012,0.45875 -1.20231,1.15738 -2.28659,2.09496zM84.04322,50.51892c0.19544,0 0.44441,0.08315 0.74738,0.24896c1.40636,0.7622 2.61297,1.50957 3.61935,2.24215c0.39041,0.29293 0.58634,0.63509 0.58634,1.0255c0,0.22507 -0.07836,0.44489 -0.23463,0.65946c-0.2246,0.32256 -0.52278,0.4836 -0.89361,0.4836c-0.35171,0 -0.67904,-0.15148 -0.98201,-0.45445c-0.84009,-0.81046 -1.8417,-1.65581 -3.00387,-2.53509c-0.40045,-0.30297 -0.60068,-0.59589 -0.60068,-0.87927c0,-0.1663 0.06356,-0.33212 0.19019,-0.49794c0.1467,-0.19497 0.33737,-0.29293 0.57153,-0.29293zM100.07371,56.55628l3.70729,-0.42482c0.21504,-0.01959 0.41001,-0.02963 0.58634,-0.02963c0.78131,0 1.29406,0.27382 1.53873,0.8205c0.13667,0.30297 0.205,0.72301 0.205,1.26013v12.00065c0,1.16264 -0.45444,1.74373 -1.36287,1.74373c-0.94761,0 -2.03189,-0.30296 -3.25284,-0.90842c-0.42005,-0.205 -0.6303,-0.46401 -0.6303,-0.77653c0,-0.45875 0.22938,-0.6886 0.68861,-0.6886c0.1467,0 0.34693,0.02963 0.60068,0.08793c0.70342,0.1663 1.17221,0.24896 1.40636,0.24896c0.34168,0 0.51275,-0.24419 0.51275,-0.73257v-3.61935l-4.469,0.36652v4.45419c0,0.26378 -0.09558,0.48121 -0.28576,0.65229c-0.19067,0.17108 -0.42769,0.25661 -0.71059,0.25661c-0.65468,0 -0.98153,-0.30297 -0.98153,-0.90843v-4.27881l-4.17607,0.33737v3.50181c0,0.22507 -0.07312,0.41526 -0.21982,0.57153c-0.20548,0.21504 -0.47404,0.32208 -0.80616,0.32208c-0.38086,0 -0.66903,-0.13189 -0.86447,-0.39567c-0.09797,-0.13667 -0.1467,-0.30297 -0.1467,-0.49841v-12.36718c0,-0.32208 0.12186,-0.57153 0.36652,-0.74738c0.18541,-0.12712 0.40045,-0.19019 0.64465,-0.19019c0.52756,0 0.85969,0.22459 0.99635,0.67426l4.9526,-0.54237c-1.0255,-0.6738 -2.105,-1.28929 -3.23802,-1.846c-0.38086,-0.18589 -0.57153,-0.4296 -0.57153,-0.73257c0,-0.50797 0.24897,-0.7622 0.74738,-0.7622c0.31253,0 1.23528,0.34216 2.76923,1.0255c1.01594,-0.55671 2.01756,-1.18702 3.00387,-1.89044c0.26378,-0.18541 0.39567,-0.32734 0.39567,-0.42483c0,-0.08793 -0.09271,-0.13189 -0.2786,-0.13189c-0.04922,0 -0.10274,0.00478 -0.16104,0.01434l-8.64507,1.1722c-0.07837,0.01004 -0.12712,0.01482 -0.1467,0.01482c-0.30297,0.01959 -0.54238,-0.13667 -0.71824,-0.46879c-0.07837,-0.1467 -0.11708,-0.30298 -0.11708,-0.46879c0,-0.56675 0.25901,-0.87879 0.77654,-0.93756l10.08154,-1.20184c0.23416,-0.02915 0.41001,-0.04396 0.52756,-0.04396c0.4296,0 0.78656,0.06834 1.06946,0.205c0.4296,0.20548 0.64464,0.51752 0.64464,0.93757c0,0.56675 -0.37607,1.12825 -1.12823,1.68496c-1.12346,0.83053 -2.37882,1.59751 -3.76607,2.30045c0.40045,0.25375 0.60068,0.5419 0.60068,0.86445c0.00096,0.15722 -0.04826,0.32304 -0.14575,0.49937zM97.62704,58.44624l-4.17607,0.46879v2.08063l4.17607,-0.39567zM93.45049,62.60798v2.19819l4.17607,-0.35171v-2.22733zM99.60493,58.22643v2.18336l4.469,-0.41v-1.52392c0,-0.41001 -0.22938,-0.62984 -0.68861,-0.65946c-0.05878,0 -0.10752,0 -0.14671,0zM104.07393,61.61115l-4.469,0.4253v2.25649l4.469,-0.38086z"/></g></g></svg>