<svg version="1.1" xmlns="http://www.w3.org/2000/svg" xmlns:xlink="http://www.w3.org/1999/xlink" width="403.13032" height="43.24728" viewBox="0,0,403.13032,43.24728"><g transform="translate(80.81641,26.81709)"><g data-paper-data="{&quot;isPaintingLayer&quot;:true}" fill="none" fill-rule="nonzero" stroke="none" stroke-width="1.4173" stroke-linecap="butt" stroke-linejoin="miter" stroke-miterlimit="10" stroke-dasharray="" stroke-dashoffset="0" font-family="none" font-weight="none" font-size="none" text-anchor="none" style="mix-blend-mode: normal"><g data-paper-data="{&quot;origPos&quot;:null}" fill="#ffffff" stroke="#ffffff"><path d="M24.78159,-22.89505c0.48856,0 0.73361,0.19242 0.73361,0.57727c-0.14883,3.98221 -0.22249,7.23234 -0.22249,9.74885v13.81225c0,2.279 0.03608,3.76725 0.11124,4.46328c0.07366,0.5938 0.22098,1.07334 0.44347,1.44317c0.32471,0.59229 1.70173,0.97564 4.13104,1.15603c0.26609,0.03006 0.39988,0.25105 0.39988,0.66446c0,0.42994 -0.10373,0.64492 -0.31118,0.64492c-2.6939,-0.11726 -4.83309,-0.17738 -6.41756,-0.17738c-1.37701,0 -3.55979,0.06013 -6.54985,0.17738c-0.20745,0 -0.31118,-0.21498 -0.31118,-0.6434c0,-0.41341 0.14733,-0.63739 0.44347,-0.66596c1.45068,-0.10223 2.45788,-0.25256 3.02011,-0.44347c0.42994,-0.14883 0.73962,-0.38484 0.93204,-0.71106c0.36981,-0.57727 0.55621,-2.54508 0.55621,-5.90493v-15.95896c0,-1.76036 -0.16236,-2.86226 -0.48856,-3.30725c-0.29615,-0.39988 -0.72609,-0.59831 -1.28832,-0.59831c-0.39988,0 -0.94707,0.10823 -1.6431,0.32772l-1.99788,0.61184c-0.38484,0 -0.57727,-0.30217 -0.57727,-0.90949c0,-0.17588 0.16986,-0.32471 0.50961,-0.44347c2.95998,-1.06734 5.80271,-2.35416 8.52667,-3.86346z"/><path d="M47.61211,-22.68307c2.97502,0 5.37277,1.54689 7.19326,4.64217c1.74683,2.94796 2.62024,6.88507 2.62024,11.81587c0,5.65688 -1.07334,9.98036 -3.22005,12.97192c-1.74683,2.42782 -3.94464,3.64248 -6.59494,3.64248c-3.25764,0 -5.76663,-1.5544 -7.52699,-4.66472c-1.59799,-2.84423 -2.39775,-6.73024 -2.39775,-11.66104c0,-5.79068 1.0959,-10.18029 3.2862,-13.17185c1.76186,-2.38271 3.97471,-3.57483 6.64005,-3.57483zM47.61211,-21.2745c-3.92209,0 -5.88388,5.06008 -5.88388,15.18174c0,5.71251 0.59229,9.7669 1.77689,12.16315c0.94707,1.92421 2.31657,2.88632 4.107,2.88632c1.99788,0 3.46359,-1.26578 4.39563,-3.79432c0.917,-2.47142 1.37701,-6.22364 1.37701,-11.25365c0,-10.12167 -1.92571,-15.18325 -5.77265,-15.18325z"/><path d="M68.70932,8.40802c0,2.40226 -1.70324,4.794 -5.10668,7.17973c-0.0887,0.09019 -0.17738,0.13379 -0.26609,0.13379c-0.17738,0 -0.36229,-0.11876 -0.55472,-0.35478c-0.17738,-0.19393 -0.26609,-0.3638 -0.26609,-0.51113c0,-0.1353 0.07366,-0.25256 0.22098,-0.35628c1.98284,-1.30335 2.97502,-2.54808 2.97502,-3.73418c0,-0.44497 -0.25857,-0.80727 -0.7772,-1.08989c-1.06583,-0.56223 -1.59799,-1.141 -1.59799,-1.73329c0,-0.78472 0.31719,-1.50329 0.95459,-2.15571c0.56223,-0.56373 1.16956,-0.84636 1.82048,-0.84636c0.65244,0 1.25827,0.37883 1.82048,1.13348c0.51713,0.69753 0.7772,1.47472 0.7772,2.33461z"/><path d="M84.6758,-22.68307c2.97502,0 5.37277,1.54689 7.19326,4.64217c1.74683,2.94796 2.62024,6.88507 2.62024,11.81587c0,5.65688 -1.07334,9.98036 -3.22005,12.97192c-1.74683,2.42782 -3.94464,3.64248 -6.59494,3.64248c-3.25764,0 -5.76663,-1.5544 -7.52699,-4.66472c-1.59799,-2.84423 -2.39775,-6.73024 -2.39775,-11.66104c0,-5.79068 1.0959,-10.18029 3.2862,-13.17185c1.76186,-2.38271 3.9762,-3.57483 6.64005,-3.57483zM84.6758,-21.2745c-3.92209,0 -5.88388,5.06008 -5.88388,15.18174c0,5.71251 0.59229,9.7669 1.77689,12.16315c0.94707,1.92421 2.31657,2.88632 4.107,2.88632c1.99788,0 3.46359,-1.26578 4.39563,-3.79432c0.917,-2.47142 1.37701,-6.22364 1.37701,-11.25365c0,-10.12167 -1.92421,-15.18325 -5.77265,-15.18325z"/><path d="M109.3253,-22.68307c2.97502,0 5.37427,1.54689 7.19475,4.64217c1.74683,2.94796 2.62024,6.88507 2.62024,11.81587c0,5.65688 -1.07334,9.98036 -3.22005,12.97192c-1.74683,2.42782 -3.94614,3.64248 -6.59494,3.64248c-3.25613,0 -5.76512,-1.5544 -7.52699,-4.66472c-1.59799,-2.84423 -2.39775,-6.73024 -2.39775,-11.66104c0,-5.79068 1.0959,-10.18029 3.2862,-13.17185c1.76186,-2.38271 3.97471,-3.57483 6.63854,-3.57483zM109.3253,-21.2745c-3.92209,0 -5.88388,5.06008 -5.88388,15.18174c0,5.71251 0.59229,9.7669 1.77689,12.16315c0.94707,1.92421 2.31657,2.88632 4.107,2.88632c1.99938,0 3.46509,-1.26578 4.39713,-3.79432c0.917,-2.47142 1.37701,-6.22364 1.37701,-11.25365c0,-10.12167 -1.92421,-15.18325 -5.77415,-15.18325z"/><path d="M133.97628,-22.68307c2.97502,0 5.37427,1.54689 7.19475,4.64217c1.74683,2.94796 2.61874,6.88507 2.61874,11.81587c0,5.65688 -1.07185,9.98036 -3.21855,12.97192c-1.74683,2.42782 -3.94614,3.64248 -6.59494,3.64248c-3.25613,0 -5.76512,-1.5544 -7.52699,-4.66472c-1.59799,-2.84423 -2.39775,-6.73024 -2.39775,-11.66104c0,-5.79068 1.0959,-10.18029 3.2862,-13.17185c1.76186,-2.38271 3.97321,-3.57483 6.63854,-3.57483zM133.97628,-21.2745c-3.92209,0 -5.88388,5.06008 -5.88388,15.18174c0,5.71251 0.59229,9.7669 1.77689,12.16315c0.94707,1.92421 2.31657,2.88632 4.107,2.88632c1.99938,0 3.46509,-1.26578 4.39713,-3.79432c0.917,-2.47142 1.37701,-6.22364 1.37701,-11.25365c0,-10.12167 -1.92571,-15.18325 -5.77415,-15.18325z"/><path d="M155.14113,-6.8053v19.47816c0,0.87192 -0.63739,1.30937 -1.90918,1.30937c-0.84636,0 -1.26727,-0.37733 -1.26727,-1.13198l0.22098,-21.56023c0,-9.40009 -0.07366,-14.94873 -0.22098,-16.65197c1.43565,0.62236 2.64279,1.21617 3.61993,1.77991h26.86684c0.99218,-1.06734 1.59198,-1.60101 1.79794,-1.60101c0.20594,0 0.88844,0.47354 2.04148,1.42061c0.46001,0.35478 0.69001,0.68851 0.69001,0.99969c0,0.32621 -0.39387,0.74714 -1.17708,1.26578v10.92443l0.22098,20.47034c0,1.46571 -0.65244,2.52402 -1.95428,3.17496c-0.66596,0.40287 -1.40708,0.60432 -2.22037,0.60432c-0.35478,0 -0.58628,-0.2751 -0.68851,-0.8223c-0.07517,-0.62086 -0.43746,-1.10191 -1.08839,-1.44317c-0.69602,-0.36981 -1.97082,-0.75465 -3.81987,-1.15453c-0.11876,-0.03006 -0.17738,-0.13379 -0.17738,-0.31118c0,-0.22098 0.07366,-0.33373 0.22098,-0.33373c2.44285,0.19242 4.32197,0.28864 5.64036,0.28864c0.60733,0 0.90949,-0.28864 0.90949,-0.8674v-15.8402h-27.70568zM155.14113,-7.93578h12.1466v-14.51128h-12.1466zM182.85281,-7.93578v-14.51128h-12.69982v14.51128z"/><path d="M224.13627,-12.62456c-6.05376,0.23752 -11.65653,0.73211 -16.80982,1.48826c-0.69602,0.10223 -1.21315,0.25857 -1.5529,0.46602c-0.20896,0.11876 -0.45249,0.17738 -0.73361,0.17738c-0.84335,0 -1.85657,-0.65244 -3.04116,-1.95428c-0.66596,-0.71106 -0.99819,-1.40708 -0.99819,-2.08807c0,-0.48707 0.11726,-0.73211 0.35478,-0.73211c0.11726,0 0.34726,0.16986 0.68851,0.51113c0.84335,0.84485 1.93925,1.26578 3.2862,1.26578c1.16956,0 2.44285,-0.05862 3.81987,-0.17738c6.43861,-0.52014 10.83573,-0.85387 13.18838,-1.00269c0.73962,-0.05862 1.25075,-0.23001 1.53185,-0.51262c0.48856,-0.49007 0.89596,-0.7351 1.22218,-0.7351c0.46001,0 1.10342,0.4074 1.93173,1.22218c0.96362,0.97715 1.44466,1.71225 1.44466,2.19931c0,0.28262 -0.28864,0.57125 -0.8659,0.8674c-0.42994,0.17738 -0.67348,0.46001 -0.73361,0.84485c-0.19242,0.88995 -0.62086,2.85777 -1.28682,5.91095c-0.47354,2.20683 -0.85838,3.97019 -1.15453,5.28859c1.45068,0.51713 2.17526,1.10943 2.17526,1.77689c0,0.66746 -0.28864,0.99969 -0.8659,0.99969l-2.90887,-0.13379c-1.46721,0 -3.14639,0.07517 -5.04204,0.22249c-3.27116,0.26609 -6.7122,0.61335 -10.32462,1.04329c-0.63588,0.07517 -1.0959,0.19993 -1.37551,0.37733c-0.32621,0.20896 -0.69001,0.31118 -1.08989,0.31118c-0.48707,0 -1.33192,-0.56223 -2.53154,-1.68821c-0.44347,-0.39988 -0.81478,-0.89446 -1.10943,-1.48675c-0.26759,-0.5036 -0.39988,-0.90949 -0.39988,-1.22218c0,-0.39988 0.1849,-0.59831 0.55472,-0.59831c0.14733,0 0.39988,0.1849 0.75465,0.55472c1.13949,0.99218 2.20533,1.48675 3.1975,1.48675c0.48707,0 1.77689,-0.0887 3.86346,-0.26609c3.84843,-0.35478 8.05915,-0.74714 12.63368,-1.17708c0.92002,-4.6061 1.6446,-9.01976 2.17677,-13.2395z"/><path d="M277.12432,-5.67483c0,0.69602 -0.51864,1.04329 -1.5544,1.04329l-6.26122,-0.17738c-5.44793,0 -11.70914,0.29013 -18.78515,0.87192c-1.22819,0.10223 -2.04148,0.30516 -2.44285,0.60131c-0.34124,0.23902 -0.82982,0.35779 -1.46571,0.35779c-0.84485,0 -1.7844,-0.76518 -2.82017,-2.29403c-0.72459,-1.05381 -1.08839,-1.9152 -1.08839,-2.58416c0,-0.49007 0.11876,-0.7351 0.35478,-0.7351c0.25105,0 0.52616,0.20145 0.8223,0.60131c0.93204,1.15904 1.93022,1.7363 2.99606,1.7363c1.52584,0 3.61993,-0.09019 6.28527,-0.26609c6.73475,-0.42994 12.17517,-0.67348 16.31975,-0.73361c1.03577,0 1.82048,-0.15634 2.35265,-0.46602c0.42994,-0.23602 0.88844,-0.35478 1.37701,-0.35478c0.41341,0 0.99067,0.14883 1.7303,0.44347c1.45217,0.63891 2.17977,1.28983 2.17977,1.95579z"/><path d="M308.10569,-4.98481c4.91577,1.99788 8.70407,4.34452 11.3679,7.03841c1.42061,1.49427 2.13167,2.6924 2.13167,3.59587c0,1.12447 -0.43446,1.68669 -1.30937,1.68669c-0.71106,0 -1.34694,-0.4074 -1.90918,-1.22218c-3.41848,-4.70531 -7.19326,-8.04262 -11.32431,-10.01043c-4.94433,5.31263 -10.67338,9.34597 -17.18564,12.0985c-0.53368,0.23752 -0.94106,0.35478 -1.22218,0.35478c-0.36981,0 -0.55472,-0.15634 -0.55472,-0.46753c0,-0.25105 0.11726,-0.44347 0.35478,-0.57727c6.18605,-3.38993 11.2356,-7.16469 15.14267,-11.32431c3.27116,-3.46359 6.01767,-7.17221 8.23653,-11.12436c0.14883,-0.26609 0.22249,-0.43595 0.22249,-0.51113c0,-0.05862 -0.07517,-0.0887 -0.22249,-0.0887c-2.08807,0 -6.2537,0.57727 -12.49988,1.7303c-0.71106,0.13379 -1.22819,0.30366 -1.5544,0.51113c-0.36981,0.20896 -0.74714,0.31118 -1.13198,0.31118c-0.85838,0 -1.90317,-0.63588 -3.13137,-1.90768c-0.75465,-0.76818 -1.13198,-1.57394 -1.13198,-2.41579c0,-0.4585 0.13379,-0.68701 0.39988,-0.68701c0.16236,0 0.36229,0.12627 0.59831,0.37733c1.15603,1.15001 2.29403,1.72428 3.41848,1.72428c0.20896,0 1.35446,-0.09019 3.44254,-0.26609l10.4133,-1.08388c0.75615,-0.10373 1.34694,-0.36079 1.77689,-0.7757c0.32621,-0.34124 0.60733,-0.51113 0.84485,-0.51113c0.48856,0 1.2357,0.34726 2.2429,1.04329c0.84485,0.62086 1.26427,1.19813 1.26427,1.7303c0,0.35478 -0.37582,0.68851 -1.13048,0.99819c-0.5938,0.22249 -1.06583,0.62987 -1.42061,1.22218c-1.58447,2.62476 -3.62744,5.47349 -6.12892,8.55073z"/></g><g data-paper-data="{&quot;origPos&quot;:null}" fill="#b42723" stroke="#b41d23"><path d="M-61.80504,-20.6807v-2.3752c0,-0.98917 -0.07517,-1.95879 -0.22249,-2.90587c2.04297,0.23602 3.38241,0.46001 4.0183,0.66596c0.44497,0.14883 0.66596,0.35327 0.66596,0.62086c0,0.32621 -0.54721,0.71707 -1.6431,1.17407v2.81867h13.23349c1.45068,-1.61454 2.28651,-2.42031 2.50899,-2.42031c0.28262,0 1.12596,0.59229 2.53154,1.77689c0.69602,0.56223 1.04329,1.00721 1.04329,1.33192c0,0.29615 -0.19242,0.44497 -0.57727,0.44497h-35.88209c-1.19962,0 -2.29403,0.09019 -3.2862,0.26609l-0.44497,-1.70925c1.36198,0.20745 2.60521,0.31118 3.72967,0.31118zM-74.08393,-4.12042h28.06647c0.93204,-0.97715 1.48675,-1.46721 1.66414,-1.46721c0.19242,0 0.79976,0.42994 1.82048,1.28682c0.57727,0.48856 0.8659,0.85086 0.8659,1.08989c0,0.28112 -0.43595,0.67197 -1.30937,1.17557v4.37309l0.17738,9.81199c0,1.28682 -0.56373,2.25644 -1.68821,2.90887c-0.62086,0.36981 -1.30186,0.55472 -2.04148,0.55472c-0.35478,0 -0.56975,-0.19993 -0.64492,-0.59981c-0.0887,-0.75465 -0.4074,-1.28682 -0.95459,-1.59799c-0.54721,-0.31118 -1.62055,-0.62236 -3.22005,-0.93355c-0.11876,-0.03006 -0.17738,-0.12627 -0.17738,-0.28713c0,-0.20745 0.07366,-0.31118 0.22098,-0.31118c2.29403,0.14883 3.85594,0.22098 4.68426,0.22098c0.60733,0 0.91099,-0.2736 0.91099,-0.8208v-14.27376h-28.68582v17.18263c0,0.94707 -0.59229,1.42061 -1.77689,1.42061c-0.78472,0 -1.17708,-0.39236 -1.17708,-1.17557l0.17738,-11.78883c0,-4.54295 -0.05862,-7.34959 -0.17738,-8.41543c1.07936,0.38635 2.16925,0.93505 3.26515,1.64611zM-52.21404,-7.94479h-15.96496v0.44497c0,0.79825 -0.54721,1.19813 -1.6431,1.19813c-0.75615,0 -1.13348,-0.33223 -1.13348,-0.99819l0.09019,-5.14427c0,-2.08507 -0.06013,-3.73268 -0.17738,-4.94733c0.88844,0.36981 1.9618,0.91851 3.22005,1.6446h15.29751c0.85838,-0.97715 1.38454,-1.46721 1.57696,-1.46721c0.22098,0 0.81478,0.39236 1.77689,1.17708c0.57727,0.47354 0.8659,0.82832 0.8659,1.06433c0,0.26609 -0.4074,0.6434 -1.22218,1.13048v1.59799l0.0887,4.63314c0,0.84485 -0.5487,1.26578 -1.6431,1.26578c-0.75465,0 -1.13198,-0.33373 -1.13198,-0.99819zM-54.81172,8.52077h-10.81318v1.59799c0,0.78321 -0.54721,1.17708 -1.6431,1.17708c-0.72459,0 -1.08839,-0.34726 -1.08839,-1.04329l0.0887,-5.41786c0,-2.36769 -0.07366,-4.18818 -0.22249,-5.46146c1.27329,0.54721 2.31657,1.06583 3.13137,1.5544h10.23592c0.84335,-0.87341 1.35446,-1.31087 1.53185,-1.31087c0.26609,0 0.84485,0.37733 1.73179,1.13348c0.48856,0.38484 0.73211,0.73211 0.73211,1.04329c0,0.26609 -0.37733,0.6434 -1.13198,1.13048v1.73179l0.13229,4.63917c0,0.78472 -0.53217,1.17708 -1.59799,1.17708c-0.72459,0 -1.08839,-0.30366 -1.08839,-0.90949v-1.04178zM-52.21404,-9.07678v-5.53963h-15.96496v5.53963zM-54.81172,7.38879v-5.32767h-10.81318v5.32767z"/><path d="M-34.64354,12.16024c-0.03006,0.05862 -0.09621,0.0887 -0.19993,0.0887c-0.29615,0 -0.44347,-0.10223 -0.44347,-0.30968c0,-0.01503 0,-0.03608 0,-0.06765c1.16956,-3.06371 2.0054,-6.15298 2.50899,-9.26179c0.20745,-1.37701 0.31118,-2.51651 0.31118,-3.41999c1.70173,0.41491 2.77507,0.72609 3.22005,0.93355c0.31118,0.14883 0.46602,0.34124 0.46602,0.57727c0,0.35628 -0.4074,0.64492 -1.22218,0.8659c-0.66596,2.35416 -1.32441,4.27236 -1.97533,5.7531c-0.66746,1.50931 -1.55591,3.12234 -2.66533,4.84059zM-30.5576,-6.44753c2.30905,-2.95998 4.2483,-5.98761 5.81774,-9.08139c0.85838,-1.67165 1.40708,-3.02011 1.6431,-4.04086c1.62806,0.71106 2.66383,1.20714 3.10881,1.48826c0.38484,0.23602 0.57727,0.46753 0.57727,0.68701c0,0.42994 -0.54721,0.64492 -1.6431,0.64492c-2.50298,4.02733 -5.23296,7.4458 -8.19444,10.25847c2.1016,-0.05862 4.77295,-0.28112 8.01706,-0.66596c-0.41491,-1.02074 -1.06583,-2.08657 -1.95428,-3.1975c-0.03006,-0.04359 -0.0451,-0.0887 -0.0451,-0.13379c0,-0.20594 0.11124,-0.30968 0.33223,-0.30968c0.0451,0 0.09019,0.00752 0.13379,0.02255c1.58447,0.90348 2.84273,1.97533 3.77477,3.22005c0.81478,1.08086 1.22218,2.08807 1.22218,3.02011c0,0.51864 -0.15634,0.93956 -0.46602,1.26578c-0.26609,0.28262 -0.59981,0.42242 -0.99969,0.42242c-0.38484,0 -0.66596,-0.13379 -0.84485,-0.40138c-0.14883,-0.22098 -0.2736,-0.63588 -0.37733,-1.24322c-0.16236,-0.76968 -0.33373,-1.40708 -0.51113,-1.90918c-1.58447,0.44347 -2.93142,0.79825 -4.04086,1.06583v9.7684c0,2.99156 0.0451,6.21912 0.13229,9.6812c0,0.84485 -0.56223,1.26578 -1.68669,1.26578c-0.78472,0 -1.17708,-0.34726 -1.17708,-1.04329c0.17738,-3.81836 0.26609,-6.80089 0.26609,-8.94759v-10.19232c-1.21466,0.26759 -2.93894,0.57125 -5.17282,0.90949c-0.28112,0.87491 -0.58479,1.31087 -0.91099,1.31087c-0.35478,0 -0.75465,-1.30186 -1.19813,-3.90856c0.57727,0.06013 1.22819,0.09019 1.95428,0.09019c1.03577,-0.00151 1.78291,-0.01653 2.2429,-0.0466zM-30.78009,-17.33888c0.84335,-1.65964 1.59198,-3.41999 2.2429,-5.28557c0.47354,-1.47924 0.73962,-2.55259 0.79976,-3.22005c1.67317,0.59229 2.75403,1.02223 3.24109,1.28682c0.47354,0.25256 0.71106,0.48856 0.71106,0.71106c0,0.39988 -0.55472,0.67348 -1.66414,0.8223c-1.49577,2.42782 -3.0126,4.49936 -4.55197,6.21763c1.45068,1.0508 2.17677,2.13167 2.17677,3.24109c0,0.56223 -0.14883,1.00721 -0.44347,1.33192c-0.25105,0.29615 -0.55472,0.44497 -0.90949,0.44497c-0.34124,0 -0.59981,-0.12478 -0.7772,-0.37733c-0.16236,-0.22098 -0.36229,-0.67348 -0.59981,-1.35446c-0.5036,-1.52433 -1.69422,-3.15993 -3.57483,-4.90675c-0.04359,-0.0451 -0.06614,-0.09621 -0.06614,-0.15634c0,-0.17738 0.09471,-0.26759 0.28713,-0.26759c0.03006,0 0.06013,0.00752 0.09019,0.02255c1.10642,0.46001 2.12115,0.9561 3.03815,1.48976zM-23.67403,-0.72298c-0.01503,-0.03006 -0.02255,-0.05862 -0.02255,-0.09019c0,-0.14733 0.10223,-0.22098 0.31118,-0.22098c0.06013,0 0.11876,0.01653 0.17738,0.0451c1.16956,0.82832 2.10911,1.8731 2.82017,3.13137c0.59229,1.03577 0.88844,1.98434 0.88844,2.84423c0,0.60733 -0.14883,1.08989 -0.44347,1.44466c-0.25105,0.34124 -0.58479,0.51113 -0.99969,0.51113c-0.42844,0 -0.72459,-0.17889 -0.88844,-0.53368c-0.13229,-0.29465 -0.23602,-0.81328 -0.31118,-1.5544c-0.22249,-2.13318 -0.73211,-3.99275 -1.53185,-5.57721zM-12.12874,-13.97451c-0.23752,6.26122 -0.82982,11.11685 -1.77689,14.56541c-0.84485,3.18248 -2.0054,5.94252 -3.48613,8.28315c-1.27329,2.02794 -2.93744,3.98072 -4.99544,5.85984c-0.03006,0.03006 -0.07366,0.0451 -0.13229,0.0451c-0.32621,0 -0.48856,-0.11876 -0.48856,-0.35478c0,-0.0451 0.00752,-0.08268 0.02255,-0.11124c3.50718,-4.29039 5.84029,-9.32793 6.99332,-15.1141c0.57727,-2.75103 0.96963,-5.88839 1.17708,-9.41061c0.14733,-2.79613 0.22098,-6.61298 0.22098,-11.45209h-0.62236c-1.1846,0 -2.36919,0.09019 -3.55228,0.26609l-0.42242,-1.70925c1.40708,0.20745 2.71645,0.31118 3.92961,0.31118h11.21307c0.93204,-0.97715 1.50931,-1.46721 1.73179,-1.46721c0.26759,0 0.85086,0.42994 1.75435,1.28682c0.48856,0.47354 0.73211,0.83733 0.73211,1.08688c0,0.32621 -0.43595,0.67197 -1.30937,1.04178c-0.78472,3.38391 -1.59799,6.39801 -2.44285,9.04381h4.46328c0.85838,-0.97715 1.38454,-1.46721 1.57696,-1.46721c0.23602,0 0.83733,0.46001 1.79794,1.37701c0.46001,0.44497 0.68851,0.80727 0.68851,1.08839c0,0.28262 -0.41491,0.59981 -1.24322,0.9561c-1.48074,5.86134 -3.7447,10.66736 -6.79489,14.41207c2.88632,3.34783 6.18755,5.72302 9.90219,7.12862c0.10373,0.03006 0.15634,0.0887 0.15634,0.17738c0,0.17738 -0.09621,0.28262 -0.28864,0.31118c-0.46001,0.07366 -0.80727,0.25105 -1.04329,0.53217c-0.20745,0.23602 -0.42242,0.65244 -0.64492,1.24322c-0.16236,0.46001 -0.36981,0.68851 -0.62086,0.68851c-0.20745,0 -0.75465,-0.30366 -1.6431,-0.90949c-2.82769,-1.84905 -5.30662,-4.27085 -7.4383,-7.26091c-3.45006,3.61091 -8.04712,6.50625 -13.7897,8.68151c-0.03006,0 -0.05111,0 -0.06614,0c-0.20745,0 -0.31118,-0.14883 -0.31118,-0.44497c0,-0.10223 0.03006,-0.16986 0.0887,-0.19993c5.28407,-2.75254 9.53238,-6.11991 12.74491,-10.10363c-0.75465,-1.25827 -1.39205,-2.41879 -1.90918,-3.48464c-2.0986,-4.30543 -3.48914,-9.27081 -4.17163,-14.89613zM-11.99496,-20.35448c0.51713,8.45452 2.62626,15.56208 6.32735,21.3197c0.20745,0.35478 0.55472,0.8659 1.04329,1.53336c2.59168,-3.77477 4.4708,-8.16438 5.64036,-13.16734h-5.01798c-0.13379,0.5036 -0.23752,0.83733 -0.31118,0.99969c-0.23752,0.69602 -0.76968,1.04178 -1.59799,1.04178c-0.97715,0 -1.46571,-0.19993 -1.46571,-0.59831c0,-0.19242 0.05862,-0.44347 0.17738,-0.75465c1.31689,-3.41398 2.44887,-7.3075 3.39744,-11.68208h-8.19294z"/></g></g></g></svg>