<svg version="1.1" xmlns="http://www.w3.org/2000/svg" xmlns:xlink="http://www.w3.org/1999/xlink" width="129.63618" height="53.97255" viewBox="0,0,129.63618,53.97255"><g transform="translate(-200.99532,-152.23863)"><g data-paper-data="{&quot;isPaintingLayer&quot;:true}" fill="#000000" fill-rule="nonzero" stroke="#000000" stroke-width="none" stroke-linecap="butt" stroke-linejoin="miter" stroke-miterlimit="10" stroke-dasharray="" stroke-dashoffset="0" font-family="none" font-weight="none" font-size="none" text-anchor="none" style="mix-blend-mode: normal"><path d="M256.94626,184.74213c-0.986,2.534 -2.112,4.364 -3.379,5.49c-1.689,1.689 -3.52,2.534 -5.49,2.534c-1.97,0 -3.801,-0.845 -5.49,-2.534c-1.408,-1.267 -2.604,-3.098 -3.59,-5.49c-1.267,-3.237 -1.9,-6.616 -1.9,-10.136c0,-3.519 0.633,-6.827 1.9,-9.925c0.985,-2.393 2.182,-4.293 3.59,-5.7c1.689,-1.549 3.519,-2.323 5.49,-2.323c1.971,0 3.801,0.774 5.49,2.323c1.408,1.407 2.534,3.308 3.379,5.7c1.267,3.52 1.9,6.828 1.9,9.925c0,3.378 -0.633,6.757 -1.9,10.136zM251.24426,159.61413c-0.985,-0.845 -2.042,-1.267 -3.167,-1.267c-1.126,0 -2.182,0.422 -3.167,1.267c-2.535,2.534 -3.801,7.532 -3.801,14.992c0,7.602 1.267,12.67 3.801,15.203c0.985,0.845 2.041,1.268 3.167,1.268c1.126,0 2.182,-0.423 3.167,-1.268c2.393,-2.393 3.59,-7.46 3.59,-15.203c0,-7.601 -1.197,-12.598 -3.59,-14.992z" data-paper-data="{&quot;origPos&quot;:null}" stroke-width="2"/><path d="M256.90353,185.01457c-0.986,2.534 -2.112,4.364 -3.379,5.49c-1.689,1.689 -3.52,2.534 -5.49,2.534c-1.97,0 -3.801,-0.845 -5.49,-2.534c-1.408,-1.267 -2.604,-3.098 -3.59,-5.49c-1.267,-3.237 -1.9,-6.616 -1.9,-10.136c0,-3.519 0.633,-6.827 1.9,-9.925c0.985,-2.393 2.182,-4.293 3.59,-5.7c1.689,-1.549 3.519,-2.323 5.49,-2.323c1.971,0 3.801,0.774 5.49,2.323c1.408,1.407 2.534,3.308 3.379,5.7c1.267,3.52 1.9,6.828 1.9,9.925c0,3.378 -0.633,6.757 -1.9,10.136zM251.20153,159.88657c-0.985,-0.845 -2.042,-1.267 -3.167,-1.267c-1.126,0 -2.182,0.422 -3.167,1.267c-2.535,2.534 -3.801,7.532 -3.801,14.992c0,7.602 1.267,12.67 3.801,15.203c0.985,0.845 2.041,1.268 3.167,1.268c1.126,0 2.182,-0.423 3.167,-1.268c2.393,-2.393 3.59,-7.46 3.59,-15.203c0,-7.601 -1.197,-12.598 -3.59,-14.992z" data-paper-data="{&quot;origPos&quot;:null}" stroke-width="2"/><path d="M292.79027,184.65667c-0.986,2.534 -2.112,4.364 -3.379,5.49c-1.689,1.689 -3.52,2.534 -5.49,2.534c-1.97,0 -3.801,-0.845 -5.49,-2.534c-1.408,-1.267 -2.604,-3.098 -3.59,-5.49c-1.267,-3.237 -1.9,-6.616 -1.9,-10.136c0,-3.519 0.633,-6.827 1.9,-9.925c0.985,-2.393 2.182,-4.293 3.59,-5.7c1.689,-1.549 3.519,-2.323 5.49,-2.323c1.971,0 3.801,0.774 5.49,2.323c1.408,1.407 2.534,3.308 3.379,5.7c1.267,3.52 1.9,6.828 1.9,9.925c0,3.378 -0.633,6.757 -1.9,10.136zM287.08827,159.52867c-0.985,-0.845 -2.042,-1.267 -3.167,-1.267c-1.126,0 -2.182,0.422 -3.167,1.267c-2.535,2.534 -3.801,7.532 -3.801,14.992c0,7.602 1.267,12.67 3.801,15.203c0.985,0.845 2.041,1.268 3.167,1.268c1.126,0 2.182,-0.423 3.167,-1.268c2.393,-2.393 3.59,-7.46 3.59,-15.203c0,-7.601 -1.197,-12.598 -3.59,-14.992z" data-paper-data="{&quot;origPos&quot;:null}" stroke-width="2"/><path d="M327.7315,184.9291c-0.986,2.534 -2.112,4.364 -3.379,5.49c-1.689,1.689 -3.52,2.534 -5.49,2.534c-1.97,0 -3.801,-0.845 -5.49,-2.534c-1.408,-1.267 -2.604,-3.098 -3.59,-5.49c-1.267,-3.237 -1.9,-6.616 -1.9,-10.136c0,-3.519 0.633,-6.827 1.9,-9.925c0.985,-2.393 2.182,-4.293 3.59,-5.7c1.689,-1.549 3.519,-2.323 5.49,-2.323c1.971,0 3.801,0.774 5.49,2.323c1.408,1.407 2.534,3.308 3.379,5.7c1.267,3.52 1.9,6.828 1.9,9.925c0,3.378 -0.633,6.757 -1.9,10.136zM322.0295,159.8011c-0.985,-0.845 -2.042,-1.267 -3.167,-1.267c-1.126,0 -2.182,0.422 -3.167,1.267c-2.535,2.534 -3.801,7.532 -3.801,14.992c0,7.602 1.267,12.67 3.801,15.203c0.985,0.845 2.041,1.268 3.167,1.268c1.126,0 2.182,-0.423 3.167,-1.268c2.393,-2.393 3.59,-7.46 3.59,-15.203c0,-7.601 -1.197,-12.598 -3.59,-14.992z" data-paper-data="{&quot;origPos&quot;:null}" stroke-width="2"/><text transform="translate(223.54485,193.4818) scale(1.01835,1.01835)" font-size="40" xml:space="preserve" data-paper-data="{&quot;origPos&quot;:null}" fill="#000000" fill-rule="nonzero" stroke="#000000" stroke-width="1" stroke-linecap="butt" stroke-linejoin="miter" stroke-miterlimit="10" stroke-dasharray="" stroke-dashoffset="0" font-family="Serif" font-weight="normal" text-anchor="start" style="mix-blend-mode: normal"><tspan x="0" dy="0">,</tspan></text><path d="M213.64932,171.03699c2.111,0 4.012,0.845 5.701,2.534c2.252,2.253 3.378,5.139 3.378,8.657c0,3.52 -1.197,6.405 -3.59,8.657c-1.971,1.971 -4.575,2.956 -7.813,2.956c-2.675,0 -4.857,-0.773 -6.546,-2.322c-1.689,-1.549 -2.534,-3.308 -2.534,-5.278c0,-0.985 0.281,-1.76 0.844,-2.323c0.563,-0.563 1.197,-0.845 1.901,-0.845c0.563,0 1.055,0.212 1.478,0.634c0.422,0.422 0.634,0.984 0.634,1.688c0,0.846 -0.211,1.479 -0.634,1.901c-0.423,0.563 -0.633,1.126 -0.633,1.688c0,0.704 0.352,1.408 1.056,2.112c0.985,0.845 2.534,1.267 4.646,1.267c2.112,0 3.801,-0.633 5.068,-1.9c1.689,-1.548 2.534,-4.153 2.534,-7.813c0,-3.52 -0.845,-6.124 -2.534,-7.813c-1.126,-1.126 -2.464,-1.689 -4.012,-1.689c-2.393,0 -4.716,1.549 -6.968,4.646l-1.9,-0.212l1.055,-19.848h17.315l-0.633,3.167h-15.204l-0.845,14.57c2.675,-2.956 5.42,-4.434 8.236,-4.434z" data-paper-data="{&quot;origPos&quot;:null}" stroke-width="2.5"/></g></g></svg>