<svg version="1.1" xmlns="http://www.w3.org/2000/svg" xmlns:xlink="http://www.w3.org/1999/xlink" width="54.83229" height="26.94878"><g transform="translate(30.91753,-48.96443)"><g data-paper-data="{&quot;isPaintingLayer&quot;:true}" fill="#000000" fill-rule="nonzero" stroke="none" stroke-width="1" stroke-linecap="butt" stroke-linejoin="miter" stroke-miterlimit="10" stroke-dasharray="" stroke-dashoffset="0" font-family="none" font-weight="none" font-size="none" text-anchor="none" style="mix-blend-mode: normal"><path d="M-27.97195,66.30045c0.1467,0 0.28815,0.02963 0.42482,0.08793c0.40045,0.17585 0.60115,0.48361 0.60115,0.92324c0,0.40045 -0.20786,1.10626 -0.62313,2.11742c-0.41527,1.01116 -0.89648,1.9712 -1.44364,2.87914c-0.44919,0.7622 -0.84009,1.14306 -1.17221,1.14306c-0.12712,0 -0.26855,-0.04397 -0.42482,-0.13189c-0.20548,-0.12712 -0.30775,-0.3173 -0.30775,-0.57152c0,-0.1663 0.09223,-0.45446 0.27812,-0.86447c0.71298,-1.57265 1.25535,-3.08223 1.62618,-4.52778c0.17681,-0.70342 0.52327,-1.05513 1.04127,-1.05513zM-25.53961,58.21209c1.17221,-1.47518 2.1007,-2.77449 2.78405,-3.89796c0.33212,-0.53712 0.70342,-0.80617 1.11342,-0.80617c0.23416,0 0.43964,0.07837 0.6155,0.23464c0.26378,0.2246 0.39567,0.47834 0.39567,0.76172c0,0.26378 -0.1123,0.55194 -0.3369,0.86494c-1.34806,1.86559 -2.99909,3.84396 -4.9526,5.93414c-0.6843,0.73257 -1.34806,1.39202 -1.99318,1.97836c1.90477,-0.33212 3.74169,-0.80617 5.50979,-1.42165c-0.29293,-0.53712 -0.51801,-0.95239 -0.67427,-1.24532c-0.09748,-0.18589 -0.1467,-0.35648 -0.1467,-0.51275c0,-0.2246 0.09749,-0.40571 0.29293,-0.54238c0.11708,-0.09748 0.23942,-0.1467 0.36653,-0.1467c0.31253,0 0.7469,0.37607 1.30409,1.12823c0.51753,0.68383 1.02073,1.51388 1.50911,2.49064c0.12712,0.26378 0.19019,0.50797 0.19019,0.73257c0,0.32256 -0.13189,0.56197 -0.39567,0.71775c-0.18589,0.11755 -0.37607,0.17585 -0.57105,0.17585c-0.42005,0 -0.7622,-0.32734 -1.0255,-0.98153c-0.06881,-0.1663 -0.13714,-0.33212 -0.20548,-0.49842c-0.6738,0.25422 -1.35809,0.48838 -2.05148,0.70342v10.88722c0,0.26378 -0.09271,0.47835 -0.27812,0.64465c-0.18589,0.17585 -0.42052,0.26378 -0.7039,0.26378c-0.35123,0 -0.62027,-0.12233 -0.80568,-0.36652c-0.108,-0.1467 -0.16152,-0.32734 -0.16152,-0.54238v-10.33051c-2.12937,0.57631 -3.40431,0.86446 -3.82436,0.86446c-0.25422,0 -0.45923,-0.12185 -0.6155,-0.36652c-0.1663,-0.26378 -0.24896,-0.49794 -0.24896,-0.70342c0,-0.2246 0.26904,-0.62505 0.80616,-1.20184c0.84965,-0.90843 1.85651,-2.07058 3.01868,-3.48746c-0.67426,-0.25375 -1.51961,-0.54716 -2.53555,-0.87928c-0.68383,-0.23416 -1.0255,-0.58108 -1.0255,-1.04031c0,-0.34168 0.28864,-0.86447 0.86494,-1.56788c1.38677,-1.68974 2.62778,-3.5362 3.7221,-5.53894c0.29293,-0.53712 0.63986,-0.80616 1.04031,-0.80616c0.17585,0 0.35649,0.054 0.54238,0.16104c0.31205,0.18589 0.46831,0.45924 0.46831,0.8205c0,0.32256 -0.24419,0.85968 -0.73257,1.61184c-0.95717,1.47518 -2.23211,3.10135 -3.82436,4.87949c0.28338,0.10751 0.75216,0.28815 1.40684,0.5419c0.30297,0.11087 0.68908,0.27191 1.15787,0.48695zM-22.12526,65.53873c0.26378,0 0.51752,0.19067 0.76219,0.57153c0.31253,0.46879 0.75216,1.40206 1.31891,2.79886c0.09748,0.24419 0.14671,0.45445 0.14671,0.62983c0,0.40045 -0.16152,0.68861 -0.4836,0.86446c-0.18589,0.08793 -0.3713,0.13189 -0.55671,0.13189c-0.52756,0 -0.86016,-0.35649 -0.99683,-1.06946c-0.15627,-0.80091 -0.40571,-1.72892 -0.74691,-2.78405c-0.05878,-0.18541 -0.08793,-0.34166 -0.08793,-0.46878c-0.00048,-0.44967 0.21409,-0.67427 0.64416,-0.67427zM-13.09933,67.47265c-1.72892,2.65741 -3.71206,4.73804 -5.94895,6.24237c-0.48838,0.33212 -0.86494,0.49794 -1.12825,0.49794c-0.18589,0 -0.33689,-0.06355 -0.45397,-0.19019c-0.1467,-0.1663 -0.21981,-0.35171 -0.21981,-0.55719c0,-0.205 0.06833,-0.38086 0.20548,-0.52756c0.03871,-0.03919 0.29246,-0.23893 0.76172,-0.60068c2.27608,-1.7681 4.17129,-4.02459 5.68517,-6.76993l-2.25648,0.13189c-0.06881,0.50797 -0.367,0.76172 -0.89409,0.76172c-0.58634,0 -0.90843,-0.2977 -0.96673,-0.8936l-0.84964,-8.16196c0,-0.02963 0,-0.05878 0,-0.08793c0,-0.25375 0.11182,-0.46401 0.3369,-0.6303c0.17585,-0.12712 0.38611,-0.19019 0.62982,-0.19019c0.44919,0 0.7622,0.20978 0.93805,0.62983l4.16126,-0.35171v-2.19819l-5.04053,0.4253c-0.04922,0 -0.10275,0 -0.16153,0c-0.61549,-0.02963 -0.92323,-0.31252 -0.92323,-0.85012c0,-0.56675 0.31252,-0.87402 0.93805,-0.92324l5.18676,-0.43963v-2.94557c0,-0.58634 0.32734,-0.87928 0.98202,-0.87928c0.36126,0 0.6346,0.11756 0.82049,0.35171c0.11708,0.13667 0.17585,0.31252 0.17585,0.52756v2.78405l4.86516,-0.42482c0.04874,0 0.09222,0 0.13141,0c0.60594,0 0.90843,0.28338 0.90843,0.84964c0,0.58634 -0.30775,0.90365 -0.92324,0.95239l-4.98223,0.41048v2.18337l4.43985,-0.36652c0.09748,-0.01004 0.1706,-0.01482 0.21982,-0.01482c1.06516,0 1.59751,0.5032 1.59751,1.50911c0,0.12712 -0.00526,0.23941 -0.01482,0.33737l-0.71776,6.98927c-0.05878,0.57631 -0.37608,0.86445 -0.95239,0.86445c-0.56675,0 -0.86923,-0.24896 -0.90842,-0.74738l-2.93075,0.17585c0.71298,0.9672 1.55306,1.93439 2.52026,2.90112c1.5631,1.57265 3.14532,2.82324 4.7476,3.75125c0.45923,0.27382 0.68861,0.51323 0.68861,0.71775c0,0.1467 -0.12711,0.26904 -0.38086,0.36652c-0.66472,0.24419 -1.24533,0.36653 -1.74374,0.36653c-0.44919,0 -0.94283,-0.22461 -1.47995,-0.6738c-1.90477,-1.63143 -3.59977,-3.6098 -5.08497,-5.93462v8.14714c0,0.1663 -0.04397,0.31779 -0.13142,0.45445c-0.17585,0.29293 -0.4597,0.43963 -0.85012,0.43963c-0.37083,0 -0.65421,-0.13189 -0.84965,-0.39567c-0.09748,-0.13667 -0.1467,-0.30296 -0.1467,-0.49793zM-13.09933,60.29272v-1.87562l-3.9854,0.30774l0.16104,1.81732zM-13.09933,61.91937l-3.67765,0.23416l0.19019,1.93441l3.48747,-0.205zM-11.12096,60.17564l4.10296,-0.26378l0.13189,-1.40636c0,-0.03919 0,-0.06834 0,-0.08793c0,-0.34168 -0.16152,-0.49316 -0.48408,-0.45445l-0.0583,0.01481l-3.69295,0.2786v1.91911zM-11.12096,61.787v1.97837l3.79521,-0.21983l0.17538,-2.00751z" data-paper-data="{&quot;origPos&quot;:null}"/><path d="M7.73755,56.18976c0.25375,0 0.45445,0.10274 0.60115,0.30774c0.09748,0.1467 0.1467,0.28817 0.1467,0.42483c0,0.5959 -1.19706,1.52917 -3.59021,2.79886c-1.67062,0.88883 -2.6966,1.33373 -3.07698,1.33373c-0.34215,0 -0.60115,-0.14146 -0.77653,-0.42531c-0.108,-0.18541 -0.16151,-0.36604 -0.16151,-0.5419c0,-0.31253 0.13667,-0.55672 0.41,-0.73257c0.12712,-0.08793 0.37131,-0.20023 0.73257,-0.33737c1.71936,-0.64464 3.41435,-1.51388 5.08497,-2.6082c0.21456,-0.1467 0.42435,-0.21981 0.62983,-0.21981zM8.83664,52.39455l-6.56444,0.54238c-0.04922,0 -0.08793,0 -0.11708,0c-0.27334,0 -0.49842,-0.09749 -0.6738,-0.29293c-0.15627,-0.17585 -0.23463,-0.39042 -0.23463,-0.64465c0,-0.55671 0.2786,-0.85489 0.83532,-0.89408l7.38494,-0.54238c0.10751,-0.00956 0.17108,-0.01433 0.19067,-0.01433c0.73209,0 1.26013,0.22938 1.58269,0.68861c0.12712,0.18589 0.21456,0.40045 0.26378,0.64464c0.04874,0.22507 0.07311,0.79134 0.07311,1.69977l-0.10274,3.50228c-0.11708,2.12985 -0.21504,3.31639 -0.29292,3.56058c-0.23463,0.70342 -0.76219,1.05513 -1.58269,1.05513c-1.01594,0 -2.10501,-0.26379 -3.26765,-0.79135c-0.36175,-0.15627 -0.54238,-0.38087 -0.54238,-0.67427c0,-0.47834 0.22938,-0.71775 0.68861,-0.71775c0.1467,0 0.35649,0.0344 0.62982,0.10226c0.47882,0.12712 0.92801,0.19067 1.34806,0.19067c0.42005,0 0.6738,-0.15149 0.7622,-0.45446c0.21456,-0.78131 0.32208,-2.74485 0.32208,-5.89065c0,-0.71298 -0.19544,-1.06994 -0.58634,-1.06994c-0.03919,0 -0.06356,0 -0.07312,0c-0.01959,0.00048 -0.03394,0.00048 -0.04349,0.00048zM3.19496,53.34693c0.42005,0 1.10435,0.23464 2.05148,0.70342c0.6738,0.33212 1.03554,0.51275 1.08476,0.5419c0.33164,0.21504 0.49794,0.48361 0.49794,0.80617c0,0.19544 -0.0583,0.37607 -0.17538,0.54237c-0.18589,0.25375 -0.44489,0.38086 -0.77701,0.38086c-0.26378,0 -0.56149,-0.12711 -0.89361,-0.38086c-0.23416,-0.17585 -0.69338,-0.46879 -1.37721,-0.87928c-0.33212,-0.19544 -0.56198,-0.33689 -0.68861,-0.42482c-0.25422,-0.17585 -0.38133,-0.37607 -0.38133,-0.60067c0,-0.13667 0.04922,-0.2786 0.1467,-0.42483c0.12616,-0.17633 0.29772,-0.26426 0.51228,-0.26426zM19.25461,74.19862l-11.92754,0.38086l0.01433,0.23463c0,0.73257 -0.36652,1.0991 -1.09909,1.0991c-0.71298,0 -1.08906,-0.36652 -1.12777,-1.0991l-0.51275,-10.30136c0,-0.04874 0,-0.08315 0,-0.10274c0,-0.6738 0.37083,-1.01117 1.11343,-1.01117c0.54716,0 0.89886,0.23464 1.05513,0.70342l2.56423,-0.17585c0.69338,-0.70342 1.40205,-1.63621 2.12459,-2.79838c0.24419,-0.41001 0.55672,-0.6155 0.93758,-0.6155c0.20548,0 0.41001,0.054 0.61549,0.16104c0.41001,0.21504 0.6155,0.5032 0.6155,0.86447c0,0.38086 -0.65946,1.12824 -1.97837,2.24167l8.14714,-0.55672c0.13667,-0.01004 0.2394,-0.01482 0.30774,-0.01482c1.31891,0 1.97837,0.58634 1.97837,1.75855c0,0.01959 -0.00478,0.06834 -0.01433,0.14671l-0.62983,9.59794c-0.04922,0.7426 -0.42053,1.11391 -1.11391,1.11391c-0.40045,0 -0.69863,-0.1123 -0.8936,-0.33737c-0.1663,-0.19544 -0.2394,-0.40523 -0.21981,-0.62983l0.01433,-0.1467zM19.66509,67.67813l0.13189,-2.16903c-0.02963,-0.30249 -0.18063,-0.44441 -0.45397,-0.42483l-12.44077,0.79135l0.11756,2.418zM19.54801,69.49498l-12.44029,0.51275l0.13189,2.74009l12.13255,-0.38087zM21.23296,52.11642l-7.19475,0.57154l-0.1467,0.01481c-0.27334,0.01959 -0.49841,-0.09748 -0.67379,-0.35171c-0.11755,-0.1663 -0.17586,-0.36127 -0.17586,-0.58634c0,-0.58634 0.26857,-0.89838 0.80617,-0.93757l7.98563,-0.54238c0.03919,0 0.13189,0 0.27859,0c0.79087,0 1.32369,0.30297 1.59751,0.90843c0.13667,0.29293 0.205,0.94283 0.205,1.94873c0,2.08063 -0.1123,4.33234 -0.3369,6.75512c-0.11708,1.22143 -0.7082,1.83166 -1.77289,1.83166c-0.86924,0 -2.00274,-0.23893 -3.39954,-0.71775c-0.42005,-0.1467 -0.62982,-0.39567 -0.62982,-0.74738c0,-0.47834 0.24419,-0.71776 0.73257,-0.71776c0.1467,0 0.34167,0.02963 0.58634,0.08793c0.50797,0.11755 1.03029,0.17585 1.56789,0.17585c0.44872,0 0.72253,-0.1663 0.82049,-0.49842c0.28338,-0.96673 0.42482,-2.98428 0.42482,-6.05169c0,-0.58586 -0.08315,-0.9328 -0.24896,-1.04031c-0.09797,-0.06834 -0.20549,-0.10274 -0.32256,-0.10274c-0.03011,0 -0.06403,0 -0.10322,0zM20.13387,55.61823c0.18589,0 0.36175,0.08316 0.52757,0.24897c0.1467,0.1467 0.21981,0.31777 0.21981,0.51275c0,0.26378 -0.17585,0.53235 -0.52756,0.80617c-1.3385,1.0059 -2.94032,1.94873 -4.80638,2.82801c-0.4296,0.20548 -0.76219,0.30774 -0.99635,0.30774c-0.41001,0 -0.70342,-0.1854 -0.87927,-0.55719c-0.05878,-0.11708 -0.08793,-0.2442 -0.08793,-0.38087c0,-0.33212 0.16581,-0.60545 0.49793,-0.82049c0.08793,-0.04874 0.30775,-0.15147 0.65946,-0.30774c1.70933,-0.73257 3.2729,-1.52392 4.6893,-2.37357c0.28338,-0.17585 0.51752,-0.26378 0.70342,-0.26378zM14.96146,53.03967c0.46879,0 1.35283,0.33737 2.65216,1.01116c0.65468,0.35171 0.98201,0.71297 0.98201,1.08427c0,0.19544 -0.06834,0.3909 -0.205,0.58634c-0.17585,0.25375 -0.41526,0.38086 -0.71823,0.38086c-0.29293,0 -0.62553,-0.14622 -0.99635,-0.43915c-0.55671,-0.44919 -1.17745,-0.87928 -1.86128,-1.28977c-0.31253,-0.18541 -0.46879,-0.41002 -0.46879,-0.67427c0,-0.1467 0.04922,-0.28815 0.1467,-0.42482c0.11708,-0.15674 0.27335,-0.23463 0.46879,-0.23463z"/></g></g></svg>