<svg version="1.1" xmlns="http://www.w3.org/2000/svg" xmlns:xlink="http://www.w3.org/1999/xlink" width="83.85176" height="45.78567" viewBox="0,0,83.85176,45.78567"><g transform="translate(-147.92196,-138.40912)"><g data-paper-data="{&quot;isPaintingLayer&quot;:true}" fill-rule="nonzero" stroke="none" stroke-width="0.5" stroke-linecap="butt" stroke-linejoin="miter" stroke-miterlimit="10" stroke-dasharray="" stroke-dashoffset="0" style="mix-blend-mode: normal"><path d="M229.63435,153.7888c0,0.3468 -0.16036,0.53324 -0.33278,0.63347c-0.32883,1.25638 -0.69544,2.38087 -1.29304,3.57377c-1.33351,3.33992 -3.46705,6.32684 -4.875,9.555c-0.52967,1.21445 -0.92125,4.33458 -2.09774,5.04053c-0.9467,0.56807 -3.95425,-1.07719 -4.84305,-1.40031c-9.22436,-3.35761 -19.31643,-3.76419 -28.80707,-6.13944c-9.63729,-1.76824 -18.53432,-5.38225 -27.64056,-8.6572c-1.60795,-0.35568 -6.78928,-0.6325 -7.63564,-2.21832c-0.02588,-0.0485 1.83058,-2.90965 1.91824,-3.08627c1.93895,-3.90692 5.34133,-7.21816 6.06185,-11.65953c0,0 0.1233,-0.73979 0.86309,-0.61649c0.73979,0.1233 0.6165,0.86309 0.6165,0.86309c-0.66697,3.91135 -3.13592,6.77248 -5.17181,10.02099c-0.68952,1.10021 -1.04563,2.41384 -1.75709,3.50177c-0.10626,0.16248 -0.4358,0.34419 -0.71496,0.47142c1.57133,-0.31701 4.87989,0.97966 6.23686,1.28249c9.0804,3.25716 17.93442,6.87076 27.54088,8.63201c9.56105,2.38773 19.70738,2.81902 29.00232,6.19579c0.90708,0.32994 1.79405,0.71023 2.68922,1.04882c0.32693,0.12366 0.7272,0.68784 0.95835,0.42564c0.69941,-0.79337 0.9296,-3.24924 1.41226,-4.31947c1.45708,-3.23086 3.5318,-6.20283 4.875,-9.555c0.62963,-1.26151 0.98007,-2.40863 1.32158,-3.77466l0.9226,-0.56809c0,0 0.75,0 0.75,0.75z" fill="#ffa866"/><path d="M188.96174,147.36689c0.1819,-0.72761 0.9095,-0.5457 0.9095,-0.5457l0.68974,0.17823c2.70302,-0.02206 4.83313,0.27901 7.02976,1.93279c2.22895,2.27514 6.01761,1.69192 8.77696,1.38221c2.71083,-0.30426 5.22257,0.4603 7.84372,0.98394c2.25333,0.45759 4.45459,1.37407 6.65523,1.9555c0.97708,0.25815 2.21879,-0.14923 3.23432,-0.01444c1.69547,0.22503 2.2172,0.8721 3.64601,0.34273c0.00386,-0.21941 0.08388,-0.63811 0.62405,-0.72815c0.67052,-0.11175 0.8346,0.4855 0.85945,0.59834c0.04674,0.05304 0.09049,0.11768 0.12967,0.19604c0.14305,0.2861 0.10307,0.51118 0.01017,0.67526c0.88423,5.7834 1.02426,11.6577 2.4034,17.3135c-0.10264,2.31053 -2.7799,3.77161 -4.3174,5.31019c-1.81094,1.81221 -3.28398,3.98228 -4.97608,5.88936c0.03065,0.08319 0.0488,0.18171 0.0488,0.29838c0,0.75 -0.75,0.75 -0.75,0.75c-0.09481,0 -0.18963,-0.00029 -0.28449,-0.00085l-0.07489,0.07488c0,0 -0.53033,0.53033 -1.06066,0c-0.03238,-0.03239 -0.06082,-0.06476 -0.08565,-0.09703c-5.77457,-0.17224 -11.61985,-1.26581 -17.39549,-1.70946c-3.89369,0.00177 -7.69913,-0.86678 -11.59021,-1.01877c-4.9651,-0.19395 -9.6018,0.28261 -14.51864,0.59875c-8.37747,0.06613 -17.00774,-0.88335 -25.3201,0.51031c-1.29802,0.25359 -2.61129,0.66526 -3.30075,-0.88889c-0.63947,-1.44144 0.27004,-3.94313 0.36652,-5.49916c0.25736,-4.15087 0.78505,-8.23658 1.13334,-12.37925c0.4878,-2.67257 0.78946,-5.25461 1.12756,-7.94111l0.23824,-0.75623c0,0 0.23862,-0.71103 0.94965,-0.47241c0.71103,0.23862 0.47242,0.94965 0.47242,0.94965l-0.17203,0.46629c-0.33825,2.68776 -0.63816,5.27869 -1.12895,7.9518c-0.45281,5.41026 -2.17961,11.75159 -1.57718,17.16745c0.05104,0.45888 1.59356,-0.06802 1.62253,-0.07388c8.40319,-1.3752 17.07013,-0.47009 25.5349,-0.53359c4.95024,-0.31743 9.63082,-0.80041 14.62968,-0.59863c3.89083,0.15706 7.69835,1.01709 11.59022,1.01878c5.7143,0.43428 11.49248,1.5178 17.2043,1.70394v-0.48887c0,-3.26104 -0.39,-6.49088 -0.39,-9.75c0,0 0,-0.75 0.75,-0.75c0.75,0 0.75,0.75 0.75,0.75c0,3.16499 0.36799,6.30337 0.38906,9.46992c2.14362,-2.28957 4.10449,-4.85022 6.32561,-7.07524c0.5803,-0.58132 2.42652,-1.86981 2.32095,-2.69304c-1.39851,-5.43745 -1.51623,-11.15558 -2.32073,-16.74903c-1.45019,0.40113 -2.30727,-0.14463 -4.04653,-0.34322c-1.09367,-0.12488 -2.32307,0.24283 -3.39568,-0.01444c-2.195,-0.52649 -4.36871,-1.50518 -6.60477,-1.9445c-2.4609,-0.49272 -4.82189,-1.24524 -7.36628,-0.96606c-3.21438,0.3527 -7.33655,0.82364 -9.94303,-1.73779c-1.94953,-1.45592 -3.84164,-1.56181 -6.23023,-1.57721l-0.87027,-0.21177c0,0 -0.72761,-0.18191 -0.5457,-0.90951z" fill="#ffa866"/><path d="M221.67648,170.94665c-0.47322,0 -0.64786,-0.29859 -0.71231,-0.51897c-0.09854,0.07142 -0.22502,0.1231 -0.3842,0.12141c-0.09829,0.17025 -0.19881,0.34678 -0.30477,0.53095l-0.41028,0.71315c0,0 -0.374,0.65009 -1.0241,0.27608c-0.35726,-0.20553 -0.40523,-0.49444 -0.37597,-0.71302c-0.05466,0.00233 -0.11366,-0.00057 -0.17734,-0.00974c-0.23611,-0.03396 -0.38632,-0.13222 -0.4814,-0.25043c-1.58829,-0.61062 -2.94162,-1.77901 -4.62712,-2.21131c-4.36243,-1.11887 -8.8999,-0.32524 -13.32521,-1.42407c-6.77097,-1.69111 -14.19437,-2.18021 -20.73359,-4.62417c-2.36885,-1.17527 -5.03709,-1.63944 -7.58256,-2.30536c-5.30317,-1.38736 -10.71704,-2.98877 -15.93863,-4.59622c-1.22573,-0.40583 -3.70723,-0.74051 -4.34769,-2.12699c-0.60494,-1.30957 0.55919,-3.27076 1.3198,-4.24652c2.24853,-2.88451 4.09976,-6.04856 6.47692,-8.88196l1.11801,-0.12806c0,0 0.16225,0.05372 0.3062,0.18732c2.35731,-0.6769 4.35335,0.89115 6.73026,1.53237c3.00653,0.81107 5.21546,0.91001 7.9793,2.62401c0.9829,0.55273 1.97776,0.82264 3.10825,0.81404h0.92311c0,0 0.75,0 0.75,0.75c0,0.18703 -0.04664,0.32741 -0.11665,0.43279c3.35013,1.09298 7.1169,2.44877 10.34073,2.06573c-0.17479,-0.42683 0.19017,-0.78933 0.19017,-0.78933c3.32898,-2.99703 6.73266,1.74322 9.81326,2.88447c2.55555,0.94674 4.58801,0.80538 7.24144,0.36689c5.01499,-0.38382 9.78696,0.65152 14.6425,1.85366c1.67239,0.41405 3.59602,1.16918 5.26749,0.70998l0.69397,-0.19737c0,0 0.72151,-0.20476 0.92627,0.51675c0.09927,0.3498 -0.01918,0.57814 -0.16757,0.72057c0.01654,0.3637 -0.24161,0.56229 -0.40138,0.64986c-0.68468,1.04085 -1.10585,2.16959 -1.77624,3.21008c-0.24677,0.38302 -0.53291,0.70595 -0.83766,1.00128c0.01245,0.0189 0.02464,0.03881 0.03654,0.05978c0.37021,0.65226 -0.28206,1.02247 -0.28206,1.02247c-0.77632,0.3452 -1.03415,1.71963 -1.45236,2.46426c-0.30294,0.53938 -0.63632,1.05704 -0.98703,1.56146c0.14974,0.33095 -0.04558,0.68015 -0.04558,0.68015c-0.25403,0.45162 -0.48189,0.9184 -0.69087,1.39457c0.02765,0.02454 0.05522,0.05201 0.08261,0.08265c0.29782,0.33315 0.21969,0.64525 0.10789,0.84311c0.119,0.24102 0.0707,0.50492 0.0707,0.50492c-0.06837,0.37355 -0.13675,0.74711 -0.20513,1.12065l0.01226,0.5781c0,0 0,0.75 -0.75,0.75z" fill="#ae7346"/><path d="M177.31853,146.62839c0.24578,-0.49157 0.67167,-0.44281 0.88173,-0.38166c0.35706,-2.93748 2.80759,-6.17457 5.84886,-6.54322c2.25429,-0.27326 7.1795,-1.50403 6.46568,2.3098c-0.23791,0.91934 0.64394,0.97341 0.52056,2.19091c-0.10083,0.99499 -0.88084,1.79247 -1.48738,2.51391c0.05691,0.02982 0.10499,0.06525 0.14559,0.10422c0.18124,-0.02929 0.39905,0.01026 0.61627,0.22894c0.52854,0.53212 -0.00358,1.06065 -0.00358,1.06065c-0.0962,0.09556 -0.19242,0.19111 -0.28862,0.28668c0.2908,0.01614 0.57774,0.03714 0.85989,0.06492c0,0 0.74633,0.07413 0.6722,0.82046c-0.03662,0.3687 -0.23729,0.53716 -0.43098,0.61325c-0.06741,0.05158 -0.11899,0.07737 -0.11899,0.07737c-0.22593,0.11164 -0.43806,0.20869 -0.63897,0.29194c-0.06493,0.13541 -0.18715,0.26425 -0.40546,0.35216c-0.27432,0.11048 -0.48404,0.06922 -0.63745,-0.02128c-1.15811,0.23251 -2.01561,-0.1209 -3.42554,-0.79573c-0.05399,-0.02584 -0.11148,-0.04829 -0.17209,-0.06772c-0.48015,-0.02232 -0.95888,-0.0526 -1.43415,-0.09736c-0.76823,0.03921 -1.58506,0.13657 -2.14858,0.01363c-1.27271,-0.27766 -2.54546,-1.04658 -3.70358,-1.62564l-0.78,-0.39c0,0 -0.67082,-0.33541 -0.33541,-1.00623z" fill="#f03838"/><path d="M215.28521,159.80514c0,-0.41422 0.33578,-0.75 0.75,-0.75c0.41422,0 0.75,0.33578 0.75,0.75c0,0.41422 -0.33579,0.75 -0.75,0.75c-0.41422,0 -0.75,-0.33578 -0.75,-0.75z" fill="#f03838"/><path d="M212.31074,165.4084c0,-0.41422 0.33578,-0.75 0.75,-0.75c0.41422,0 0.75,0.33578 0.75,0.75c0,0.41422 -0.33579,0.75 -0.75,0.75c-0.41422,0 -0.75,-0.33578 -0.75,-0.75z" fill="#f03838"/><path d="M191.18166,155.73004c0,-0.41422 0.33578,-0.75 0.75,-0.75c0.41422,0 0.75,0.33578 0.75,0.75c0,0.41422 -0.33578,0.75 -0.75,0.75c-0.41422,0 -0.75,-0.33578 -0.75,-0.75z" fill="#f03838"/><path d="M205.33608,162.45395c0,-0.41422 0.33578,-0.75 0.75,-0.75c0.41422,0 0.75,0.33578 0.75,0.75c0,0.41422 -0.33578,0.75 -0.75,0.75c-0.41422,0 -0.75,-0.33578 -0.75,-0.75z" fill="#f03838"/><path d="M173.2322,151.75681c0,-0.41422 0.33578,-0.75 0.75,-0.75c0.41422,0 0.75,0.33578 0.75,0.75c0,0.41422 -0.33578,0.75 -0.75,0.75c-0.41422,0 -0.75,-0.33578 -0.75,-0.75z" fill="#f03838"/><path d="M186.36094,161.63894c0,-0.41422 0.33578,-0.75 0.75,-0.75c0.41422,0 0.75,0.33578 0.75,0.75c0,0.41422 -0.33578,0.75 -0.75,0.75c-0.41422,0 -0.75,-0.33578 -0.75,-0.75z" fill="#f03838"/><path d="M161.94968,148.59861c0,-0.41422 0.33578,-0.75 0.75,-0.75c0.41422,0 0.75,0.33578 0.75,0.75c0,0.41422 -0.33578,0.75 -0.75,0.75c-0.41422,0 -0.75,-0.33578 -0.75,-0.75z" fill="#f03838"/><path d="M165.84727,154.09999c0,-0.41422 0.33578,-0.75 0.75,-0.75c0.41422,0 0.75,0.33578 0.75,0.75c0,0.41422 -0.33578,0.75 -0.75,0.75c-0.41422,0 -0.75,-0.33578 -0.75,-0.75z" fill="#f03838"/><path d="M204.41297,157.15632c0,-0.41422 0.33578,-0.75 0.75,-0.75c0.41422,0 0.75,0.33578 0.75,0.75c0,0.41422 -0.33578,0.75 -0.75,0.75c-0.41422,0 -0.75,-0.33578 -0.75,-0.75z" fill="#f03838"/><path d="M196.2075,155.0169c0,-0.41422 0.33578,-0.75 0.75,-0.75c0.41422,0 0.75,0.33578 0.75,0.75c0,0.41422 -0.33578,0.75 -0.75,0.75c-0.41422,0 -0.75,-0.33578 -0.75,-0.75z" fill="#f03838"/><path d="M197.54089,163.1671c0,-0.41422 0.33578,-0.75 0.75,-0.75c0.41422,0 0.75,0.33578 0.75,0.75c0,0.41422 -0.33578,0.75 -0.75,0.75c-0.41422,0 -0.75,-0.33578 -0.75,-0.75z" fill="#f03838"/><path d="M178.36061,157.15632c0,-0.41422 0.33578,-0.75 0.75,-0.75c0.41422,0 0.75,0.33578 0.75,0.75c0,0.41422 -0.33578,0.75 -0.75,0.75c-0.41422,0 -0.75,-0.33578 -0.75,-0.75z" fill="#f03838"/><path d="M182.25821,151.96057c0,-0.41422 0.33578,-0.75 0.75,-0.75c0.41422,0 0.75,0.33578 0.75,0.75c0,0.41422 -0.33578,0.75 -0.75,0.75c-0.41422,0 -0.75,-0.33578 -0.75,-0.75z" fill="#f03838"/><path d="M160.15853,138.82839c0.33541,-0.67082 1.00623,-0.33541 1.00623,-0.33541l0.78,0.39c0.56308,0.28208 1.14209,0.53275 1.72683,0.76664c2.77437,1.3957 5.6331,2.09943 8.40009,3.51698c2.22591,1.14033 4.32526,0.35258 6.56267,2.02721c0,0 0.6,0.45 0.15,1.05c-0.45,0.6 -1.05,0.15 -1.05,0.15c-2.08128,-1.56442 -4.11388,-0.79659 -6.30733,-1.8728c-2.76374,-1.35602 -5.60136,-2.12939 -8.36991,-3.50302c-0.60404,-0.24161 -1.20108,-0.50284 -1.78317,-0.79336l-0.78,-0.39c0,0 -0.67082,-0.33541 -0.33541,-1.00623z" fill="#ffa866"/><path d="" fill="#ffa866"/><path d="M169.66688,174.85963c0.65935,0.35744 0.30191,1.01678 0.30191,1.01678l-0.33677,-0.05398c0.62956,1.54391 3.29144,-0.0071 3.34347,-1.38317c0.06253,-1.65387 -3.56007,-1.81267 -4.23894,-3.07237c-1.30412,-2.41992 2.20657,-4.09011 3.88513,-3.93621c0,0 0.74493,0.08705 0.65788,0.83198c-0.08705,0.74493 -0.83198,0.65788 -0.83198,0.65788c-0.47001,-0.07398 -3.14178,0.72791 -2.36679,1.78076c1.29317,1.75681 5.55057,1.21795 4.1949,4.7936c-0.93186,2.45784 -4.64977,3.39261 -5.9835,1.00198l0.3579,-1.33536c0,0 0.35744,-0.65935 1.01678,-0.30191z" fill="#00a9ff"/><path d="M184.1011,176.65963c-0.59853,0.45195 -1.05048,-0.14659 -1.05048,-0.14659l-0.55907,-0.80474c-0.28218,-0.84741 -0.42685,-1.67723 -0.49195,-2.50813c-0.73135,1.48429 -1.69995,2.83785 -3.02295,3.32515c-1.7426,0.64185 -2.51903,-1.25387 -2.85048,-2.49102c-0.56223,-2.0985 -0.60477,-4.87726 0.53705,-6.75097c0,0 0.39944,-0.63478 1.03422,-0.23535c0.63478,0.39944 0.23535,1.03422 0.23535,1.03422c-0.96346,1.46548 -0.77536,3.91864 -0.35609,5.57008c0.141,0.55536 0.44947,1.77796 0.92051,1.45172c1.89523,-1.31263 2.7786,-3.92584 3.50134,-5.99345l-0.04215,-0.19568c0,0 0,-0.75 0.75,-0.75c0.63077,0 0.73104,0.53049 0.74698,0.69916c0.11209,0.20856 0.10139,0.43175 0.10139,0.43175c-0.09851,2.05408 -0.3093,3.96172 0.35883,5.93527l0.33407,0.37807c0,0 0.45195,0.59853 -0.14659,1.05048z" fill="#00a9ff"/><path d="M186.80793,174.92184c0.69571,0.28017 0.41554,0.97588 0.41554,0.97588l-0.22427,-0.12455c0.37131,1.12228 1.76989,0.84275 2.00496,-0.39529c0.08246,-0.43429 -2.36754,-2.19021 -2.59888,-2.72195c-1.12378,-2.58294 0.84051,-4.19988 3.22065,-3.68281c0,0 0.73032,0.17068 0.55963,0.901c-0.17068,0.73032 -0.901,0.55963 -0.901,0.55963c-3.65042,-0.94002 0.0058,2.8497 0.56338,3.63799c0.29588,0.41832 0.70985,0.88187 0.65382,1.39119c-0.13985,1.27114 -2.58135,3.29032 -3.9367,2.48841c-0.50359,-0.29796 -0.60379,-1.00249 -0.90568,-1.50374l0.17267,-1.11023c0,0 0.28017,-0.69571 0.97588,-0.41554z" fill="#00a9ff"/><path d="M194.1423,177.9718c-0.19751,-0.39769 -0.04263,-0.67686 0.1166,-0.83846c0.25886,-0.97555 0.50386,-2.05988 0.22688,-3.04943c-0.14044,-0.50175 -0.42908,-1.6174 -0.85073,-1.31132c-0.65482,0.47535 -0.53785,1.49999 -0.79171,2.19188c-0.00655,0.2051 -0.01038,0.41066 -0.01092,0.61678l-0.03198,0.05777l0.02423,0.00406l-0.14681,0.8749c-0.05402,0.36114 -0.36552,0.6381 -0.7417,0.6381c-0.36001,0 -0.66078,-0.25365 -0.73333,-0.59199l-0.19495,-0.82297l0.29093,-0.06892l0.03875,-0.23093c-0.00057,-0.2709 0.00502,-0.54079 0.01534,-0.80992c-0.00305,-0.25031 0.00944,-0.502 0.03993,-0.74914c0.11905,-1.78333 0.38888,-3.5443 0.38874,-5.3616c0,0 0,-0.75 0.75,-0.75c0.75,0 0.75,0.75 0.75,0.75c-0.00007,0.95882 -0.07127,1.90236 -0.15696,2.84159c3.4529,-1.22084 2.91813,4.90649 2.51299,6.42117l-0.48998,0.52654c0,0 -0.67173,0.3336 -1.00532,-0.33812z" fill="#00a9ff"/><path d="M197.18998,169.55559c0,-0.41422 0.33578,-0.75 0.75,-0.75c0.41422,0 0.75,0.33578 0.75,0.75c0,0.41422 -0.33578,0.75 -0.75,0.75c-0.41422,0 -0.75,-0.33578 -0.75,-0.75z" fill="#00a9ff"/><path d="M198.39484,177.84383c-0.74776,0.05791 -0.80568,-0.68985 -0.80568,-0.68985l-0.05185,-0.6986c0.00019,-1.66423 -0.33204,-3.41931 0.30946,-4.97913c0,0 0.29712,-0.68863 0.98576,-0.3915c0.68864,0.29713 0.3915,0.98576 0.3915,0.98576c-0.57942,1.25286 -0.18688,3.01597 -0.18672,4.38487l0.04738,0.58278c0,0 0.05791,0.74776 -0.68985,0.80567z" fill="#00a9ff"/><path d="M222.03407,184.05767c-0.75,0 -0.75,-0.75 -0.75,-0.75v-0.22931c0.01293,-2.32099 -0.30068,-4.27458 -0.73862,-6.62546c-0.17462,-0.93734 0.15976,-2.53502 -0.12153,-3.40648c-0.16516,-0.51165 -1.6228,-0.61936 -1.99404,-0.70184c-1.59739,-0.35491 -3.51039,-0.42706 -4.86831,-1.38977c-4.23605,0.19477 -7.36947,-1.77116 -11.30202,-2.52532c-3.60903,-0.69211 -7.4177,-0.51354 -11.07633,-1.12167c-3.25453,-0.54382 -5.95523,-2.20056 -9.05054,-3.23651c-4.29193,-1.43643 -8.72112,-2.48603 -13.29855,-2.48603c-3.7603,-0.01707 -6.67337,-2.12077 -10.10373,-3.25094c-2.18732,-0.72063 -4.34709,-1.36319 -6.3475,-2.49331c-0.01586,0.16837 -0.11591,0.69942 -0.74701,0.69942c-0.75,0 -0.75,-0.75 -0.75,-0.75l0.02239,-0.64052c0.16323,-0.6529 0.33043,-1.3048 0.50034,-1.95599c2.89088,-4.44651 6.35342,-9.0221 8.72885,-13.7906c0,0 0.33541,-0.67082 1.00623,-0.33541c0.67082,0.33541 0.33541,1.00624 0.33541,1.00624c-1.71608,3.42059 -5.2358,6.3835 -6.63492,9.82833c-0.56536,1.392 -1.1921,2.63431 -2.06379,3.89827c-0.03679,0.15603 -0.07392,0.31198 -0.11137,0.46786c2.0453,1.26221 4.28223,1.88379 6.54818,2.6469c3.22496,1.08608 6.07766,3.1886 9.61693,3.16975c4.73716,0 9.31448,1.0823 13.76005,2.55879c3.02172,1.00359 5.66507,2.65717 8.83563,3.18417c3.67115,0.61344 7.5445,0.39137 11.15556,1.13708c3.97258,0.82037 7.18792,2.43408 11.41086,2.55386c2.0059,1.27131 4.85998,0.65345 6.80218,1.89965c1.46137,0.93768 0.97971,1.93023 1.06726,3.3629c0.17387,2.84535 0.8992,5.47776 0.91839,8.29664v0.22931c0,0 0,0.75 -0.75,0.75z" fill="#ffa866"/><path d="M156.31552,161.12587c0.04871,0.24521 -0.1965,0.29392 -0.1965,0.29392l-0.16577,0.02805c-0.84419,0 -1.67742,-0.09078 -2.51959,-0.13995c0,0 -0.24957,-0.01458 -0.23499,-0.26416c0.01458,-0.24957 0.26416,-0.23499 0.26416,-0.23499c0.83238,0.04867 1.65613,0.1391 2.49042,0.1391l0.06834,-0.01846c0,0 0.24521,-0.04871 0.29392,0.1965z" fill="#ff66e4"/><path d="M153.14633,165.76107c-0.16831,-0.18486 0.01655,-0.35317 0.01655,-0.35317l0.27337,-0.24861c0.48505,-0.5187 0.64449,-1.10953 0.82023,-1.7679c-0.59744,-0.00055 -1.19531,0.00974 -1.79151,0.00974c0,0 -0.25,0 -0.25,-0.25c0,-0.25 0.25,-0.25 0.25,-0.25c1.08001,0 2.16513,-0.03259 3.24381,0.02359l0.08059,-0.00034c0,0 0.25,0 0.25,0.25c0,0.25 -0.25,0.25 -0.25,0.25l-0.1067,-0.00034c-0.30278,-0.01589 -0.60609,-0.02462 -0.90968,-0.02897c-0.21744,0.80303 -0.40472,1.49191 -0.985,2.11957l-0.2885,0.26297c0,0 -0.18486,0.16831 -0.35317,-0.01655z" fill="#ff66e4"/><path d="M157.21998,161.76846c-0.24508,0.04935 -0.29443,-0.19573 -0.29443,-0.19573l-0.02077,-0.10459c-0.02341,-0.09301 -0.04682,-0.18603 -0.07023,-0.27904c0,0 -0.06102,-0.24244 0.18142,-0.30346c0.24244,-0.06102 0.30346,0.18142 0.30346,0.18142c0.02341,0.09301 0.04682,0.18603 0.07023,0.27904l0.02605,0.12794c0,0 0.04935,0.24508 -0.19573,0.29443z" fill="#ff66e4"/><path d="M158.12869,161.14145c-0.24591,0.04501 -0.29093,-0.2009 -0.29093,-0.2009l-0.04682,-0.25579c0,0 -0.04501,-0.24591 0.2009,-0.29093c0.24591,-0.04501 0.29093,0.2009 0.29093,0.2009l0.04682,0.25579c0,0 0.04501,0.24591 -0.2009,0.29093z" fill="#ff66e4"/><path d="M158.92326,165.57832c-0.07857,-0.23733 0.15876,-0.3159 0.15876,-0.3159l-0.02069,0.03031c0.84064,-0.77295 1.03726,-1.43781 1.15977,-2.26739c-0.23346,-0.04293 -0.46796,-0.07862 -0.70348,-0.10942c-0.14559,0.38325 -0.279,0.76944 -0.43794,1.15315c-0.01038,0.06849 -0.05501,0.21571 -0.24685,0.21571c-0.25,0 -0.25,-0.25 -0.25,-0.25l0.01946,-0.11996c0.14776,-0.35186 0.27321,-0.7062 0.40482,-1.05872c-0.29786,-0.0314 -0.59727,-0.05774 -0.89813,-0.08372c0,0 -0.24907,-0.02151 -0.22756,-0.27059c0.02151,-0.24907 0.27059,-0.22756 0.27059,-0.22756c0.34948,0.03019 0.69693,0.0612 1.0423,0.09968c0.0579,-0.14151 0.11895,-0.28239 0.18501,-0.42238c0,0 0.1067,-0.22609 0.33279,-0.11939c0.22609,0.1067 0.11939,0.33279 0.11939,0.33279c-0.04276,0.09061 -0.08339,0.1816 -0.12241,0.2729c0.19338,0.0268 0.38609,0.05703 0.57812,0.09186c0.02876,-0.22572 0.0597,-0.465 0.10174,-0.72211c0,0 0.04137,-0.24655 0.28792,-0.20518c0.24655,0.04137 0.20518,0.28792 0.20518,0.28792c-0.04513,0.26092 -0.08043,0.50549 -0.11365,0.73733c0.23924,0.05439 0.4774,0.11759 0.71449,0.19194l0.07399,0.02447c0,0 0.23733,0.07858 0.15875,0.31591c-0.07858,0.23733 -0.31591,0.15875 -0.31591,0.15875l-0.06648,-0.02204c-0.21187,-0.06647 -0.42469,-0.12358 -0.63843,-0.1732c-0.1496,0.9348 -0.36862,1.68041 -1.2945,2.5368l-0.16116,0.07681c0,0 -0.23733,0.07857 -0.3159,-0.15876z" fill="#ff66e4"/><path d="M162.93309,162.50988c-0.21913,0.12034 -0.33947,-0.09879 -0.33947,-0.09879l-0.14725,-0.26907c-0.03321,-0.08207 -0.06642,-0.16413 -0.09963,-0.2462c0,0 -0.09339,-0.2319 0.13851,-0.32529c0.2319,-0.09339 0.32529,0.13851 0.32529,0.13851c0.02922,0.07296 0.05844,0.14591 0.08766,0.21887l0.13368,0.24251c0,0 0.12034,0.21913 -0.09879,0.33947z" fill="#ff66e4"/><path d="M163.53316,162.26885c-0.23389,0.0883 -0.32219,-0.14558 -0.32219,-0.14558l-0.14047,-0.37206c0,0 -0.0883,-0.23389 0.14558,-0.32219c0.23389,-0.0883 0.32219,0.14558 0.32219,0.14558l0.14047,0.37206c0,0 0.0883,0.23389 -0.14558,0.32219z" fill="#ff66e4"/><path d="M164.23331,164.73238c0,0.25 -0.25,0.25 -0.25,0.25l-0.27494,-0.00336c-0.5178,-0.08578 -1.05272,-0.25472 -1.57734,-0.20678c0,0 -0.24915,0.02062 -0.26977,-0.22853c-0.02062,-0.24915 0.22853,-0.26977 0.22853,-0.26977c0.57231,-0.04347 1.13636,0.11851 1.70024,0.21179l0.19328,-0.00336c0,0 0.25,0 0.25,0.25z" fill="#ff66e4"/><path d="M167.76594,164.93027c-0.03512,0.24752 -0.28264,0.2124 -0.28264,0.2124l-0.23294,-0.04352c-0.5687,-0.26117 -1.10722,-0.43142 -1.73275,-0.4658c-0.08278,0.56347 -0.13754,1.12921 -0.13714,1.69194v0.10459c0,0 0,0.25 -0.25,0.25c-0.25,0 -0.25,-0.25 -0.25,-0.25v-0.10459c0.00086,-1.27386 0.26912,-2.55861 0.51997,-3.80485c0,0 0.04935,-0.24508 0.29443,-0.19573c0.24508,0.04935 0.19573,0.29443 0.19573,0.29443c-0.10077,0.5003 -0.20539,1.00768 -0.29346,1.51821c0.66736,0.0452 1.2511,0.22789 1.86158,0.50729l0.09482,0.00299c0,0 0.24752,0.03512 0.2124,0.28264z" fill="#ff66e4"/></g></g></svg>