<svg version="1.1" xmlns="http://www.w3.org/2000/svg" xmlns:xlink="http://www.w3.org/1999/xlink" width="23.75" height="38.109"><g transform="translate(-228.9515,-158.1795)"><g data-paper-data="{&quot;isPaintingLayer&quot;:true}" fill="#000000" fill-rule="nonzero" stroke="#000000" stroke-width="2" stroke-linecap="butt" stroke-linejoin="miter" stroke-miterlimit="10" stroke-dasharray="" stroke-dashoffset="0" font-family="none" font-weight="none" font-size="none" text-anchor="none" style="mix-blend-mode: normal"><path d="M245.3665,179.2405c-1.83,1.971 -3.942,2.956 -6.334,2.956c-2.393,0 -4.435,-0.845 -6.124,-2.534c-1.971,-1.971 -2.957,-4.997 -2.957,-9.08c0,-3.8 1.197,-6.756 3.59,-8.868c1.83,-1.689 4.012,-2.535 6.546,-2.535c3.097,0 5.561,0.915 7.391,2.745c2.815,2.957 4.223,7.391 4.223,13.304c0,7.319 -1.83,12.88 -5.49,16.682c-2.252,2.252 -4.787,3.378 -7.602,3.378c-2.252,0 -4.013,-0.563 -5.279,-1.688c-0.985,-0.986 -1.478,-1.971 -1.478,-2.957c0,-0.845 0.281,-1.549 0.845,-2.111c0.281,-0.281 0.774,-0.423 1.478,-0.423c0.563,0 1.056,0.212 1.479,0.634c0.422,0.423 0.633,1.268 0.633,2.534c0,0.985 0.211,1.688 0.633,2.111c0.281,0.281 0.915,0.423 1.9,0.423c1.83,0 3.449,-0.774 4.857,-2.323c2.393,-2.675 3.73,-8.023 4.012,-16.049c-0.563,1.407 -1.338,2.675 -2.323,3.801zM236.2865,161.9245c-1.83,1.69 -2.745,4.505 -2.745,8.446c0,3.942 0.704,6.617 2.112,8.024c1.267,1.267 2.533,1.9 3.801,1.9c1.548,0 3.167,-0.845 4.856,-2.534c2.252,-2.252 3.378,-4.363 3.378,-6.334c0,-4.364 -0.915,-7.392 -2.745,-9.08c-1.126,-1.126 -2.745,-1.689 -4.857,-1.689c-1.688,0.001 -2.955,0.422 -3.8,1.267z" data-paper-data="{&quot;origPos&quot;:null}"/></g></g></svg>