<svg version="1.1" xmlns="http://www.w3.org/2000/svg" xmlns:xlink="http://www.w3.org/1999/xlink" width="725.83344" height="354.55936"><g transform="translate(120.41665,42.66321)"><g data-paper-data="{&quot;isPaintingLayer&quot;:true}" fill="none" fill-rule="nonzero" stroke="none" stroke-width="none" stroke-linecap="butt" stroke-linejoin="miter" stroke-miterlimit="10" stroke-dasharray="" stroke-dashoffset="0" font-family="none" font-weight="none" font-size="none" text-anchor="none" style="mix-blend-mode: normal"><path d="M-117.66664,124.76024c0,-12.05236 9.77037,-21.82273 21.82273,-21.82273c12.05236,0 21.82273,9.77037 21.82273,21.82273c0,12.05236 -9.77037,21.82273 -21.82273,21.82273c-12.05236,0 -21.82273,-9.77037 -21.82273,-21.82273z" data-paper-data="{&quot;origPos&quot;:null}" fill="#ffffff" stroke="#e20000" stroke-width="5.5"/><text transform="translate(-115.06094,139.76585) scale(0.97714,0.97714)" font-size="40" xml:space="preserve" data-paper-data="{&quot;origPos&quot;:null}" fill="#e20000" fill-rule="nonzero" stroke="#e20000" stroke-width="4" stroke-linecap="butt" stroke-linejoin="miter" stroke-miterlimit="10" stroke-dasharray="" stroke-dashoffset="0" font-family="Serif" font-weight="normal" text-anchor="start" style="mix-blend-mode: normal"><tspan x="0" dy="0">！</tspan></text><text transform="translate(-60.99268,137.76585) scale(0.97714,0.97714)" font-size="40" xml:space="preserve" data-paper-data="{&quot;origPos&quot;:null}" fill="#000000" fill-rule="nonzero" stroke="#000000" stroke-width="2" stroke-linecap="butt" stroke-linejoin="miter" stroke-miterlimit="10" stroke-dasharray="" stroke-dashoffset="0" font-family="Serif" font-weight="normal" text-anchor="start" style="mix-blend-mode: normal"><tspan x="0" dy="0">タイピング中はキーボードを使います</tspan></text><path d="M565.50556,33.10399h-645.25727c-3.37613,-4.30563 -7.52423,-8.07189 -12.26643,-11.13723v-53.49367c4.74115,-3.06534 8.88927,-6.83158 12.26541,-11.1363h645.2604c3.05778,3.89946 6.74394,7.36154 10.93784,10.25589v55.25446c-4.19389,2.89435 -7.88216,6.35644 -10.93991,10.25683z" data-paper-data="{&quot;origPos&quot;:null}" fill="#000000" stroke="none" stroke-width="1"/><text transform="translate(-17.32261,283.85011) scale(0.47827,0.47827)" font-size="40" xml:space="preserve" data-paper-data="{&quot;origPos&quot;:null}" fill="#000000" fill-rule="nonzero" stroke="none" stroke-width="1" stroke-linecap="butt" stroke-linejoin="miter" stroke-miterlimit="10" stroke-dasharray="" stroke-dashoffset="0" font-family="Serif" font-weight="normal" text-anchor="start" style="mix-blend-mode: normal"><tspan x="0" dy="0">※ゲーム中や結果画面では、右下の「再」をクリックすると</tspan><tspan x="0" dy="46.15px">　すぐにタイピングをやり直すことができます。</tspan></text></g></g></svg>