<svg version="1.1" xmlns="http://www.w3.org/2000/svg" xmlns:xlink="http://www.w3.org/1999/xlink" width="22.482" height="38.108"><g transform="translate(-229.29652,-157.6795)"><g data-paper-data="{&quot;isPaintingLayer&quot;:true}" fill="#000000" fill-rule="nonzero" stroke="#000000" stroke-width="2" stroke-linecap="butt" stroke-linejoin="miter" stroke-miterlimit="10" stroke-dasharray="" stroke-dashoffset="0" font-family="none" font-weight="none" font-size="none" text-anchor="none" style="mix-blend-mode: normal"><path d="M247.82252,178.1055c1.971,1.971 2.956,4.152 2.956,6.546c0,2.815 -1.056,5.209 -3.167,7.18c-1.971,1.971 -4.646,2.956 -8.024,2.956c-2.956,0 -5.279,-0.774 -6.968,-2.322c-1.549,-1.408 -2.323,-2.957 -2.323,-4.646c0,-0.985 0.281,-1.759 0.844,-2.322c0.563,-0.563 1.126,-0.845 1.689,-0.845c0.563,0 1.056,0.211 1.479,0.634c0.563,0.563 0.845,1.196 0.845,1.9c0,0.423 -0.071,0.845 -0.211,1.267c-0.422,0.563 -0.633,1.197 -0.633,1.901c0,0.563 0.281,1.126 0.845,1.688c0.985,0.846 2.393,1.268 4.223,1.268c2.252,0 4.012,-0.634 5.279,-1.901c1.548,-1.407 2.323,-3.801 2.323,-7.18c0,-2.533 -0.704,-4.504 -2.112,-5.911c-1.408,-1.408 -3.871,-2.112 -7.39,-2.112v-1.478c5.49,0 8.235,-2.394 8.235,-7.18c0,-2.394 -0.634,-4.293 -1.9,-5.701c-1.126,-1.127 -2.675,-1.689 -4.646,-1.689c-1.548,0 -2.957,0.563 -4.223,1.689c-0.424,0.422 -0.635,0.914 -0.635,1.478c0,0.845 0.141,1.407 0.422,1.688c0.282,0.423 0.423,0.915 0.423,1.479c0,1.549 -0.634,2.323 -1.901,2.323c-0.563,0 -1.056,-0.212 -1.478,-0.634c-0.563,-0.564 -0.844,-1.338 -0.844,-2.323c0,-1.83 0.633,-3.379 1.9,-4.646c1.83,-1.689 4.223,-2.533 7.179,-2.533c2.815,0 5.068,0.844 6.757,2.533c1.689,1.689 2.534,3.59 2.534,5.701c0,4.083 -2.182,6.898 -6.546,8.446c2.253,0.705 3.942,1.62 5.068,2.746z" data-paper-data="{&quot;origPos&quot;:null}"/></g></g></svg>