<svg version="1.1" xmlns="http://www.w3.org/2000/svg" xmlns:xlink="http://www.w3.org/1999/xlink" width="85.61469" height="76.641" viewBox="0,0,85.61469,76.641"><g transform="translate(-229.35681,-157.6795)"><g data-paper-data="{&quot;isPaintingLayer&quot;:true}" fill="none" fill-rule="nonzero" stroke="none" stroke-width="none" stroke-linecap="butt" stroke-linejoin="miter" stroke-miterlimit="10" stroke-dasharray="" stroke-dashoffset="0" font-family="none" font-weight="none" font-size="none" text-anchor="none" style="mix-blend-mode: normal"><path d="M250.9905,160.1575c-4.083,6.476 -6.898,12.389 -8.447,17.738c-0.845,2.815 -1.267,5.419 -1.267,7.813c0,1.126 0.07,3.167 0.211,6.123c0,1.127 -0.211,1.9 -0.633,2.323c-0.423,0.423 -0.985,0.634 -1.689,0.634c-0.704,0 -1.337,-0.281 -1.9,-0.846c-0.422,-0.421 -0.633,-1.267 -0.633,-2.533c0,-3.378 1.055,-7.883 3.167,-13.514c1.126,-2.816 3.872,-8.165 8.235,-16.049h-10.558c-3.097,0 -4.998,1.972 -5.702,5.913l-1.267,-0.212l1.478,-8.868h19.005z" data-paper-data="{&quot;origPos&quot;:null}" fill="#000000" stroke="#000000" stroke-width="2"/><path d="M314.9715,234.3205v0h-2.227v0z" fill="none" stroke="none" stroke-width="1"/></g></g></svg>