<svg version="1.1" xmlns="http://www.w3.org/2000/svg" xmlns:xlink="http://www.w3.org/1999/xlink" width="413.35631" height="42.38013" viewBox="0,0,413.35631,42.38013"><g transform="translate(81.2723,26.8094)"><g data-paper-data="{&quot;isPaintingLayer&quot;:true}" fill="none" fill-rule="nonzero" stroke="none" stroke-width="1.4173" stroke-linecap="butt" stroke-linejoin="miter" stroke-miterlimit="10" stroke-dasharray="" stroke-dashoffset="0" font-family="none" font-weight="none" font-size="none" text-anchor="none" style="mix-blend-mode: normal"><g data-paper-data="{&quot;origPos&quot;:null}" fill="#ffffff" stroke="#ffffff"><path d="M67.17629,-7.55507c2.55457,0.44672 4.50627,1.44282 5.85512,2.98972c1.17536,1.36041 1.76521,3.02443 1.76521,4.98915c0,3.02443 -0.99754,5.39105 -2.99118,7.09698c-1.7363,1.46161 -3.96848,2.19314 -6.69364,2.19314c-2.33915,0 -4.42676,-0.5725 -6.26426,-1.72039c-1.8505,-1.13343 -2.77576,-2.31169 -2.77576,-3.53043c0,-0.54504 0.27902,-1.00188 0.83996,-1.37631c0.50166,-0.31516 1.10452,-0.47275 1.80713,-0.47275c0.6737,0 1.34885,0.83562 2.02399,2.51264l0.21541,0.51323c0.759,1.76232 2.14399,2.64131 4.15352,2.64131c1.92279,0 3.40754,-0.76623 4.45567,-2.29723c0.93249,-1.38933 1.39945,-3.29188 1.39945,-5.712c0,-2.24808 -0.63178,-4.01473 -1.89388,-5.30286c-1.10597,-1.11754 -2.51843,-1.67413 -4.24027,-1.67413l-2.3247,0.12867c-0.35998,0 -0.53781,-0.16481 -0.53781,-0.49877c0,-0.88333 0.30794,-1.32427 0.92526,-1.32427l1.50643,0.13011c1.79413,0 3.22104,-0.68961 4.28219,-2.06736c0.93393,-1.23609 1.39945,-2.79311 1.39945,-4.67253c0,-2.03845 -0.46696,-3.58391 -1.39945,-4.63061c-0.81827,-0.88911 -1.90833,-1.33583 -3.27164,-1.33583c-1.89388,0 -3.18635,0.64624 -3.8745,1.93725c-0.30071,0.58985 -0.45251,1.32861 -0.45251,2.21916c0,0.63178 -0.31516,1.14789 -0.94694,1.5498c-0.56094,0.34408 -1.21295,0.51612 -1.95893,0.51612c-0.90357,0 -1.35608,-0.42504 -1.35608,-1.27367c0,-1.65245 0.95417,-3.15454 2.8625,-4.50627c1.70738,-1.20861 3.61572,-1.81292 5.72501,-1.81292c2.62541,0 4.71301,0.74165 6.26426,2.22205c1.37776,1.32138 2.06592,3.02443 2.06592,5.10914c0,3.75162 -2.18881,6.17897 -6.56496,7.28782z"/><path d="M86.19023,7.79112c0,2.32036 -1.651,4.63495 -4.95011,6.94374c-0.08674,0.0853 -0.17204,0.12722 -0.25878,0.12722c-0.17204,0 -0.35131,-0.11422 -0.53781,-0.34408c-0.17349,-0.18505 -0.25878,-0.34986 -0.25878,-0.49444c0,-0.12722 0.07229,-0.24288 0.21541,-0.34118c1.92279,-1.26211 2.88563,-2.46493 2.88563,-3.61138c0,-0.43082 -0.25155,-0.78213 -0.75321,-1.05392c-1.03369,-0.54504 -1.5498,-1.10308 -1.5498,-1.67702c0,-0.759 0.30794,-1.45294 0.92526,-2.08471c0.54504,-0.54358 1.13343,-0.81538 1.76521,-0.81538c0.63178,0 1.22018,0.36432 1.76521,1.09585c0.50021,0.67081 0.75177,1.42403 0.75177,2.2553z"/><path d="M101.66946,-22.34614c2.88419,0 5.20889,1.50065 6.9741,4.5005c1.69293,2.85817 2.54011,6.67484 2.54011,11.45435c0,5.48502 -1.04091,9.67469 -3.12129,12.57478c-1.69293,2.35217 -3.82535,3.52897 -6.39293,3.52897c-3.15743,0 -5.58912,-1.50643 -7.29649,-4.52073c-1.5498,-2.75552 -2.3247,-6.52304 -2.3247,-11.30256c0,-5.61369 1.0626,-9.86841 3.18635,-12.76851c1.70593,-2.31024 3.85137,-3.46681 6.43485,-3.46681zM101.66946,-20.97561c-3.80222,0 -5.70332,4.90963 -5.70332,14.726c0,5.53996 0.5725,9.47373 1.72184,11.79699c0.91803,1.86641 2.24518,2.80034 3.98148,2.80034c1.93725,0 3.35838,-1.22741 4.26195,-3.68077c0.88911,-2.39698 1.33439,-6.03728 1.33439,-10.91655c0,-9.81781 -1.86641,-14.726 -5.59635,-14.726z"/><path d="M125.5685,-22.34614c2.88419,0 5.20889,1.50065 6.9741,4.5005c1.69437,2.85817 2.54011,6.67484 2.54011,11.45435c0,5.48502 -1.04091,9.67469 -3.11984,12.57478c-1.69437,2.35217 -3.82535,3.52897 -6.39293,3.52897c-3.15743,0 -5.58912,-1.50643 -7.29649,-4.52073c-1.5498,-2.75552 -2.3247,-6.52304 -2.3247,-11.30256c0,-5.61369 1.0626,-9.86841 3.18635,-12.76851c1.70593,-2.31024 3.84992,-3.46681 6.43341,-3.46681zM125.5685,-20.97561c-3.80222,0 -5.70332,4.90963 -5.70332,14.726c0,5.53996 0.5725,9.47373 1.72184,11.79699c0.91803,1.86641 2.24663,2.80034 3.98148,2.80034c1.93725,0 3.35838,-1.22741 4.26195,-3.68077c0.88911,-2.39698 1.33439,-6.03728 1.33439,-10.91655c0.00144,-9.81781 -1.86496,-14.726 -5.59635,-14.726z"/><path d="M149.46752,-22.34614c2.88419,0 5.20889,1.50065 6.9741,4.5005c1.69293,2.85817 2.54011,6.67484 2.54011,11.45435c0,5.48502 -1.04091,9.67469 -3.12129,12.57478c-1.69293,2.35217 -3.8239,3.52897 -6.39293,3.52897c-3.15743,0 -5.58912,-1.50643 -7.29649,-4.52073c-1.5498,-2.75552 -2.3247,-6.52304 -2.3247,-11.30256c0,-5.61369 1.0626,-9.86841 3.18635,-12.76851c1.70738,-2.31024 3.85282,-3.46681 6.43485,-3.46681zM149.46752,-20.97561c-3.80222,0 -5.70332,4.90963 -5.70332,14.726c0,5.53996 0.57395,9.47373 1.72184,11.79699c0.91803,1.86641 2.24518,2.80034 3.98148,2.80034c1.93725,0 3.35694,-1.22741 4.26195,-3.68077c0.89056,-2.39698 1.33439,-6.03728 1.33439,-10.91655c0,-9.81781 -1.86641,-14.726 -5.59635,-14.726z"/><path d="M169.98791,-6.96669v18.89687c0,0.84718 -0.61732,1.27078 -1.8505,1.27078c-0.81683,0 -1.22596,-0.36721 -1.22596,-1.09874l0.21396,-20.90641c0,-9.1152 -0.07084,-14.49613 -0.21396,-16.14858c1.39077,0.60864 2.56036,1.18837 3.50729,1.7363h26.0459c0.9614,-1.04236 1.54113,-1.56425 1.74353,-1.56425c0.20096,0 0.8602,0.45974 1.97918,1.37776c0.44672,0.34552 0.66792,0.66936 0.66792,0.97007c0,0.31516 -0.38022,0.7243 -1.14066,1.22741v10.59271l0.21396,19.85104c0,1.41968 -0.63322,2.4447 -1.89533,3.07792c-0.64624,0.39178 -1.36185,0.58985 -2.15266,0.58985c-0.34408,0 -0.56672,-0.26601 -0.66647,-0.79658c-0.07229,-0.60286 -0.42215,-1.06983 -1.05392,-1.39945c-0.67515,-0.35709 -1.90978,-0.73298 -3.70246,-1.11898c-0.11566,-0.02891 -0.17204,-0.12867 -0.17204,-0.30215c0,-0.21396 0.07084,-0.32239 0.21541,-0.32239c2.36663,0.1865 4.18822,0.27902 5.46623,0.27902c0.58841,0 0.88333,-0.27902 0.88333,-0.8414v-15.37368h-26.86273zM169.98791,-8.06398h11.77386v-14.05374h-11.77386zM196.85065,-8.06398v-14.05374h-12.31166v14.05374z"/><path d="M236.878,-12.61652c-5.86958,0.22987 -11.30111,0.70984 -16.29459,1.44137c-0.6737,0.1012 -1.17681,0.25155 -1.50643,0.45251c-0.2024,0.11566 -0.43805,0.17204 -0.71129,0.17204c-0.81683,0 -1.7999,-0.63033 -2.94925,-1.89533c-0.64478,-0.68671 -0.96863,-1.36041 -0.96863,-2.0211c0,-0.47419 0.11566,-0.71129 0.34408,-0.71129c0.11566,0 0.33685,0.16626 0.66647,0.49732c0.81827,0.81538 1.87942,1.22596 3.18635,1.22596c1.13343,0 2.36663,-0.05639 3.70246,-0.17204c6.24113,-0.50021 10.50308,-0.82116 12.78441,-0.96574c0.71852,-0.05639 1.21295,-0.21975 1.48619,-0.49444c0.47275,-0.4713 0.86743,-0.70695 1.18259,-0.70695c0.44528,0 1.06838,0.39468 1.87219,1.18403c0.93393,0.94838 1.39945,1.65968 1.39945,2.13531c0,0.27179 -0.28047,0.55371 -0.83851,0.83851c-0.41781,0.17349 -0.65346,0.44672 -0.71129,0.81972c-0.1865,0.86309 -0.60286,2.77143 -1.24765,5.73079c-0.45974,2.13965 -0.83273,3.85137 -1.12043,5.13082c1.40668,0.50311 2.10929,1.07561 2.10929,1.72184c0,0.64624 -0.28047,0.97007 -0.83996,0.97007l-2.82058,-0.12867c-1.42113,0 -3.04901,0.07084 -4.88649,0.21396c-3.17044,0.26023 -6.50569,0.59564 -10.00865,1.012c-0.61732,0.07229 -1.06115,0.19373 -1.33294,0.36576c-0.31661,0.20384 -0.66792,0.30215 -1.05537,0.30215c-0.47275,0 -1.29102,-0.54504 -2.45337,-1.6351c-0.43082,-0.38889 -0.78791,-0.87032 -1.07561,-1.44282c-0.25878,-0.48865 -0.38889,-0.88333 -0.38889,-1.18259c0,-0.38745 0.17927,-0.58118 0.53925,-0.58118c0.14457,0 0.38889,0.17927 0.73153,0.53781c1.10452,0.9614 2.13821,1.44137 3.09961,1.44137c0.47275,0 1.72184,-0.0853 3.74439,-0.25878c3.72993,-0.34552 7.81261,-0.72575 12.24805,-1.14356c0.89345,-4.47302 1.59606,-8.7581 2.11363,-12.8538z"/><path d="M288.2484,-5.85058c0,0.67226 -0.50166,1.01055 -1.50643,1.01055l-6.06909,-0.17204c-5.28262,0 -11.35171,0.27758 -18.2116,0.83562c-1.19126,0.09976 -1.98062,0.29348 -2.36663,0.57829c-0.33107,0.22987 -0.80381,0.34408 -1.41968,0.34408c-0.81827,0 -1.72907,-0.74309 -2.73384,-2.22495c-0.70261,-1.02211 -1.05392,-1.85485 -1.05392,-2.50397c0,-0.47419 0.11566,-0.71129 0.34408,-0.71129c0.24288,0 0.51034,0.19517 0.79658,0.58696c0.90357,1.1291 1.87075,1.69437 2.90588,1.69437c1.47751,0 3.50729,-0.0853 6.09077,-0.25734c6.52882,-0.41492 11.80277,-0.65201 15.8204,-0.71129c1.00477,0 1.76521,-0.15036 2.28278,-0.45251c0.41492,-0.22842 0.8602,-0.34408 1.33294,-0.34408c0.40046,0 0.9614,0.14457 1.67847,0.43226c1.40523,0.61732 2.10929,1.24909 2.10929,1.89533z"/><path d="M318.28735,-5.20725c4.76361,1.9387 8.43716,4.21135 11.02065,6.82375c1.37776,1.45005 2.06736,2.6124 2.06736,3.48705c0,1.09006 -0.42359,1.63654 -1.27078,1.63654c-0.68961,0 -1.30548,-0.39324 -1.8505,-1.18403c-3.31501,-4.56266 -6.97266,-7.7996 -10.97728,-9.70794c-4.79252,5.15251 -10.3455,9.0617 -16.65891,11.73193c-0.51612,0.22842 -0.91224,0.34264 -1.18259,0.34264c-0.35854,0 -0.53925,-0.15036 -0.53925,-0.45251c0,-0.24433 0.11566,-0.43082 0.34408,-0.56094c5.9968,-3.2861 10.89053,-6.94664 14.67974,-10.97872c3.17044,-3.35983 5.83054,-6.95531 7.98466,-10.78644c0.14457,-0.26023 0.21396,-0.42359 0.21396,-0.49732c0,-0.05639 -0.07084,-0.0853 -0.21396,-0.0853c-2.02255,0 -6.06186,0.55949 -12.11938,1.67847c-0.68961,0.12867 -1.19126,0.29493 -1.50788,0.49588c-0.35709,0.20096 -0.72286,0.29926 -1.09585,0.29926c-0.83273,0 -1.84328,-0.61587 -3.03599,-1.84762c-0.73298,-0.74454 -1.09729,-1.52667 -1.09729,-2.3435c0,-0.44528 0.12867,-0.66647 0.38745,-0.66647c0.15614,0 0.35131,0.12289 0.57973,0.36576c1.11898,1.11464 2.22495,1.67413 3.31501,1.67413c0.2024,0 1.31271,-0.0853 3.33814,-0.25734l10.09394,-1.05392c0.73153,-0.09831 1.30403,-0.34986 1.72184,-0.75177c0.31661,-0.33107 0.58696,-0.49588 0.81683,-0.49588c0.47275,0 1.19849,0.33685 2.1729,1.012c0.81827,0.60141 1.22886,1.16235 1.22886,1.67702c0,0.34552 -0.36721,0.66936 -1.09874,0.97007c-0.5725,0.21541 -1.03369,0.61009 -1.37776,1.18403c-1.53245,2.54445 -3.51452,5.3072 -5.93897,8.29114z"/></g><g fill="#f5b118" stroke="#f5a815"><path d="M-67.11278,-2.31438c3.98871,-2.35361 7.48299,-3.53043 10.48284,-3.53043c2.32325,0 4.25327,0.6231 5.78862,1.87075c1.46451,1.20283 2.19603,2.73528 2.19603,4.59736c0,2.16278 -0.86164,3.86005 -2.58348,5.09035c-1.39222,0.98886 -3.05623,1.48185 -4.99348,1.48185c-2.88419,0 -5.46044,-1.10452 -7.72732,-3.31501c-0.14313,-0.14313 -0.21541,-0.34986 -0.21541,-0.62455c0,-0.22842 0.12867,-0.34408 0.38745,-0.34408c0.14313,0 0.32239,0.08818 0.53781,0.26023c1.72184,1.39222 3.79499,2.08616 6.22089,2.08616c1.66401,0 3.05623,-0.53636 4.17665,-1.60908c1.00477,-0.98886 1.50643,-2.19748 1.50643,-3.62873c0,-1.40378 -0.6737,-2.54878 -2.02255,-3.43645c-1.09006,-0.69972 -2.29578,-1.05248 -3.61572,-1.05248c-1.50643,0 -3.22104,0.44528 -5.14384,1.33439c-1.30548,0.60141 -2.95648,1.5339 -4.95011,2.79601c0,0.73153 0.02891,1.64088 0.08674,2.73095c0.07084,1.41968 0.11566,2.31024 0.12867,2.66733l0.08674,1.74208c0,1.00332 -0.14457,1.85629 -0.43082,2.56036c-0.33107,0.94549 -0.7749,1.41824 -1.33439,1.41824c-0.47419,0 -0.83996,-0.26601 -1.09729,-0.79803c-0.30071,-0.62889 -0.76044,-1.2144 -1.37776,-1.75943c-0.93393,-0.81394 -2.28278,-1.81003 -4.04654,-2.98683c-0.64624,0.5725 -1.04091,0.9267 -1.18403,1.05392c-0.47275,0.47275 -0.99031,0.70984 -1.5498,0.70984c-0.63178,0 -1.29102,-0.45974 -1.98062,-1.37776c-0.53058,-0.71707 -0.79658,-1.31848 -0.79658,-1.80713c0,-0.90357 0.19373,-1.35608 0.58118,-1.35608c0.14313,0 0.31516,0.19228 0.51612,0.57829c0.37299,0.70406 0.80381,1.05537 1.29102,1.05537c0.38745,0 0.76767,-0.11566 1.14211,-0.34408c1.39077,-0.81827 2.92612,-1.76811 4.60603,-2.84371c1.93725,-1.22163 3.09238,-1.94737 3.46392,-2.17724v-9.34941c-2.31024,0.47419 -3.88751,0.70984 -4.73469,0.70984c-1.72184,0 -3.05768,-0.76623 -4.00462,-2.30301c-0.38745,-0.61876 -0.58118,-1.06838 -0.58118,-1.35608c0,-0.33107 0.15036,-0.49732 0.45251,-0.49732c0.14313,0 0.30071,0.11566 0.47275,0.34552c0.54504,0.70261 1.06838,1.17536 1.57148,1.41968c0.45829,0.21541 1.03946,0.32384 1.74353,0.32384c1.29102,0 3.01286,-0.25155 5.16552,-0.75321c0.05783,-1.88087 0.08674,-3.3208 0.08674,-4.32556c0,-1.27656 -0.1012,-2.0529 -0.30071,-2.3247c-0.41636,-0.5725 -1.09874,-0.91803 -2.04568,-1.03223c-0.2877,-0.02891 -0.43082,-0.15759 -0.43082,-0.38889c0,-0.27179 0.20096,-0.51034 0.60286,-0.70984c0.32962,-0.17204 0.68961,-0.25878 1.07561,-0.25878c0.67515,0 1.56571,0.26746 2.66878,0.79803c1.14789,0.51612 1.72184,1.10597 1.72184,1.76665c0,0.37444 -0.14313,0.70984 -0.43082,1.012c-0.43082,0.37299 -0.68238,1.0785 -0.75321,2.11218c-0.1012,0.86164 -0.17349,1.78834 -0.21541,2.77865c1.49197,-0.45684 2.61963,-0.99031 3.37863,-1.59462c0.34408,-0.27179 0.81104,-0.53781 1.39945,-0.79803c0.58841,-0.25734 1.07561,-0.38745 1.46305,-0.38745c1.03369,0 1.5498,0.39468 1.5498,1.18403c0,0.54648 -0.35275,0.9773 -1.05537,1.29391c-1.90833,0.84863 -4.21135,1.70305 -6.90904,2.56324c-0.02891,1.17826 -0.04337,2.6283 -0.04337,4.35303c0.00289,1.94159 0.00289,3.39886 0.00289,4.37616zM-69.05001,0.81413c-0.56094,0.38745 -2.28278,1.62064 -5.16552,3.70246c1.07706,0.68961 2.31024,1.33583 3.70246,1.93725c0.47419,0.2024 0.84718,0.30215 1.11898,0.30215c0.22987,0 0.34408,-0.33685 0.34408,-1.01055c0,-2.02544 0,-3.66921 0,-4.93132zM-51.46586,-14.25016c1.76521,0 3.47983,0.61876 5.14528,1.85196c1.47751,1.09006 2.21627,2.25241 2.21627,3.4856c0,0.76044 -0.35131,1.14066 -1.05392,1.14066c-0.14313,0 -0.43805,-0.09253 -0.88189,-0.27902c-0.34408,-0.14313 -0.68093,-0.21541 -1.012,-0.21541c-0.05783,0 -0.39468,0.08818 -1.012,0.26023c-0.33107,0.09976 -1.012,0.38022 -2.04568,0.83851c-0.11566,0.05783 -0.30071,0.08674 -0.55949,0.08674c-0.30071,0 -0.45251,-0.12867 -0.45251,-0.38889c0,-0.27179 0.11566,-0.46552 0.34408,-0.57973c1.33439,-0.80381 2.23796,-1.39945 2.71215,-1.78545c0.20096,-0.21396 0.30071,-0.39468 0.30071,-0.53925c0,-0.09831 -0.07084,-0.25734 -0.21396,-0.47275c-1.00477,-1.26211 -2.3753,-1.89388 -4.11159,-1.89388c-0.99031,0 -1.84473,0.14313 -2.5618,0.42938c-0.55949,0.22987 -0.88189,0.34408 -0.96718,0.34408c-0.22987,0 -0.34552,-0.12867 -0.34552,-0.38745c0,-0.27179 0.27902,-0.56816 0.83996,-0.88189c1.19126,-0.67515 2.41144,-1.01344 3.65909,-1.01344z"/><path d="M-17.55096,-19.38098v8.24343h9.85829c1.33294,-1.56281 2.11507,-2.34494 2.34638,-2.34494c0.19951,0 1.02501,0.58696 2.47505,1.76521c0.70406,0.60141 1.05392,1.03223 1.05392,1.29102c0,0.26023 -0.19373,0.38745 -0.58118,0.38745h-15.15248v7.92827h12.0312c1.36475,-1.59317 2.16133,-2.38975 2.38975,-2.38975c0.21396,0 1.03223,0.58841 2.45481,1.76665c0.74598,0.60141 1.11754,1.04814 1.11754,1.33294c0,0.26023 -0.19373,0.38889 -0.58118,0.38889h-17.41213c0.01446,2.77143 0.04193,5.51971 0.08674,8.24777c0.02891,1.95316 0.04337,3.09526 0.04337,3.42344c0,1.265 -0.60286,2.21916 -1.80858,2.8654c-0.7749,0.38745 -1.57148,0.57973 -2.38831,0.57973c-0.31516,0 -0.53781,-0.29493 -0.66792,-0.88189c-0.11566,-0.55949 -0.55949,-1.02646 -1.33439,-1.39945c-0.76044,-0.35998 -2.01676,-0.70984 -3.76608,-1.05392c-0.11566,-0.02891 -0.17204,-0.13011 -0.17204,-0.30215c0,-0.21396 0.07229,-0.32239 0.21541,-0.32239c2.88419,0.22842 4.95734,0.34408 6.22089,0.34408c0.50166,0 0.75321,-0.25878 0.75321,-0.77635v-10.72572h-14.59589c-1.11898,0 -2.12375,0.08674 -3.01286,0.25878l-0.43082,-1.70016c1.22018,0.22842 2.36807,0.34408 3.44368,0.34408h14.59299v-7.92827h-11.55844c-1.10452,0 -2.13098,0.08818 -3.07792,0.26023l-0.49444,-1.61485c1.16235,0.17204 2.35217,0.25878 3.57235,0.25878h11.55844v-7.68395c-4.37616,0.83273 -9.05448,1.24909 -14.0335,1.24909c-0.14313,0 -0.21541,-0.11422 -0.21541,-0.34408c0,-0.1865 0.05783,-0.29493 0.17204,-0.32384c3.9598,-0.38745 8.04249,-1.09729 12.2466,-2.13098c3.54488,-0.87321 6.66472,-1.85629 9.36386,-2.94781c1.6351,-0.65924 2.85528,-1.34885 3.65765,-2.06592c2.09483,1.69148 3.14298,2.7107 3.14298,3.05478c0,0.2877 -0.25155,0.43082 -0.75321,0.43082c-0.40335,0 -0.93393,-0.10699 -1.59317,-0.32384c-2.95358,1.17681 -6.00982,2.1223 -9.16724,2.83938z"/><path d="M15.39386,-0.19931c0.02891,1.07561 0.04337,2.71938 0.04337,4.92987h4.17376c0.9773,-1.20572 1.57871,-1.80858 1.80858,-1.80858c0.22987,0 0.90357,0.50311 2.02399,1.50643c0.50166,0.41781 0.75321,0.75321 0.75321,1.012c0,0.25878 -0.18794,0.38889 -0.56094,0.38889h-8.15669c0.01446,1.67847 0.04193,3.39452 0.0853,5.14528c0.02891,1.24765 0.04193,1.97195 0.04193,2.17435c0,0.78791 -0.55949,1.18259 -1.67847,1.18259c-0.73298,0 -1.09729,-0.32239 -1.09729,-0.96863c0,-0.02891 0.01446,-0.86164 0.04193,-2.49674c0.04337,-1.5498 0.07084,-3.22972 0.0853,-5.03685h-5.05854c-0.94694,0 -1.87942,0.0853 -2.79889,0.25734l-0.43082,-1.61485c1.0626,0.17349 2.13821,0.26023 3.22827,0.26023h5.05854c0.02891,-1.09006 0.04337,-2.73384 0.04337,-4.92987h-3.74439v0.88333c0,0.6737 -0.48865,1.01055 -1.46451,1.01055c-0.6737,0 -1.01055,-0.27902 -1.01055,-0.83996l0.19373,-9.13255c0,-3.64463 -0.07807,-6.15294 -0.2371,-7.5148c1.14789,0.50311 2.1035,0.99031 2.8625,1.46451h3.44368v-4.47447h-4.88649c-0.63178,0 -1.4992,0.08674 -2.60373,0.25878l-0.45251,-1.61485c0.99031,0.17204 2.00953,0.26023 3.05623,0.26023h4.84312c0,-2.77576 -0.05783,-4.80843 -0.17059,-6.10379c1.77822,0.21541 2.89721,0.39324 3.35694,0.53781c0.37299,0.13011 0.55949,0.32529 0.55949,0.58118c0,0.3036 -0.45251,0.64045 -1.35608,1.01344v3.96992h3.96125c0.88911,-1.11898 1.46305,-1.67991 1.72184,-1.67991c0.1865,0 0.84718,0.47419 1.98062,1.41968c0.47275,0.38889 0.71129,0.71129 0.71129,0.96863c0,0.26023 -0.18071,0.38889 -0.53925,0.38889h-7.8343v4.47447h3.52897c0.74744,-0.84718 1.22741,-1.27078 1.44282,-1.27078c0.1865,0 0.68961,0.33685 1.50643,1.01055c0.50311,0.43226 0.75321,0.75466 0.75321,0.97007c0,0.24433 -0.35131,0.59708 -1.05537,1.05392v3.75017l0.13011,9.1311c0,0.70261 -0.47419,1.05392 -1.42113,1.05392c-0.6737,0 -1.012,-0.27902 -1.012,-0.83996v-0.73153zM13.04891,-7.97578v-5.2566h-3.7892v5.2566zM13.00556,-1.31829l0.04337,-5.56164h-3.7892v5.56164zM15.39386,-7.97578h3.8745v-5.2566h-3.8745zM15.39386,-1.31829h3.8745v-5.56164h-3.8745zM31.47306,11.40828v-9.36097h-4.45567c-0.71707,0 -1.71605,0.08818 -2.99262,0.25878l-0.45251,-1.65678c1.27656,0.2024 2.41,0.30071 3.40175,0.30071h4.4976v-1.14066c0,-3.02732 -0.05783,-5.09902 -0.17204,-6.22089c1.8505,0.2024 3.06346,0.40335 3.63885,0.60431c0.40191,0.12867 0.60286,0.30794 0.60286,0.53636c0,0.39034 -0.47275,0.75321 -1.41968,1.09874v5.12215h4.84312c1.09006,-1.37631 1.73774,-2.06592 1.93725,-2.06592c0.28625,0 1.03946,0.53058 2.25964,1.59317c0.58841,0.51612 0.88333,0.89634 0.88333,1.14211c0,0.28481 -0.20818,0.42938 -0.62455,0.42938h-9.29881v9.36097h6.47822c1.13343,-1.37631 1.82159,-2.06592 2.06592,-2.06592c0.24433,0 1.012,0.54504 2.30301,1.63654c0.58841,0.47275 0.88189,0.85297 0.88189,1.14066c0,0.25734 -0.19373,0.38745 -0.58118,0.38745h-20.94255c-0.88911,0 -1.97339,0.08674 -3.24995,0.25878l-0.45251,-1.61341c1.20572,0.17204 2.4259,0.25734 3.65909,0.25734h7.18951zM32.13953,-12.03822c-2.2235,-2.45337 -4.061,-5.65417 -5.51104,-9.59951c-0.90357,0 -1.81436,0.09831 -2.73239,0.30071l-0.49444,-1.7016c1.20428,0.2024 2.32325,0.30215 3.35694,0.30215h12.16131c0.89056,-0.90357 1.43559,-1.35608 1.6351,-1.35608c0.22987,0 0.87466,0.45251 1.93725,1.35608c0.41636,0.38745 0.62455,0.7243 0.62455,1.01055c0,0.35854 -0.51612,0.69684 -1.5498,1.012c-1.79413,3.44368 -3.92365,6.3351 -6.39148,8.67425l0.36432,0.27902c2.74107,1.98062 6.17029,3.37284 10.28911,4.17665c0.09976,0.02891 0.15036,0.08674 0.15036,0.17059c0,0.1012 -0.06506,0.18071 -0.19373,0.2371c-0.51612,0.17204 -0.87466,0.37444 -1.07706,0.60431c-0.21396,0.22842 -0.41492,0.61587 -0.60141,1.16091c-0.11566,0.2877 -0.30215,0.43226 -0.55949,0.43226c-0.2877,0 -0.78936,-0.14457 -1.50643,-0.43226c-3.02876,-1.22018 -5.84789,-2.95503 -8.46029,-5.20889c-2.96949,2.48372 -6.54328,4.42098 -10.71849,5.8132c-0.01446,0 -0.03614,0 -0.06362,0c-0.24433,0 -0.36576,-0.14457 -0.36576,-0.43226c0,-0.07084 0.02169,-0.12144 0.06506,-0.15036c3.7733,-1.87653 6.98856,-4.09425 9.64143,-6.64881zM33.45368,-13.39429c2.28133,-2.45337 4.14774,-5.20166 5.59635,-8.24199h-11.40664c1.54836,3.45669 3.4856,6.20499 5.81031,8.24199z" data-paper-data="{&quot;origPos&quot;:null}"/></g></g></g></svg>