<svg version="1.1" xmlns="http://www.w3.org/2000/svg" xmlns:xlink="http://www.w3.org/1999/xlink" width="127.49414" height="53.97261" viewBox="0,0,127.49414,53.97261"><g transform="translate(-203.13736,-152.23857)"><g data-paper-data="{&quot;isPaintingLayer&quot;:true}" fill="#000000" fill-rule="nonzero" stroke="#000000" stroke-width="none" stroke-linecap="butt" stroke-linejoin="miter" stroke-miterlimit="10" stroke-dasharray="" stroke-dashoffset="0" font-family="none" font-weight="none" font-size="none" text-anchor="none" style="mix-blend-mode: normal"><path d="M221.66336,175.58413c1.971,1.971 2.956,4.152 2.956,6.546c0,2.815 -1.056,5.209 -3.167,7.18c-1.971,1.971 -4.646,2.956 -8.024,2.956c-2.956,0 -5.279,-0.774 -6.968,-2.322c-1.549,-1.408 -2.323,-2.957 -2.323,-4.646c0,-0.985 0.281,-1.759 0.844,-2.322c0.563,-0.563 1.126,-0.845 1.689,-0.845c0.563,0 1.056,0.211 1.479,0.634c0.563,0.563 0.845,1.196 0.845,1.9c0,0.423 -0.071,0.845 -0.211,1.267c-0.422,0.563 -0.633,1.197 -0.633,1.901c0,0.563 0.281,1.126 0.845,1.688c0.985,0.846 2.393,1.268 4.223,1.268c2.252,0 4.012,-0.634 5.279,-1.901c1.548,-1.407 2.323,-3.801 2.323,-7.18c0,-2.533 -0.704,-4.504 -2.112,-5.911c-1.408,-1.408 -3.871,-2.112 -7.39,-2.112v-1.478c5.49,0 8.235,-2.394 8.235,-7.18c0,-2.394 -0.634,-4.293 -1.9,-5.701c-1.126,-1.127 -2.675,-1.689 -4.646,-1.689c-1.548,0 -2.957,0.563 -4.223,1.689c-0.424,0.422 -0.635,0.914 -0.635,1.478c0,0.845 0.141,1.407 0.422,1.688c0.282,0.423 0.423,0.915 0.423,1.479c0,1.549 -0.634,2.323 -1.901,2.323c-0.563,0 -1.056,-0.212 -1.478,-0.634c-0.563,-0.564 -0.844,-1.338 -0.844,-2.323c0,-1.83 0.633,-3.379 1.9,-4.646c1.83,-1.689 4.223,-2.533 7.179,-2.533c2.815,0 5.068,0.844 6.757,2.533c1.689,1.689 2.534,3.59 2.534,5.701c0,4.083 -2.182,6.898 -6.546,8.446c2.253,0.705 3.942,1.62 5.068,2.746z" data-paper-data="{&quot;origPos&quot;:null}" stroke-width="2"/><path d="M256.94626,184.74213c-0.986,2.534 -2.112,4.364 -3.379,5.49c-1.689,1.689 -3.52,2.534 -5.49,2.534c-1.97,0 -3.801,-0.845 -5.49,-2.534c-1.408,-1.267 -2.604,-3.098 -3.59,-5.49c-1.267,-3.237 -1.9,-6.616 -1.9,-10.136c0,-3.519 0.633,-6.827 1.9,-9.925c0.985,-2.393 2.182,-4.293 3.59,-5.7c1.689,-1.549 3.519,-2.323 5.49,-2.323c1.971,0 3.801,0.774 5.49,2.323c1.408,1.407 2.534,3.308 3.379,5.7c1.267,3.52 1.9,6.828 1.9,9.925c0,3.378 -0.633,6.757 -1.9,10.136zM251.24426,159.61413c-0.985,-0.845 -2.042,-1.267 -3.167,-1.267c-1.126,0 -2.182,0.422 -3.167,1.267c-2.535,2.534 -3.801,7.532 -3.801,14.992c0,7.602 1.267,12.67 3.801,15.203c0.985,0.845 2.041,1.268 3.167,1.268c1.126,0 2.182,-0.423 3.167,-1.268c2.393,-2.393 3.59,-7.46 3.59,-15.203c0,-7.601 -1.197,-12.598 -3.59,-14.992z" data-paper-data="{&quot;origPos&quot;:null}" stroke-width="2"/><path d="M256.90353,185.01457c-0.986,2.534 -2.112,4.364 -3.379,5.49c-1.689,1.689 -3.52,2.534 -5.49,2.534c-1.97,0 -3.801,-0.845 -5.49,-2.534c-1.408,-1.267 -2.604,-3.098 -3.59,-5.49c-1.267,-3.237 -1.9,-6.616 -1.9,-10.136c0,-3.519 0.633,-6.827 1.9,-9.925c0.985,-2.393 2.182,-4.293 3.59,-5.7c1.689,-1.549 3.519,-2.323 5.49,-2.323c1.971,0 3.801,0.774 5.49,2.323c1.408,1.407 2.534,3.308 3.379,5.7c1.267,3.52 1.9,6.828 1.9,9.925c0,3.378 -0.633,6.757 -1.9,10.136zM251.20153,159.88657c-0.985,-0.845 -2.042,-1.267 -3.167,-1.267c-1.126,0 -2.182,0.422 -3.167,1.267c-2.535,2.534 -3.801,7.532 -3.801,14.992c0,7.602 1.267,12.67 3.801,15.203c0.985,0.845 2.041,1.268 3.167,1.268c1.126,0 2.182,-0.423 3.167,-1.268c2.393,-2.393 3.59,-7.46 3.59,-15.203c0,-7.601 -1.197,-12.598 -3.59,-14.992z" data-paper-data="{&quot;origPos&quot;:null}" stroke-width="2"/><path d="M292.79027,184.65667c-0.986,2.534 -2.112,4.364 -3.379,5.49c-1.689,1.689 -3.52,2.534 -5.49,2.534c-1.97,0 -3.801,-0.845 -5.49,-2.534c-1.408,-1.267 -2.604,-3.098 -3.59,-5.49c-1.267,-3.237 -1.9,-6.616 -1.9,-10.136c0,-3.519 0.633,-6.827 1.9,-9.925c0.985,-2.393 2.182,-4.293 3.59,-5.7c1.689,-1.549 3.519,-2.323 5.49,-2.323c1.971,0 3.801,0.774 5.49,2.323c1.408,1.407 2.534,3.308 3.379,5.7c1.267,3.52 1.9,6.828 1.9,9.925c0,3.378 -0.633,6.757 -1.9,10.136zM287.08827,159.52867c-0.985,-0.845 -2.042,-1.267 -3.167,-1.267c-1.126,0 -2.182,0.422 -3.167,1.267c-2.535,2.534 -3.801,7.532 -3.801,14.992c0,7.602 1.267,12.67 3.801,15.203c0.985,0.845 2.041,1.268 3.167,1.268c1.126,0 2.182,-0.423 3.167,-1.268c2.393,-2.393 3.59,-7.46 3.59,-15.203c0,-7.601 -1.197,-12.598 -3.59,-14.992z" data-paper-data="{&quot;origPos&quot;:null}" stroke-width="2"/><path d="M327.7315,184.9291c-0.986,2.534 -2.112,4.364 -3.379,5.49c-1.689,1.689 -3.52,2.534 -5.49,2.534c-1.97,0 -3.801,-0.845 -5.49,-2.534c-1.408,-1.267 -2.604,-3.098 -3.59,-5.49c-1.267,-3.237 -1.9,-6.616 -1.9,-10.136c0,-3.519 0.633,-6.827 1.9,-9.925c0.985,-2.393 2.182,-4.293 3.59,-5.7c1.689,-1.549 3.519,-2.323 5.49,-2.323c1.971,0 3.801,0.774 5.49,2.323c1.408,1.407 2.534,3.308 3.379,5.7c1.267,3.52 1.9,6.828 1.9,9.925c0,3.378 -0.633,6.757 -1.9,10.136zM322.0295,159.8011c-0.985,-0.845 -2.042,-1.267 -3.167,-1.267c-1.126,0 -2.182,0.422 -3.167,1.267c-2.535,2.534 -3.801,7.532 -3.801,14.992c0,7.602 1.267,12.67 3.801,15.203c0.985,0.845 2.041,1.268 3.167,1.268c1.126,0 2.182,-0.423 3.167,-1.268c2.393,-2.393 3.59,-7.46 3.59,-15.203c0,-7.601 -1.197,-12.598 -3.59,-14.992z" data-paper-data="{&quot;origPos&quot;:null}" stroke-width="2"/><text transform="translate(223.54485,193.4818) scale(1.01835,1.01835)" font-size="40" xml:space="preserve" data-paper-data="{&quot;origPos&quot;:null}" fill="#000000" fill-rule="nonzero" stroke="#000000" stroke-width="1" stroke-linecap="butt" stroke-linejoin="miter" stroke-miterlimit="10" stroke-dasharray="" stroke-dashoffset="0" font-family="Serif" font-weight="normal" text-anchor="start" style="mix-blend-mode: normal"><tspan x="0" dy="0">,</tspan></text></g></g></svg>