<svg version="1.1" xmlns="http://www.w3.org/2000/svg" xmlns:xlink="http://www.w3.org/1999/xlink" width="624.2241" height="54.48734"><g transform="translate(72.01592,-36.48399)"><g data-paper-data="{&quot;isPaintingLayer&quot;:true}" fill="none" fill-rule="nonzero" stroke="none" stroke-width="1" stroke-linecap="butt" stroke-linejoin="miter" stroke-miterlimit="10" stroke-dasharray="" stroke-dashoffset="0" font-family="none" font-weight="none" font-size="none" text-anchor="none" style="mix-blend-mode: normal"><path d="M552.20818,78.18173c0,7.06512 -6.03162,12.7896 -13.47056,12.7896h-593.9164c-7.43895,0 -13.46961,-5.72449 -13.46961,-12.7896v-25.71179c0,-7.06195 6.03066,-12.78854 13.46961,-12.78854h593.9164c7.43895,0 13.47056,5.72606 13.47056,12.78854z" data-paper-data="{&quot;origPos&quot;:null}" fill="#898989"/><path d="M548.84066,74.98539c0,7.06406 -6.03163,12.78802 -13.47057,12.78802h-593.9164c-7.43942,0 -13.46961,-5.72397 -13.46961,-12.78802v-25.71337c0,-7.06195 6.0297,-12.78803 13.46961,-12.78803h593.9164c7.43895,0 13.47057,5.72608 13.47057,12.78803z" data-paper-data="{&quot;origPos&quot;:null}" fill="#ffffff"/></g></g></svg>