<svg version="1.1" xmlns="http://www.w3.org/2000/svg" xmlns:xlink="http://www.w3.org/1999/xlink" width="86.52" height="76.641" viewBox="-0.25,-0.25,86.52,76.641"><g transform="translate(-228.9515,-158.1795)"><g data-paper-data="{&quot;isPaintingLayer&quot;:true}" fill="none" fill-rule="nonzero" stroke="none" stroke-width="none" stroke-linecap="butt" stroke-linejoin="miter" stroke-miterlimit="10" stroke-dasharray="" stroke-dashoffset="0" font-family="none" font-weight="none" font-size="none" text-anchor="none" style="mix-blend-mode: normal"><path d="M251.2405,185.7465c0,2.394 -0.916,4.505 -2.746,6.335c-2.111,1.972 -4.786,2.957 -8.023,2.957c-3.238,0 -5.842,-0.916 -7.813,-2.746c-1.971,-1.829 -2.957,-3.871 -2.957,-6.123c0,-3.801 2.323,-7.25 6.968,-10.347c-4.083,-2.112 -6.124,-4.927 -6.124,-8.446c0,-2.112 0.985,-4.083 2.956,-5.912c1.691,-1.689 4.154,-2.535 7.392,-2.535c3.097,0 5.631,0.916 7.602,2.745c1.548,1.549 2.323,3.449 2.323,5.702c0,3.238 -2.182,6.053 -6.546,8.446c4.645,2.674 6.968,5.983 6.968,9.924zM232.6585,186.1695c0,2.252 0.774,4.082 2.322,5.49c1.267,1.267 3.097,1.9 5.491,1.9c2.533,0 4.363,-0.563 5.49,-1.689c1.408,-1.267 2.112,-3.238 2.112,-5.912c0,-1.549 -0.774,-3.098 -2.323,-4.646c-1.83,-1.831 -4.434,-3.379 -7.813,-4.646c-3.52,2.395 -5.279,5.562 -5.279,9.503zM247.8615,167.5875c0,-2.394 -0.704,-4.223 -2.112,-5.49c-1.126,-1.126 -2.745,-1.689 -4.856,-1.689c-2.534,0 -4.364,0.563 -5.49,1.689c-1.267,1.268 -1.901,2.957 -1.901,5.067c0,1.268 0.774,2.604 2.323,4.013c1.549,1.409 3.871,2.675 6.968,3.801c3.379,-1.69 5.068,-4.153 5.068,-7.391z" data-paper-data="{&quot;origPos&quot;:null}" fill="#000000" stroke="#000000" stroke-width="2"/><path d="M315.2215,234.5705v0h-2.227v0z" fill="none" stroke="none" stroke-width="1"/></g></g></svg>