<svg version="1.1" xmlns="http://www.w3.org/2000/svg" xmlns:xlink="http://www.w3.org/1999/xlink" width="68.25126" height="64.22341" viewBox="0,0,68.25126,64.22341"><g transform="translate(-185.03613,-119.63961)"><g data-paper-data="{&quot;isPaintingLayer&quot;:true}" fill-rule="nonzero" stroke-linejoin="miter" stroke-miterlimit="10" stroke-dasharray="" stroke-dashoffset="0" style="mix-blend-mode: normal"><path d="M253.03739,151.75131c0,17.7348 -15.2226,32.11171 -34.00063,32.11171c-18.77803,0 -34.00063,-14.3769 -34.00063,-32.11171c0,-17.7348 15.2226,-32.1117 34.00063,-32.1117c18.77803,0 34.00063,14.3769 34.00063,32.11171z" fill="#dac8ff" stroke="none" stroke-width="0" stroke-linecap="butt"/><path d="M185.32674,151.89661l67.71065,-0.87181" fill="none" stroke="#ff0000" stroke-width="0.5" stroke-linecap="round"/><path d="M225.84351,128.60042c0.03123,-0.7021 0.74895,-0.7021 0.74895,-0.7021c4.9111,0.01787 10.47845,2.9027 13.8981,6.32234c1.2003,1.2003 2.53134,2.2061 3.10058,3.82508c0.48937,2.63483 -1.03677,5.15706 -4.13886,4.10696c-1.30334,-0.4412 -1.71144,-1.77746 -2.79239,-2.40466c-2.86195,-1.66058 -5.83112,-3.60049 -8.85159,-4.57613c-2.72621,-0.92852 -4.4555,-3.69484 -2.83351,-6.2478zM227.04777,129.40574c-0.08317,0.39344 -0.50875,0.53529 -0.50875,0.53529l-0.65373,0.17512c-1.04394,1.33686 1.22528,3.25254 2.39736,3.63272c3.11351,1.07995 6.27536,2.94153 9.16584,4.72319c0.87172,0.53732 1.42903,1.91767 2.43847,2.245c1.96303,0.63655 2.60272,-0.70237 2.25443,-2.28632c-0.38204,-1.2565 -1.79333,-2.23125 -2.71149,-3.14942c-3.02116,-3.02116 -7.97811,-5.71547 -12.38212,-5.87558z" fill="#c7f7ff" stroke="none" stroke-width="0.5" stroke-linecap="butt"/><path d="M245.19447,149.97508c-0.55564,0.26568 -0.91801,-0.27788 -0.91801,-0.27788c-1.0157,-1.54281 -3.22019,-7.89408 1.01419,-7.26206c3.5542,0.5305 2.60466,5.78369 1.01198,7.37637l-0.82093,0.21967c0,0 -0.13314,0 -0.28723,-0.05609zM245.3568,148.54421c0.02499,-0.00437 0.04726,-0.00728 0.06582,-0.00921c0.79771,-1.10146 1.64229,-4.17233 -0.33109,-4.61314c-1.80648,-0.40353 -0.29962,3.43382 0.26526,4.62234z" fill="#c7f7ff" stroke="none" stroke-width="0.5" stroke-linecap="butt"/><path d="M193.64751,164.1043c0.09655,0.08334 0.14956,0.16285 0.14956,0.16285c0.61608,0.92678 0.91598,2.01695 1.46697,2.92776c0.35238,0.5825 0.7766,1.11926 1.13286,1.69939c0.73738,1.20074 2.18086,0.44455 1.85257,-0.91541c-0.32456,-1.34448 -3.05569,-5.04977 -4.54866,-4.32782l0.14305,0.20511c0,0 -0.06545,0.13089 -0.19634,0.24813zM192.69419,164.10437c-0.47545,-0.35208 -0.19198,-0.91902 -0.19198,-0.91902l0.72425,-0.95731c3.04013,-0.81116 7.4665,4.30632 6.45155,7.3918c-0.65349,1.98666 -3.55419,1.48373 -4.49798,0.15152c-1.04774,-1.47895 -1.61279,-3.14956 -2.63104,-4.67216c0,0 -0.38691,-0.58035 0.1452,-0.99483z" fill="#c7f7ff" stroke="none" stroke-width="0.5" stroke-linecap="butt"/><path d="M205.99187,160.21604c-0.24653,-0.04152 -0.20501,-0.28805 -0.20501,-0.28805l0.05074,-0.26815c0.6115,-1.54438 1.48978,-2.69554 2.36715,-3.97593c-1.19665,0.09618 -2.35815,0.3361 -2.7618,0.62301c0,0 -0.20845,0.13802 -0.34647,-0.07042c-0.13802,-0.20845 0.07042,-0.34647 0.07042,-0.34647c0.78095,-0.49187 2.07282,-0.53997 3.28941,-0.57763c0.16488,-0.2469 0.32882,-0.50017 0.49002,-0.76331c0.37928,-0.61911 0.57845,-1.62519 1.45325,-1.44063c0,0 0.2405,0.06825 0.17225,0.30875c-0.06825,0.24051 -0.30875,0.17225 -0.30875,0.17225c-0.32988,-0.15616 -0.94737,1.3408 -1.14442,1.63497c-0.01508,0.02251 -0.03015,0.04494 -0.04521,0.0673c0.46444,-0.01854 0.90131,-0.04711 1.27427,-0.11256c0.37665,-0.0661 1.05765,-0.36383 1.4014,-0.01454c0.23195,0.23569 0.21541,0.86029 0.2158,1.16655c-0.09323,0.74558 -1.33394,5.61483 -2.63509,4.93881c-0.23726,-0.12327 -0.68095,-0.99164 -0.923,-1.23164l-0.07382,-0.35826c0,0 0,-0.25 0.25,-0.25c0.25,0 0.25,0.25 0.25,0.25l-0.07382,0.00351c0.33791,0.33617 0.7258,0.68956 0.82531,1.1561c0.13018,0.61029 0.73084,-1.0286 0.95107,-1.61246c0.37895,-1.00466 0.79286,-1.84253 0.93032,-2.92735c0.00092,-0.5358 -1.25559,-0.70273 -2.63504,-0.65271c-0.9687,1.40283 -1.87371,2.5425 -2.52836,4.19668l-0.02258,0.16716c0,0 -0.04152,0.24652 -0.28805,0.205z" fill="#f1ffc7" stroke="none" stroke-width="0.5" stroke-linecap="butt"/><path d="M213.45898,155.62346c-0.17618,0.17738 -0.35355,0.00119 -0.35355,0.00119l-0.20553,-0.20504c-0.22483,-0.16748 -0.43304,-0.35739 -0.6322,-0.5547c0,0 -0.17737,-0.17618 -0.00119,-0.35355c0.17618,-0.17738 0.35355,-0.00119 0.35355,-0.00119c0.19026,0.18952 0.39084,0.37021 0.60619,0.53064l0.23155,0.2291c0,0 0.17737,0.17618 0.00119,0.35355z" fill="#f1ffc7" stroke="none" stroke-width="0.5" stroke-linecap="butt"/><path d="M214.52313,155.16409c-0.22331,0.11241 -0.33571,-0.11089 -0.33571,-0.11089l-0.05712,-0.1178c-0.12141,-0.18089 -0.24282,-0.36178 -0.36423,-0.54267c0,0 -0.13933,-0.20757 0.06825,-0.3469c0.20758,-0.13933 0.3469,0.06825 0.3469,0.06825c0.12141,0.18089 0.24282,0.36178 0.36423,0.54267l0.08857,0.17162c0,0 0.11241,0.2233 -0.11089,0.33571z" fill="#f1ffc7" stroke="none" stroke-width="0.5" stroke-linecap="butt"/><path d="M220.95606,154.19952c0.05388,0.24412 -0.19024,0.29801 -0.19024,0.29801l-0.16737,0.03694c-1.26869,0.27632 -2.6062,0.04129 -3.89307,0.04129c0,0 -0.25,0 -0.25,-0.25c0,-0.25 0.25,-0.25 0.25,-0.25c1.2436,0 2.56093,0.24472 3.7853,-0.02954l0.16737,-0.03694c0,0 0.24412,-0.05388 0.29801,0.19024z" fill="#f1ffc7" stroke="none" stroke-width="0.5" stroke-linecap="butt"/><path d="M218.12002,162.57599c-0.1102,-0.2244 0.1142,-0.3346 0.1142,-0.3346l0.40234,-0.19749c2.27049,-0.97148 4.5299,-2.58445 4.56261,-5.24201c-0.55389,-1.18578 -5.45953,-0.13041 -6.80784,-0.05583c0,0 -0.24962,0.01377 -0.26339,-0.23585c-0.01377,-0.24962 0.23585,-0.26339 0.23585,-0.26339c1.75747,-0.09676 6.54931,-1.33242 7.32436,0.45066c0.02919,2.92471 -2.33949,4.72742 -4.84289,5.80078l-0.39065,0.19193c0,0 -0.2244,0.1102 -0.3346,-0.1142z" fill="#f1ffc7" stroke="none" stroke-width="0.5" stroke-linecap="butt"/><path d="M207.34958,174.91098c0,-0.16445 0.10818,-0.22073 0.18222,-0.23998c0.33491,-0.65539 -0.30614,-2.61565 -0.34605,-3.3425c-0.08133,-1.49446 -0.20978,-3.04481 -0.30966,-4.58259c-1.09386,0.24508 -2.20281,0.45471 -3.37684,0.52781c0,0 -0.24952,0.01549 -0.26501,-0.23403c-0.01549,-0.24952 0.23403,-0.26501 0.23403,-0.26501c1.17447,-0.07269 2.2829,-0.2825 3.37647,-0.52792c-0.06262,-1.03525 -0.10849,-2.0614 -0.11435,-3.05741c0,0 0,-0.25 0.25,-0.25c0.25,0 0.25,0.25 0.25,0.25c-0.00706,0.95424 0.03294,1.94516 0.09351,2.94773c1.33209,-0.30993 2.65318,-0.65087 4.0566,-0.83774c0.08359,-0.00864 0.16717,-0.01729 0.25076,-0.02593c0.16922,-0.14508 0.33318,0.01778 0.33318,0.01778l-0.11406,0.46222c-0.13711,0.01416 -0.27423,0.02833 -0.41134,0.04249c-1.41152,0.18585 -2.74161,0.52878 -4.08345,0.84044c0.10395,1.56838 0.24726,3.15501 0.32943,4.66499c0.0567,1.05182 0.77857,2.89054 0.18818,3.75862l-0.27361,0.10103c0,0 -0.25,0 -0.25,-0.25z" fill="#f1ffc7" stroke="none" stroke-width="0.5" stroke-linecap="butt"/><path d="M202.45248,175.01601c-0.24974,-0.01143 -0.2383,-0.26117 -0.2383,-0.26117l0.01211,-0.24725c0.19386,-1.49536 1.29677,-3.81739 2.26914,-4.96834c0,0 0.16212,-0.19031 0.35243,-0.02819c0.19031,0.16212 0.02819,0.35243 0.02819,0.35243c-0.90985,1.05796 -1.98519,3.32053 -2.15366,4.70653l-0.00872,0.20769c0,0 -0.01143,0.24974 -0.26117,0.2383z" fill="#f1ffc7" stroke="none" stroke-width="0.5" stroke-linecap="butt"/><path d="M212.2166,172.4501c-0.1801,0.17339 -0.35349,-0.00672 -0.35349,-0.00672l-0.05503,-0.05717c-1.12445,-1.16845 -2.01416,-2.51791 -3.21244,-3.62259c0,0 -0.18377,-0.16949 -0.01428,-0.35327c0.16949,-0.18377 0.35327,-0.01428 0.35327,-0.01428c1.20557,1.11243 2.10184,2.46812 3.23366,3.64336l0.05503,0.05717c0,0 0.17339,0.1801 -0.00672,0.35349z" fill="#f1ffc7" stroke="none" stroke-width="0.5" stroke-linecap="butt"/><path d="M210.30037,164.25439c-0.01588,-0.24949 0.23361,-0.26538 0.23361,-0.26538l0.19479,-0.01224c0.55996,-0.05551 3.29193,-0.22792 3.46858,-0.93017c0.02443,-0.09712 -0.22338,-0.15759 -0.48457,-0.20911c-0.15409,0.05181 -0.32644,0.09598 -0.51814,0.13055l-0.0223,-0.00983v0.01083h-0.25496c-0.13807,0 -0.25,-0.11193 -0.25,-0.25c0,-0.1279 0.09604,-0.23337 0.21994,-0.24821l0.49198,-0.06664l0.00296,0.02187c1.76781,-0.3513 0.95102,-0.60872 0.00733,-0.85662c-0.08541,0.06003 -0.18595,0.12094 -0.30294,0.18226l-0.05012,-0.01376l0.00115,0.02132l-0.28696,0.01544c-0.00511,0.00031 -0.01027,0.00047 -0.01546,0.00047c-0.13807,0 -0.25,-0.11193 -0.25,-0.25c0,-0.10005 0.05877,-0.18637 0.14367,-0.22633l0.44295,-0.21998l0.04365,0.08788c0.05481,-0.02724 0.1088,-0.05144 0.16189,-0.07273c0.16355,-0.19503 -1.04516,-0.05962 -1.53449,0.17422l0.13037,0.00723c0.13241,0.00636 0.2378,0.11573 0.2378,0.24971c0,0.10625 -0.06628,0.19702 -0.15976,0.23322l-0.43172,0.17867l-0.05408,-0.13067c-0.06262,0.01794 -0.1156,0.02627 -0.15963,0.0263c-0.59436,0.27251 -1.55327,1.13952 -0.87521,1.60959c0.54673,0.37902 0.90293,-0.73245 1.60657,-0.1047c0,0 0.17737,0.17618 0.00119,0.35355c-0.17618,0.17737 -0.35355,0.00119 -0.35355,0.00119c-0.27672,-0.34757 -1.01137,0.67604 -1.59867,0.11237c-0.934,-0.89643 0.22088,-2.15202 1.17737,-2.48471c0.18757,-0.29801 0.55373,-0.63774 0.96135,-0.75742c0.7259,-0.21313 1.50197,0.01058 1.56015,0.40894c0.92573,-0.06605 1.37147,0.83491 0.65005,1.47233c0.17141,0.10797 0.27591,0.31336 0.25826,0.66522c-0.05379,1.0723 -3.20133,1.29449 -3.91534,1.36527l-0.21235,0.01367c0,0 -0.24949,0.01588 -0.26538,-0.23361z" fill="#f1ffc7" stroke="none" stroke-width="0.5" stroke-linecap="butt"/><path d="M219.73388,166.05006c-0.1112,0.22391 -0.33511,0.11271 -0.33511,0.11271l-0.12422,-0.06169c-1.0063,-0.49976 -2.14479,-1.17815 -3.22019,-1.47736c0,0 -0.2405,-0.06825 -0.17225,-0.30876c0.06825,-0.2405 0.30876,-0.17225 0.30876,-0.17225c1.10878,0.31979 2.26723,0.99463 3.30608,1.51055l0.12422,0.06169c0,0 0.22391,0.1112 0.11271,0.33511z" fill="#f1ffc7" stroke="none" stroke-width="0.5" stroke-linecap="butt"/><path d="M228.3193,161.42699c0.20671,0.14061 0.06609,0.34732 0.06609,0.34732l-0.0669,0.09834c-1.60776,2.36347 -3.64207,4.1876 -5.95207,5.85219c-2.33591,1.68327 -4.66909,3.34291 -7.09208,4.90017c0,0 -0.21031,0.13517 -0.34548,-0.07514c-0.13517,-0.21031 0.07514,-0.34548 0.07514,-0.34548c2.41553,-1.55247 4.74137,-3.20711 7.0701,-4.8852c2.26268,-1.6305 4.25615,-3.41273 5.83097,-5.72777l0.0669,-0.09834c0,0 0.14061,-0.20671 0.34732,-0.06609z" fill="#f1ffc7" stroke="none" stroke-width="0.5" stroke-linecap="butt"/><path d="M228.38061,170.31531c-0.21599,-0.12589 -0.0901,-0.34188 -0.0901,-0.34188l0.14887,-0.25541c0.41468,-0.7106 0.91643,-1.36481 1.39429,-2.03418c1.38492,-1.93984 3.38789,-5.94043 5.6069,-6.89617c0,0 0.231,-0.0956 0.3266,0.1354c0.0956,0.231 -0.1354,0.3266 -0.1354,0.3266c-2.05789,0.8073 -4.12017,4.94425 -5.39116,6.72468c-0.46875,0.65661 -0.96324,1.29799 -1.36926,1.99545l-0.14887,0.25541c0,0 -0.12589,0.21599 -0.34188,0.0901z" fill="#f1ffc7" stroke="none" stroke-width="0.5" stroke-linecap="butt"/><path d="M225.85447,173.49467c-0.01077,-0.08676 0.01257,-0.14695 0.04747,-0.18854c0.02732,-0.06439 0.07498,-0.10497 0.07498,-0.10497c0.10937,-0.07205 0.20893,-0.11948 0.29889,-0.14677l0.03893,-0.04419c0.04583,-0.05255 0.11328,-0.08575 0.18848,-0.08575c0.12443,0 0.22763,0.09091 0.24681,0.20993c0.37519,0.34099 0.15341,1.31857 -0.55603,0.56514l-0.06063,0.01244c0,0 -0.2481,0.0308 -0.2789,-0.2173z" fill="#f1ffc7" stroke="none" stroke-width="0.5" stroke-linecap="butt"/></g></g></svg>