<svg version="1.1" xmlns="http://www.w3.org/2000/svg" xmlns:xlink="http://www.w3.org/1999/xlink" width="371.82824" height="134.99305" viewBox="0,0,371.82824,134.99305"><g transform="translate(-47.7288,-85.72916)"><g data-paper-data="{&quot;isPaintingLayer&quot;:true}" fill="none" fill-rule="nonzero" stroke="none" stroke-width="none" stroke-linecap="butt" stroke-linejoin="miter" stroke-miterlimit="10" stroke-dasharray="" stroke-dashoffset="0" font-family="none" font-weight="none" font-size="none" text-anchor="none" style="mix-blend-mode: normal"><path d="M416.72165,208.84756c0,4.99287 -4.901,9.04 -10.9454,9.04h-331.55225c-6.04514,0 -10.9454,-4.04714 -10.9454,-9.04v-37.69612c0,-4.99287 4.90026,-9.04 10.9454,-9.04h331.55299c6.04514,0 10.9454,4.04714 10.9454,9.04v37.69612z" data-paper-data="{&quot;origPos&quot;:null}" fill="#ffffff" stroke="#636363" stroke-width="5.6693"/><text transform="translate(184,199.04584) scale(0.65312,0.65312)" font-size="40" xml:space="preserve" data-paper-data="{&quot;origPos&quot;:null}" fill="#636363" fill-rule="nonzero" stroke="#636363" stroke-width="1" stroke-linecap="butt" stroke-linejoin="miter" stroke-miterlimit="10" stroke-dasharray="" stroke-dashoffset="0" font-family="Serif" font-weight="normal" text-anchor="start" style="mix-blend-mode: normal"><tspan x="0" dy="0">円分 損でした…</tspan></text><text transform="translate(206.00002,105.31787) scale(0.45682,0.45682)" font-size="40" xml:space="preserve" data-paper-data="{&quot;origPos&quot;:null}" fill="#000000" fill-rule="nonzero" stroke="#000000" stroke-width="1" stroke-linecap="butt" stroke-linejoin="miter" stroke-miterlimit="10" stroke-dasharray="" stroke-dashoffset="0" font-family="Serif" font-weight="normal" text-anchor="start" style="mix-blend-mode: normal"><tspan x="0" dy="0">円分のお寿司をゲット！</tspan></text><text transform="translate(206.00002,138.31787) scale(0.45682,0.45682)" font-size="40" xml:space="preserve" data-paper-data="{&quot;origPos&quot;:null}" fill="#000000" fill-rule="nonzero" stroke="#000000" stroke-width="1" stroke-linecap="butt" stroke-linejoin="miter" stroke-miterlimit="10" stroke-dasharray="" stroke-dashoffset="0" font-family="Serif" font-weight="normal" text-anchor="start" style="mix-blend-mode: normal"><tspan x="0" dy="0">円　払って...</tspan></text><g data-paper-data="{&quot;origPos&quot;:null}" stroke="none" stroke-width="1"><g data-paper-data="{&quot;origPos&quot;:null}"><path d="M109.04605,123.9282c1.78787,4.95666 -0.78153,10.42438 -5.73887,12.21222l-30.23516,10.90442c-4.95733,1.78784 -10.42515,-0.78152 -12.21243,-5.73877l-10.90402,-30.23405c-1.78787,-4.95666 0.78153,-10.42497 5.73887,-12.21222l30.23457,-10.90442c4.95733,-1.78784 10.42515,0.78152 12.21243,5.73818z" fill="#ffffff"/><path d="M85.36583,86.39409c5.81029,-2.09518 12.24229,0.9267 14.33751,6.73631l10.90402,30.23464c2.09522,5.81019 -0.9273,12.24091 -6.73759,14.33667l-30.23457,10.90325c-5.81029,2.09518 -12.24171,-0.92612 -14.33751,-6.73631l-10.90402,-30.23405c-2.09522,-5.8096 0.9273,-12.24091 6.73759,-14.33609zM72.50942,145.48414l30.23398,-10.90442c4.08857,-1.47406 6.2154,-6.00103 4.74131,-10.08894l-10.90402,-30.23464c-1.47467,-4.08791 -6.00113,-6.21471 -10.08912,-4.74006l-30.23457,10.90383c-4.08857,1.47465 -6.21598,6.00103 -4.74131,10.08894l10.90461,30.23405c1.47409,4.0885 6.00055,6.21529 10.08912,4.74123z" fill="#e60012"/></g><path d="M80.34292,121.43319l0.01581,0.04391c0,0 0.26519,2.12562 0.27925,2.23919c0.07376,0.19026 0.13289,0.24646 0.13523,0.24704c0.02634,0.00937 0.0843,0.03044 0.0843,0.03044l0.04332,0.03278c0.22773,0.1686 0.35067,0.34539 0.41096,0.51165c0.10303,0.28685 0.0199,0.5415 -0.03981,0.66912l-0.01698,0.03747l-0.02459,0.03337c-0.16743,0.22772 -0.44316,0.37466 -0.84359,0.44784c-1.59995,0.27631 -3.35387,-0.1885 -5.20906,-1.32361c-0.74056,1.83936 -1.67488,3.50953 -2.83109,4.92622l-0.07259,0.08898l-0.1083,0.03864c-0.33837,0.12235 -0.54151,0.02166 -0.65274,-0.0843c-0.048,-0.04508 -0.09601,-0.1083 -0.12587,-0.1926c-0.03981,-0.11123 -0.04976,-0.25934 0.01054,-0.45486l0.01698,-0.05444l0.03044,-0.048c1.03853,-1.61397 1.84641,-3.38191 2.42773,-5.24527c-1.35934,-1.48167 -2.61858,-3.45157 -3.75078,-5.86287l-5.37532,1.93829l0.83364,2.31003l2.52491,-0.91031c0.08489,-0.2125 0.38404,-0.96124 0.38404,-0.96124c0,0 1.48638,0.36647 1.56131,0.3852c0.18675,0.00351 0.57254,0.03278 0.69606,0.37466c0.00351,0.01054 0.00644,0.02049 0.00995,0.03161c0.10069,0.33778 -0.16392,0.61702 -0.49058,0.85762c0.4455,1.3962 0.81725,2.75435 1.08771,4.03054c0.18265,0.84357 0.00234,1.55895 -0.54737,2.13499c-0.2289,0.22363 -0.57957,0.51048 -0.97297,0.42032c-0.16684,-0.03805 -0.39223,-0.15806 -0.49702,-0.47652c-0.00059,0 -0.0644,-0.048 -0.25583,-0.06147l-1.52326,0.06147l-0.09191,-0.04391c-0.257,-0.12059 -0.31554,-0.31554 -0.32783,-0.42091c-0.01522,-0.13172 0.01464,-0.32607 0.24178,-0.50579l0.07903,-0.06147l1.92135,-0.37642c0.18968,-0.04742 0.31905,-0.11064 0.25758,-0.48004c-0.21426,-1.09413 -0.56259,-2.37032 -1.00575,-3.76126l-2.62502,0.94661c0.14167,0.3934 0.34364,0.95363 0.34364,0.95363c0.83539,2.31588 0.843,4.82963 0.02342,7.47041l-0.024,0.07727l-0.05093,0.06205c-0.20665,0.25348 -0.42677,0.35007 -0.65333,0.28802c-0.15104,-0.04098 -0.34188,-0.16684 -0.39516,-0.52628l-0.00937,-0.06147l0.00937,-0.06147c0.36472,-2.38496 0.19436,-4.5779 -0.50522,-6.51736l-2.44354,-6.77553c0,0 1.68191,0.41506 1.88095,0.46364l5.38996,-1.94356c-0.20431,-0.51223 -0.61528,-1.53846 -0.61528,-1.53846l-0.87052,-2.41364l1.74045,-0.3009h0.03864c0.41799,0.00527 0.58718,0.22187 0.65099,0.35007c0.00995,0.02107 0.01932,0.04215 0.02693,0.06322c0.10479,0.28978 -0.04859,0.59887 -0.22948,0.8787c0.08196,0.22831 0.2488,0.69137 0.2488,0.69137c0,0 0.47009,1.18253 0.66504,1.6731l3.08926,-1.11403c0.02927,-0.06381 0.09367,-0.20021 0.17153,-0.36588c-0.06908,0.048 -0.13816,0.09659 -0.22656,0.12879c-0.26344,0.09484 -0.67031,0.12001 -1.10937,-0.29914c-0.39633,-0.37759 -1.01102,-0.62756 -1.82709,-0.74347l0.00995,0.00117c-0.3413,-0.03981 -0.47419,-0.21602 -0.52454,-0.3571c-0.05093,-0.1405 -0.06205,-0.36061 0.17504,-0.61l0.09308,-0.09718l0.13172,-0.02459c1.97638,-0.37115 3.17356,-0.01756 3.55876,1.05022c0.0322,0.08898 0.03864,0.1727 0.04566,0.25641c0.12528,-0.26636 0.2248,-0.47828 0.2248,-0.47828l1.98164,0.58951c0.11533,0.04273 0.44492,0.16216 0.55205,0.45955c0.01171,0.0322 0.0199,0.06674 0.02576,0.10303c0.02576,0.15865 -0.00468,0.39574 -0.2933,0.62346l-0.05269,0.04156c0,0 -4.77292,1.7211 -5.5328,1.99508c0.88867,1.78199 1.76328,3.19692 2.61097,4.23368c0.20958,-1.32829 0.33954,-2.6841 0.33018,-4.0604l-0.00351,-0.4695l1.92603,0.2289c0.34774,0.06791 0.56317,0.21133 0.64045,0.42676c0.01346,0.0363 0.02225,0.07493 0.02751,0.11474c0.05152,0.38813 -0.30969,0.64922 -0.70953,0.86289c-0.14987,1.50099 -0.40979,2.95046 -0.76866,4.32676c1.24928,0.83362 2.4008,1.24107 3.37728,1.18253c0,0 0.09835,-0.03337 0.10011,-0.05327l-0.00703,-2.21636l0.03922,-0.08488c0.13816,-0.29505 0.32783,-0.43964 0.56259,-0.42852c0.15806,0.00761 0.37174,0.0884 0.49644,0.43203zM95.84952,109.48381c0.01171,0.0322 0.0199,0.06615 0.02576,0.10303c0.02576,0.15865 -0.0041,0.39515 -0.2933,0.62346l-0.05327,0.04156l-2.27318,0.81957l1.14976,0.32432c0.29681,0.1083 0.42736,0.26929 0.48004,0.41623c0.01698,0.04742 0.02576,0.09249 0.02986,0.13347c0.02342,0.24177 -0.11064,0.42208 -0.25641,0.55497c0.18441,0.51106 1.75099,4.85421 1.75099,4.85421l-0.0843,0.16157c-0.05152,0.09952 -0.10655,0.19845 -0.16567,0.29329c1.23582,0.13464 1.98926,0.58073 2.26967,1.35698c0.19143,0.53097 -0.01932,0.97939 -0.55029,1.17082c-0.37116,0.13347 -0.78446,0.01581 -1.25338,-0.35183c-0.89042,-0.65859 -1.91257,-0.99929 -3.03833,-1.01334l-0.08957,-0.00059l-0.08137,-0.03864c-0.21895,-0.10303 -0.29798,-0.24529 -0.32842,-0.36003l-1.09649,0.39515l0.32198,0.15279c0.14284,0.04449 0.57839,0.17738 0.56142,0.58365c-0.01698,0.40452 -0.45663,0.53623 -0.83774,0.62229c-1.15328,1.40323 -2.45525,2.58927 -3.88426,3.50719l-0.03922,0.02459l-0.04449,0.01581c-0.31261,0.11298 -0.54912,0.07552 -0.70192,-0.1124c-0.23358,-0.28685 -0.02576,-0.62639 0.04332,-0.7382l0.03454,-0.05678l0.04976,-0.04273c0.88047,-0.74874 1.62395,-1.52733 2.25562,-2.32232c-0.02693,0.00176 -0.05327,0.00702 -0.08196,0.00527c-0.19143,-0.01229 -0.45311,-0.12059 -0.61352,-0.56609l-2.37914,-6.59756l-1.29202,0.46599c0.98292,0.35125 1.58239,0.84123 1.8148,1.48635c0.33252,0.92319 -0.30032,1.23287 -0.5017,1.30546c-0.11884,0.04273 -0.53156,0.14577 -0.82251,-0.29329c0,0 -0.305,-0.32666 -0.51224,-0.54853c-0.24471,0.12996 -0.47185,0.24997 -0.73938,0.39281l0.39457,1.09354c0.09894,-0.18967 0.30149,-0.28509 0.61001,-0.27456l0.04566,0.00176l0.04332,0.01112c1.5297,0.39222 2.50911,1.15794 2.91246,2.27607c0.33252,0.92261 -0.29973,1.23229 -0.5017,1.30488c-0.257,0.09249 -0.74992,0.12059 -1.15035,-0.71654c-0.39691,-0.7224 -0.96887,-1.34937 -1.69479,-1.86863c0.76924,2.13382 1.92135,5.3284 1.92135,5.3284l-0.08371,0.16157c-0.24002,0.4613 -0.54561,0.92787 -0.99463,0.89802c-0.19085,-0.01229 -0.45311,-0.12059 -0.61352,-0.56609c0,0 -1.02565,-2.84392 -1.75216,-4.85773c-0.09191,0.10186 -0.2049,0.19201 -0.31554,0.27104c0.23007,2.0624 0.14109,3.73491 -0.28159,4.95198l-0.01698,0.04859l-0.0281,0.04273c-0.19729,0.3009 -0.42092,0.34246 -0.57313,0.32432c-0.15221,-0.01815 -0.35945,-0.11064 -0.48121,-0.44842l-0.03571,-0.09776l0.01522,-0.10303c0.20899,-1.42606 0.03337,-3.21038 -0.52395,-5.30264c-0.34832,0.04391 -0.65801,-0.28568 -0.78739,-0.42501l-1.29553,-1.23346c0,0 1.86807,-0.67381 2.21757,-0.79967c0.02751,-0.16509 0.1768,-1.05608 0.35125,-2.10572c-0.08079,0.06322 -0.17211,0.11298 -0.26812,0.14752c-0.27339,0.09835 -0.69782,0.08547 -1.18021,-0.49701c-0.5942,-0.50989 -1.2569,-0.82074 -1.96994,-0.92495l-0.03161,-0.0041l-0.03044,-0.00937c-0.37701,-0.11474 -0.46073,-0.3331 -0.46482,-0.49526c-0.0041,-0.16216 0.06908,-0.38344 0.44024,-0.5175l0.03513,-0.01229l0.03688,-0.00644c0.42794,-0.07201 0.88691,-0.06381 1.34588,-0.05152c0.06849,-0.58131 0.48121,-4.08264 0.48121,-4.08264l1.4173,0.35125c0.25641,0.03747 0.76163,0.11064 0.89159,0.47008c0.01346,0.03805 0.02342,0.07903 0.02751,0.12411c0.04039,0.39632 -0.34188,0.61292 -0.78388,0.78679c-0.09367,0.30031 -0.68377,2.19704 -0.83012,2.66654c0.51283,0.27397 0.89101,0.59595 1.06137,0.98583c0.24588,-1.47055 0.48414,-2.89426 0.48414,-2.89426l1.74455,0.2927l0.03981,0.01522c0.37818,0.14752 0.56317,0.36295 0.55029,0.6381c-0.01698,0.37173 -0.3893,0.54911 -0.69782,0.65215c-0.04976,0.15455 -0.32491,1.00105 -0.63928,1.97107c0.08196,-0.08196 0.19846,-0.15572 0.40101,-0.18557l0.07201,-0.01112l0.07201,0.01405c0.24236,0.04976 0.46599,0.10479 0.67967,0.16391l-0.32022,-0.88807c0,0 3.65477,-1.31834 4.29991,-1.55075l-0.25173,-0.69781c-0.59596,0.21485 -3.09101,1.11462 -3.09101,1.11462l-0.42677,-1.18311c0,0 2.49506,-0.89977 3.09101,-1.11462l-0.22773,-0.63049c-0.64103,0.23124 -4.16584,1.50216 -4.16584,1.50216l-0.42677,-1.1837c0,0 3.52481,-1.27092 4.16584,-1.50216c-0.17328,-0.48121 -0.68143,-1.88912 -0.68143,-1.88912l1.78202,-0.30851l0.07845,0.01698c0.32491,0.07025 0.52688,0.21016 0.60181,0.41798c0.01229,0.03278 0.02049,0.06732 0.02576,0.10362c0.04039,0.27222 -0.1323,0.47008 -0.31496,0.61351l0.16158,0.44842l2.13561,-0.76981c0.10479,-0.22246 0.54912,-1.16789 0.54912,-1.16789l1.55078,0.43672c0.11591,0.04273 0.44492,0.16216 0.55264,0.45955c0.01171,0.0322 0.02049,0.06615 0.02634,0.10245c0.02576,0.15806 -0.00468,0.39574 -0.2933,0.62405l-0.05327,0.04156c0,0 -0.78622,0.28334 -1.26451,0.45545c0.11357,0.03278 1.14976,0.3249 1.14976,0.3249c0.11533,0.04215 0.44492,0.16157 0.55205,0.45896c0.01171,0.0322 0.02049,0.06615 0.02634,0.10303c0.02108,0.13113 -0.0322,0.31846 -0.20373,0.50814c0.01522,0.0041 1.37866,0.42267 1.37866,0.42267c0.11591,0.04215 0.44492,0.16157 0.55439,0.46072zM78.73186,112.07952c-0.00059,-0.00059 -0.00117,-0.00293 -0.00176,-0.00293c-0.01346,-0.00293 -0.02634,-0.00585 -0.02634,-0.00585c0.00995,0.00176 0.01932,0.00702 0.0281,0.00878zM83.08445,117.17667c-0.40043,0.23124 -0.82603,0.47652 -1.08595,0.6258c0.01229,0.11884 0.01112,0.24412 -0.00293,0.36588l0.9917,-0.08488c0.10245,-0.00644 0.26578,-0.01581 0.42794,0.0082zM85.69659,117.3523c0.01581,0.01112 0.02576,0.02517 0.04098,0.03571c-0.00176,-0.00176 -0.00293,-0.00644 -0.0041,-0.0082zM84.41921,115.03642c-0.19202,-0.14811 -0.34774,-0.29505 -0.58249,-0.44257c-0.16919,-0.11181 -0.25641,-0.22831 -0.29564,-0.3372c-0.01229,-0.03337 -0.00176,-0.05796 -0.00585,-0.08957c-0.24529,0.75518 -0.34423,1.06135 -0.49,1.51094c0.58015,-0.27104 0.9074,-0.42325 1.37398,-0.64161zM89.8437,108.83635l1.59761,-0.57604c0.1042,-0.22246 0.40277,-0.85762 0.40277,-0.85762l-2.22811,0.80377zM94.13015,116.22129l-4.05637,1.46294l0.20314,0.56316l4.05637,-1.46294zM93.54882,114.60848l-4.05696,1.46294l0.15455,0.42911l4.05696,-1.46294zM92.96692,112.99627l-4.05637,1.46294l0.15455,0.42911l4.05696,-1.46294zM92.70114,111.26931l-5.23541,1.88795c0.3975,0.07786 0.78505,0.15455 0.86993,0.17152l4.19804,-1.51387c0.0322,-0.10713 0.10538,-0.34422 0.16743,-0.5456zM93.3732,108.90133l-3.10272,1.11872l0.25173,0.69839l2.4049,-0.86699c0.10128,-0.21719 0.38755,-0.82601 0.44609,-0.95012z" data-paper-data="{&quot;origPos&quot;:null}" fill="#e60012"/></g></g></g></svg>