<svg version="1.1" xmlns="http://www.w3.org/2000/svg" xmlns:xlink="http://www.w3.org/1999/xlink" width="78.8804" height="48.37188" viewBox="0,0,78.8804,48.37188"><g transform="translate(-170.93246,-147.04002)"><g data-paper-data="{&quot;isPaintingLayer&quot;:true}" fill-rule="nonzero" stroke="none" stroke-linecap="butt" stroke-linejoin="miter" stroke-miterlimit="10" stroke-dasharray="" stroke-dashoffset="0" style="mix-blend-mode: normal"><path d="M183.2925,154.59571v-7.55569h56.95832v7.55569z" fill="#bd824c" stroke-width="0"/><path d="M241.3726,154.30084c0.00427,0.24997 -0.2457,0.25423 -0.2457,0.25423l-0.25881,0.00388c0.76088,2.6735 2.5705,5.02358 2.79662,7.96128c0.97304,3.1262 2.07452,6.80738 2.33172,10.09277c1.23027,3.21768 1.68596,6.63708 2.78739,9.9869c0.1699,1.21274 1.18634,2.72162 1.00817,3.89106c-0.28639,1.87973 -3.32522,3.36154 -5.09097,3.73221c-2.76056,1.68839 -7.03594,2.28318 -10.1549,2.16054c-3.25866,-0.12813 -6.98213,0.14668 -10.04459,1.60366c-3.54289,0.30448 -6.85511,1.25189 -10.43371,1.25218c-3.09348,0.00025 -7.61959,0.61527 -10.50533,-0.47983c-3.27113,-0.6272 -6.89986,-0.97834 -10.2,-1.24539c-2.18007,-0.07691 -4.74653,-0.17571 -6.95462,-0.57052c-1.07353,-0.19195 -2.20623,-0.89196 -3.26109,-0.90464c-3.60856,1.58904 -6.69248,1.05027 -10.35864,0.28129c-2.92511,-2.5862 -1.79214,-6.85605 -0.65188,-10.02516c0.74347,-3.35906 3.04997,-6.35209 3.26095,-9.76027c0.24767,-3.82341 1.93661,-6.50678 4.89799,-8.94043c2.65113,-2.42281 1.85481,-6.83511 3.66551,-9.43458l0.00121,-0.00166c0,0 0.14676,-0.20239 0.34915,-0.05564c0.20239,0.14676 0.05564,0.34915 0.05564,0.34915l-0.00121,0.00167c-0.02516,0.03289 -0.04983,0.06612 -0.07404,0.09966c2.33031,-0.99854 6.25358,-0.77588 8.73165,-0.78797c3.67089,0.04897 6.50398,0.55558 10.17127,-0.54601c3.20016,-0.10503 7.08911,1.42135 10.35031,0.41088c3.19638,-0.95238 7.23324,0.13438 10.5094,0.13441c3.03123,0.00002 7.3846,2.05513 10.1812,0.65842c2.06929,-0.15862 4.1198,-0.1612 6.17024,-0.33115c0.02109,-0.01189 0.04596,-0.02186 0.07527,-0.02919c0.06814,-0.01703 0.12192,-0.01014 0.16403,0.00858c0.03268,-0.00293 0.06534,-0.00589 0.09802,-0.0089l0.37554,-0.0071c0,0 0.24996,-0.00427 0.25422,0.2457z" fill="#eeff66" stroke-width="0.5"/></g></g></svg>