<svg version="1.1" xmlns="http://www.w3.org/2000/svg" xmlns:xlink="http://www.w3.org/1999/xlink" width="48.63236" height="72.49509" viewBox="0,0,48.63236,72.49509"><g transform="translate(-163.53355,-112.21621)"><g data-paper-data="{&quot;isPaintingLayer&quot;:true}" fill-rule="nonzero" stroke-width="0.5" stroke-linecap="butt" stroke-linejoin="miter" stroke-miterlimit="10" stroke-dasharray="" stroke-dashoffset="0" style="mix-blend-mode: normal"><path d="M184.53211,132.48439c0,-0.13807 0.11193,-0.25 0.25,-0.25c0.13807,0 0.25,0.11193 0.25,0.25c0,0.13807 -0.11193,0.25 -0.25,0.25c-0.13807,0 -0.25,-0.11193 -0.25,-0.25z" fill="#ff85ea" stroke="none"/><path d="M164.03374,127.81154c-0.59,-1.22043 -0.69571,-2.676 -0.11374,-4.51077c0.61113,-3.1672 3.37969,-1.75855 5.31188,-2.94644c1.04649,-0.64337 1.80875,-1.97498 2.93663,-2.68401c0.68212,-0.22019 1.23166,-0.58847 1.94922,-0.66989l0.138,-0.01464c0,0 0.2486,-0.02638 0.27498,0.22223c0.00097,0.00908 0.00156,0.01788 0.00181,0.02638c0.87073,-0.00008 1.56865,-0.24562 2.44507,-0.24975l0.05336,-0.00025c0,0 0.25,-0.00115 0.25115,0.24885c0.00115,0.25 -0.24885,0.25115 -0.24885,0.25115l-0.05336,0.00025c-0.78651,0.00353 -1.43347,0.20449 -2.19801,0.2433c0.00022,0.00415 0.00022,0.00645 0.00022,0.00645c0,2.04865 -2.43241,6.49447 -3.7461,8.06244c-0.04365,2.01586 -1.94701,3.54357 -2.00195,5.38688l-0.00057,0.08857c1.98127,0.07718 3.80827,0.17469 5.80552,-0.33566c0.37991,-0.09707 2.26262,-0.9071 2.5814,-0.63593c0.52661,0.44796 -0.25006,1.24047 -0.41496,1.62006c-0.01355,0.26757 -0.32356,1.00062 -0.10053,1.21316c0.36981,0.35241 1.80621,0.10359 2.28393,0.09675c1.98273,-0.02838 4.55824,-0.83471 6.47985,0.01569c2.58915,0.1654 5.39814,-1.85304 6.6398,-4.37377c0,0 0.11181,-0.2236 0.33541,-0.1118c0.2236,0.11181 0.1118,0.33541 0.1118,0.33541c-1.39468,2.75392 -4.3364,4.81235 -7.20544,4.63593c-2.62751,-1.15677 -9.24308,1.89273 -9.03176,-1.92495c0.16389,-0.38552 1.03127,-1.18756 0.62363,-1.09108c-3.01787,0.71424 -5.52528,1.21413 -8.73048,1.01795c-1.54858,-0.87163 -2.8697,-1.79119 -3.74492,-2.9134c0.61387,2.34259 3.12899,4.0899 3.55141,6.4279c-0.15752,0.03693 -0.31718,0.08142 -0.47645,0.11955c-0.47063,-2.67997 -3.6187,-4.61357 -3.70795,-7.55657z" fill="#ff85ea" stroke="none"/><path d="M168.03216,131.48914c-0.00475,-0.24995 0.24521,-0.2547 0.24521,-0.2547l0.45503,-0.00858c0.13632,-0.00557 0.27146,-0.01581 0.40551,-0.03032c-0.1058,-0.07024 -0.1058,-0.21115 -0.1058,-0.21115c0,-2.7576 2.22249,-5.74937 3.43356,-8.16483c0.35711,-3.1298 3.48013,-6.76649 6.24988,-8.09132c3.2019,-1.53134 6.89513,-0.94169 10.25079,-1.85144c3.34868,-0.89399 7.3474,-1.17634 10.12412,1.08294c1.83695,1.2529 3.89196,3.06319 4.58738,5.26689c0.33257,1.05388 0.32056,2.37327 0.80209,3.34328c0.58308,1.68751 1.81657,5.59681 0.00818,7.00426c-0.84402,0.65689 -2.54412,0.4158 -3.54532,0.40553c-1.3629,0.57223 -2.92357,1.11501 -4.45072,0.74836c-1.22518,-0.29416 -0.91651,-1.8406 -1.91521,-2.17593c-0.96555,-0.32421 -1.72152,0.42631 -2.52729,0.82536c-2.88449,2.57442 -4.54802,4.81579 -8.8171,4.85508c-1.70795,0.00447 -5.15989,-0.49992 -6.07816,-2.2914c-0.63187,-1.23272 0.8618,-2.67864 -0.26542,-3.38099c-2.65357,0.83298 -5.19468,3.04143 -8.13576,3.16526l-0.46628,0.00892c0,0 -0.24995,0.00475 -0.2547,-0.24521z" fill="#ffffff" stroke="none"/><path d="M209.89551,128.30135c-0.09848,0.1074 -0.21104,0.20711 -0.3387,0.29756c-2.95521,1.60217 -6.75301,2.39361 -10.03406,2.81927c-2.57542,1.17591 -4.19653,-1.56585 -6.153,-2.60415l-0.39581,-0.0865c0,0 -0.24313,-0.05818 -0.18496,-0.30131c0.05818,-0.24313 0.30131,-0.18496 0.30131,-0.18496l0.51402,0.13121c1.81909,0.96723 3.40979,3.64663 5.77994,2.56528c2.0589,-0.28374 4.31466,-0.68299 6.43691,-1.34114l0.01701,-0.03486c0.42191,-0.83392 0.28521,-2.34605 0.10488,-3.2603c-1.07603,-2.75827 -1.78884,-5.59277 -3.13455,-8.20525c0,0 -0.0243,-0.0486 -0.02759,-0.11182c-0.01862,-0.00039 -0.24881,-0.0101 -0.24881,-0.24999c0,-0.25 0.25,-0.25 0.25,-0.25h0.30335c0.59581,-0.00002 1.2334,0.08077 1.81458,-0.04236c-0.02112,-0.06951 -0.03954,-0.1399 -0.05518,-0.21085c-0.10268,0.00169 -0.20689,0.00284 -0.31275,0.00321c0,0 -0.25,0 -0.25,-0.25c0,-0.25 0.25,-0.25 0.25,-0.25c0.07472,0.0003 0.15847,0.00049 0.25027,0.00085c0.00121,-0.04849 0.01978,-0.24016 0.2378,-0.25057c0.24971,-0.01192 0.26164,0.23779 0.26164,0.23779l0.00081,0.01694c2.40798,0.03357 7.65191,0.33288 6.78826,3.40347c-0.14688,1.72096 -2.28829,1.83568 -3.01178,3.15415c-0.30177,0.54993 0.61803,1.03126 0.83883,1.40544c0.43689,0.74033 0.68651,1.71269 0.51427,2.55882c0.0552,-0.03366 0.13243,-0.05013 0.2317,-0.0005c0.22361,0.11181 0.1118,0.33541 0.1118,0.33541c-0.0777,0.15495 -0.15225,0.31369 -0.22419,0.47567c-0.03126,0.00886 -0.06114,0.01794 -0.08959,0.02726c-0.13033,0.0427 -0.33239,0.15099 -0.58988,0.31184c0.01439,-0.03667 0.02886,-0.07322 0.04345,-0.10962z" fill="#ff85ea" stroke="none"/><path d="M174.36547,133.45636c-0.72606,1.64153 -3.31072,2.08936 -5.77301,1.00027c-2.46229,-1.08909 -3.86977,-3.30268 -3.14371,-4.94421c0.72606,-1.64153 3.31072,-2.08936 5.77301,-1.00027c2.46229,1.08909 3.86977,3.30268 3.14371,4.94421z" fill="#ffc462" stroke="#000000"/><path d="M181.11981,134.94191c-1.01115,1.48301 -3.7729,1.36111 -6.16854,-0.27228c-2.39564,-1.63339 -3.518,-4.15974 -2.50685,-5.64276c1.01115,-1.48301 3.7729,-1.36111 6.16854,0.27228c2.39564,1.63339 3.518,4.15974 2.50685,5.64276z" fill="#ffc462" stroke="#000000"/><path d="M185.77809,135.58258c-1.41717,1.60364 -4.57893,1.1248 -7.06199,-1.06954c-2.48306,-2.19433 -3.34713,-5.27319 -1.92996,-6.87683c1.41717,-1.60364 4.57893,-1.1248 7.06199,1.06954c2.48306,2.19433 3.34713,5.27319 1.92996,6.87684z" fill="#ffc462" stroke="#000000"/><path d="M180.58733,130.98703c-0.24254,-0.06063 -0.1819,-0.30317 -0.1819,-0.30317l0.03331,-0.12398c0.06906,-0.61532 0.04215,-1.23292 0.11816,-1.84823c0,0 0.03101,-0.24807 0.27908,-0.21706c0.24807,0.03101 0.21706,0.27907 0.21706,0.27907c-0.07759,0.61273 -0.04982,1.2279 -0.11736,1.84144l-0.04518,0.19003c0,0 -0.06064,0.24254 -0.30317,0.18191z" fill="#000000" stroke="none"/><path d="M181.30561,131.22529c-0.04903,-0.24515 0.19611,-0.29418 0.19611,-0.29418l0.17661,-0.03448c0.7457,-0.21306 1.41821,-0.50875 2.12905,-0.81369c0,0 0.22978,-0.09848 0.32826,0.1313c0.09848,0.22978 -0.1313,0.32827 -0.1313,0.32827c-0.73011,0.31259 -1.4227,0.61604 -2.18865,0.83488l-0.21591,0.04402c0,0 -0.24515,0.04903 -0.29417,-0.19612z" fill="#000000" stroke="none"/><path d="M181.47564,132.02546c0.09285,-0.23212 0.32497,-0.13927 0.32497,-0.13927l0.20189,0.08084c0.80686,0.35357 1.71711,0.50621 2.55137,0.86354c0,0 0.22978,0.09848 0.1313,0.32826c-0.09848,0.22978 -0.32827,0.13131 -0.32827,0.13131c-0.84118,-0.36073 -1.72899,-0.51741 -2.55137,-0.86354l-0.19062,-0.07617c0,0 -0.23212,-0.09285 -0.13927,-0.32497z" fill="#000000" stroke="none"/><path d="M181.32225,132.50708c0.2,-0.15 0.35,0.05 0.35,0.05l0.15813,0.23833c0.16476,0.57664 0.28865,1.154 0.43393,1.73512c0,0 0.06063,0.24254 -0.1819,0.30317c-0.24254,0.06063 -0.30317,-0.1819 -0.30317,-0.1819c-0.14399,-0.57596 -0.26637,-1.14765 -0.42962,-1.71903l-0.07737,-0.07569c0,0 -0.15,-0.2 0.05,-0.35z" fill="#000000" stroke="none"/><path d="M180.61246,132.40008c0.15,0.2 -0.05,0.35 -0.05,0.35l-0.15084,0.11297c-0.36668,0.29238 -0.70602,0.67229 -0.91386,1.09414c0,0 -0.11181,0.22361 -0.33541,0.11181c-0.2236,-0.11181 -0.1118,-0.33541 -0.1118,-0.33541c0.24627,-0.48668 0.62399,-0.92017 1.04873,-1.26097l0.16318,-0.12253c0,0 0.2,-0.15 0.35,0.05z" fill="#000000" stroke="none"/><path d="M180.4662,131.92205c0,0.25 -0.25,0.25 -0.25,0.25l-0.26652,-0.00193c-0.72057,-0.09981 -1.44751,-0.68015 -2.14218,-0.95799c0,0 -0.23212,-0.09285 -0.13927,-0.32497c0.09285,-0.23212 0.32497,-0.13927 0.32497,-0.13927c0.626,0.25043 1.37573,0.85757 2.0185,0.92609l0.2045,-0.00193c0,0 0.25,0 0.25,0.25z" fill="#000000" stroke="none"/><path d="M175.09512,131.50477c-0.25,0 -0.25,-0.25 -0.25,-0.25l0.02022,0.01997c-0.2783,-0.68293 -0.83037,-1.28612 -1.1383,-2.00183c0,0 -0.09848,-0.22979 0.1313,-0.32827c0.22978,-0.09848 0.32826,0.13131 0.32826,0.13131c0.31458,0.73663 0.82621,1.29906 1.1383,2.00184l0.02021,0.17698c0,0 0,0.25 -0.25,0.25z" fill="#000000" stroke="none"/><path d="M175.5721,131.36062c-0.2236,-0.11181 -0.11181,-0.33541 -0.11181,-0.33541l0.10689,-0.20138c0.05233,-0.06542 0.10468,-0.13084 0.15701,-0.19626c0,0 0.15618,-0.19521 0.35139,-0.03904c0.19521,0.15617 0.03904,0.35139 0.03904,0.35139c-0.05233,0.06542 -0.10468,0.13084 -0.15701,0.19626l-0.05011,0.11263c0,0 -0.11181,0.22361 -0.33541,0.11181z" fill="#000000" stroke="none"/><path d="M175.39738,131.86188c0.13868,-0.20801 0.34669,-0.06934 0.34669,-0.06934l0.09088,0.06291c0.35254,0.17824 0.63223,0.28672 0.94716,0.53866c0,0 0.19522,0.15618 0.03904,0.35139c-0.15617,0.19521 -0.35139,0.03904 -0.35139,0.03904c-0.2902,-0.23216 -0.52799,-0.31821 -0.85842,-0.48188l-0.14463,-0.0941c0,0 -0.20801,-0.13867 -0.06934,-0.34668z" fill="#000000" stroke="none"/><path d="M175.47786,132.46194c0.24515,-0.04903 0.29417,0.19612 0.29417,0.19612l0.03448,0.17661c0.0822,0.28981 0.12506,0.57948 0.19842,0.87159c0,0 0.06063,0.24254 -0.1819,0.30317c-0.24254,0.06063 -0.30317,-0.18191 -0.30317,-0.18191c-0.07139,-0.28679 -0.11242,-0.57193 -0.1941,-0.85549l-0.04402,-0.21591c0,0 -0.04903,-0.24515 0.19611,-0.29417z" fill="#000000" stroke="none"/><path d="M174.75635,132.15756c0,0.25 -0.25,0.25 -0.25,0.25l-0.17839,-0.00747c-0.4067,-0.10444 -0.81375,-0.12037 -1.22485,-0.23766c0,0 -0.24038,-0.06868 -0.1717,-0.30906c0.06868,-0.24038 0.30906,-0.1717 0.30906,-0.1717c0.40687,0.11642 0.80228,0.13402 1.20875,0.23336l0.05712,-0.00746c0,0 0.25,0 0.25,0.25z" fill="#000000" stroke="none"/><path d="M169.52193,131.7667c-0.23717,0.07906 -0.31623,-0.15812 -0.31623,-0.15812l-0.04154,-0.12497c-0.26096,-0.87037 -0.51871,-1.69644 -0.92619,-2.5114c0,0 -0.1118,-0.2236 0.1118,-0.33541c0.2236,-0.11181 0.33541,0.11181 0.33541,0.11181c0.42031,0.84061 0.68846,1.69376 0.95789,2.59133l0.03697,0.11053c0,0 0.07905,0.23717 -0.15812,0.31623z" fill="#000000" stroke="none"/><path d="M169.95418,131.88196c-0.15617,-0.19521 0.03905,-0.35139 0.03905,-0.35139l0.15802,-0.11896c0.25727,-0.53962 0.81218,-1.12723 1.23444,-1.55043c0,0 0.17678,-0.17677 0.35356,0c0.17677,0.17677 0,0.35356 0,0.35356c-0.42756,0.42654 -0.92049,0.97447 -1.19916,1.51121l-0.23451,0.19505c0,0 -0.19522,0.15617 -0.35139,-0.03904z" fill="#000000" stroke="none"/><path d="M170.09566,132.31457c0,-0.25 0.25,-0.25 0.25,-0.25l0.10793,0.00962c0.9202,0.2636 1.67231,0.8551 2.54191,1.2274c0,0 0.22979,0.09849 0.13131,0.32827c-0.09848,0.22978 -0.32827,0.1313 -0.32827,0.1313c-0.84795,-0.36376 -1.58614,-0.95087 -2.48231,-1.20621l0.02943,0.00962c0,0 -0.25,0 -0.25,-0.25z" fill="#000000" stroke="none"/><path d="M169.95314,132.69259c0.25,0 0.25,0.25 0.25,0.25l-0.00962,-0.02943c0.10567,0.37257 0.14867,0.74947 0.20337,1.13237c0,0 0.03536,0.24749 -0.21213,0.28284c-0.24749,0.03536 -0.28285,-0.21213 -0.28285,-0.21213c-0.05139,-0.35975 -0.08847,-0.71622 -0.18915,-1.06572l-0.00962,-0.10793c0,0 0,-0.25 0.25,-0.25z" fill="#000000" stroke="none"/><path d="M169.45462,132.52916c0.13868,0.20801 -0.06933,0.34668 -0.06933,0.34668l-0.11775,0.07851c-0.23488,0.1563 -0.36598,0.24386 -0.51944,0.48019c0,0 -0.13868,0.20801 -0.34669,0.06934c-0.20801,-0.13868 -0.06933,-0.34669 -0.06933,-0.34669c0.19371,-0.28485 0.37346,-0.42876 0.65811,-0.61886l0.11776,-0.07851c0,0 0.20801,-0.13867 0.34668,0.06934z" fill="#000000" stroke="none"/><path d="M169.03845,132.30861c-0.11181,0.2236 -0.33541,0.11181 -0.33541,0.11181l-0.23551,-0.11775c-0.50426,-0.25517 -0.93064,-0.64486 -1.40069,-0.95764c0,0 -0.20801,-0.13868 -0.06933,-0.34669c0.13868,-0.20801 0.34669,-0.06933 0.34669,-0.06933c0.45001,0.30052 0.86159,0.68732 1.34694,0.92645l0.23551,0.11775c0,0 0.22361,0.11181 0.11181,0.33541z" fill="#000000" stroke="none"/><path d="M169.28619,132.15674c0,-0.13807 0.11193,-0.25 0.25,-0.25c0.13807,0 0.25,0.11193 0.25,0.25c0,0.13807 -0.11193,0.25 -0.25,0.25c-0.13807,0 -0.25,-0.11193 -0.25,-0.25z" fill="#000000" stroke="none"/><path d="M174.77645,131.83614c0,-0.13807 0.11193,-0.25 0.25,-0.25c0.13807,0 0.25,0.11193 0.25,0.25c0,0.13807 -0.11193,0.25 -0.25,0.25c-0.13807,0 -0.25,-0.11193 -0.25,-0.25z" fill="#000000" stroke="none"/><path d="M180.66747,131.83614c0,-0.13807 0.11193,-0.25 0.25,-0.25c0.13807,0 0.25,0.11193 0.25,0.25c0,0.13807 -0.11193,0.25 -0.25,0.25c-0.13807,0 -0.25,-0.11193 -0.25,-0.25z" fill="#000000" stroke="none"/><path d="M177.97134,135.88946c0.50587,0 0.9616,0.21464 1.2811,0.55782c0.6324,-0.26474 1.24346,-0.61581 1.89462,-0.65462c0.60571,-0.0361 1.71142,0.81696 2.25777,1.11691c0.83463,-0.25257 1.96176,-0.72259 2.99962,-1.29669c-0.01325,-0.08683 -0.02013,-0.17575 -0.02013,-0.26628c0,-0.49764 0.20772,-0.94677 0.54118,-1.26541c0.18013,-0.77483 0.87493,-1.35216 1.70458,-1.35216c0.10853,0 0.21476,0.00988 0.31783,0.02879c0.04135,-0.06357 0.08984,-0.12411 0.14764,-0.18066c0.48068,-0.47032 1.17569,-0.77385 1.81373,-1.06986c-0.00078,-0.02149 -0.00118,-0.04309 -0.00118,-0.06478c0,-0.66601 0.37204,-1.24512 0.91963,-1.54084c0.19002,-0.76092 0.87815,-1.32461 1.69794,-1.32461c0.9665,0 1.75,0.7835 1.75,1.75c0,0.02878 -0.0007,0.05741 -0.00207,0.08586c1.98035,0.00949 3.91468,0.54611 6.18038,0.57766c1.12133,-0.53925 3.01182,-0.94747 4.2292,-1.24696c1.92218,-0.47287 3.07799,-1.57988 5.0992,-1.73983c-0.00009,-0.00647 -0.00018,-0.01293 -0.00028,-0.0194c0,0 0,-0.25 0.25,-0.25c0.25,0 0.25,0.25 0.25,0.25h0.25c0,0 0.25,0 0.25,0.25c0,0.25 -0.25,0.25 -0.25,0.25h-0.25232c-0.00353,0 -0.00705,0.00001 -0.01057,0.00001c-0.10448,2.65732 -0.79914,5.95479 -2.47607,8.06414c-0.87706,3.33673 -3.6324,6.03566 -5.6022,8.78665c-1.12034,3.30059 -2.80362,6.31669 -3.76796,9.69123c-0.9635,3.36662 -0.89947,6.93997 -1.92072,10.28299c-0.96514,3.12417 -0.22592,8.28098 -4.54516,8.41956c-0.69442,0.00559 -1.77016,-0.20593 -2.42616,-0.00732c-1.16989,0.35419 -1.16695,4.46845 -1.23941,5.41098l-0.02392,0.01947c1.13186,0.43025 2.26574,0.6 3.40528,1.08728c1.46784,-0.01626 3.67334,-0.3985 5.03241,0.2388c2.69783,1.26507 0.69111,3.69226 -1.41862,3.77697c-0.98207,0.48103 -2.42172,0.22922 -3.51144,0.22932c-2.3583,0.00023 -4.61931,0.37763 -7.00057,0.15833c-2.18466,-0.41083 -4.89818,-0.47127 -6.87497,-1.44479c-1.36727,-0.67335 -1.99188,-1.8627 -0.59231,-3.00418c2.19968,-1.10734 3.91504,-1.18525 6.2536,-1.45775c0.58571,-0.06825 1.51922,-0.11096 2.09115,0.03451c0.23453,0.05965 0.56166,0.42962 0.69035,0.22468c0.14884,-0.23703 -0.06026,-0.55763 -0.06015,-0.83751c0.00122,-0.39068 0.58542,-3.67185 0.48979,-3.73584c-1.39234,-0.93172 -4.57712,0.90159 -6.31325,0.05613c-3.12981,0.04092 -2.989,-4.10712 -2.93651,-6.74377c-0.23955,-0.00618 -0.24026,-0.24915 -0.24026,-0.24915l-0.00002,-0.00707c-0.0006,-3.06991 -1.88786,-7.0076 -3.09022,-9.81791c-1.79542,-2.88318 -2.67092,-6.4262 -4.37332,-9.42645c-1.89654,-2.89149 -3.12517,-6.3619 -4.53181,-9.48979c-0.06384,-1.35866 -0.30451,-3.46205 -0.70789,-5.36986c-0.07706,-0.06999 -0.15161,-0.14098 -0.22351,-0.21288c0,0 -0.17677,-0.17677 0,-0.35355c0.02803,-0.02803 0.05606,-0.04718 0.08338,-0.05954c-0.24436,-1.03068 -0.53857,-1.96859 -0.88021,-2.65188c0,0 -0.11181,-0.2236 0.1118,-0.33541c0.2236,-0.11181 0.33541,0.1118 0.33541,0.1118c0.41198,0.82397 0.75152,1.9839 1.02023,3.23085c1.96053,1.7099 5.29782,2.6015 7.79294,1.70595c1.1006,0.26123 1.93773,1.06624 2.9373,1.57075c0.31477,-0.30381 0.74315,-0.49068 1.21517,-0.49068z" fill="#ff85eb" stroke="none"/><path d="M176.93898,149.44835c-0.18649,-0.1665 -0.01999,-0.35299 -0.01999,-0.35299l0.31913,-0.35743c1.02872,-1.14591 1.04118,-2.63512 0.05462,-3.80325c0,0 -0.16069,-0.19152 0.03083,-0.3522c0.19152,-0.16069 0.3522,0.03084 0.3522,0.03084c0.06145,0.07368 0.11955,0.14848 0.1743,0.22429l0.02316,-0.02299c2.11531,-2.10049 -0.6517,-0.78544 -2.28287,-0.78494c0,0 -0.25,0 -0.25,-0.25c0,-0.25 0.25,-0.25 0.25,-0.25c1.79022,0.00058 5.33731,-1.04489 2.63522,1.63968l-0.05109,0.05075c0,0 -0.02193,0.02178 -0.05803,0.04232c0.66675,1.24153 0.50313,2.67336 -0.50537,3.8085l-0.31913,0.35744c0,0 -0.1665,0.18649 -0.35298,0.01998z" fill="#85f9ff" stroke="none"/><path d="M180.81136,148.35475c-0.24845,-0.02779 -0.22065,-0.27624 -0.22065,-0.27624l0.03306,-0.27509c0.25179,-1.00041 0.46779,-1.95439 0.42553,-2.99249c0,0 -0.00089,-0.0219 0.00436,-0.05299c-0.47538,0.31273 -0.95002,0.63724 -1.46392,0.82576l-0.04451,0.01629c0,0 -0.23477,0.08591 -0.32069,-0.14886c-0.08591,-0.23478 0.14887,-0.32069 0.14887,-0.32069l0.0445,-0.01628c1.06572,-0.38895 1.92856,-1.30107 3.00627,-1.60264c0,0 0.2413,-0.06537 0.30667,0.17593c0.06537,0.24131 -0.17593,0.30667 -0.17593,0.30667c-0.41666,0.10813 -0.80648,0.32125 -1.19019,0.56274c0.17625,0.03732 0.18417,0.23396 0.18417,0.23396c0.04332,1.0871 -0.17658,2.08709 -0.44025,3.13465l-0.02104,0.20863c0,0 -0.0278,0.24845 -0.27625,0.22066z" fill="#85f9ff" stroke="none"/><path d="M189.61125,146.2912c0.01458,0.24957 -0.23499,0.26415 -0.23499,0.26415l-0.53127,0.02077c-2.27099,-1.38108 2.41809,-2.88714 2.4103,-0.53506c-1.31356,2.68754 -4.82017,2.21606 -6.05242,-0.24842c-0.80458,0.89831 -1.69929,1.77688 -1.91374,2.08142l-0.0509,0.07595c0,0 -0.13932,0.20758 -0.3469,0.06825c-0.20758,-0.13933 -0.06826,-0.3469 -0.06826,-0.3469l0.05733,-0.0853c0.64979,-0.92154 1.40211,-1.78366 2.21395,-2.56491c0.37933,-0.36504 1.61953,-1.20207 1.09725,-1.13595c-0.76455,0.09678 -1.567,0.0306 -2.33773,-0.01724c0,0 -0.24952,-0.01549 -0.23403,-0.26501c0.01549,-0.24952 0.26501,-0.23403 0.26501,-0.23403c0.49743,0.03089 2.31441,-0.19478 2.64052,0.144c0.26406,0.27431 -0.26017,1.0434 -0.96244,1.86817c0.85238,2.27631 4.0144,2.78788 5.20588,0.54445c-0.00998,-1.26331 -2.90839,-0.35398 -1.81037,0.16365l0.38863,-0.03297c0,0 0.24957,-0.01458 0.26415,0.23499z" fill="#85f9ff" stroke="none"/><path d="M178.78124,137.87392c0.12798,0.21475 -0.08677,0.34274 -0.08677,0.34274l-0.28804,0.17074c-0.88101,0.3525 -1.61669,0.26917 -2.54093,0.18597c0,0 -0.24899,-0.02248 -0.22651,-0.27147c0.02248,-0.24899 0.27147,-0.22651 0.27147,-0.22651c0.82583,0.07479 1.4875,0.17377 2.27498,-0.1365l0.25306,-0.15174c0,0 0.21475,-0.12798 0.34274,0.08677z" fill="#afff85" stroke="none"/><path d="M176.7202,142.48976c0,-0.25 0.25,-0.25 0.25,-0.25l0.07479,0.044c0.55707,-0.38091 1.29354,-1.41428 0.59638,-1.97331c0,0 -0.18554,-0.16755 -0.018,-0.3531c0.01442,-0.01597 0.02899,-0.02933 0.04355,-0.04041c-0.62558,0.12616 -1.25408,0.23216 -1.88952,0.29549c0,0 -0.24877,0.0247 -0.27348,-0.22407c-0.02471,-0.24877 0.22406,-0.27348 0.22406,-0.27348c1.28505,-0.12722 2.53938,-0.43608 3.802,-0.72397l0.37023,-0.02898c0,0 0.24927,-0.01905 0.26832,0.23022c0.01905,0.24928 -0.23022,0.26832 -0.23022,0.26832l-0.33322,0.02477c-0.58216,0.13417 -1.16323,0.27107 -1.74647,0.39242c0.06956,0.01809 0.11784,0.06169 0.11784,0.06169c0.89081,0.86543 0.23163,2.14835 -0.64817,2.75641l-0.3581,0.044c0,0 -0.25,0 -0.25,-0.25z" fill="#afff85" stroke="none"/><path d="M180.22769,137.83735c-0.10418,0.22726 -0.33144,0.12308 -0.33144,0.12308l-0.35172,-0.16124c0,0 -0.22726,-0.10418 -0.12308,-0.33144c0.10418,-0.22726 0.33143,-0.12308 0.33143,-0.12308l0.35172,0.16124c0,0 0.22726,0.10418 0.12308,0.33144z" fill="#afff85" stroke="none"/><path d="M181.03259,137.67201c-0.20758,0.13933 -0.34691,-0.06826 -0.34691,-0.06826l-0.15276,-0.22857c-0.05965,-0.06745 -0.11932,-0.1349 -0.17897,-0.20235c0,0 -0.16526,-0.18759 0.02233,-0.35285c0.18759,-0.16526 0.35285,0.02233 0.35285,0.02233c0.06661,0.07587 0.1332,0.15175 0.19981,0.22762l0.17191,0.25516c0,0 0.13933,0.20758 -0.06825,0.34691z" fill="#afff85" stroke="none"/><path d="M181.97305,141.88496c-0.12079,-0.21889 0.0981,-0.33967 0.0981,-0.33967l0.23792,-0.13119c0.88059,-0.53829 1.52518,-1.53981 1.53922,-2.5711c-0.46741,0.05788 -0.94474,0.09312 -1.41793,0.13064c-0.01015,0.34799 0.01701,0.70773 0.01153,0.9948l0.00005,0.15646c0,0 0,0.25 -0.25,0.25c-0.25,0 -0.25,-0.25 -0.25,-0.25l0.00005,-0.16602c0.00568,-0.29707 -0.0087,-0.62209 -0.00027,-0.9445c-0.14291,0.01282 -0.28497,0.02666 -0.4258,0.04221c0,0 -0.24849,0.02742 -0.27591,-0.22107c-0.02742,-0.24849 0.22107,-0.27591 0.22107,-0.27591c0.1712,-0.01888 0.34464,-0.03491 0.51943,-0.04954c0.03144,-0.21982 0.08558,-0.43027 0.17753,-0.62058c0,0 0.11241,-0.22331 0.33571,-0.11089c0.22331,0.11241 0.11089,0.33571 0.11089,0.33571c-0.05634,0.10572 -0.09546,0.22654 -0.12227,0.35656c0.44245,-0.03327 0.88808,-0.06642 1.32286,-0.12226c-0.03019,-0.15754 -0.07661,-0.31416 -0.14067,-0.46831c0,0 -0.09339,-0.2319 0.13851,-0.32529c0.2319,-0.09339 0.32529,0.13851 0.32529,0.13851c0.0755,0.19219 0.12974,0.3864 0.16428,0.58084c0.05946,-0.01068 0.11861,-0.02197 0.1774,-0.03394l0.09168,-0.04087c0,0 0.23233,-0.09231 0.32464,0.14003c0.09231,0.23234 -0.14003,0.32465 -0.14003,0.32465l-0.17887,0.06662c-0.07568,0.01472 -0.15184,0.02845 -0.22842,0.0413c0.01296,1.22896 -0.71398,2.4056 -1.77722,3.07339l-0.24908,0.13754c0,0 -0.21888,0.12078 -0.33967,-0.0981z" fill="#afff85" stroke="none"/><path d="M185.21705,138.08173c-0.13358,0.21132 -0.3449,0.07775 -0.3449,0.07775l-0.29761,-0.18811c0,0 -0.21133,-0.13358 -0.07775,-0.3449c0.13358,-0.21132 0.3449,-0.07775 0.3449,-0.07775l0.29761,0.18812c0,0 0.21133,0.13357 0.07775,0.34489z" fill="#afff85" stroke="none"/><path d="M186.20036,138.11771c-0.22331,0.11241 -0.33571,-0.11089 -0.33571,-0.11089l-0.2144,-0.426c-0.0534,-0.09722 -0.10681,-0.19444 -0.16021,-0.29166c0,0 -0.12033,-0.21913 0.0988,-0.33947c0.21913,-0.12034 0.33947,0.09879 0.33947,0.09879c0.05482,0.09985 0.10963,0.1997 0.16446,0.29955l0.2185,0.43395c0,0 0.11241,0.2233 -0.11089,0.33571z" fill="#afff85" stroke="none"/><path d="M190.04457,139.37244c0,0.25 -0.25,0.25 -0.25,0.25h-0.05411c-0.47301,-0.00014 -1.26126,-0.2269 -1.66489,0.02264c0,0 -0.20356,0.11233 -0.32639,-0.07597c0.06489,1.03041 0.22902,2.13721 0.28062,2.60416l0.03648,0.22268c0,0 0.04007,0.24677 -0.2067,0.28684c-0.24677,0.04007 -0.28683,-0.2067 -0.28683,-0.2067l-0.03993,-0.24792c-0.12523,-1.13398 -0.59142,-4.03668 -0.00205,-4.98368c0,0 0.13932,-0.20758 0.3469,-0.06825c0.20758,0.13933 0.06825,0.3469 0.06825,0.3469c-0.21108,0.27706 -0.2474,0.98558 -0.21128,1.77948c0.03984,-0.06247 0.09936,-0.09531 0.09936,-0.09531c0.56552,-0.29072 1.27889,-0.08468 1.90646,-0.08487h0.05411c0,0 0.25,0 0.25,0.25z" fill="#afff85" stroke="none"/></g></g></svg>