<svg version="1.1" xmlns="http://www.w3.org/2000/svg" xmlns:xlink="http://www.w3.org/1999/xlink" width="85.92598" height="76.891"><g transform="translate(-229.04553,-157.4295)"><g data-paper-data="{&quot;isPaintingLayer&quot;:true}" fill="none" fill-rule="nonzero" stroke="none" stroke-width="none" stroke-linecap="butt" stroke-linejoin="miter" stroke-miterlimit="10" stroke-dasharray="" stroke-dashoffset="0" font-family="none" font-weight="none" font-size="none" text-anchor="none" style="mix-blend-mode: normal"><path d="M241.69953,171.9825c2.111,0 4.012,0.845 5.701,2.534c2.252,2.253 3.378,5.139 3.378,8.657c0,3.52 -1.197,6.405 -3.59,8.657c-1.971,1.971 -4.575,2.956 -7.813,2.956c-2.675,0 -4.857,-0.773 -6.546,-2.322c-1.689,-1.549 -2.534,-3.308 -2.534,-5.278c0,-0.985 0.281,-1.76 0.844,-2.323c0.563,-0.563 1.197,-0.845 1.901,-0.845c0.563,0 1.055,0.212 1.478,0.634c0.422,0.422 0.634,0.984 0.634,1.688c0,0.846 -0.211,1.479 -0.634,1.901c-0.423,0.563 -0.633,1.126 -0.633,1.688c0,0.704 0.352,1.408 1.056,2.112c0.985,0.845 2.534,1.267 4.646,1.267c2.112,0 3.801,-0.633 5.068,-1.9c1.689,-1.548 2.534,-4.153 2.534,-7.813c0,-3.52 -0.845,-6.124 -2.534,-7.813c-1.126,-1.126 -2.464,-1.689 -4.012,-1.689c-2.393,0 -4.716,1.549 -6.968,4.646l-1.9,-0.212l1.055,-19.848h17.315l-0.633,3.167h-15.204l-0.845,14.57c2.675,-2.956 5.42,-4.434 8.236,-4.434z" data-paper-data="{&quot;origPos&quot;:null}" fill="#000000" stroke="#000000" stroke-width="2.5"/><path d="M312.74451,234.3205v0h2.227v0z" fill="none" stroke="none" stroke-width="1"/></g></g></svg>