<svg version="1.1" xmlns="http://www.w3.org/2000/svg" xmlns:xlink="http://www.w3.org/1999/xlink" width="1283.55731" height="98.63244"><g transform="translate(486.61548,-288.6875)"><g data-paper-data="{&quot;isPaintingLayer&quot;:true}" fill="none" fill-rule="nonzero" stroke="none" stroke-width="none" stroke-linecap="none" stroke-linejoin="none" stroke-miterlimit="10" stroke-dasharray="" stroke-dashoffset="0" font-family="none" font-weight="none" font-size="none" text-anchor="none" style="mix-blend-mode: normal"><g data-paper-data="{&quot;origPos&quot;:null}"><g><g stroke-linecap="butt" stroke-linejoin="miter"><path d="M436.26472,338.00372c0,-27.23599 22.07913,-49.31513 49.31513,-49.31513c27.23599,0 49.31513,22.07913 49.31513,49.31513c0,27.23599 -22.07913,49.31513 -49.31513,49.31513c-27.23599,0 -49.31513,-22.07913 -49.31513,-49.31513z" fill="#ffffff" stroke="none" stroke-width="1"/><g fill="#aaabab" stroke="none" stroke-width="1"><path d="M485.57877,296.28961c23.00109,0 41.71411,18.71193 41.71411,41.71411c0,23.00218 -18.71302,41.71302 -41.71411,41.71302c-23.00109,0 -41.71302,-18.71085 -41.71302,-41.71302c0,-23.00109 18.71193,-41.71411 41.71302,-41.71411zM485.57984,372.03631c18.76634,0 34.03147,-15.26731 34.03147,-34.03257c0,-18.76743 -15.26623,-34.03257 -34.03147,-34.03257c-18.76527,0 -34.03147,15.26623 -34.03147,34.03257c0,18.76634 15.26623,34.03257 34.03147,34.03257z"/></g><g fill="#aaabab" stroke="none" stroke-width="1"><path d="M485.57877,308.94382c16.02262,0 29.05992,13.03511 29.05992,29.05992c0,16.02262 -13.03729,29.05883 -29.05992,29.05883c-16.02262,0 -29.05883,-13.03511 -29.05883,-29.05883c0,-16.02372 13.03622,-29.05992 29.05883,-29.05992zM485.57877,361.71117c13.0732,0 23.70743,-10.63423 23.70743,-23.70743c0,-13.0732 -10.63423,-23.70743 -23.70743,-23.70743c-13.07213,0 -23.70743,10.63313 -23.70743,23.70743c0,13.0732 10.63639,23.70852 23.70743,23.70743z"/></g><path d="M461.53285,321.91906v1.12861c0,0.85109 -0.69,1.54218 -1.54218,1.54218h-0.37656c-0.22421,0 -0.82062,0 -1.38328,1.46055c0,0 -1.78815,4.61458 -2.76005,7.11886c1.31146,0 2.63924,0 2.63924,0c0.85218,0 1.54218,0.6911 1.54218,1.54328v1.12861c0,0.85109 -0.69,1.54218 -1.54218,1.54218c0,0 -3.04628,0 -4.41106,0c-0.36023,0.89897 -0.73463,1.83494 -1.09922,2.7459c2.06132,0 5.5103,0 5.5103,0c0.85218,0 1.54218,0.6911 1.54218,1.54218v1.12861c0,0.85218 -0.69,1.54328 -1.54218,1.54328c0,0 -3.86906,0 -5.79436,0v7.05683c0.07618,0.0087 0.15128,0.01632 0.15128,0.01632h1.50519c0.85218,0 1.54218,0.6911 1.54218,1.54218v1.12861c0,0.85218 -0.69,1.54328 -1.54218,1.54328h-9.40657c-0.85218,0 -1.54218,-0.6911 -1.54218,-1.54328v-1.12861c0,-0.85109 0.69,-1.54218 1.54218,-1.54218h1.50519c0,0 0.07618,-0.00762 0.15128,-0.01632v-7.05683c-1.9242,0 -5.79436,0 -5.79436,0c-0.85218,0 -1.54218,-0.6911 -1.54218,-1.54328v-1.12861c0,-0.85109 0.69,-1.54218 1.54218,-1.54218c0,0 2.92329,0 5.08584,0c-0.49084,-1.26575 -0.76511,-1.97425 -1.06332,-2.7459c-1.3256,0 -4.02253,0 -4.02253,0c-0.85218,0 -1.54218,-0.6911 -1.54218,-1.54218v-1.12861c0,-0.85218 0.69,-1.54328 1.54218,-1.54328c0,0 1.20588,0 2.41068,0c-1.07529,-2.6425 -3.22584,-7.92752 -3.22584,-7.92752c-0.3265,-0.65191 -0.57247,-0.65191 -0.69,-0.65191h-0.56485c-0.85218,0 -1.54218,-0.6911 -1.54218,-1.54218v-1.12861c0,-0.85218 0.69,-1.54328 1.54218,-1.54328h8.27686c0.85218,0 1.54218,0.6911 1.54218,1.54328v1.12861c0,0.85109 -0.69,1.54218 -1.54218,1.54218c0,0 -0.71069,0 -0.7379,0c0.02612,0.09687 0.04788,0.19156 0.10666,0.345c0,0 2.58372,6.66286 3.19321,8.23333h1.63687c0.59315,-1.58137 3.00275,-8.00586 3.00275,-8.00586c0.09143,-0.25903 0.13495,-0.43534 0.1589,-0.57028c-0.00217,-0.00109 -0.02285,-0.00217 -0.02285,-0.00217h-1.12861c-0.85218,0 -1.54218,-0.6911 -1.54218,-1.54218v-1.12861c0,-0.85218 0.69,-1.54328 1.54218,-1.54328h7.14825c0.85218,0 1.54218,0.6911 1.54109,1.54328zM481.02404,338.13977c2.04826,2.04609 3.08546,4.37514 3.08546,6.9208c0,2.94178 -1.11447,5.47329 -3.27375,7.48673c-2.04718,2.04826 -4.81811,3.08656 -8.23877,3.08656c-3.01908,0 -5.45806,-0.83368 -7.24511,-2.47056c-1.70762,-1.55415 -2.57393,-3.33034 -2.57393,-5.28065c0,-1.2984 0.40378,-2.36171 1.20371,-3.16056c0.79993,-0.79884 1.67169,-1.20371 2.59571,-1.20371c0.90985,0 1.74353,0.35263 2.40742,1.01761c0.78797,0.78687 1.20371,1.75006 1.20371,2.7829l-0.26663,1.61728c-0.04028,0.24378 -0.08053,0.23834 -0.22965,0.4375c-0.17631,0.23618 -0.25577,0.47125 -0.25577,0.76294c0.00437,0.03591 0.06857,0.18719 0.21332,0.33847c0.58662,0.50174 1.5139,0.75641 2.75896,0.75641c1.59552,0 2.77746,-0.40704 3.66555,-1.29294c1.03828,-0.9436 1.56504,-2.70997 1.56504,-5.25453c0,-1.848 -0.4669,-3.21388 -1.429,-4.17708c-0.93597,-0.93488 -2.83515,-1.429 -5.49398,-1.429c-0.85218,0 -1.54218,-0.6911 -1.54218,-1.54328v-1.31581c0,-0.85218 0.69,-1.54328 1.54218,-1.54328c5.10543,0 5.79436,-2.45313 5.79436,-4.85293c0,-1.7544 -0.42554,-3.07893 -1.2418,-3.99096c-0.7096,-0.7085 -1.70652,-1.05243 -3.04844,-1.05243c-0.99802,0 -1.89265,0.36459 -2.67189,1.05243c-0.11102,0.11209 -0.11319,0.1676 -0.11319,0.22528c0,0 0.05115,0.52676 0.05551,0.57356c0.02722,0.03156 0.05878,0.07184 0.06312,0.07618c0.07291,0.10993 0.10449,0.24162 0.16651,0.35806c0.16434,0.18176 0.34065,0.31128 0.34065,0.40268c0,0.02396 -0.07837,0.05441 -0.11428,0.08053c0.14584,0.41684 0.24271,0.85544 0.24271,1.33106c0,2.66426 -1.6706,3.6133 -3.23565,3.6133c-0.90985,0 -1.74353,-0.35263 -2.40742,-1.01761c-0.79884,-0.79776 -1.20371,-1.86216 -1.20371,-3.15947c0,-2.04718 0.72156,-3.80703 2.18977,-5.27303c1.91657,-1.76965 4.42086,-2.66646 7.44211,-2.66646c2.92003,0 5.31331,0.91203 7.11017,2.70997c1.79794,1.79578 2.7089,3.87343 2.7089,6.16875c0,2.33559 -0.76075,5.26433 -3.78527,7.39858c0.776,0.44403 1.46274,0.92944 2.0156,1.48668zM508.37851,345.80935c0,2.54674 -0.97406,4.81267 -2.93528,6.77277c-2.1669,2.02324 -4.92586,3.04844 -8.20068,3.04844c-3.27265,0 -5.9674,-0.9621 -8.01023,-2.85799c-2.07438,-1.92746 -3.12574,-4.14225 -3.12574,-6.58667c0,-3.33687 1.78489,-6.37445 5.11412,-9.09314c-2.84275,-2.01887 -4.36208,-4.56234 -4.36208,-7.6478c0,-2.32035 1.05134,-4.4742 3.08546,-6.35921c1.79794,-1.79794 4.38059,-2.70997 7.67502,-2.70997c3.14858,0 5.78021,0.9621 7.8633,2.89717c1.6728,1.6728 2.52061,3.74934 2.52061,6.17202c0,2.87977 -1.61946,5.40255 -4.64833,7.56292c3.27156,2.44117 5.02599,5.37206 5.0238,8.80145zM492.57682,329.25561c0,0.66172 0.542,1.50409 1.56504,2.43464c1.10575,1.00346 2.85255,1.934 5.04884,2.79271c2.07004,-1.20697 3.09525,-2.74916 3.09525,-4.85076c0,-1.69129 -0.4484,-2.91568 -1.429,-3.80159c-0.7096,-0.7085 -1.76747,-1.05243 -3.23674,-1.05243c-1.82297,0 -3.10069,0.35371 -3.80049,1.05243c-0.83585,0.83585 -1.2418,1.95575 -1.2429,3.42503zM502.47425,346.0009c0,-0.95013 -0.54416,-1.97535 -1.61728,-3.04844c-1.31363,-1.31363 -3.25959,-2.4455 -5.63872,-3.42284c-2.23981,1.76094 -3.39237,3.9322 -3.39237,6.6574c0,1.56613 0.51153,2.79271 1.61728,3.80049c0.83475,0.83585 2.07874,1.2418 3.80049,1.2418c1.82297,0 3.10178,-0.3548 3.85927,-1.11012c0.90985,-0.81843 1.37131,-2.2039 1.37131,-4.1183zM532.83909,337.91012c0,3.18233 -0.60294,6.40274 -1.79142,9.57199l-0.00653,0.01743c-0.97625,2.51191 -2.09724,4.30659 -3.35755,5.42214c-1.79685,1.79794 -3.81029,2.70997 -5.98155,2.70997c-2.17125,0 -4.18361,-0.91203 -5.92278,-2.65339c-1.42139,-1.27988 -2.62944,-3.11375 -3.6035,-5.47546c-1.19282,-3.05064 -1.79794,-6.27867 -1.79794,-9.59269c0,-3.32164 0.6073,-6.49307 1.80884,-9.42942c0.95121,-2.31165 2.14078,-4.19014 3.58174,-5.63002c1.79142,-1.64015 3.78743,-2.4738 5.93365,-2.4738c2.14622,0 4.14225,0.83259 5.98155,2.52061c1.41266,1.41159 2.54783,3.31511 3.37169,5.64742c1.18303,3.29008 1.78272,6.43974 1.78379,9.36521zM526.17951,337.91012c0,-7.77298 -1.45621,-10.92917 -2.70018,-12.21232c-0.58009,-0.48541 -1.16346,-0.73137 -1.77726,-0.73137c-0.62906,0 -1.2233,0.24704 -1.73155,0.67694c-1.94706,1.94813 -2.93418,6.07515 -2.93418,12.26674c0,7.86874 1.5966,11.11527 2.84819,12.37341c0.59424,0.50934 1.18847,0.75748 1.81754,0.75748c0.62906,0 1.2233,-0.24704 1.73155,-0.67694c1.25269,-1.25159 2.7459,-4.42958 2.7459,-12.45394z" fill="#000000" stroke="#ffffff" stroke-width="5.6693"/><path d="M461.53285,321.91906v1.12861c0,0.85109 -0.69,1.54218 -1.54218,1.54218h-0.37656c-0.22421,0 -0.82062,0 -1.38328,1.46055c0,0 -1.78815,4.61458 -2.76005,7.11886c1.31146,0 2.63924,0 2.63924,0c0.85218,0 1.54218,0.6911 1.54218,1.54328v1.12861c0,0.85109 -0.69,1.54218 -1.54218,1.54218c0,0 -3.04628,0 -4.41106,0c-0.36023,0.89897 -0.73463,1.83494 -1.09922,2.7459c2.06132,0 5.5103,0 5.5103,0c0.85218,0 1.54218,0.6911 1.54218,1.54218v1.12861c0,0.85218 -0.69,1.54328 -1.54218,1.54328c0,0 -3.86906,0 -5.79436,0v7.05683c0.07618,0.0087 0.15128,0.01632 0.15128,0.01632h1.50519c0.85218,0 1.54218,0.6911 1.54218,1.54218v1.12861c0,0.85218 -0.69,1.54328 -1.54218,1.54328h-9.40657c-0.85218,0 -1.54218,-0.6911 -1.54218,-1.54328v-1.12861c0,-0.85109 0.69,-1.54218 1.54218,-1.54218h1.50519c0,0 0.07618,-0.00762 0.15128,-0.01632v-7.05683c-1.9242,0 -5.79436,0 -5.79436,0c-0.85218,0 -1.54218,-0.6911 -1.54218,-1.54328v-1.12861c0,-0.85109 0.69,-1.54218 1.54218,-1.54218c0,0 2.92329,0 5.08584,0c-0.49084,-1.26575 -0.76511,-1.97425 -1.06332,-2.7459c-1.3256,0 -4.02253,0 -4.02253,0c-0.85218,0 -1.54218,-0.6911 -1.54218,-1.54218v-1.12861c0,-0.85218 0.69,-1.54328 1.54218,-1.54328c0,0 1.20588,0 2.41068,0c-1.07529,-2.6425 -3.22584,-7.92752 -3.22584,-7.92752c-0.3265,-0.65191 -0.57247,-0.65191 -0.69,-0.65191h-0.56485c-0.85218,0 -1.54218,-0.6911 -1.54218,-1.54218v-1.12861c0,-0.85218 0.69,-1.54328 1.54218,-1.54328h8.27686c0.85218,0 1.54218,0.6911 1.54218,1.54328v1.12861c0,0.85109 -0.69,1.54218 -1.54218,1.54218c0,0 -0.71069,0 -0.7379,0c0.02612,0.09687 0.04788,0.19156 0.10666,0.345c0,0 2.58372,6.66286 3.19321,8.23333h1.63687c0.59315,-1.58137 3.00275,-8.00586 3.00275,-8.00586c0.09143,-0.25903 0.13495,-0.43534 0.1589,-0.57028c-0.00217,-0.00109 -0.02285,-0.00217 -0.02285,-0.00217h-1.12861c-0.85218,0 -1.54218,-0.6911 -1.54218,-1.54218v-1.12861c0,-0.85218 0.69,-1.54328 1.54218,-1.54328h7.14825c0.85218,0 1.54218,0.6911 1.54109,1.54328zM481.02404,338.13977c2.04826,2.04609 3.08546,4.37514 3.08546,6.9208c0,2.94178 -1.11447,5.47329 -3.27375,7.48673c-2.04718,2.04826 -4.81811,3.08656 -8.23877,3.08656c-3.01908,0 -5.45806,-0.83368 -7.24511,-2.47056c-1.70762,-1.55415 -2.57393,-3.33034 -2.57393,-5.28065c0,-1.2984 0.40378,-2.36171 1.20371,-3.16056c0.79993,-0.79884 1.67169,-1.20371 2.59571,-1.20371c0.90985,0 1.74353,0.35263 2.40742,1.01761c0.78797,0.78687 1.20371,1.75006 1.20371,2.7829l-0.26663,1.61728c-0.04028,0.24378 -0.08053,0.23834 -0.22965,0.4375c-0.17631,0.23618 -0.25577,0.47125 -0.25577,0.76294c0.00437,0.03591 0.06857,0.18719 0.21332,0.33847c0.58662,0.50174 1.5139,0.75641 2.75896,0.75641c1.59552,0 2.77746,-0.40704 3.66555,-1.29294c1.03828,-0.9436 1.56504,-2.70997 1.56504,-5.25453c0,-1.848 -0.4669,-3.21388 -1.429,-4.17708c-0.93597,-0.93488 -2.83515,-1.429 -5.49398,-1.429c-0.85218,0 -1.54218,-0.6911 -1.54218,-1.54328v-1.31581c0,-0.85218 0.69,-1.54328 1.54218,-1.54328c5.10543,0 5.79436,-2.45313 5.79436,-4.85293c0,-1.7544 -0.42554,-3.07893 -1.2418,-3.99096c-0.7096,-0.7085 -1.70652,-1.05243 -3.04844,-1.05243c-0.99802,0 -1.89265,0.36459 -2.67189,1.05243c-0.11102,0.11209 -0.11319,0.1676 -0.11319,0.22528c0,0 0.05115,0.52676 0.05551,0.57356c0.02722,0.03156 0.05878,0.07184 0.06312,0.07618c0.07291,0.10993 0.10449,0.24162 0.16651,0.35806c0.16434,0.18176 0.34065,0.31128 0.34065,0.40268c0,0.02396 -0.07837,0.05441 -0.11428,0.08053c0.14584,0.41684 0.24271,0.85544 0.24271,1.33106c0,2.66426 -1.6706,3.6133 -3.23565,3.6133c-0.90985,0 -1.74353,-0.35263 -2.40742,-1.01761c-0.79884,-0.79776 -1.20371,-1.86216 -1.20371,-3.15947c0,-2.04718 0.72156,-3.80703 2.18977,-5.27303c1.91657,-1.76965 4.42086,-2.66646 7.44211,-2.66646c2.92003,0 5.31331,0.91203 7.11017,2.70997c1.79794,1.79578 2.7089,3.87343 2.7089,6.16875c0,2.33559 -0.76075,5.26433 -3.78527,7.39858c0.776,0.44403 1.46274,0.92944 2.0156,1.48668zM508.37851,345.80935c0,2.54674 -0.97406,4.81267 -2.93528,6.77277c-2.1669,2.02324 -4.92586,3.04844 -8.20068,3.04844c-3.27265,0 -5.9674,-0.9621 -8.01023,-2.85799c-2.07438,-1.92746 -3.12574,-4.14225 -3.12574,-6.58667c0,-3.33687 1.78489,-6.37445 5.11412,-9.09314c-2.84275,-2.01887 -4.36208,-4.56234 -4.36208,-7.6478c0,-2.32035 1.05134,-4.4742 3.08546,-6.35921c1.79794,-1.79794 4.38059,-2.70997 7.67502,-2.70997c3.14858,0 5.78021,0.9621 7.8633,2.89717c1.6728,1.6728 2.52061,3.74934 2.52061,6.17202c0,2.87977 -1.61946,5.40255 -4.64833,7.56292c3.27156,2.44117 5.02599,5.37206 5.0238,8.80145zM492.57682,329.25561c0,0.66172 0.542,1.50409 1.56504,2.43464c1.10575,1.00346 2.85255,1.934 5.04884,2.79271c2.07004,-1.20697 3.09525,-2.74916 3.09525,-4.85076c0,-1.69129 -0.4484,-2.91568 -1.429,-3.80159c-0.7096,-0.7085 -1.76747,-1.05243 -3.23674,-1.05243c-1.82297,0 -3.10069,0.35371 -3.80049,1.05243c-0.83585,0.83585 -1.2418,1.95575 -1.2429,3.42503zM502.47425,346.0009c0,-0.95013 -0.54416,-1.97535 -1.61728,-3.04844c-1.31363,-1.31363 -3.25959,-2.4455 -5.63872,-3.42284c-2.23981,1.76094 -3.39237,3.9322 -3.39237,6.6574c0,1.56613 0.51153,2.79271 1.61728,3.80049c0.83475,0.83585 2.07874,1.2418 3.80049,1.2418c1.82297,0 3.10178,-0.3548 3.85927,-1.11012c0.90985,-0.81843 1.37131,-2.2039 1.37131,-4.1183zM532.83909,337.91012c0,3.18233 -0.60294,6.40274 -1.79142,9.57199l-0.00653,0.01743c-0.97625,2.51191 -2.09724,4.30659 -3.35755,5.42214c-1.79685,1.79794 -3.81029,2.70997 -5.98155,2.70997c-2.17125,0 -4.18361,-0.91203 -5.92278,-2.65339c-1.42139,-1.27988 -2.62944,-3.11375 -3.6035,-5.47546c-1.19282,-3.05064 -1.79794,-6.27867 -1.79794,-9.59269c0,-3.32164 0.6073,-6.49307 1.80884,-9.42942c0.95121,-2.31165 2.14078,-4.19014 3.58174,-5.63002c1.79142,-1.64015 3.78743,-2.4738 5.93365,-2.4738c2.14622,0 4.14225,0.83259 5.98155,2.52061c1.41266,1.41159 2.54783,3.31511 3.37169,5.64742c1.18303,3.29008 1.78272,6.43974 1.78379,9.36521zM526.17951,337.91012c0,-7.77298 -1.45621,-10.92917 -2.70018,-12.21232c-0.58009,-0.48541 -1.16346,-0.73137 -1.77726,-0.73137c-0.62906,0 -1.2233,0.24704 -1.73155,0.67694c-1.94706,1.94813 -2.93418,6.07515 -2.93418,12.26674c0,7.86874 1.5966,11.11527 2.84819,12.37341c0.59424,0.50934 1.18847,0.75748 1.81754,0.75748c0.62906,0 1.2233,-0.24704 1.73155,-0.67694c1.25269,-1.25159 2.7459,-4.42958 2.7459,-12.45394z" fill="#000000" stroke="none" stroke-width="1"/></g><path d="M546.1931,324.50171l11.45701,11.50056l11.45701,-11.50056l2.06352,2.04392l-11.52341,11.45919l11.52341,11.45701l-2.06352,2.045l-11.45701,-11.50163l-11.45701,11.50163l-2.04282,-2.045l11.50163,-11.45701l-11.50163,-11.45919z" fill="#000000" stroke="#000000" stroke-width="1" stroke-linecap="round" stroke-linejoin="round"/><g stroke-linecap="butt" stroke-linejoin="miter"><path d="M661.53484,338.00372c0,-27.23599 22.07913,-49.31513 49.31513,-49.31513c27.23599,0 49.31513,22.07913 49.31513,49.31513c0,27.23599 -22.07913,49.31513 -49.31513,49.31513c-27.23599,0 -49.31513,-22.07913 -49.31513,-49.31513z" fill="#ffffff" stroke="none" stroke-width="1"/><g fill="#7d9196" stroke="none" stroke-width="1"><path d="M710.84887,296.28961c23.00109,0 41.71411,18.71193 41.71411,41.71411c0,23.00218 -18.71302,41.71302 -41.71411,41.71302c-23.00109,0 -41.71302,-18.71085 -41.71302,-41.71302c0,-23.00109 18.71193,-41.71411 41.71302,-41.71411zM710.84996,372.03631c18.76634,0 34.03147,-15.26731 34.03147,-34.03257c0,-18.76743 -15.26623,-34.03257 -34.03147,-34.03257c-18.76527,0 -34.03147,15.26623 -34.03147,34.03257c0,18.76634 15.26623,34.03257 34.03147,34.03257z"/></g><g fill="#7d9196" stroke="none" stroke-width="1"><path d="M710.84887,308.94382c16.02262,0 29.05992,13.03511 29.05992,29.05992c0,16.02262 -13.03729,29.05883 -29.05992,29.05883c-16.02262,0 -29.05883,-13.03511 -29.05883,-29.05883c0,-16.02372 13.03622,-29.05992 29.05883,-29.05992zM710.84887,361.71117c13.0732,0 23.70743,-10.63423 23.70743,-23.70743c0,-13.0732 -10.63423,-23.70743 -23.70743,-23.70743c-13.07213,0 -23.70743,10.63313 -23.70743,23.70743c0,13.0732 10.63639,23.70852 23.70743,23.70743z"/></g><path d="M686.80297,321.91906v1.12861c0,0.85109 -0.69,1.54218 -1.54218,1.54218h-0.37656c-0.22421,0 -0.82062,0 -1.38328,1.46055c0,0 -1.78815,4.61458 -2.76005,7.11886c1.31146,0 2.63924,0 2.63924,0c0.85218,0 1.54218,0.6911 1.54218,1.54328v1.12861c0,0.85109 -0.69,1.54218 -1.54218,1.54218c0,0 -3.04628,0 -4.41106,0c-0.36023,0.89897 -0.73463,1.83494 -1.09922,2.7459c2.06132,0 5.5103,0 5.5103,0c0.85218,0 1.54218,0.6911 1.54218,1.54218v1.12861c0,0.85218 -0.69,1.54328 -1.54218,1.54328c0,0 -3.86906,0 -5.79436,0v7.05683c0.07618,0.0087 0.15128,0.01632 0.15128,0.01632h1.50519c0.85218,0 1.54218,0.6911 1.54218,1.54218v1.12861c0,0.85218 -0.69,1.54328 -1.54218,1.54328h-9.40657c-0.85218,0 -1.54218,-0.6911 -1.54218,-1.54328v-1.12861c0,-0.85109 0.69,-1.54218 1.54218,-1.54218h1.50519c0,0 0.07618,-0.00762 0.15128,-0.01632v-7.05683c-1.9242,0 -5.79436,0 -5.79436,0c-0.85218,0 -1.54218,-0.6911 -1.54218,-1.54328v-1.12861c0,-0.85109 0.69,-1.54218 1.54218,-1.54218c0,0 2.92329,0 5.08584,0c-0.49084,-1.26575 -0.76511,-1.97425 -1.06332,-2.7459c-1.3256,0 -4.02253,0 -4.02253,0c-0.85218,0 -1.54218,-0.6911 -1.54218,-1.54218v-1.12861c0,-0.85218 0.69,-1.54328 1.54218,-1.54328c0,0 1.20588,0 2.41068,0c-1.07529,-2.6425 -3.22584,-7.92752 -3.22584,-7.92752c-0.3265,-0.65191 -0.57247,-0.65191 -0.69,-0.65191h-0.56485c-0.85218,0 -1.54218,-0.6911 -1.54218,-1.54218v-1.12861c0,-0.85218 0.69,-1.54328 1.54218,-1.54328h8.27686c0.85218,0 1.54218,0.6911 1.54218,1.54328v1.12861c0,0.85109 -0.69,1.54218 -1.54218,1.54218c0,0 -0.71069,0 -0.7379,0c0.02612,0.09687 0.04788,0.19156 0.10666,0.345c0,0 2.58372,6.66286 3.19321,8.23333h1.63687c0.59315,-1.58137 3.00275,-8.00586 3.00275,-8.00586c0.09143,-0.25903 0.13495,-0.43534 0.1589,-0.57028c-0.00217,-0.00109 -0.02285,-0.00217 -0.02285,-0.00217h-1.12861c-0.85218,0 -1.54218,-0.6911 -1.54218,-1.54218v-1.12861c0,-0.85218 0.69,-1.54328 1.54218,-1.54328h7.14825c0.85218,0 1.54218,0.6911 1.54109,1.54328zM705.91868,334.93678c2.2975,2.2975 3.46202,5.2589 3.46202,8.80472c0,3.56324 -1.23963,6.53552 -3.65031,8.80255c-2.04609,2.04826 -4.75606,3.08656 -8.05051,3.08656c-2.76984,0 -5.08258,-0.83259 -6.87399,-2.4738c-1.82841,-1.67822 -2.75678,-3.64268 -2.75678,-5.84115c0,-1.29621 0.40487,-2.36063 1.20371,-3.15837c0.78797,-0.78797 1.75115,-1.20481 2.78397,-1.20481c0.90985,0 1.74353,0.35263 2.40742,1.01652c0.66607,0.66607 1.01652,1.56287 1.01652,2.59571c0,1.17432 -0.34174,2.1114 -1.01652,2.78508c0.05225,-0.05225 0.10013,-0.10556 0.14365,-0.16543c-0.11646,0.15454 -0.25577,0.38202 -0.25577,0.58009c0,0.19046 0.1785,0.47888 0.40161,0.7096c0.57791,0.49521 1.6619,0.75641 3.13552,0.75641c1.46818,0 2.58809,-0.40594 3.47181,-1.28861c1.16562,-1.06875 1.75768,-3.02778 1.75768,-5.82265c0,-2.698 -0.6073,-4.67227 -1.80558,-5.87164c-0.7183,-0.7183 -1.50846,-1.05243 -2.48359,-1.05243c-1.60096,0 -3.27049,1.17868 -4.96068,3.50337c-0.3265,0.4484 -0.86741,0.68674 -1.41812,0.6258l-1.69346,-0.18829c-0.81299,-0.09034 -1.41376,-0.79884 -1.37022,-1.61512l0.94034,-17.68454c0.04354,-0.81843 0.7194,-1.46055 1.54002,-1.46055h15.42621c0.46256,0 0.90006,0.20788 1.19282,0.56594c0.22855,0.27643 0.34937,0.62363 0.34937,0.97734c0,0.09903 -0.0087,0.20135 -0.02938,0.30148l-0.56485,2.82209c-0.14475,0.72156 -0.77707,1.24072 -1.5128,1.24072c0,0 -9.76899,0 -12.08826,0c-0.09143,1.56831 -0.27316,4.70818 -0.45819,7.8916c1.80884,-1.24943 3.67427,-1.94596 5.58648,-1.94596c2.2975,0 4.37297,0.91203 6.16983,2.70781zM732.24357,328.54601c1.18303,3.28899 1.78379,6.43865 1.78379,9.36414c0,3.18233 -0.60294,6.40274 -1.79142,9.57199l-0.00653,0.01743c-0.97625,2.51191 -2.09724,4.30659 -3.35755,5.42214c-1.79685,1.79794 -3.81029,2.70997 -5.98155,2.70997c-2.17125,0 -4.18361,-0.91203 -5.92278,-2.65339c-1.42139,-1.27988 -2.62944,-3.11375 -3.6035,-5.47546c-1.19282,-3.05064 -1.79794,-6.27867 -1.79794,-9.59269c0,-3.32164 0.6073,-6.49307 1.80884,-9.42942c0.95121,-2.31165 2.14078,-4.19014 3.58174,-5.63002c1.79142,-1.64015 3.78743,-2.4738 5.93365,-2.4738c2.14622,0 4.14225,0.83259 5.98155,2.52061c1.41266,1.41159 2.54783,3.31511 3.37169,5.64852zM727.36778,337.91012c0,-7.77298 -1.45621,-10.92917 -2.70018,-12.21232c-0.58118,-0.48541 -1.16346,-0.73137 -1.77726,-0.73137c-0.62906,0 -1.2233,0.24704 -1.73155,0.67694c-1.94706,1.94813 -2.93418,6.07515 -2.93418,12.26674c0,7.86874 1.5966,11.11527 2.84712,12.37341c0.59534,0.50934 1.18956,0.75748 1.81864,0.75748c0.62906,0 1.2233,-0.24704 1.73155,-0.67694c1.25269,-1.25159 2.7459,-4.42958 2.7459,-12.45394zM758.10921,337.91012c0,3.18233 -0.60294,6.40274 -1.79142,9.57199l-0.00653,0.01743c-0.97625,2.51191 -2.09724,4.30659 -3.35755,5.42214c-1.79685,1.79794 -3.81029,2.70997 -5.98155,2.70997c-2.17125,0 -4.18361,-0.91203 -5.92278,-2.65339c-1.42139,-1.27988 -2.62944,-3.11375 -3.6035,-5.47546c-1.19282,-3.05064 -1.79794,-6.27867 -1.79794,-9.59269c0,-3.32164 0.6073,-6.49307 1.80884,-9.42942c0.95121,-2.31165 2.14078,-4.19014 3.58174,-5.63002c1.79142,-1.64015 3.78743,-2.4738 5.93365,-2.4738c2.14622,0 4.14225,0.83259 5.98155,2.52061c1.41266,1.41159 2.54783,3.31511 3.37169,5.64742c1.18303,3.29008 1.78272,6.43974 1.78379,9.36521zM751.44961,337.91012c0,-7.77298 -1.45621,-10.92917 -2.70018,-12.21232c-0.58118,-0.48541 -1.16346,-0.73137 -1.77726,-0.73137c-0.62906,0 -1.2233,0.24704 -1.73155,0.67694c-1.94706,1.94813 -2.93418,6.07515 -2.93418,12.26674c0,7.86874 1.5966,11.11527 2.84712,12.37341c0.59534,0.50934 1.18956,0.75748 1.81864,0.75748c0.62906,0 1.2233,-0.24704 1.73155,-0.67694c1.25269,-1.25159 2.7459,-4.42958 2.7459,-12.45394z" fill="#000000" stroke="#ffffff" stroke-width="5.6693"/><path d="M686.80297,321.91906v1.12861c0,0.85109 -0.69,1.54218 -1.54218,1.54218h-0.37656c-0.22421,0 -0.82062,0 -1.38328,1.46055c0,0 -1.78815,4.61458 -2.76005,7.11886c1.31146,0 2.63924,0 2.63924,0c0.85218,0 1.54218,0.6911 1.54218,1.54328v1.12861c0,0.85109 -0.69,1.54218 -1.54218,1.54218c0,0 -3.04628,0 -4.41106,0c-0.36023,0.89897 -0.73463,1.83494 -1.09922,2.7459c2.06132,0 5.5103,0 5.5103,0c0.85218,0 1.54218,0.6911 1.54218,1.54218v1.12861c0,0.85218 -0.69,1.54328 -1.54218,1.54328c0,0 -3.86906,0 -5.79436,0v7.05683c0.07618,0.0087 0.15128,0.01632 0.15128,0.01632h1.50519c0.85218,0 1.54218,0.6911 1.54218,1.54218v1.12861c0,0.85218 -0.69,1.54328 -1.54218,1.54328h-9.40657c-0.85218,0 -1.54218,-0.6911 -1.54218,-1.54328v-1.12861c0,-0.85109 0.69,-1.54218 1.54218,-1.54218h1.50519c0,0 0.07618,-0.00762 0.15128,-0.01632v-7.05683c-1.9242,0 -5.79436,0 -5.79436,0c-0.85218,0 -1.54218,-0.6911 -1.54218,-1.54328v-1.12861c0,-0.85109 0.69,-1.54218 1.54218,-1.54218c0,0 2.92329,0 5.08584,0c-0.49084,-1.26575 -0.76511,-1.97425 -1.06332,-2.7459c-1.3256,0 -4.02253,0 -4.02253,0c-0.85218,0 -1.54218,-0.6911 -1.54218,-1.54218v-1.12861c0,-0.85218 0.69,-1.54328 1.54218,-1.54328c0,0 1.20588,0 2.41068,0c-1.07529,-2.6425 -3.22584,-7.92752 -3.22584,-7.92752c-0.3265,-0.65191 -0.57247,-0.65191 -0.69,-0.65191h-0.56485c-0.85218,0 -1.54218,-0.6911 -1.54218,-1.54218v-1.12861c0,-0.85218 0.69,-1.54328 1.54218,-1.54328h8.27686c0.85218,0 1.54218,0.6911 1.54218,1.54328v1.12861c0,0.85109 -0.69,1.54218 -1.54218,1.54218c0,0 -0.71069,0 -0.7379,0c0.02612,0.09687 0.04788,0.19156 0.10666,0.345c0,0 2.58372,6.66286 3.19321,8.23333h1.63687c0.59315,-1.58137 3.00275,-8.00586 3.00275,-8.00586c0.09143,-0.25903 0.13495,-0.43534 0.1589,-0.57028c-0.00217,-0.00109 -0.02285,-0.00217 -0.02285,-0.00217h-1.12861c-0.85218,0 -1.54218,-0.6911 -1.54218,-1.54218v-1.12861c0,-0.85218 0.69,-1.54328 1.54218,-1.54328h7.14825c0.85218,0 1.54218,0.6911 1.54109,1.54328zM705.91868,334.93678c2.2975,2.2975 3.46202,5.2589 3.46202,8.80472c0,3.56324 -1.23963,6.53552 -3.65031,8.80255c-2.04609,2.04826 -4.75606,3.08656 -8.05051,3.08656c-2.76984,0 -5.08258,-0.83259 -6.87399,-2.4738c-1.82841,-1.67822 -2.75678,-3.64268 -2.75678,-5.84115c0,-1.29621 0.40487,-2.36063 1.20371,-3.15837c0.78797,-0.78797 1.75115,-1.20481 2.78397,-1.20481c0.90985,0 1.74353,0.35263 2.40742,1.01652c0.66607,0.66607 1.01652,1.56287 1.01652,2.59571c0,1.17432 -0.34174,2.1114 -1.01652,2.78508c0.05225,-0.05225 0.10013,-0.10556 0.14365,-0.16543c-0.11646,0.15454 -0.25577,0.38202 -0.25577,0.58009c0,0.19046 0.1785,0.47888 0.40161,0.7096c0.57791,0.49521 1.6619,0.75641 3.13552,0.75641c1.46818,0 2.58809,-0.40594 3.47181,-1.28861c1.16562,-1.06875 1.75768,-3.02778 1.75768,-5.82265c0,-2.698 -0.6073,-4.67227 -1.80558,-5.87164c-0.7183,-0.7183 -1.50846,-1.05243 -2.48359,-1.05243c-1.60096,0 -3.27049,1.17868 -4.96068,3.50337c-0.3265,0.4484 -0.86741,0.68674 -1.41812,0.6258l-1.69346,-0.18829c-0.81299,-0.09034 -1.41376,-0.79884 -1.37022,-1.61512l0.94034,-17.68454c0.04354,-0.81843 0.7194,-1.46055 1.54002,-1.46055h15.42621c0.46256,0 0.90006,0.20788 1.19282,0.56594c0.22855,0.27643 0.34937,0.62363 0.34937,0.97734c0,0.09903 -0.0087,0.20135 -0.02938,0.30148l-0.56485,2.82209c-0.14475,0.72156 -0.77707,1.24072 -1.5128,1.24072c0,0 -9.76899,0 -12.08826,0c-0.09143,1.56831 -0.27316,4.70818 -0.45819,7.8916c1.80884,-1.24943 3.67427,-1.94596 5.58648,-1.94596c2.2975,0 4.37297,0.91203 6.16983,2.70781zM732.24357,328.54601c1.18303,3.28899 1.78379,6.43865 1.78379,9.36414c0,3.18233 -0.60294,6.40274 -1.79142,9.57199l-0.00653,0.01743c-0.97625,2.51191 -2.09724,4.30659 -3.35755,5.42214c-1.79685,1.79794 -3.81029,2.70997 -5.98155,2.70997c-2.17125,0 -4.18361,-0.91203 -5.92278,-2.65339c-1.42139,-1.27988 -2.62944,-3.11375 -3.6035,-5.47546c-1.19282,-3.05064 -1.79794,-6.27867 -1.79794,-9.59269c0,-3.32164 0.6073,-6.49307 1.80884,-9.42942c0.95121,-2.31165 2.14078,-4.19014 3.58174,-5.63002c1.79142,-1.64015 3.78743,-2.4738 5.93365,-2.4738c2.14622,0 4.14225,0.83259 5.98155,2.52061c1.41266,1.41159 2.54783,3.31511 3.37169,5.64852zM727.36778,337.91012c0,-7.77298 -1.45621,-10.92917 -2.70018,-12.21232c-0.58118,-0.48541 -1.16346,-0.73137 -1.77726,-0.73137c-0.62906,0 -1.2233,0.24704 -1.73155,0.67694c-1.94706,1.94813 -2.93418,6.07515 -2.93418,12.26674c0,7.86874 1.5966,11.11527 2.84712,12.37341c0.59534,0.50934 1.18956,0.75748 1.81864,0.75748c0.62906,0 1.2233,-0.24704 1.73155,-0.67694c1.25269,-1.25159 2.7459,-4.42958 2.7459,-12.45394zM758.10921,337.91012c0,3.18233 -0.60294,6.40274 -1.79142,9.57199l-0.00653,0.01743c-0.97625,2.51191 -2.09724,4.30659 -3.35755,5.42214c-1.79685,1.79794 -3.81029,2.70997 -5.98155,2.70997c-2.17125,0 -4.18361,-0.91203 -5.92278,-2.65339c-1.42139,-1.27988 -2.62944,-3.11375 -3.6035,-5.47546c-1.19282,-3.05064 -1.79794,-6.27867 -1.79794,-9.59269c0,-3.32164 0.6073,-6.49307 1.80884,-9.42942c0.95121,-2.31165 2.14078,-4.19014 3.58174,-5.63002c1.79142,-1.64015 3.78743,-2.4738 5.93365,-2.4738c2.14622,0 4.14225,0.83259 5.98155,2.52061c1.41266,1.41159 2.54783,3.31511 3.37169,5.64742c1.18303,3.29008 1.78272,6.43974 1.78379,9.36521zM751.44961,337.91012c0,-7.77298 -1.45621,-10.92917 -2.70018,-12.21232c-0.58118,-0.48541 -1.16346,-0.73137 -1.77726,-0.73137c-0.62906,0 -1.2233,0.24704 -1.73155,0.67694c-1.94706,1.94813 -2.93418,6.07515 -2.93418,12.26674c0,7.86874 1.5966,11.11527 2.84712,12.37341c0.59534,0.50934 1.18956,0.75748 1.81864,0.75748c0.62906,0 1.2233,-0.24704 1.73155,-0.67694c1.25269,-1.25159 2.7459,-4.42958 2.7459,-12.45394z" fill="#000000" stroke="none" stroke-width="1"/></g><path d="M771.46429,324.50171l11.45701,11.50056l11.45701,-11.50056l2.06352,2.04392l-11.52341,11.45919l11.52341,11.45701l-2.06352,2.045l-11.45701,-11.50163l-11.45701,11.50163l-2.04282,-2.045l11.50163,-11.45701l-11.50163,-11.45919z" fill="#000000" stroke="#000000" stroke-width="1" stroke-linecap="round" stroke-linejoin="round"/><g><g stroke-linecap="butt" stroke-linejoin="miter"><path d="M-30.89425,338.00372c0,-27.2366 22.07962,-49.31622 49.31622,-49.31622c27.2366,0 49.31622,22.07962 49.31622,49.31622c0,27.2366 -22.07962,49.31622 -49.31622,49.31622c-27.2366,0 -49.31622,-22.07962 -49.31622,-49.31622z" fill="#ffffff" stroke="none" stroke-width="1"/><g fill="#80c041" stroke="none" stroke-width="1"><path d="M18.42086,296.28961c23.00109,0 41.71411,18.71193 41.71411,41.71411c0,23.00218 -18.71302,41.71302 -41.71411,41.71302c-23.00109,0 -41.71302,-18.71085 -41.71302,-41.71302c0,-23.00109 18.71193,-41.71411 41.71302,-41.71411zM18.42194,372.03631c18.76634,0 34.03257,-15.26731 34.03257,-34.03257c0,-18.76743 -15.26731,-34.03257 -34.03257,-34.03257c-18.76527,0 -34.03147,15.26623 -34.03147,34.03257c0,18.76634 15.26623,34.03257 34.03147,34.03257z"/></g><path d="M-4.87191,321.91906v1.12861c0,0.85109 -0.6911,1.54218 -1.54218,1.54218h-0.37656c-0.22528,0 -0.82062,0 -1.38328,1.46055c0,0 -1.78815,4.61458 -2.76005,7.11886c1.31146,0 2.63924,0 2.63924,0c0.85109,0 1.54218,0.6911 1.54218,1.54328v1.12861c0,0.85109 -0.6911,1.54218 -1.54218,1.54218c0,0 -3.04628,0 -4.41215,0c-0.35916,0.89897 -0.73463,1.83494 -1.09815,2.7459c2.06025,0 5.5103,0 5.5103,0c0.85109,0 1.54218,0.6911 1.54218,1.54218v1.12861c0,0.85218 -0.6911,1.54328 -1.54218,1.54328c0,0 -3.87016,0 -5.79436,0v7.05683c0.07618,0.0087 0.15128,0.01632 0.15128,0.01632h1.50519c0.85109,0 1.54218,0.6911 1.54218,1.54218v1.12861c0,0.85218 -0.6911,1.54328 -1.54218,1.54328h-9.40657c-0.85218,0 -1.54328,-0.6911 -1.54328,-1.54328v-1.12861c0,-0.85109 0.6911,-1.54218 1.54328,-1.54218h1.50519c0,0 0.07618,-0.00762 0.15018,-0.01632v-7.05683c-1.9231,0 -5.79327,0 -5.79327,0c-0.85218,0 -1.54328,-0.6911 -1.54328,-1.54328v-1.12861c0,-0.85109 0.6911,-1.54218 1.54328,-1.54218c0,0 2.92222,0 5.08584,0c-0.49084,-1.26575 -0.76621,-1.97425 -1.0644,-2.7459c-1.32453,0 -4.02144,0 -4.02144,0c-0.85218,0 -1.54328,-0.6911 -1.54328,-1.54218v-1.12861c0,-0.85218 0.6911,-1.54328 1.54328,-1.54328c0,0 1.20588,0 2.40959,0c-1.07419,-2.6425 -3.22477,-7.92752 -3.22477,-7.92752c-0.3265,-0.65191 -0.57247,-0.65191 -0.69,-0.65191h-0.56485c-0.85218,0 -1.54328,-0.6911 -1.54328,-1.54218v-1.12861c0,-0.85218 0.6911,-1.54328 1.54328,-1.54328h8.27686c0.85109,0 1.54218,0.6911 1.54218,1.54328v1.12861c0,0.85109 -0.6911,1.54218 -1.54218,1.54218c0,0 -0.71177,0 -0.73899,0c0.02612,0.09687 0.04898,0.19156 0.10775,0.345c0,0 2.58265,6.66286 3.19321,8.23333h1.63687c0.59315,-1.58137 3.00275,-8.00586 3.00275,-8.00586c0.09143,-0.25903 0.13495,-0.43534 0.1589,-0.57028c-0.00326,-0.00109 -0.02285,-0.00217 -0.02285,-0.00217h-1.12861c-0.85218,0 -1.54328,-0.6911 -1.54328,-1.54218v-1.12861c0,-0.85218 0.6911,-1.54328 1.54328,-1.54328h7.14825c0.85109,0 1.54218,0.6911 1.54109,1.54328zM15.82406,352.9576v1.12861c0,0.85218 -0.6911,1.54328 -1.54218,1.54328h-13.73275c-0.85218,0 -1.54328,-0.6911 -1.54328,-1.54328v-1.12861c0,-0.85109 0.6911,-1.54218 1.54328,-1.54218h1.69346c2.03086,0 2.03086,-0.77927 2.03086,-1.46818v-22.19899c0,0 -0.00653,-0.06312 -0.01306,-0.12188c-0.06421,-0.01306 -0.16543,-0.02722 -0.32541,-0.02722h-3.38584c-0.85218,0 -1.54328,-0.6911 -1.54328,-1.54218v-1.12861c0,-0.85218 0.6911,-1.54328 1.54328,-1.54328h1.69346c3.02342,0 3.98878,-1.22984 4.45241,-2.15711c0.2612,-0.52131 0.79557,-0.85218 1.38001,-0.85218h0.75205c0.85109,0 1.54218,0.6911 1.54218,1.54328v28.03035c0,0.68893 0,1.46818 2.03193,1.46818h1.88175c0.85109,0 1.54218,0.69 1.54109,1.54002zM41.97482,345.80935c0,2.54674 -0.97406,4.81267 -2.93528,6.77277c-2.1669,2.02324 -4.92586,3.04844 -8.20068,3.04844c-3.27265,0 -5.9674,-0.9621 -8.01023,-2.85799c-2.07438,-1.92746 -3.12681,-4.14225 -3.12681,-6.58667c0,-3.33687 1.78599,-6.37445 5.11412,-9.09314c-2.84275,-2.01887 -4.36208,-4.56234 -4.36208,-7.6478c0,-2.32035 1.05243,-4.4742 3.08546,-6.35921c1.79905,-1.79794 4.38168,-2.70997 7.67611,-2.70997c3.14858,0 5.78021,0.9621 7.8633,2.89717c1.6728,1.6728 2.52061,3.74934 2.52061,6.17202c0,2.87977 -1.61946,5.40255 -4.64833,7.56292c3.27156,2.44117 5.02489,5.37206 5.0238,8.80145zM26.17206,329.25561c0,0.66172 0.542,1.50409 1.56504,2.43464c1.10575,1.00346 2.85146,1.934 5.04884,2.79271c2.07004,-1.20697 3.09416,-2.74916 3.09416,-4.85076c0,-1.69129 -0.44731,-2.91568 -1.429,-3.80159c-0.7085,-0.7085 -1.7664,-1.05243 -3.23565,-1.05243c-1.82297,0 -3.10069,0.35371 -3.80049,1.05243c-0.83585,0.83585 -1.2418,1.95575 -1.2429,3.42503zM36.06839,346.0009c0,-0.95013 -0.54416,-1.97535 -1.61728,-3.04844c-1.31254,-1.31363 -3.25959,-2.4455 -5.63872,-3.42284c-2.23981,1.76094 -3.39128,3.9322 -3.39128,6.6574c0,1.56613 0.51153,2.79271 1.61728,3.80049c0.83475,0.83585 2.07874,1.2418 3.80049,1.2418c1.82297,0 3.10178,-0.3548 3.85927,-1.11012c0.90985,-0.81843 1.37022,-2.2039 1.37022,-4.1183zM66.43432,337.91012c0,3.18233 -0.60294,6.40274 -1.79142,9.57199c-0.00217,0.00653 -0.00437,0.01197 -0.00762,0.01743c-0.97625,2.51191 -2.09616,4.30659 -3.35646,5.42214c-1.79685,1.79794 -3.81029,2.70997 -5.98155,2.70997c-2.17125,0 -4.18361,-0.91203 -5.92278,-2.65339c-1.42139,-1.27988 -2.63053,-3.11375 -3.6035,-5.47546c-1.19282,-3.05064 -1.79905,-6.27867 -1.79905,-9.59269c0,-3.32164 0.60838,-6.49307 1.80991,-9.42942c0.95121,-2.31165 2.14078,-4.19014 3.58174,-5.63002c1.79142,-1.64015 3.78743,-2.4738 5.93365,-2.4738c2.14622,0 4.14225,0.83259 5.98155,2.52061c1.41266,1.41159 2.54783,3.31511 3.37062,5.64742c1.18412,3.29008 1.78489,6.43974 1.78489,9.36521zM59.77365,337.91012c0,-7.77298 -1.45512,-10.92917 -2.69911,-12.21232c-0.58118,-0.48541 -1.16346,-0.73137 -1.77726,-0.73137c-0.62906,0 -1.2233,0.24704 -1.73155,0.67694c-1.94706,1.94813 -2.93418,6.07515 -2.93418,12.26674c0,7.86874 1.59552,11.11527 2.84712,12.37341c0.59534,0.50934 1.18956,0.75748 1.81864,0.75748c0.62797,0 1.2233,-0.24704 1.73047,-0.67694c1.25269,-1.25159 2.7459,-4.42958 2.7459,-12.45394z" fill="#000000" stroke="#ffffff" stroke-width="5.6693"/><path d="M-4.87191,321.91906v1.12861c0,0.85109 -0.6911,1.54218 -1.54218,1.54218h-0.37656c-0.22528,0 -0.82062,0 -1.38328,1.46055c0,0 -1.78815,4.61458 -2.76005,7.11886c1.31146,0 2.63924,0 2.63924,0c0.85109,0 1.54218,0.6911 1.54218,1.54328v1.12861c0,0.85109 -0.6911,1.54218 -1.54218,1.54218c0,0 -3.04628,0 -4.41215,0c-0.35916,0.89897 -0.73463,1.83494 -1.09815,2.7459c2.06025,0 5.5103,0 5.5103,0c0.85109,0 1.54218,0.6911 1.54218,1.54218v1.12861c0,0.85218 -0.6911,1.54328 -1.54218,1.54328c0,0 -3.87016,0 -5.79436,0v7.05683c0.07618,0.0087 0.15128,0.01632 0.15128,0.01632h1.50519c0.85109,0 1.54218,0.6911 1.54218,1.54218v1.12861c0,0.85218 -0.6911,1.54328 -1.54218,1.54328h-9.40657c-0.85218,0 -1.54328,-0.6911 -1.54328,-1.54328v-1.12861c0,-0.85109 0.6911,-1.54218 1.54328,-1.54218h1.50519c0,0 0.07618,-0.00762 0.15018,-0.01632v-7.05683c-1.9231,0 -5.79327,0 -5.79327,0c-0.85218,0 -1.54328,-0.6911 -1.54328,-1.54328v-1.12861c0,-0.85109 0.6911,-1.54218 1.54328,-1.54218c0,0 2.92222,0 5.08584,0c-0.49084,-1.26575 -0.76621,-1.97425 -1.0644,-2.7459c-1.32453,0 -4.02144,0 -4.02144,0c-0.85218,0 -1.54328,-0.6911 -1.54328,-1.54218v-1.12861c0,-0.85218 0.6911,-1.54328 1.54328,-1.54328c0,0 1.20588,0 2.40959,0c-1.07419,-2.6425 -3.22477,-7.92752 -3.22477,-7.92752c-0.3265,-0.65191 -0.57247,-0.65191 -0.69,-0.65191h-0.56485c-0.85218,0 -1.54328,-0.6911 -1.54328,-1.54218v-1.12861c0,-0.85218 0.6911,-1.54328 1.54328,-1.54328h8.27686c0.85109,0 1.54218,0.6911 1.54218,1.54328v1.12861c0,0.85109 -0.6911,1.54218 -1.54218,1.54218c0,0 -0.71177,0 -0.73899,0c0.02612,0.09687 0.04898,0.19156 0.10775,0.345c0,0 2.58265,6.66286 3.19321,8.23333h1.63687c0.59315,-1.58137 3.00275,-8.00586 3.00275,-8.00586c0.09143,-0.25903 0.13495,-0.43534 0.1589,-0.57028c-0.00326,-0.00109 -0.02285,-0.00217 -0.02285,-0.00217h-1.12861c-0.85218,0 -1.54328,-0.6911 -1.54328,-1.54218v-1.12861c0,-0.85218 0.6911,-1.54328 1.54328,-1.54328h7.14825c0.85109,0 1.54218,0.6911 1.54109,1.54328zM15.82406,352.9576v1.12861c0,0.85218 -0.6911,1.54328 -1.54218,1.54328h-13.73275c-0.85218,0 -1.54328,-0.6911 -1.54328,-1.54328v-1.12861c0,-0.85109 0.6911,-1.54218 1.54328,-1.54218h1.69346c2.03086,0 2.03086,-0.77927 2.03086,-1.46818v-22.19899c0,0 -0.00653,-0.06312 -0.01306,-0.12188c-0.06421,-0.01306 -0.16543,-0.02722 -0.32541,-0.02722h-3.38584c-0.85218,0 -1.54328,-0.6911 -1.54328,-1.54218v-1.12861c0,-0.85218 0.6911,-1.54328 1.54328,-1.54328h1.69346c3.02342,0 3.98878,-1.22984 4.45241,-2.15711c0.2612,-0.52131 0.79557,-0.85218 1.38001,-0.85218h0.75205c0.85109,0 1.54218,0.6911 1.54218,1.54328v28.03035c0,0.68893 0,1.46818 2.03193,1.46818h1.88175c0.85109,0 1.54218,0.69 1.54109,1.54002zM41.97482,345.80935c0,2.54674 -0.97406,4.81267 -2.93528,6.77277c-2.1669,2.02324 -4.92586,3.04844 -8.20068,3.04844c-3.27265,0 -5.9674,-0.9621 -8.01023,-2.85799c-2.07438,-1.92746 -3.12681,-4.14225 -3.12681,-6.58667c0,-3.33687 1.78599,-6.37445 5.11412,-9.09314c-2.84275,-2.01887 -4.36208,-4.56234 -4.36208,-7.6478c0,-2.32035 1.05243,-4.4742 3.08546,-6.35921c1.79905,-1.79794 4.38168,-2.70997 7.67611,-2.70997c3.14858,0 5.78021,0.9621 7.8633,2.89717c1.6728,1.6728 2.52061,3.74934 2.52061,6.17202c0,2.87977 -1.61946,5.40255 -4.64833,7.56292c3.27156,2.44117 5.02489,5.37206 5.0238,8.80145zM26.17206,329.25561c0,0.66172 0.542,1.50409 1.56504,2.43464c1.10575,1.00346 2.85146,1.934 5.04884,2.79271c2.07004,-1.20697 3.09416,-2.74916 3.09416,-4.85076c0,-1.69129 -0.44731,-2.91568 -1.429,-3.80159c-0.7085,-0.7085 -1.7664,-1.05243 -3.23565,-1.05243c-1.82297,0 -3.10069,0.35371 -3.80049,1.05243c-0.83585,0.83585 -1.2418,1.95575 -1.2429,3.42503zM36.06839,346.0009c0,-0.95013 -0.54416,-1.97535 -1.61728,-3.04844c-1.31254,-1.31363 -3.25959,-2.4455 -5.63872,-3.42284c-2.23981,1.76094 -3.39128,3.9322 -3.39128,6.6574c0,1.56613 0.51153,2.79271 1.61728,3.80049c0.83475,0.83585 2.07874,1.2418 3.80049,1.2418c1.82297,0 3.10178,-0.3548 3.85927,-1.11012c0.90985,-0.81843 1.37022,-2.2039 1.37022,-4.1183zM66.43432,337.91012c0,3.18233 -0.60294,6.40274 -1.79142,9.57199c-0.00217,0.00653 -0.00437,0.01197 -0.00762,0.01743c-0.97625,2.51191 -2.09616,4.30659 -3.35646,5.42214c-1.79685,1.79794 -3.81029,2.70997 -5.98155,2.70997c-2.17125,0 -4.18361,-0.91203 -5.92278,-2.65339c-1.42139,-1.27988 -2.63053,-3.11375 -3.6035,-5.47546c-1.19282,-3.05064 -1.79905,-6.27867 -1.79905,-9.59269c0,-3.32164 0.60838,-6.49307 1.80991,-9.42942c0.95121,-2.31165 2.14078,-4.19014 3.58174,-5.63002c1.79142,-1.64015 3.78743,-2.4738 5.93365,-2.4738c2.14622,0 4.14225,0.83259 5.98155,2.52061c1.41266,1.41159 2.54783,3.31511 3.37062,5.64742c1.18412,3.29008 1.78489,6.43974 1.78489,9.36521zM59.77365,337.91012c0,-7.77298 -1.45512,-10.92917 -2.69911,-12.21232c-0.58118,-0.48541 -1.16346,-0.73137 -1.77726,-0.73137c-0.62906,0 -1.2233,0.24704 -1.73155,0.67694c-1.94706,1.94813 -2.93418,6.07515 -2.93418,12.26674c0,7.86874 1.59552,11.11527 2.84712,12.37341c0.59534,0.50934 1.18956,0.75748 1.81864,0.75748c0.62797,0 1.2233,-0.24704 1.73047,-0.67694c1.25269,-1.25159 2.7459,-4.42958 2.7459,-12.45394z" fill="#000000" stroke="none" stroke-width="1"/></g><g fill="#000000" stroke="#000000" stroke-width="1" stroke-linecap="round" stroke-linejoin="round"><path d="M79.03627,324.50171l11.45701,11.50056l11.45592,-11.50056l2.06568,2.04392l-11.52449,11.45919l11.52449,11.45701l-2.06568,2.045l-11.45592,-11.50273l-11.45701,11.50273l-2.04282,-2.045l11.50163,-11.45701l-11.50163,-11.45919z"/></g></g><g><g stroke-linecap="butt" stroke-linejoin="miter"><path d="M202.68361,338.00372c0,-27.2366 22.07962,-49.31622 49.31622,-49.31622c27.2366,0 49.31622,22.07962 49.31622,49.31622c0,27.2366 -22.07962,49.31622 -49.31622,49.31622c-27.2366,0 -49.31622,-22.07962 -49.31622,-49.31622z" fill="#ffffff" stroke="none" stroke-width="1"/><g fill="#ec6642" stroke="none" stroke-width="1"><path d="M251.99871,296.28961c23.00109,0 41.71411,18.71193 41.71411,41.71411c0,23.00218 -18.71302,41.71302 -41.71411,41.71302c-23.00002,0 -41.71195,-18.71085 -41.71195,-41.71302c0,-23.00109 18.71302,-41.71411 41.71195,-41.71411zM251.9998,372.03631c18.76634,0 34.03147,-15.26731 34.03147,-34.03257c0,-18.76743 -15.26623,-34.03257 -34.03147,-34.03257c-18.76527,0 -34.0304,15.26623 -34.0304,34.03257c0,18.76634 15.26513,34.03257 34.0304,34.03257z"/></g><path d="M228.70703,321.91906v1.12861c0,0.85109 -0.6911,1.54218 -1.54328,1.54218h-0.37656c-0.22528,0 -0.82062,0 -1.38328,1.46055c0,0 -1.78815,4.61458 -2.75896,7.11886c1.31037,0 2.63816,0 2.63816,0c0.85218,0 1.54328,0.6911 1.54328,1.54328v1.12861c0,0.85109 -0.6911,1.54218 -1.54328,1.54218c0,0 -3.04628,0 -4.41106,0c-0.36023,0.89897 -0.73572,1.83494 -1.09922,2.7459c2.06025,0 5.5103,0 5.5103,0c0.85218,0 1.54328,0.6911 1.54328,1.54218v1.12861c0,0.85218 -0.6911,1.54328 -1.54328,1.54328c0,0 -3.86906,0 -5.79436,0v7.05683c0.07618,0.0087 0.15128,0.01632 0.15128,0.01632h1.50519c0.85218,0 1.54328,0.6911 1.54328,1.54218v1.12861c0,0.85218 -0.6911,1.54328 -1.54328,1.54328h-9.40657c-0.85218,0 -1.54328,-0.6911 -1.54328,-1.54328v-1.12861c0,-0.85109 0.6911,-1.54218 1.54328,-1.54218h1.50519c0,0 0.07618,-0.00762 0.15128,-0.01632v-7.05683c-1.9242,0 -5.79436,0 -5.79436,0c-0.85218,0 -1.54328,-0.6911 -1.54328,-1.54328v-1.12861c0,-0.85109 0.6911,-1.54218 1.54328,-1.54218c0,0 2.92329,0 5.08584,0c-0.49084,-1.26575 -0.76511,-1.97425 -1.0644,-2.7459c-1.32453,0 -4.02144,0 -4.02144,0c-0.85218,0 -1.54328,-0.6911 -1.54328,-1.54218v-1.12861c0,-0.85218 0.6911,-1.54328 1.54328,-1.54328c0,0 1.20588,0 2.41068,0c-1.07529,-2.6425 -3.22584,-7.92752 -3.22584,-7.92752c-0.3265,-0.65191 -0.57247,-0.65191 -0.69,-0.65191h-0.56485c-0.85109,0 -1.54218,-0.6911 -1.54218,-1.54218v-1.12861c0,-0.85218 0.6911,-1.54328 1.54218,-1.54328h8.27686c0.85109,0 1.54218,0.6911 1.54218,1.54328v1.12861c0,0.85109 -0.6911,1.54218 -1.54218,1.54218c0,0 -0.71177,0 -0.73899,0c0.02612,0.09687 0.04898,0.19156 0.10775,0.345c0,0 2.58372,6.66286 3.19321,8.23333h1.63687c0.59424,-1.58137 3.00275,-8.00586 3.00275,-8.00586c0.09143,-0.25903 0.13605,-0.43534 0.1589,-0.57028c-0.00326,-0.00109 -0.02285,-0.00217 -0.02285,-0.00217h-1.12861c-0.85218,0 -1.54328,-0.6911 -1.54328,-1.54218v-1.12861c0,-0.85218 0.6911,-1.54328 1.54328,-1.54328h7.14825c0.85218,0 1.54328,0.6911 1.54218,1.54328zM250.90493,344.98655c0.29276,0.33738 0.42554,0.7836 0.3635,1.22547l-1.12861,8.08967c-0.10556,0.76294 -0.75748,1.32996 -1.52696,1.32996h-17.49515c-0.85109,0 -1.54218,-0.6911 -1.54218,-1.54328v-2.44443c0,-0.22965 0.05115,-0.45493 0.1491,-0.66062c1.21894,-2.57393 4.21517,-6.16549 9.16169,-10.9814c3.80812,-3.69384 5.73886,-6.99154 5.73886,-9.80382c0,-2.04172 -0.46037,-3.49141 -1.429,-4.36753c-0.7096,-0.7085 -1.70652,-1.05243 -3.04844,-1.05243c-1.37784,0 -2.45749,0.36459 -3.23674,1.05243c-0.46146,0.46363 -0.67694,1.01325 -0.67694,1.73265c0,0.34284 0.09034,0.58009 0.30038,0.79123c0.66607,0.66388 1.01652,1.56394 1.01652,2.59678c0,2.1114 -1.31254,3.42393 -3.42393,3.42393c-1.17432,0 -2.1103,-0.34284 -2.78397,-1.01761c-0.79884,-0.79776 -1.20481,-1.9242 -1.20481,-3.34775c0,-2.67079 0.85,-4.87361 2.56089,-6.58449c2.1669,-2.02324 4.79961,-3.04844 7.82412,-3.04844c3.29552,0 5.87817,0.91203 7.67502,2.70997c1.79794,1.79578 2.7089,4.06169 2.7089,6.73468c0,3.30747 -1.61512,6.53115 -4.79743,9.57417c-5.68224,5.48634 -8.53263,8.56527 -9.99646,10.32841c3.17253,0 8.17239,0 8.17239,0c0.51804,0 2.09506,0 2.80793,-3.99641c0.13278,-0.73572 0.77164,-1.27119 1.51932,-1.27119h1.12861c0.44622,0 0.87068,0.19372 1.16346,0.53003zM276.68132,343.55321v1.12861c0,0.85218 -0.69,1.54328 -1.54218,1.54328c0,0 -2.04065,0 -3.53712,0c0,1.66843 0,4.28917 0,4.28917c0,0.54309 0,0.90223 1.27988,0.90223h1.69346c0.85218,0 1.54218,0.6911 1.54218,1.54218v1.12861c0,0.85218 -0.69,1.54328 -1.54218,1.54328h-12.41585c-0.85218,0 -1.54218,-0.6911 -1.54218,-1.54328v-1.12861c0,-0.85109 0.69,-1.54218 1.54218,-1.54218h2.06894c1.27988,0 1.27988,-0.35916 1.27988,-0.90223c0,0 0,-2.62074 0,-4.28917c-2.37696,0 -11.06195,0 -11.06195,0c-0.85218,0 -1.54218,-0.6911 -1.54218,-1.54328v-0.93924c0,-0.29168 0.08163,-0.57574 0.23725,-0.82279l13.73275,-21.82351c0.28188,-0.4484 0.7749,-0.72049 1.30493,-0.72049h1.88175c0.85218,0 1.54218,0.6911 1.54218,1.54328c0,0 0,17.43204 0,20.09196c1.49647,0 3.53712,0 3.53712,0c0.85218,0 1.54218,0.6911 1.54109,1.54218zM265.50944,331.64453c-2.44877,3.86472 -4.9868,7.87201 -6.56599,10.36649h6.56599zM300.01219,337.91012c0,3.18233 -0.60294,6.40274 -1.79142,9.57199l-0.00653,0.01743c-0.97625,2.51191 -2.09724,4.30659 -3.35755,5.42214c-1.79685,1.79794 -3.81029,2.70997 -5.98155,2.70997c-2.17125,0 -4.18361,-0.91203 -5.92278,-2.65339c-1.42139,-1.27988 -2.62944,-3.11375 -3.6035,-5.47546c-1.19282,-3.05064 -1.79794,-6.27867 -1.79794,-9.59269c0,-3.32164 0.6073,-6.49307 1.80884,-9.42942c0.95121,-2.31165 2.14078,-4.19014 3.58174,-5.63002c1.79142,-1.64015 3.78743,-2.4738 5.93365,-2.4738c2.14622,0 4.14225,0.83259 5.98155,2.52061c1.41266,1.41159 2.54783,3.31511 3.37169,5.64742c1.18303,3.29008 1.78379,6.43974 1.78379,9.36521zM293.3526,337.91012c0,-7.77298 -1.45621,-10.92917 -2.70018,-12.21232c-0.58118,-0.48541 -1.16346,-0.73137 -1.77726,-0.73137c-0.62906,0 -1.2233,0.24704 -1.73155,0.67694c-1.94706,1.94813 -2.93418,6.07515 -2.93418,12.26674c0,7.86874 1.5966,11.11527 2.84712,12.37341c0.59534,0.50934 1.18956,0.75748 1.81864,0.75748c0.62906,0 1.2233,-0.24704 1.73155,-0.67694c1.25269,-1.25159 2.7459,-4.42958 2.7459,-12.45394z" fill="#000000" stroke="#ffffff" stroke-width="5.6693"/><path d="M228.70703,321.91906v1.12861c0,0.85109 -0.6911,1.54218 -1.54328,1.54218h-0.37656c-0.22528,0 -0.82062,0 -1.38328,1.46055c0,0 -1.78815,4.61458 -2.75896,7.11886c1.31037,0 2.63816,0 2.63816,0c0.85218,0 1.54328,0.6911 1.54328,1.54328v1.12861c0,0.85109 -0.6911,1.54218 -1.54328,1.54218c0,0 -3.04628,0 -4.41106,0c-0.36023,0.89897 -0.73572,1.83494 -1.09922,2.7459c2.06025,0 5.5103,0 5.5103,0c0.85218,0 1.54328,0.6911 1.54328,1.54218v1.12861c0,0.85218 -0.6911,1.54328 -1.54328,1.54328c0,0 -3.86906,0 -5.79436,0v7.05683c0.07618,0.0087 0.15128,0.01632 0.15128,0.01632h1.50519c0.85218,0 1.54328,0.6911 1.54328,1.54218v1.12861c0,0.85218 -0.6911,1.54328 -1.54328,1.54328h-9.40657c-0.85218,0 -1.54328,-0.6911 -1.54328,-1.54328v-1.12861c0,-0.85109 0.6911,-1.54218 1.54328,-1.54218h1.50519c0,0 0.07618,-0.00762 0.15128,-0.01632v-7.05683c-1.9242,0 -5.79436,0 -5.79436,0c-0.85218,0 -1.54328,-0.6911 -1.54328,-1.54328v-1.12861c0,-0.85109 0.6911,-1.54218 1.54328,-1.54218c0,0 2.92329,0 5.08584,0c-0.49084,-1.26575 -0.76511,-1.97425 -1.0644,-2.7459c-1.32453,0 -4.02144,0 -4.02144,0c-0.85218,0 -1.54328,-0.6911 -1.54328,-1.54218v-1.12861c0,-0.85218 0.6911,-1.54328 1.54328,-1.54328c0,0 1.20588,0 2.41068,0c-1.07529,-2.6425 -3.22584,-7.92752 -3.22584,-7.92752c-0.3265,-0.65191 -0.57247,-0.65191 -0.69,-0.65191h-0.56485c-0.85109,0 -1.54218,-0.6911 -1.54218,-1.54218v-1.12861c0,-0.85218 0.6911,-1.54328 1.54218,-1.54328h8.27686c0.85109,0 1.54218,0.6911 1.54218,1.54328v1.12861c0,0.85109 -0.6911,1.54218 -1.54218,1.54218c0,0 -0.71177,0 -0.73899,0c0.02612,0.09687 0.04898,0.19156 0.10775,0.345c0,0 2.58372,6.66286 3.19321,8.23333h1.63687c0.59424,-1.58137 3.00275,-8.00586 3.00275,-8.00586c0.09143,-0.25903 0.13605,-0.43534 0.1589,-0.57028c-0.00326,-0.00109 -0.02285,-0.00217 -0.02285,-0.00217h-1.12861c-0.85218,0 -1.54328,-0.6911 -1.54328,-1.54218v-1.12861c0,-0.85218 0.6911,-1.54328 1.54328,-1.54328h7.14825c0.85218,0 1.54328,0.6911 1.54218,1.54328zM250.90493,344.98655c0.29276,0.33738 0.42554,0.7836 0.3635,1.22547l-1.12861,8.08967c-0.10556,0.76294 -0.75748,1.32996 -1.52696,1.32996h-17.49515c-0.85109,0 -1.54218,-0.6911 -1.54218,-1.54328v-2.44443c0,-0.22965 0.05115,-0.45493 0.1491,-0.66062c1.21894,-2.57393 4.21517,-6.16549 9.16169,-10.9814c3.80812,-3.69384 5.73886,-6.99154 5.73886,-9.80382c0,-2.04172 -0.46037,-3.49141 -1.429,-4.36753c-0.7096,-0.7085 -1.70652,-1.05243 -3.04844,-1.05243c-1.37784,0 -2.45749,0.36459 -3.23674,1.05243c-0.46146,0.46363 -0.67694,1.01325 -0.67694,1.73265c0,0.34284 0.09034,0.58009 0.30038,0.79123c0.66607,0.66388 1.01652,1.56394 1.01652,2.59678c0,2.1114 -1.31254,3.42393 -3.42393,3.42393c-1.17432,0 -2.1103,-0.34284 -2.78397,-1.01761c-0.79884,-0.79776 -1.20481,-1.9242 -1.20481,-3.34775c0,-2.67079 0.85,-4.87361 2.56089,-6.58449c2.1669,-2.02324 4.79961,-3.04844 7.82412,-3.04844c3.29552,0 5.87817,0.91203 7.67502,2.70997c1.79794,1.79578 2.7089,4.06169 2.7089,6.73468c0,3.30747 -1.61512,6.53115 -4.79743,9.57417c-5.68224,5.48634 -8.53263,8.56527 -9.99646,10.32841c3.17253,0 8.17239,0 8.17239,0c0.51804,0 2.09506,0 2.80793,-3.99641c0.13278,-0.73572 0.77164,-1.27119 1.51932,-1.27119h1.12861c0.44622,0 0.87068,0.19372 1.16346,0.53003zM276.68132,343.55321v1.12861c0,0.85218 -0.69,1.54328 -1.54218,1.54328c0,0 -2.04065,0 -3.53712,0c0,1.66843 0,4.28917 0,4.28917c0,0.54309 0,0.90223 1.27988,0.90223h1.69346c0.85218,0 1.54218,0.6911 1.54218,1.54218v1.12861c0,0.85218 -0.69,1.54328 -1.54218,1.54328h-12.41585c-0.85218,0 -1.54218,-0.6911 -1.54218,-1.54328v-1.12861c0,-0.85109 0.69,-1.54218 1.54218,-1.54218h2.06894c1.27988,0 1.27988,-0.35916 1.27988,-0.90223c0,0 0,-2.62074 0,-4.28917c-2.37696,0 -11.06195,0 -11.06195,0c-0.85218,0 -1.54218,-0.6911 -1.54218,-1.54328v-0.93924c0,-0.29168 0.08163,-0.57574 0.23725,-0.82279l13.73275,-21.82351c0.28188,-0.4484 0.7749,-0.72049 1.30493,-0.72049h1.88175c0.85218,0 1.54218,0.6911 1.54218,1.54328c0,0 0,17.43204 0,20.09196c1.49647,0 3.53712,0 3.53712,0c0.85218,0 1.54218,0.6911 1.54109,1.54218zM265.50944,331.64453c-2.44877,3.86472 -4.9868,7.87201 -6.56599,10.36649h6.56599zM300.01219,337.91012c0,3.18233 -0.60294,6.40274 -1.79142,9.57199l-0.00653,0.01743c-0.97625,2.51191 -2.09724,4.30659 -3.35755,5.42214c-1.79685,1.79794 -3.81029,2.70997 -5.98155,2.70997c-2.17125,0 -4.18361,-0.91203 -5.92278,-2.65339c-1.42139,-1.27988 -2.62944,-3.11375 -3.6035,-5.47546c-1.19282,-3.05064 -1.79794,-6.27867 -1.79794,-9.59269c0,-3.32164 0.6073,-6.49307 1.80884,-9.42942c0.95121,-2.31165 2.14078,-4.19014 3.58174,-5.63002c1.79142,-1.64015 3.78743,-2.4738 5.93365,-2.4738c2.14622,0 4.14225,0.83259 5.98155,2.52061c1.41266,1.41159 2.54783,3.31511 3.37169,5.64742c1.18303,3.29008 1.78379,6.43974 1.78379,9.36521zM293.3526,337.91012c0,-7.77298 -1.45621,-10.92917 -2.70018,-12.21232c-0.58118,-0.48541 -1.16346,-0.73137 -1.77726,-0.73137c-0.62906,0 -1.2233,0.24704 -1.73155,0.67694c-1.94706,1.94813 -2.93418,6.07515 -2.93418,12.26674c0,7.86874 1.5966,11.11527 2.84712,12.37341c0.59534,0.50934 1.18956,0.75748 1.81864,0.75748c0.62906,0 1.2233,-0.24704 1.73155,-0.67694c1.25269,-1.25159 2.7459,-4.42958 2.7459,-12.45394z" fill="#000000" stroke="none" stroke-width="1"/></g><g fill="#000000" stroke="#000000" stroke-width="1" stroke-linecap="round" stroke-linejoin="round"><path d="M312.61524,324.50171l11.45701,11.50056l11.45701,-11.50056l2.06352,2.04392l-11.52341,11.45919l11.52449,11.45701l-2.06352,2.045l-11.45701,-11.50163l-11.45811,11.50163l-2.04282,-2.045l11.50163,-11.45701l-11.50163,-11.45919z"/></g></g></g><g><path d="M-444.49432,344.01683c2.93418,2.93309 4.30114,5.22298 4.30114,7.20267c0,2.20825 -1.28534,3.57958 -3.35428,3.57958c-1.57593,0 -2.74481,-1.61075 -3.5861,-3.01255c-1.28751,-2.14622 -2.80903,-4.10308 -4.52208,-5.81612c-1.80338,-1.80447 -4.18034,-3.63615 -6.93277,-5.46023c-7.41924,7.20267 -15.6972,12.75976 -24.66952,16.43728l-0.20025,0.08163l-0.21441,0.02285c-0.61056,0.06857 -2.23328,0.24924 -2.79814,-1.07637c-0.09687,-0.22638 -0.14475,-0.45384 -0.14475,-0.68021c0,-0.6269 0.37003,-1.25269 1.10684,-1.86652l0.12516,-0.10449l0.14365,-0.07618c13.65438,-7.17764 23.68349,-16.49932 29.92842,-27.67989c-12.52794,1.7185 -14.95495,2.65122 -15.40988,2.92982c-0.579,0.74662 -1.36369,1.17215 -2.25397,1.17215c-0.76511,0 -1.53238,-0.43643 -3.04737,-1.73481c-1.7185,-1.48994 -3.90715,-3.70037 -3.46202,-5.89556c0.06965,-1.20044 0.73028,-1.66843 1.13733,-1.83713c0.78144,-0.32434 1.58463,-0.08163 2.38674,0.72156l0.15344,0.15237l0.1034,0.18829c0.48431,0.87177 1.09596,1.24399 2.04718,1.24399c3.49141,0 10.15101,-0.59097 19.76762,-1.75006c0.48868,-0.37982 2.5489,-1.98188 2.5489,-1.98188l0.91312,0.57138c1.26791,0.79233 2.47272,1.67606 3.50447,2.56415c1.25812,0.9436 1.52259,2.05371 1.52259,2.81883c0,0.88916 -0.57791,1.88065 -2.69584,2.12119c-2.3639,3.68623 -4.86381,7.1167 -7.43774,10.30991c4.41542,1.69129 8.1528,3.96486 11.0391,6.8544zM-424.02362,344.91473c-0.00762,0.06312 -0.00762,0.12734 -0.01197,0.19156c0.00109,0 0,0 0,0zM-385.40693,345.82674c-0.05551,-0.05551 -0.13495,-0.09143 -0.19156,-0.14475c-0.0185,-0.01306 -0.02396,-0.03591 -0.04354,-0.04898zM-422.90262,326.0809c0,0.00217 0,0.00544 0,0.00762c0.00437,-0.06312 0.00437,-0.12734 0.01197,-0.19046zM-383.36847,328.58192c0,0.64103 -0.30909,1.77946 -2.37259,2.19193c0,0 -0.11428,0.03701 -0.21659,0.06857c-0.12734,0.69219 -2.05262,11.1218 -2.41938,13.10804c1.06766,0.46146 2.02324,1.01978 2.78072,1.73481c0.84565,0.58881 1.32234,1.50083 1.32234,2.59352c0,0.99256 -0.52893,1.52152 -0.84455,1.74897c-0.96319,0.69328 -2.15384,0.29712 -2.52714,0.17197c-3.54475,-1.13406 -11.70408,-0.961 -24.17868,0.50607c-3.08982,0.51371 -3.94199,0.80756 -4.14878,0.89789c-0.68893,0.60838 -1.43118,0.93271 -2.21806,0.93271c-0.7858,0 -1.53565,-0.44296 -2.67515,-1.58353c-2.16144,-2.16037 -3.18559,-3.94527 -3.18559,-5.5658c0,-0.0936 0.0109,-0.1861 0.01743,-0.27969c0,-1.35825 0.72156,-1.85999 1.15147,-2.03739c0.78144,-0.32434 1.58463,-0.08053 2.38674,0.72156l0.1774,0.17631l0.11209,0.22421c0.32868,0.65735 0.93271,1.41159 2.69584,1.41159c0.00109,0 0.00109,0 0.00109,0c3.24763,0 5.55165,-0.07291 6.87289,-0.21985c4.52861,-0.42444 10.16188,-0.85434 16.68653,-1.27988c0.7183,-4.44588 1.33649,-9.08551 1.85453,-13.83831c-5.03905,0.39072 -18.528,1.43988 -18.62376,1.44315c-1.40071,0 -2.60224,0.19046 -3.6035,0.5409c-0.75641,0.67041 -1.40723,1.04374 -2.05699,1.04374c-0.83259,0 -1.71415,-0.39508 -2.82099,-1.28208c-2.52278,-2.1865 -3.71669,-4.00621 -3.71669,-5.67898c0,-0.08163 0.00979,-0.16107 0.01523,-0.24162v0v-0.0087c0.00437,-1.35172 0.72266,-1.85237 1.15147,-2.02977c0.78144,-0.32434 1.58463,-0.08163 2.38674,0.72156c1.43118,1.43118 2.24744,1.58572 2.5315,1.58572c0,0 6.70095,-0.22421 6.68896,-0.22312c4.40236,-0.29494 10.62986,-0.59097 18.45509,-0.88483c0.45603,-0.45493 1.94379,-1.94379 1.94379,-1.94379l0.99475,0.49738c1.57374,0.78687 2.93745,1.59006 4.01381,2.35953c0.88156,0.58771 1.36696,1.44532 1.36805,2.41721zM-322.01842,322.01593c0,1.02522 -0.7009,2.2224 -2.67515,2.2224c0,0 -0.82388,-0.10013 -1.44859,-0.17631c-3.3249,2.09181 -9.06266,5.46133 -17.09574,10.03673c-1.87958,11.82488 -8.08314,20.79067 -18.5095,26.61768l-0.15672,0.08707l-0.17304,0.04898c-0.45384,0.12952 -1.83494,0.52457 -2.7176,-0.45166c-0.30691,-0.34065 -0.74878,-1.08725 -0.271,-2.28336l0.17523,-0.4386l0.39181,-0.26556c8.91029,-6.03597 13.86444,-14.10497 14.73294,-24.06876c0.31997,-2.24091 0.02285,-3.4925 -0.93381,-3.73302c-0.53873,-0.15344 -1.97099,-0.56268 -2.04065,-1.92528c-0.02503,-0.48431 0.12842,-1.37241 1.43879,-1.8959l0.22312,-0.08924l0.23944,-0.01743c2.50319,-0.17957 4.69295,0.4669 6.50723,1.91767c0.38635,0.31018 0.63996,0.68674 0.88156,1.06766c3.50556,-2.16037 6.67809,-4.38603 9.42398,-6.66393c-7.32892,0.45819 -13.72295,1.11555 -18.93177,1.98297c-6.71074,1.15039 -7.98846,1.66081 -8.1637,1.75115c-0.87503,0.65519 -1.79468,0.98822 -2.73719,0.98822c-0.78034,0 -1.67933,-0.36896 -3.74827,-2.20716c-1.86652,-1.6804 -2.77418,-3.24109 -2.77418,-4.76912c0,-1.31254 0.58444,-1.91875 1.07419,-2.19627c0.48649,-0.27536 1.29621,-0.46472 2.39436,0.19372l0.33085,0.19809l0.19809,0.33085c0.72919,1.21568 2.84275,1.37241 4.49922,1.28968c3.55345,-0.14801 6.92949,-0.44731 10.07808,-0.89679c7.84262,-0.88809 14.75688,-1.34085 20.59258,-1.36043c0.96427,-0.50065 1.78272,-0.99802 2.38674,-1.48124l1.07746,-0.86197l3.24,3.24109c2.07331,2.07221 2.49012,2.99403 2.49122,3.80812z" fill="#000000" stroke="none" stroke-width="1" stroke-linecap="butt" stroke-linejoin="miter"/><g><g stroke-linecap="butt" stroke-linejoin="miter"><path d="M-264.47322,338.00372c0,-27.2366 22.07962,-49.31622 49.31622,-49.31622c27.2366,0 49.31622,22.07962 49.31622,49.31622c0,27.2366 -22.07962,49.31622 -49.31622,49.31622c-27.2366,0 -49.31622,-22.07962 -49.31622,-49.31622z" fill="#ffffff" stroke="none" stroke-width="1"/><g fill="#f5b229" stroke="none" stroke-width="1"><path d="M-215.157,296.28961c23.00109,0 41.71411,18.71193 41.71411,41.71411c0,23.00218 -18.71302,41.71302 -41.71411,41.71302c-23.00109,0 -41.71302,-18.71085 -41.71302,-41.71302c0,-23.00109 18.71193,-41.71411 41.71302,-41.71411zM-215.15593,372.03631c18.76634,0 34.03257,-15.26731 34.03257,-34.03257c0,-18.76743 -15.26731,-34.03257 -34.03257,-34.03257c-18.76527,0 -34.03147,15.26623 -34.03147,34.03257c0,18.76634 15.26623,34.03257 34.03147,34.03257z"/></g><path d="M-238.44978,321.91906v1.12861c0,0.85109 -0.6911,1.54218 -1.54328,1.54218h-0.37656c-0.22421,0 -0.82062,0 -1.38328,1.46055c0,0 -1.78815,4.61458 -2.75896,7.11886c1.31037,0 2.63816,0 2.63816,0c0.85218,0 1.54328,0.6911 1.54328,1.54328v1.12861c0,0.85109 -0.6911,1.54218 -1.54328,1.54218c0,0 -3.04518,0 -4.41106,0c-0.36023,0.89897 -0.73463,1.83494 -1.09922,2.7459c2.06132,0 5.5103,0 5.5103,0c0.85218,0 1.54328,0.6911 1.54328,1.54218v1.12861c0,0.85218 -0.6911,1.54328 -1.54328,1.54328c0,0 -3.86906,0 -5.79327,0v7.05683c0.0751,0.0087 0.15018,0.01632 0.15018,0.01632h1.50519c0.85218,0 1.54328,0.6911 1.54328,1.54218v1.12861c0,0.85218 -0.6911,1.54328 -1.54328,1.54328h-9.40657c-0.85109,0 -1.54218,-0.6911 -1.54218,-1.54328v-1.12861c0,-0.85109 0.6911,-1.54218 1.54218,-1.54218h1.50519c0,0 0.07618,-0.00762 0.15128,-0.01632v-7.05683c-1.9231,0 -5.79436,0 -5.79436,0c-0.85109,0 -1.54218,-0.6911 -1.54218,-1.54328v-1.12861c0,-0.85109 0.6911,-1.54218 1.54218,-1.54218c0,0 2.92329,0 5.08584,0c-0.49084,-1.26575 -0.76511,-1.97425 -1.06332,-2.7459c-1.32453,0 -4.02253,0 -4.02253,0c-0.85109,0 -1.54218,-0.6911 -1.54218,-1.54218v-1.12861c0,-0.85218 0.6911,-1.54328 1.54218,-1.54328c0,0 1.20697,0 2.41068,0c-1.07529,-2.6425 -3.22584,-7.92752 -3.22584,-7.92752c-0.3265,-0.65191 -0.57247,-0.65191 -0.69,-0.65191h-0.56485c-0.85109,0 -1.54218,-0.6911 -1.54218,-1.54218v-1.12861c0,-0.85218 0.6911,-1.54328 1.54218,-1.54328h8.27686c0.85218,0 1.54328,0.6911 1.54328,1.54328v1.12861c0,0.85109 -0.6911,1.54218 -1.54328,1.54218c0,0 -0.71069,0 -0.7379,0c0.02612,0.09687 0.04788,0.19156 0.10666,0.345c0,0 2.58372,6.66286 3.19321,8.23333h1.63795c0.59315,-1.58137 3.00166,-8.00586 3.00166,-8.00586c0.09143,-0.25903 0.13605,-0.43534 0.1589,-0.57028c-0.00217,-0.00109 -0.02285,-0.00217 -0.02285,-0.00217h-1.12861c-0.85109,0 -1.54218,-0.6911 -1.54218,-1.54218v-1.12861c0,-0.85218 0.6911,-1.54328 1.54218,-1.54328h7.14825c0.85218,0 1.54328,0.6911 1.54218,1.54328zM-217.75381,352.9576v1.12861c0,0.85218 -0.6911,1.54328 -1.54328,1.54328h-13.73275c-0.85109,0 -1.54218,-0.6911 -1.54218,-1.54328v-1.12861c0,-0.85109 0.6911,-1.54218 1.54218,-1.54218h1.69346c2.03193,0 2.03193,-0.77927 2.03193,-1.46818v-22.19899c0,0 -0.00653,-0.06312 -0.01306,-0.12188c-0.06531,-0.01306 -0.16651,-0.02722 -0.3265,-0.02722h-3.38584c-0.85109,0 -1.54218,-0.6911 -1.54218,-1.54218v-1.12861c0,-0.85218 0.6911,-1.54328 1.54218,-1.54328h1.69346c3.02342,0 3.98878,-1.22984 4.45241,-2.15711c0.2623,-0.52131 0.79666,-0.85218 1.38001,-0.85218h0.75205c0.85218,0 1.54328,0.6911 1.54328,1.54328v28.03035c0,0.68893 0,1.46818 2.03086,1.46818h1.88175c0.85218,0 1.54328,0.69 1.54218,1.54002zM-193.01135,328.54601c1.18412,3.28899 1.78489,6.43865 1.78489,9.36414c0,3.18233 -0.60187,6.40274 -1.79142,9.57199c-0.00217,0.00653 -0.00437,0.01197 -0.00653,0.01743c-0.97625,2.51191 -2.09724,4.30659 -3.35755,5.42214c-1.79685,1.79794 -3.81029,2.70997 -5.98155,2.70997c-2.17125,0 -4.18361,-0.91203 -5.92278,-2.65339c-1.42139,-1.27988 -2.62944,-3.11375 -3.60243,-5.47546c-1.19391,-3.05064 -1.79905,-6.27867 -1.79905,-9.59269c0,-3.32164 0.6073,-6.49307 1.80884,-9.42942c0.95231,-2.31165 2.14078,-4.19014 3.58284,-5.63002c1.79032,-1.64015 3.78636,-2.4738 5.93258,-2.4738c2.14622,0 4.14225,0.83259 5.98155,2.52061c1.41266,1.41159 2.54783,3.31511 3.37062,5.64852zM-197.88606,337.91012c0,-7.77298 -1.45621,-10.92917 -2.69911,-12.21232c-0.58118,-0.48541 -1.16453,-0.73137 -1.77836,-0.73137c-0.62797,0 -1.2233,0.24704 -1.73155,0.67694c-1.94706,1.94813 -2.93309,6.07515 -2.93309,12.26674c0,7.86874 1.59552,11.11527 2.84712,12.37341c0.59424,0.50934 1.18956,0.75748 1.81754,0.75748c0.62906,0 1.2233,-0.24704 1.73155,-0.67694c1.25269,-1.25159 2.7459,-4.42958 2.7459,-12.45394zM-167.14464,337.91012c0,3.18233 -0.60187,6.40274 -1.79142,9.57199c-0.00217,0.00653 -0.00437,0.01197 -0.00653,0.01743c-0.97625,2.51191 -2.09724,4.30659 -3.35755,5.42214c-1.79685,1.79794 -3.81029,2.70997 -5.98155,2.70997c-2.17125,0 -4.18361,-0.91203 -5.92278,-2.65339c-1.42139,-1.27988 -2.62944,-3.11375 -3.60243,-5.47546c-1.19391,-3.05064 -1.79905,-6.27867 -1.79905,-9.59269c0,-3.32164 0.6073,-6.49307 1.80884,-9.42942c0.95231,-2.31165 2.14078,-4.19014 3.58284,-5.63002c1.79032,-1.64015 3.78636,-2.4738 5.93258,-2.4738c2.14622,0 4.14225,0.83259 5.98155,2.52061c1.41266,1.41159 2.54783,3.31511 3.37169,5.64742c1.18412,3.29008 1.78489,6.43974 1.78379,9.36521zM-173.80422,337.91012c0,-7.77298 -1.45621,-10.92917 -2.69911,-12.21232c-0.58118,-0.48541 -1.16453,-0.73137 -1.77836,-0.73137c-0.62797,0 -1.2233,0.24704 -1.73155,0.67694c-1.94706,1.94813 -2.93309,6.07515 -2.93309,12.26674c0,7.86874 1.59552,11.11527 2.84712,12.37341c0.59424,0.50934 1.18956,0.75748 1.81754,0.75748c0.62906,0 1.2233,-0.24704 1.73155,-0.67694c1.25269,-1.25159 2.7459,-4.42958 2.7459,-12.45394z" fill="#000000" stroke="#ffffff" stroke-width="5.6693"/><path d="M-238.44978,321.91906v1.12861c0,0.85109 -0.6911,1.54218 -1.54328,1.54218h-0.37656c-0.22421,0 -0.82062,0 -1.38328,1.46055c0,0 -1.78815,4.61458 -2.75896,7.11886c1.31037,0 2.63816,0 2.63816,0c0.85218,0 1.54328,0.6911 1.54328,1.54328v1.12861c0,0.85109 -0.6911,1.54218 -1.54328,1.54218c0,0 -3.04518,0 -4.41106,0c-0.36023,0.89897 -0.73463,1.83494 -1.09922,2.7459c2.06132,0 5.5103,0 5.5103,0c0.85218,0 1.54328,0.6911 1.54328,1.54218v1.12861c0,0.85218 -0.6911,1.54328 -1.54328,1.54328c0,0 -3.86906,0 -5.79327,0v7.05683c0.0751,0.0087 0.15018,0.01632 0.15018,0.01632h1.50519c0.85218,0 1.54328,0.6911 1.54328,1.54218v1.12861c0,0.85218 -0.6911,1.54328 -1.54328,1.54328h-9.40657c-0.85109,0 -1.54218,-0.6911 -1.54218,-1.54328v-1.12861c0,-0.85109 0.6911,-1.54218 1.54218,-1.54218h1.50519c0,0 0.07618,-0.00762 0.15128,-0.01632v-7.05683c-1.9231,0 -5.79436,0 -5.79436,0c-0.85109,0 -1.54218,-0.6911 -1.54218,-1.54328v-1.12861c0,-0.85109 0.6911,-1.54218 1.54218,-1.54218c0,0 2.92329,0 5.08584,0c-0.49084,-1.26575 -0.76511,-1.97425 -1.06332,-2.7459c-1.32453,0 -4.02253,0 -4.02253,0c-0.85109,0 -1.54218,-0.6911 -1.54218,-1.54218v-1.12861c0,-0.85218 0.6911,-1.54328 1.54218,-1.54328c0,0 1.20697,0 2.41068,0c-1.07529,-2.6425 -3.22584,-7.92752 -3.22584,-7.92752c-0.3265,-0.65191 -0.57247,-0.65191 -0.69,-0.65191h-0.56485c-0.85109,0 -1.54218,-0.6911 -1.54218,-1.54218v-1.12861c0,-0.85218 0.6911,-1.54328 1.54218,-1.54328h8.27686c0.85218,0 1.54328,0.6911 1.54328,1.54328v1.12861c0,0.85109 -0.6911,1.54218 -1.54328,1.54218c0,0 -0.71069,0 -0.7379,0c0.02612,0.09687 0.04788,0.19156 0.10666,0.345c0,0 2.58372,6.66286 3.19321,8.23333h1.63795c0.59315,-1.58137 3.00166,-8.00586 3.00166,-8.00586c0.09143,-0.25903 0.13605,-0.43534 0.1589,-0.57028c-0.00217,-0.00109 -0.02285,-0.00217 -0.02285,-0.00217h-1.12861c-0.85109,0 -1.54218,-0.6911 -1.54218,-1.54218v-1.12861c0,-0.85218 0.6911,-1.54328 1.54218,-1.54328h7.14825c0.85218,0 1.54328,0.6911 1.54218,1.54328zM-217.75381,352.9576v1.12861c0,0.85218 -0.6911,1.54328 -1.54328,1.54328h-13.73275c-0.85109,0 -1.54218,-0.6911 -1.54218,-1.54328v-1.12861c0,-0.85109 0.6911,-1.54218 1.54218,-1.54218h1.69346c2.03193,0 2.03193,-0.77927 2.03193,-1.46818v-22.19899c0,0 -0.00653,-0.06312 -0.01306,-0.12188c-0.06531,-0.01306 -0.16651,-0.02722 -0.3265,-0.02722h-3.38584c-0.85109,0 -1.54218,-0.6911 -1.54218,-1.54218v-1.12861c0,-0.85218 0.6911,-1.54328 1.54218,-1.54328h1.69346c3.02342,0 3.98878,-1.22984 4.45241,-2.15711c0.2623,-0.52131 0.79666,-0.85218 1.38001,-0.85218h0.75205c0.85218,0 1.54328,0.6911 1.54328,1.54328v28.03035c0,0.68893 0,1.46818 2.03086,1.46818h1.88175c0.85218,0 1.54328,0.69 1.54218,1.54002zM-193.01135,328.54601c1.18412,3.28899 1.78489,6.43865 1.78489,9.36414c0,3.18233 -0.60187,6.40274 -1.79142,9.57199c-0.00217,0.00653 -0.00437,0.01197 -0.00653,0.01743c-0.97625,2.51191 -2.09724,4.30659 -3.35755,5.42214c-1.79685,1.79794 -3.81029,2.70997 -5.98155,2.70997c-2.17125,0 -4.18361,-0.91203 -5.92278,-2.65339c-1.42139,-1.27988 -2.62944,-3.11375 -3.60243,-5.47546c-1.19391,-3.05064 -1.79905,-6.27867 -1.79905,-9.59269c0,-3.32164 0.6073,-6.49307 1.80884,-9.42942c0.95231,-2.31165 2.14078,-4.19014 3.58284,-5.63002c1.79032,-1.64015 3.78636,-2.4738 5.93258,-2.4738c2.14622,0 4.14225,0.83259 5.98155,2.52061c1.41266,1.41159 2.54783,3.31511 3.37062,5.64852zM-197.88606,337.91012c0,-7.77298 -1.45621,-10.92917 -2.69911,-12.21232c-0.58118,-0.48541 -1.16453,-0.73137 -1.77836,-0.73137c-0.62797,0 -1.2233,0.24704 -1.73155,0.67694c-1.94706,1.94813 -2.93309,6.07515 -2.93309,12.26674c0,7.86874 1.59552,11.11527 2.84712,12.37341c0.59424,0.50934 1.18956,0.75748 1.81754,0.75748c0.62906,0 1.2233,-0.24704 1.73155,-0.67694c1.25269,-1.25159 2.7459,-4.42958 2.7459,-12.45394zM-167.14464,337.91012c0,3.18233 -0.60187,6.40274 -1.79142,9.57199c-0.00217,0.00653 -0.00437,0.01197 -0.00653,0.01743c-0.97625,2.51191 -2.09724,4.30659 -3.35755,5.42214c-1.79685,1.79794 -3.81029,2.70997 -5.98155,2.70997c-2.17125,0 -4.18361,-0.91203 -5.92278,-2.65339c-1.42139,-1.27988 -2.62944,-3.11375 -3.60243,-5.47546c-1.19391,-3.05064 -1.79905,-6.27867 -1.79905,-9.59269c0,-3.32164 0.6073,-6.49307 1.80884,-9.42942c0.95231,-2.31165 2.14078,-4.19014 3.58284,-5.63002c1.79032,-1.64015 3.78636,-2.4738 5.93258,-2.4738c2.14622,0 4.14225,0.83259 5.98155,2.52061c1.41266,1.41159 2.54783,3.31511 3.37169,5.64742c1.18412,3.29008 1.78489,6.43974 1.78379,9.36521zM-173.80422,337.91012c0,-7.77298 -1.45621,-10.92917 -2.69911,-12.21232c-0.58118,-0.48541 -1.16453,-0.73137 -1.77836,-0.73137c-0.62797,0 -1.2233,0.24704 -1.73155,0.67694c-1.94706,1.94813 -2.93309,6.07515 -2.93309,12.26674c0,7.86874 1.59552,11.11527 2.84712,12.37341c0.59424,0.50934 1.18956,0.75748 1.81754,0.75748c0.62906,0 1.2233,-0.24704 1.73155,-0.67694c1.25269,-1.25159 2.7459,-4.42958 2.7459,-12.45394z" fill="#000000" stroke="none" stroke-width="1"/></g><g fill="#000000" stroke="#000000" stroke-width="1" stroke-linecap="round" stroke-linejoin="round"><path d="M-154.5416,324.50171l11.45701,11.50056l11.45701,-11.50056l2.06459,2.04392l-11.52449,11.45811l11.52341,11.45701l-2.06459,2.045l-11.45701,-11.50163l-11.45592,11.50273l-2.04282,-2.045l11.50163,-11.45701l-11.50163,-11.45919z"/></g></g></g></g></g></g></svg>